%TF.GenerationSoftware,KiCad,Pcbnew,7.0.5-7.0.5~ubuntu23.04.1*%
%TF.CreationDate,2023-06-30T21:45:37+02:00*%
%TF.ProjectId,ESP32_UniBoard_panelized,45535033-325f-4556-9e69-426f6172645f,rev?*%
%TF.SameCoordinates,Original*%
%TF.FileFunction,Soldermask,Top*%
%TF.FilePolarity,Negative*%
%FSLAX46Y46*%
G04 Gerber Fmt 4.6, Leading zero omitted, Abs format (unit mm)*
G04 Created by KiCad (PCBNEW 7.0.5-7.0.5~ubuntu23.04.1) date 2023-06-30 21:45:37*
%MOMM*%
%LPD*%
G01*
G04 APERTURE LIST*
G04 APERTURE END LIST*
G36*
X121458525Y-92205734D02*
G01*
X121675657Y-92280275D01*
X121877558Y-92389539D01*
X122058721Y-92530544D01*
X122214205Y-92699444D01*
X122339769Y-92891633D01*
X122431986Y-93101868D01*
X122488342Y-93324414D01*
X122507300Y-93553200D01*
X122488342Y-93781986D01*
X122431986Y-94004532D01*
X122339769Y-94214767D01*
X122214205Y-94406956D01*
X122058721Y-94575856D01*
X121877558Y-94716861D01*
X121675657Y-94826125D01*
X121458525Y-94900666D01*
X121232085Y-94938452D01*
X121002515Y-94938452D01*
X120776075Y-94900666D01*
X120558943Y-94826125D01*
X120357042Y-94716861D01*
X120175879Y-94575856D01*
X120020395Y-94406956D01*
X119894831Y-94214767D01*
X119802614Y-94004532D01*
X119746258Y-93781986D01*
X119727300Y-93553200D01*
X119746258Y-93324414D01*
X119802614Y-93101868D01*
X119894831Y-92891633D01*
X120020395Y-92699444D01*
X120175879Y-92530544D01*
X120357042Y-92389539D01*
X120558943Y-92280275D01*
X120776075Y-92205734D01*
X121002515Y-92167948D01*
X121232085Y-92167948D01*
X121458525Y-92205734D01*
G37*
G36*
X107382607Y-92766245D02*
G01*
X107395584Y-92774916D01*
X107404255Y-92787893D01*
X107407300Y-92803200D01*
X107407300Y-93803200D01*
X107404255Y-93818507D01*
X107395584Y-93831484D01*
X107382607Y-93840155D01*
X107367300Y-93843200D01*
X106117300Y-93843200D01*
X106101993Y-93840155D01*
X106089016Y-93831484D01*
X106080345Y-93818507D01*
X106077300Y-93803200D01*
X106077300Y-92803200D01*
X106080345Y-92787893D01*
X106089016Y-92774916D01*
X106101993Y-92766245D01*
X106117300Y-92763200D01*
X107367300Y-92763200D01*
X107382607Y-92766245D01*
G37*
G36*
X115132607Y-92766245D02*
G01*
X115145584Y-92774916D01*
X115154255Y-92787893D01*
X115157300Y-92803200D01*
X115157300Y-93803200D01*
X115154255Y-93818507D01*
X115145584Y-93831484D01*
X115132607Y-93840155D01*
X115117300Y-93843200D01*
X113867300Y-93843200D01*
X113851993Y-93840155D01*
X113839016Y-93831484D01*
X113830345Y-93818507D01*
X113827300Y-93803200D01*
X113827300Y-92803200D01*
X113830345Y-92787893D01*
X113839016Y-92774916D01*
X113851993Y-92766245D01*
X113867300Y-92763200D01*
X115117300Y-92763200D01*
X115132607Y-92766245D01*
G37*
G36*
X128607607Y-92716245D02*
G01*
X128620584Y-92724916D01*
X128629255Y-92737893D01*
X128632300Y-92753200D01*
X128632300Y-93753200D01*
X128629255Y-93768507D01*
X128620584Y-93781484D01*
X128607607Y-93790155D01*
X128592300Y-93793200D01*
X127342300Y-93793200D01*
X127326993Y-93790155D01*
X127314016Y-93781484D01*
X127305345Y-93768507D01*
X127302300Y-93753200D01*
X127302300Y-92753200D01*
X127305345Y-92737893D01*
X127314016Y-92724916D01*
X127326993Y-92716245D01*
X127342300Y-92713200D01*
X128592300Y-92713200D01*
X128607607Y-92716245D01*
G37*
G36*
X136357607Y-92716245D02*
G01*
X136370584Y-92724916D01*
X136379255Y-92737893D01*
X136382300Y-92753200D01*
X136382300Y-93753200D01*
X136379255Y-93768507D01*
X136370584Y-93781484D01*
X136357607Y-93790155D01*
X136342300Y-93793200D01*
X135092300Y-93793200D01*
X135076993Y-93790155D01*
X135064016Y-93781484D01*
X135055345Y-93768507D01*
X135052300Y-93753200D01*
X135052300Y-92753200D01*
X135055345Y-92737893D01*
X135064016Y-92724916D01*
X135076993Y-92716245D01*
X135092300Y-92713200D01*
X136342300Y-92713200D01*
X136357607Y-92716245D01*
G37*
G36*
X106573708Y-91039474D02*
G01*
X106634671Y-91047500D01*
X106650007Y-91054651D01*
X106668711Y-91058372D01*
X106693485Y-91074925D01*
X106718853Y-91086755D01*
X106734286Y-91102188D01*
X106754683Y-91115817D01*
X106768311Y-91136213D01*
X106783744Y-91151646D01*
X106795572Y-91177012D01*
X106812128Y-91201789D01*
X106815848Y-91220494D01*
X106822999Y-91235828D01*
X106831022Y-91296778D01*
X106832300Y-91303200D01*
X106832300Y-91753200D01*
X106831022Y-91759623D01*
X106822999Y-91820571D01*
X106815849Y-91835903D01*
X106812128Y-91854611D01*
X106795570Y-91879390D01*
X106783744Y-91904753D01*
X106768313Y-91920183D01*
X106754683Y-91940583D01*
X106734283Y-91954213D01*
X106718853Y-91969644D01*
X106693490Y-91981470D01*
X106668711Y-91998028D01*
X106650003Y-92001749D01*
X106634671Y-92008899D01*
X106573723Y-92016922D01*
X106567300Y-92018200D01*
X106067300Y-92018200D01*
X106060878Y-92016922D01*
X105999928Y-92008899D01*
X105984594Y-92001748D01*
X105965889Y-91998028D01*
X105941112Y-91981472D01*
X105915746Y-91969644D01*
X105900313Y-91954211D01*
X105879917Y-91940583D01*
X105866288Y-91920186D01*
X105850855Y-91904753D01*
X105839025Y-91879385D01*
X105822472Y-91854611D01*
X105818751Y-91835907D01*
X105811600Y-91820571D01*
X105803574Y-91759608D01*
X105802300Y-91753200D01*
X105802300Y-91303200D01*
X105803574Y-91296793D01*
X105811600Y-91235828D01*
X105818752Y-91220490D01*
X105822472Y-91201789D01*
X105839024Y-91177016D01*
X105850855Y-91151646D01*
X105866290Y-91136210D01*
X105879917Y-91115817D01*
X105900310Y-91102190D01*
X105915746Y-91086755D01*
X105941116Y-91074924D01*
X105965889Y-91058372D01*
X105984590Y-91054652D01*
X105999928Y-91047500D01*
X106060893Y-91039474D01*
X106067300Y-91038200D01*
X106567300Y-91038200D01*
X106573708Y-91039474D01*
G37*
G36*
X136448708Y-90989474D02*
G01*
X136509671Y-90997500D01*
X136525007Y-91004651D01*
X136543711Y-91008372D01*
X136568485Y-91024925D01*
X136593853Y-91036755D01*
X136609286Y-91052188D01*
X136629683Y-91065817D01*
X136643311Y-91086213D01*
X136658744Y-91101646D01*
X136670572Y-91127012D01*
X136687128Y-91151789D01*
X136690848Y-91170494D01*
X136697999Y-91185828D01*
X136706022Y-91246778D01*
X136707300Y-91253200D01*
X136707300Y-91703200D01*
X136706022Y-91709623D01*
X136697999Y-91770571D01*
X136690849Y-91785903D01*
X136687128Y-91804611D01*
X136670570Y-91829390D01*
X136658744Y-91854753D01*
X136643313Y-91870183D01*
X136629683Y-91890583D01*
X136609283Y-91904213D01*
X136593853Y-91919644D01*
X136568490Y-91931470D01*
X136543711Y-91948028D01*
X136525003Y-91951749D01*
X136509671Y-91958899D01*
X136448723Y-91966922D01*
X136442300Y-91968200D01*
X135942300Y-91968200D01*
X135935878Y-91966922D01*
X135874928Y-91958899D01*
X135859594Y-91951748D01*
X135840889Y-91948028D01*
X135816112Y-91931472D01*
X135790746Y-91919644D01*
X135775313Y-91904211D01*
X135754917Y-91890583D01*
X135741288Y-91870186D01*
X135725855Y-91854753D01*
X135714025Y-91829385D01*
X135697472Y-91804611D01*
X135693751Y-91785907D01*
X135686600Y-91770571D01*
X135678574Y-91709608D01*
X135677300Y-91703200D01*
X135677300Y-91253200D01*
X135678574Y-91246793D01*
X135686600Y-91185828D01*
X135693752Y-91170490D01*
X135697472Y-91151789D01*
X135714024Y-91127016D01*
X135725855Y-91101646D01*
X135741290Y-91086210D01*
X135754917Y-91065817D01*
X135775310Y-91052190D01*
X135790746Y-91036755D01*
X135816116Y-91024924D01*
X135840889Y-91008372D01*
X135859590Y-91004652D01*
X135874928Y-90997500D01*
X135935893Y-90989474D01*
X135942300Y-90988200D01*
X136442300Y-90988200D01*
X136448708Y-90989474D01*
G37*
G36*
X106573708Y-89489474D02*
G01*
X106634671Y-89497500D01*
X106650007Y-89504651D01*
X106668711Y-89508372D01*
X106693485Y-89524925D01*
X106718853Y-89536755D01*
X106734286Y-89552188D01*
X106754683Y-89565817D01*
X106768311Y-89586213D01*
X106783744Y-89601646D01*
X106795572Y-89627012D01*
X106812128Y-89651789D01*
X106815848Y-89670494D01*
X106822999Y-89685828D01*
X106831022Y-89746778D01*
X106832300Y-89753200D01*
X106832300Y-90203200D01*
X106831022Y-90209623D01*
X106822999Y-90270571D01*
X106815849Y-90285903D01*
X106812128Y-90304611D01*
X106795570Y-90329390D01*
X106783744Y-90354753D01*
X106768313Y-90370183D01*
X106754683Y-90390583D01*
X106734283Y-90404213D01*
X106718853Y-90419644D01*
X106693490Y-90431470D01*
X106668711Y-90448028D01*
X106650003Y-90451749D01*
X106634671Y-90458899D01*
X106573723Y-90466922D01*
X106567300Y-90468200D01*
X106067300Y-90468200D01*
X106060878Y-90466922D01*
X105999928Y-90458899D01*
X105984594Y-90451748D01*
X105965889Y-90448028D01*
X105941112Y-90431472D01*
X105915746Y-90419644D01*
X105900313Y-90404211D01*
X105879917Y-90390583D01*
X105866288Y-90370186D01*
X105850855Y-90354753D01*
X105839025Y-90329385D01*
X105822472Y-90304611D01*
X105818751Y-90285907D01*
X105811600Y-90270571D01*
X105803574Y-90209608D01*
X105802300Y-90203200D01*
X105802300Y-89753200D01*
X105803574Y-89746793D01*
X105811600Y-89685828D01*
X105818752Y-89670490D01*
X105822472Y-89651789D01*
X105839024Y-89627016D01*
X105850855Y-89601646D01*
X105866290Y-89586210D01*
X105879917Y-89565817D01*
X105900310Y-89552190D01*
X105915746Y-89536755D01*
X105941116Y-89524924D01*
X105965889Y-89508372D01*
X105984590Y-89504652D01*
X105999928Y-89497500D01*
X106060893Y-89489474D01*
X106067300Y-89488200D01*
X106567300Y-89488200D01*
X106573708Y-89489474D01*
G37*
G36*
X136448708Y-89439474D02*
G01*
X136509671Y-89447500D01*
X136525007Y-89454651D01*
X136543711Y-89458372D01*
X136568485Y-89474925D01*
X136593853Y-89486755D01*
X136609286Y-89502188D01*
X136629683Y-89515817D01*
X136643311Y-89536213D01*
X136658744Y-89551646D01*
X136670572Y-89577012D01*
X136687128Y-89601789D01*
X136690848Y-89620494D01*
X136697999Y-89635828D01*
X136706022Y-89696778D01*
X136707300Y-89703200D01*
X136707300Y-90153200D01*
X136706022Y-90159623D01*
X136697999Y-90220571D01*
X136690849Y-90235903D01*
X136687128Y-90254611D01*
X136670570Y-90279390D01*
X136658744Y-90304753D01*
X136643313Y-90320183D01*
X136629683Y-90340583D01*
X136609283Y-90354213D01*
X136593853Y-90369644D01*
X136568490Y-90381470D01*
X136543711Y-90398028D01*
X136525003Y-90401749D01*
X136509671Y-90408899D01*
X136448723Y-90416922D01*
X136442300Y-90418200D01*
X135942300Y-90418200D01*
X135935878Y-90416922D01*
X135874928Y-90408899D01*
X135859594Y-90401748D01*
X135840889Y-90398028D01*
X135816112Y-90381472D01*
X135790746Y-90369644D01*
X135775313Y-90354211D01*
X135754917Y-90340583D01*
X135741288Y-90320186D01*
X135725855Y-90304753D01*
X135714025Y-90279385D01*
X135697472Y-90254611D01*
X135693751Y-90235907D01*
X135686600Y-90220571D01*
X135678574Y-90159608D01*
X135677300Y-90153200D01*
X135677300Y-89703200D01*
X135678574Y-89696793D01*
X135686600Y-89635828D01*
X135693752Y-89620490D01*
X135697472Y-89601789D01*
X135714024Y-89577016D01*
X135725855Y-89551646D01*
X135741290Y-89536210D01*
X135754917Y-89515817D01*
X135775310Y-89502190D01*
X135790746Y-89486755D01*
X135816116Y-89474924D01*
X135840889Y-89458372D01*
X135859590Y-89454652D01*
X135874928Y-89447500D01*
X135935893Y-89439474D01*
X135942300Y-89438200D01*
X136442300Y-89438200D01*
X136448708Y-89439474D01*
G37*
G36*
X89662390Y-88072415D02*
G01*
X89849983Y-88129320D01*
X90022870Y-88221730D01*
X90174407Y-88346093D01*
X90298770Y-88497630D01*
X90391180Y-88670517D01*
X90448085Y-88858110D01*
X90467300Y-89053200D01*
X90448085Y-89248290D01*
X90391180Y-89435883D01*
X90298770Y-89608770D01*
X90174407Y-89760307D01*
X90022870Y-89884670D01*
X89849983Y-89977080D01*
X89662390Y-90033985D01*
X89467300Y-90053200D01*
X89272210Y-90033985D01*
X89084617Y-89977080D01*
X88911730Y-89884670D01*
X88760193Y-89760307D01*
X88635830Y-89608770D01*
X88543420Y-89435883D01*
X88486515Y-89248290D01*
X88467300Y-89053200D01*
X88486515Y-88858110D01*
X88543420Y-88670517D01*
X88635830Y-88497630D01*
X88760193Y-88346093D01*
X88911730Y-88221730D01*
X89084617Y-88129320D01*
X89272210Y-88072415D01*
X89467300Y-88053200D01*
X89662390Y-88072415D01*
G37*
G36*
X152962390Y-88072415D02*
G01*
X153149983Y-88129320D01*
X153322870Y-88221730D01*
X153474407Y-88346093D01*
X153598770Y-88497630D01*
X153691180Y-88670517D01*
X153748085Y-88858110D01*
X153767300Y-89053200D01*
X153748085Y-89248290D01*
X153691180Y-89435883D01*
X153598770Y-89608770D01*
X153474407Y-89760307D01*
X153322870Y-89884670D01*
X153149983Y-89977080D01*
X152962390Y-90033985D01*
X152767300Y-90053200D01*
X152572210Y-90033985D01*
X152384617Y-89977080D01*
X152211730Y-89884670D01*
X152060193Y-89760307D01*
X151935830Y-89608770D01*
X151843420Y-89435883D01*
X151786515Y-89248290D01*
X151767300Y-89053200D01*
X151786515Y-88858110D01*
X151843420Y-88670517D01*
X151935830Y-88497630D01*
X152060193Y-88346093D01*
X152211730Y-88221730D01*
X152384617Y-88129320D01*
X152572210Y-88072415D01*
X152767300Y-88053200D01*
X152962390Y-88072415D01*
G37*
G36*
X108844147Y-86668605D02*
G01*
X108893218Y-86674298D01*
X108909983Y-86681700D01*
X108931944Y-86686069D01*
X108955454Y-86701778D01*
X108975242Y-86710515D01*
X108988756Y-86724029D01*
X109009806Y-86738094D01*
X109023870Y-86759143D01*
X109037384Y-86772657D01*
X109046120Y-86792443D01*
X109061831Y-86815956D01*
X109066199Y-86837918D01*
X109073601Y-86854681D01*
X109079292Y-86903742D01*
X109080100Y-86907800D01*
X109080100Y-87457800D01*
X109079292Y-87461859D01*
X109073601Y-87510918D01*
X109066199Y-87527679D01*
X109061831Y-87549644D01*
X109046119Y-87573158D01*
X109037384Y-87592942D01*
X109023872Y-87606453D01*
X109009806Y-87627506D01*
X108988753Y-87641572D01*
X108975242Y-87655084D01*
X108955458Y-87663819D01*
X108931944Y-87679531D01*
X108909979Y-87683899D01*
X108893218Y-87691301D01*
X108844159Y-87696992D01*
X108840100Y-87697800D01*
X108440100Y-87697800D01*
X108436042Y-87696992D01*
X108386981Y-87691301D01*
X108370218Y-87683899D01*
X108348256Y-87679531D01*
X108324743Y-87663820D01*
X108304957Y-87655084D01*
X108291443Y-87641570D01*
X108270394Y-87627506D01*
X108256329Y-87606456D01*
X108242815Y-87592942D01*
X108234078Y-87573154D01*
X108218369Y-87549644D01*
X108214000Y-87527683D01*
X108206598Y-87510918D01*
X108200905Y-87461847D01*
X108200100Y-87457800D01*
X108200100Y-86907800D01*
X108200904Y-86903754D01*
X108206598Y-86854681D01*
X108214001Y-86837914D01*
X108218369Y-86815956D01*
X108234076Y-86792447D01*
X108242815Y-86772657D01*
X108256331Y-86759140D01*
X108270394Y-86738094D01*
X108291440Y-86724031D01*
X108304957Y-86710515D01*
X108324747Y-86701776D01*
X108348256Y-86686069D01*
X108370214Y-86681701D01*
X108386981Y-86674298D01*
X108436054Y-86668604D01*
X108440100Y-86667800D01*
X108840100Y-86667800D01*
X108844147Y-86668605D01*
G37*
G36*
X110494147Y-86668605D02*
G01*
X110543218Y-86674298D01*
X110559983Y-86681700D01*
X110581944Y-86686069D01*
X110605454Y-86701778D01*
X110625242Y-86710515D01*
X110638756Y-86724029D01*
X110659806Y-86738094D01*
X110673870Y-86759143D01*
X110687384Y-86772657D01*
X110696120Y-86792443D01*
X110711831Y-86815956D01*
X110716199Y-86837918D01*
X110723601Y-86854681D01*
X110729292Y-86903742D01*
X110730100Y-86907800D01*
X110730100Y-87457800D01*
X110729292Y-87461859D01*
X110723601Y-87510918D01*
X110716199Y-87527679D01*
X110711831Y-87549644D01*
X110696119Y-87573158D01*
X110687384Y-87592942D01*
X110673872Y-87606453D01*
X110659806Y-87627506D01*
X110638753Y-87641572D01*
X110625242Y-87655084D01*
X110605458Y-87663819D01*
X110581944Y-87679531D01*
X110559979Y-87683899D01*
X110543218Y-87691301D01*
X110494159Y-87696992D01*
X110490100Y-87697800D01*
X110090100Y-87697800D01*
X110086042Y-87696992D01*
X110036981Y-87691301D01*
X110020218Y-87683899D01*
X109998256Y-87679531D01*
X109974743Y-87663820D01*
X109954957Y-87655084D01*
X109941443Y-87641570D01*
X109920394Y-87627506D01*
X109906329Y-87606456D01*
X109892815Y-87592942D01*
X109884078Y-87573154D01*
X109868369Y-87549644D01*
X109864000Y-87527683D01*
X109856598Y-87510918D01*
X109850905Y-87461847D01*
X109850100Y-87457800D01*
X109850100Y-86907800D01*
X109850904Y-86903754D01*
X109856598Y-86854681D01*
X109864001Y-86837914D01*
X109868369Y-86815956D01*
X109884076Y-86792447D01*
X109892815Y-86772657D01*
X109906331Y-86759140D01*
X109920394Y-86738094D01*
X109941440Y-86724031D01*
X109954957Y-86710515D01*
X109974747Y-86701776D01*
X109998256Y-86686069D01*
X110020214Y-86681701D01*
X110036981Y-86674298D01*
X110086054Y-86668604D01*
X110090100Y-86667800D01*
X110490100Y-86667800D01*
X110494147Y-86668605D01*
G37*
G36*
X115061515Y-84870737D02*
G01*
X115066182Y-84872797D01*
X115068774Y-84873139D01*
X115101209Y-84888263D01*
X115156907Y-84912857D01*
X115230643Y-84986593D01*
X115255245Y-85042312D01*
X115270360Y-85074725D01*
X115270700Y-85077314D01*
X115272763Y-85081985D01*
X115280300Y-85146950D01*
X115280300Y-86059450D01*
X115272763Y-86124415D01*
X115270700Y-86129085D01*
X115270360Y-86131674D01*
X115255253Y-86164068D01*
X115230643Y-86219807D01*
X115156907Y-86293543D01*
X115101168Y-86318153D01*
X115068774Y-86333260D01*
X115066185Y-86333600D01*
X115061515Y-86335663D01*
X114996550Y-86343200D01*
X114509050Y-86343200D01*
X114444085Y-86335663D01*
X114439414Y-86333600D01*
X114436825Y-86333260D01*
X114404412Y-86318145D01*
X114348693Y-86293543D01*
X114274957Y-86219807D01*
X114250363Y-86164109D01*
X114235239Y-86131674D01*
X114234897Y-86129082D01*
X114232837Y-86124415D01*
X114225300Y-86059450D01*
X114225300Y-85146950D01*
X114232837Y-85081985D01*
X114234897Y-85077318D01*
X114235239Y-85074725D01*
X114250372Y-85042271D01*
X114274957Y-84986593D01*
X114348693Y-84912857D01*
X114404371Y-84888272D01*
X114436825Y-84873139D01*
X114439418Y-84872797D01*
X114444085Y-84870737D01*
X114509050Y-84863200D01*
X114996550Y-84863200D01*
X115061515Y-84870737D01*
G37*
G36*
X116936515Y-84870737D02*
G01*
X116941182Y-84872797D01*
X116943774Y-84873139D01*
X116976209Y-84888263D01*
X117031907Y-84912857D01*
X117105643Y-84986593D01*
X117130245Y-85042312D01*
X117145360Y-85074725D01*
X117145700Y-85077314D01*
X117147763Y-85081985D01*
X117155300Y-85146950D01*
X117155300Y-86059450D01*
X117147763Y-86124415D01*
X117145700Y-86129085D01*
X117145360Y-86131674D01*
X117130253Y-86164068D01*
X117105643Y-86219807D01*
X117031907Y-86293543D01*
X116976168Y-86318153D01*
X116943774Y-86333260D01*
X116941185Y-86333600D01*
X116936515Y-86335663D01*
X116871550Y-86343200D01*
X116384050Y-86343200D01*
X116319085Y-86335663D01*
X116314414Y-86333600D01*
X116311825Y-86333260D01*
X116279412Y-86318145D01*
X116223693Y-86293543D01*
X116149957Y-86219807D01*
X116125363Y-86164109D01*
X116110239Y-86131674D01*
X116109897Y-86129082D01*
X116107837Y-86124415D01*
X116100300Y-86059450D01*
X116100300Y-85146950D01*
X116107837Y-85081985D01*
X116109897Y-85077318D01*
X116110239Y-85074725D01*
X116125372Y-85042271D01*
X116149957Y-84986593D01*
X116223693Y-84912857D01*
X116279371Y-84888272D01*
X116311825Y-84873139D01*
X116314418Y-84872797D01*
X116319085Y-84870737D01*
X116384050Y-84863200D01*
X116871550Y-84863200D01*
X116936515Y-84870737D01*
G37*
G36*
X123431408Y-85061274D02*
G01*
X123492371Y-85069300D01*
X123507707Y-85076451D01*
X123526411Y-85080172D01*
X123551185Y-85096725D01*
X123576553Y-85108555D01*
X123591986Y-85123988D01*
X123612383Y-85137617D01*
X123626011Y-85158013D01*
X123641444Y-85173446D01*
X123653272Y-85198812D01*
X123669828Y-85223589D01*
X123673548Y-85242294D01*
X123680699Y-85257628D01*
X123688722Y-85318578D01*
X123690000Y-85325000D01*
X123690000Y-86075000D01*
X123688722Y-86081423D01*
X123680699Y-86142371D01*
X123673549Y-86157703D01*
X123669828Y-86176411D01*
X123653270Y-86201190D01*
X123641444Y-86226553D01*
X123626013Y-86241983D01*
X123612383Y-86262383D01*
X123591983Y-86276013D01*
X123576553Y-86291444D01*
X123551190Y-86303270D01*
X123526411Y-86319828D01*
X123507703Y-86323549D01*
X123492371Y-86330699D01*
X123431423Y-86338722D01*
X123425000Y-86340000D01*
X122975000Y-86340000D01*
X122968578Y-86338722D01*
X122907628Y-86330699D01*
X122892294Y-86323548D01*
X122873589Y-86319828D01*
X122848812Y-86303272D01*
X122823446Y-86291444D01*
X122808013Y-86276011D01*
X122787617Y-86262383D01*
X122773988Y-86241986D01*
X122758555Y-86226553D01*
X122746725Y-86201185D01*
X122730172Y-86176411D01*
X122726451Y-86157707D01*
X122719300Y-86142371D01*
X122711274Y-86081408D01*
X122710000Y-86075000D01*
X122710000Y-85325000D01*
X122711274Y-85318593D01*
X122719300Y-85257628D01*
X122726452Y-85242290D01*
X122730172Y-85223589D01*
X122746724Y-85198816D01*
X122758555Y-85173446D01*
X122773990Y-85158010D01*
X122787617Y-85137617D01*
X122808010Y-85123990D01*
X122823446Y-85108555D01*
X122848816Y-85096724D01*
X122873589Y-85080172D01*
X122892290Y-85076452D01*
X122907628Y-85069300D01*
X122968593Y-85061274D01*
X122975000Y-85060000D01*
X123425000Y-85060000D01*
X123431408Y-85061274D01*
G37*
G36*
X126731408Y-85061274D02*
G01*
X126792371Y-85069300D01*
X126807707Y-85076451D01*
X126826411Y-85080172D01*
X126851185Y-85096725D01*
X126876553Y-85108555D01*
X126891986Y-85123988D01*
X126912383Y-85137617D01*
X126926011Y-85158013D01*
X126941444Y-85173446D01*
X126953272Y-85198812D01*
X126969828Y-85223589D01*
X126973548Y-85242294D01*
X126980699Y-85257628D01*
X126988722Y-85318578D01*
X126990000Y-85325000D01*
X126990000Y-86075000D01*
X126988722Y-86081423D01*
X126980699Y-86142371D01*
X126973549Y-86157703D01*
X126969828Y-86176411D01*
X126953270Y-86201190D01*
X126941444Y-86226553D01*
X126926013Y-86241983D01*
X126912383Y-86262383D01*
X126891983Y-86276013D01*
X126876553Y-86291444D01*
X126851190Y-86303270D01*
X126826411Y-86319828D01*
X126807703Y-86323549D01*
X126792371Y-86330699D01*
X126731423Y-86338722D01*
X126725000Y-86340000D01*
X126275000Y-86340000D01*
X126268578Y-86338722D01*
X126207628Y-86330699D01*
X126192294Y-86323548D01*
X126173589Y-86319828D01*
X126148812Y-86303272D01*
X126123446Y-86291444D01*
X126108013Y-86276011D01*
X126087617Y-86262383D01*
X126073988Y-86241986D01*
X126058555Y-86226553D01*
X126046725Y-86201185D01*
X126030172Y-86176411D01*
X126026451Y-86157707D01*
X126019300Y-86142371D01*
X126011274Y-86081408D01*
X126010000Y-86075000D01*
X126010000Y-85325000D01*
X126011274Y-85318593D01*
X126019300Y-85257628D01*
X126026452Y-85242290D01*
X126030172Y-85223589D01*
X126046724Y-85198816D01*
X126058555Y-85173446D01*
X126073990Y-85158010D01*
X126087617Y-85137617D01*
X126108010Y-85123990D01*
X126123446Y-85108555D01*
X126148816Y-85096724D01*
X126173589Y-85080172D01*
X126192290Y-85076452D01*
X126207628Y-85069300D01*
X126268593Y-85061274D01*
X126275000Y-85060000D01*
X126725000Y-85060000D01*
X126731408Y-85061274D01*
G37*
G36*
X107203030Y-84788230D02*
G01*
X107237240Y-84797815D01*
X107269149Y-84802016D01*
X107304509Y-84816662D01*
X107344637Y-84827906D01*
X107372374Y-84844773D01*
X107399284Y-84855920D01*
X107432057Y-84881068D01*
X107470287Y-84904316D01*
X107490346Y-84925794D01*
X107511032Y-84941667D01*
X107538026Y-84976846D01*
X107570664Y-85011793D01*
X107582772Y-85035161D01*
X107596779Y-85053415D01*
X107614903Y-85097171D01*
X107638321Y-85142365D01*
X107643050Y-85165122D01*
X107650683Y-85183550D01*
X107657259Y-85233500D01*
X107668241Y-85286349D01*
X107666864Y-85306465D01*
X107669068Y-85323199D01*
X107662099Y-85376129D01*
X107658205Y-85433066D01*
X107652485Y-85449160D01*
X107650683Y-85462849D01*
X107629112Y-85514924D01*
X107608958Y-85571635D01*
X107600885Y-85583070D01*
X107596780Y-85592983D01*
X107560684Y-85640023D01*
X107524151Y-85691779D01*
X107515685Y-85698666D01*
X107511030Y-85704733D01*
X107461719Y-85742570D01*
X107410075Y-85784586D01*
X107402905Y-85787700D01*
X107399284Y-85790479D01*
X107339433Y-85815270D01*
X107275190Y-85843175D01*
X107270513Y-85843817D01*
X107269149Y-85844383D01*
X107203943Y-85852967D01*
X107129500Y-85863200D01*
X107126225Y-85863200D01*
X106332775Y-85863200D01*
X106329500Y-85863200D01*
X106255970Y-85858170D01*
X106221754Y-85848583D01*
X106189850Y-85844383D01*
X106154494Y-85829738D01*
X106114363Y-85818494D01*
X106086622Y-85801624D01*
X106059715Y-85790479D01*
X106026943Y-85765332D01*
X105988713Y-85742084D01*
X105968652Y-85720604D01*
X105947967Y-85704732D01*
X105920972Y-85669552D01*
X105888336Y-85634607D01*
X105876228Y-85611239D01*
X105862220Y-85592984D01*
X105844093Y-85549222D01*
X105820679Y-85504035D01*
X105815950Y-85481280D01*
X105808316Y-85462849D01*
X105801738Y-85412887D01*
X105790759Y-85360051D01*
X105792134Y-85339939D01*
X105789931Y-85323200D01*
X105796901Y-85270252D01*
X105800795Y-85213334D01*
X105806513Y-85197244D01*
X105808316Y-85183550D01*
X105829895Y-85131451D01*
X105850042Y-85074765D01*
X105858110Y-85063334D01*
X105862219Y-85053416D01*
X105898336Y-85006348D01*
X105934849Y-84954621D01*
X105943310Y-84947737D01*
X105947969Y-84941666D01*
X105997318Y-84903798D01*
X106048925Y-84861814D01*
X106056089Y-84858702D01*
X106059715Y-84855920D01*
X106119637Y-84831099D01*
X106183810Y-84803225D01*
X106188481Y-84802582D01*
X106189850Y-84802016D01*
X106255162Y-84793417D01*
X106329500Y-84783200D01*
X107129500Y-84783200D01*
X107203030Y-84788230D01*
G37*
G36*
X111553030Y-84788230D02*
G01*
X111587240Y-84797815D01*
X111619149Y-84802016D01*
X111654509Y-84816662D01*
X111694637Y-84827906D01*
X111722374Y-84844773D01*
X111749284Y-84855920D01*
X111782057Y-84881068D01*
X111820287Y-84904316D01*
X111840346Y-84925794D01*
X111861032Y-84941667D01*
X111888026Y-84976846D01*
X111920664Y-85011793D01*
X111932772Y-85035161D01*
X111946779Y-85053415D01*
X111964903Y-85097171D01*
X111988321Y-85142365D01*
X111993050Y-85165122D01*
X112000683Y-85183550D01*
X112007258Y-85233500D01*
X112018241Y-85286349D01*
X112016864Y-85306465D01*
X112019068Y-85323200D01*
X112012099Y-85376130D01*
X112008205Y-85433066D01*
X112002485Y-85449160D01*
X112000683Y-85462849D01*
X111979112Y-85514924D01*
X111958958Y-85571635D01*
X111950885Y-85583070D01*
X111946780Y-85592983D01*
X111910684Y-85640023D01*
X111874151Y-85691779D01*
X111865685Y-85698666D01*
X111861030Y-85704733D01*
X111811719Y-85742570D01*
X111760075Y-85784586D01*
X111752905Y-85787700D01*
X111749284Y-85790479D01*
X111689433Y-85815270D01*
X111625190Y-85843175D01*
X111620513Y-85843817D01*
X111619149Y-85844383D01*
X111553943Y-85852967D01*
X111479500Y-85863200D01*
X111476225Y-85863200D01*
X110382775Y-85863200D01*
X110379500Y-85863200D01*
X110305970Y-85858170D01*
X110271754Y-85848583D01*
X110239850Y-85844383D01*
X110204494Y-85829738D01*
X110164363Y-85818494D01*
X110136622Y-85801624D01*
X110109715Y-85790479D01*
X110076943Y-85765332D01*
X110038713Y-85742084D01*
X110018652Y-85720604D01*
X109997967Y-85704732D01*
X109970972Y-85669552D01*
X109938336Y-85634607D01*
X109926228Y-85611239D01*
X109912220Y-85592984D01*
X109894093Y-85549222D01*
X109870679Y-85504035D01*
X109865950Y-85481280D01*
X109858316Y-85462849D01*
X109851738Y-85412887D01*
X109840759Y-85360051D01*
X109842134Y-85339939D01*
X109839931Y-85323200D01*
X109846901Y-85270252D01*
X109850795Y-85213334D01*
X109856513Y-85197244D01*
X109858316Y-85183550D01*
X109879895Y-85131451D01*
X109900042Y-85074765D01*
X109908110Y-85063334D01*
X109912219Y-85053416D01*
X109948336Y-85006348D01*
X109984849Y-84954621D01*
X109993310Y-84947737D01*
X109997969Y-84941666D01*
X110047318Y-84903798D01*
X110098925Y-84861814D01*
X110106089Y-84858702D01*
X110109715Y-84855920D01*
X110169637Y-84831099D01*
X110233810Y-84803225D01*
X110238481Y-84802582D01*
X110239850Y-84802016D01*
X110305162Y-84793417D01*
X110379500Y-84783200D01*
X111479500Y-84783200D01*
X111553030Y-84788230D01*
G37*
G36*
X112164807Y-83866245D02*
G01*
X112177784Y-83874916D01*
X112186455Y-83887893D01*
X112189500Y-83903200D01*
X112189500Y-84503200D01*
X112186455Y-84518507D01*
X112177784Y-84531484D01*
X112164807Y-84540155D01*
X112149500Y-84543200D01*
X110909500Y-84543200D01*
X110894193Y-84540155D01*
X110881216Y-84531484D01*
X110872545Y-84518507D01*
X110869500Y-84503200D01*
X110869500Y-83903200D01*
X110872545Y-83887893D01*
X110881216Y-83874916D01*
X110894193Y-83866245D01*
X110909500Y-83863200D01*
X112149500Y-83863200D01*
X112164807Y-83866245D01*
G37*
G36*
X110522291Y-83546064D02*
G01*
X110624042Y-83597909D01*
X110704791Y-83678658D01*
X110756636Y-83780409D01*
X110774500Y-83893200D01*
X110756636Y-84005991D01*
X110704791Y-84107742D01*
X110624042Y-84188491D01*
X110522291Y-84240336D01*
X110409500Y-84258200D01*
X110296709Y-84240336D01*
X110194958Y-84188491D01*
X110114209Y-84107742D01*
X110062364Y-84005991D01*
X110044500Y-83893200D01*
X110062364Y-83780409D01*
X110114209Y-83678658D01*
X110194958Y-83597909D01*
X110296709Y-83546064D01*
X110409500Y-83528200D01*
X110522291Y-83546064D01*
G37*
G36*
X114940308Y-83089474D02*
G01*
X115001271Y-83097500D01*
X115016607Y-83104651D01*
X115035311Y-83108372D01*
X115060085Y-83124925D01*
X115085453Y-83136755D01*
X115100886Y-83152188D01*
X115121283Y-83165817D01*
X115134911Y-83186213D01*
X115150344Y-83201646D01*
X115162172Y-83227012D01*
X115178728Y-83251789D01*
X115182448Y-83270494D01*
X115189599Y-83285828D01*
X115197622Y-83346778D01*
X115198900Y-83353200D01*
X115198900Y-83853200D01*
X115197622Y-83859623D01*
X115189599Y-83920571D01*
X115182449Y-83935903D01*
X115178728Y-83954611D01*
X115162170Y-83979390D01*
X115150344Y-84004753D01*
X115134913Y-84020183D01*
X115121283Y-84040583D01*
X115100883Y-84054213D01*
X115085453Y-84069644D01*
X115060090Y-84081470D01*
X115035311Y-84098028D01*
X115016603Y-84101749D01*
X115001271Y-84108899D01*
X114940323Y-84116922D01*
X114933900Y-84118200D01*
X114483900Y-84118200D01*
X114477478Y-84116922D01*
X114416528Y-84108899D01*
X114401194Y-84101748D01*
X114382489Y-84098028D01*
X114357712Y-84081472D01*
X114332346Y-84069644D01*
X114316913Y-84054211D01*
X114296517Y-84040583D01*
X114282888Y-84020186D01*
X114267455Y-84004753D01*
X114255625Y-83979385D01*
X114239072Y-83954611D01*
X114235351Y-83935907D01*
X114228200Y-83920571D01*
X114220174Y-83859608D01*
X114218900Y-83853200D01*
X114218900Y-83353200D01*
X114220174Y-83346793D01*
X114228200Y-83285828D01*
X114235352Y-83270490D01*
X114239072Y-83251789D01*
X114255624Y-83227016D01*
X114267455Y-83201646D01*
X114282890Y-83186210D01*
X114296517Y-83165817D01*
X114316910Y-83152190D01*
X114332346Y-83136755D01*
X114357716Y-83124924D01*
X114382489Y-83108372D01*
X114401190Y-83104652D01*
X114416528Y-83097500D01*
X114477493Y-83089474D01*
X114483900Y-83088200D01*
X114933900Y-83088200D01*
X114940308Y-83089474D01*
G37*
G36*
X116490308Y-83089474D02*
G01*
X116551271Y-83097500D01*
X116566607Y-83104651D01*
X116585311Y-83108372D01*
X116610085Y-83124925D01*
X116635453Y-83136755D01*
X116650886Y-83152188D01*
X116671283Y-83165817D01*
X116684911Y-83186213D01*
X116700344Y-83201646D01*
X116712172Y-83227012D01*
X116728728Y-83251789D01*
X116732448Y-83270494D01*
X116739599Y-83285828D01*
X116747622Y-83346778D01*
X116748900Y-83353200D01*
X116748900Y-83853200D01*
X116747622Y-83859623D01*
X116739599Y-83920571D01*
X116732449Y-83935903D01*
X116728728Y-83954611D01*
X116712170Y-83979390D01*
X116700344Y-84004753D01*
X116684913Y-84020183D01*
X116671283Y-84040583D01*
X116650883Y-84054213D01*
X116635453Y-84069644D01*
X116610090Y-84081470D01*
X116585311Y-84098028D01*
X116566603Y-84101749D01*
X116551271Y-84108899D01*
X116490323Y-84116922D01*
X116483900Y-84118200D01*
X116033900Y-84118200D01*
X116027478Y-84116922D01*
X115966528Y-84108899D01*
X115951194Y-84101748D01*
X115932489Y-84098028D01*
X115907712Y-84081472D01*
X115882346Y-84069644D01*
X115866913Y-84054211D01*
X115846517Y-84040583D01*
X115832888Y-84020186D01*
X115817455Y-84004753D01*
X115805625Y-83979385D01*
X115789072Y-83954611D01*
X115785351Y-83935907D01*
X115778200Y-83920571D01*
X115770174Y-83859608D01*
X115768900Y-83853200D01*
X115768900Y-83353200D01*
X115770174Y-83346793D01*
X115778200Y-83285828D01*
X115785352Y-83270490D01*
X115789072Y-83251789D01*
X115805624Y-83227016D01*
X115817455Y-83201646D01*
X115832890Y-83186210D01*
X115846517Y-83165817D01*
X115866910Y-83152190D01*
X115882346Y-83136755D01*
X115907716Y-83124924D01*
X115932489Y-83108372D01*
X115951190Y-83104652D01*
X115966528Y-83097500D01*
X116027493Y-83089474D01*
X116033900Y-83088200D01*
X116483900Y-83088200D01*
X116490308Y-83089474D01*
G37*
G36*
X125186208Y-83089474D02*
G01*
X125247171Y-83097500D01*
X125262507Y-83104651D01*
X125281211Y-83108372D01*
X125305985Y-83124925D01*
X125331353Y-83136755D01*
X125346786Y-83152188D01*
X125367183Y-83165817D01*
X125380811Y-83186213D01*
X125396244Y-83201646D01*
X125408072Y-83227012D01*
X125424628Y-83251789D01*
X125428348Y-83270494D01*
X125435499Y-83285828D01*
X125443522Y-83346778D01*
X125444800Y-83353200D01*
X125444800Y-83853200D01*
X125443522Y-83859623D01*
X125435499Y-83920571D01*
X125428349Y-83935903D01*
X125424628Y-83954611D01*
X125408070Y-83979390D01*
X125396244Y-84004753D01*
X125380813Y-84020183D01*
X125367183Y-84040583D01*
X125346783Y-84054213D01*
X125331353Y-84069644D01*
X125305990Y-84081470D01*
X125281211Y-84098028D01*
X125262503Y-84101749D01*
X125247171Y-84108899D01*
X125186223Y-84116922D01*
X125179800Y-84118200D01*
X124729800Y-84118200D01*
X124723378Y-84116922D01*
X124662428Y-84108899D01*
X124647094Y-84101748D01*
X124628389Y-84098028D01*
X124603612Y-84081472D01*
X124578246Y-84069644D01*
X124562813Y-84054211D01*
X124542417Y-84040583D01*
X124528788Y-84020186D01*
X124513355Y-84004753D01*
X124501525Y-83979385D01*
X124484972Y-83954611D01*
X124481251Y-83935907D01*
X124474100Y-83920571D01*
X124466074Y-83859608D01*
X124464800Y-83853200D01*
X124464800Y-83353200D01*
X124466074Y-83346793D01*
X124474100Y-83285828D01*
X124481252Y-83270490D01*
X124484972Y-83251789D01*
X124501524Y-83227016D01*
X124513355Y-83201646D01*
X124528790Y-83186210D01*
X124542417Y-83165817D01*
X124562810Y-83152190D01*
X124578246Y-83136755D01*
X124603616Y-83124924D01*
X124628389Y-83108372D01*
X124647090Y-83104652D01*
X124662428Y-83097500D01*
X124723393Y-83089474D01*
X124729800Y-83088200D01*
X125179800Y-83088200D01*
X125186208Y-83089474D01*
G37*
G36*
X126736208Y-83089474D02*
G01*
X126797171Y-83097500D01*
X126812507Y-83104651D01*
X126831211Y-83108372D01*
X126855985Y-83124925D01*
X126881353Y-83136755D01*
X126896786Y-83152188D01*
X126917183Y-83165817D01*
X126930811Y-83186213D01*
X126946244Y-83201646D01*
X126958072Y-83227012D01*
X126974628Y-83251789D01*
X126978348Y-83270494D01*
X126985499Y-83285828D01*
X126993522Y-83346778D01*
X126994800Y-83353200D01*
X126994800Y-83853200D01*
X126993522Y-83859623D01*
X126985499Y-83920571D01*
X126978349Y-83935903D01*
X126974628Y-83954611D01*
X126958070Y-83979390D01*
X126946244Y-84004753D01*
X126930813Y-84020183D01*
X126917183Y-84040583D01*
X126896783Y-84054213D01*
X126881353Y-84069644D01*
X126855990Y-84081470D01*
X126831211Y-84098028D01*
X126812503Y-84101749D01*
X126797171Y-84108899D01*
X126736223Y-84116922D01*
X126729800Y-84118200D01*
X126279800Y-84118200D01*
X126273378Y-84116922D01*
X126212428Y-84108899D01*
X126197094Y-84101748D01*
X126178389Y-84098028D01*
X126153612Y-84081472D01*
X126128246Y-84069644D01*
X126112813Y-84054211D01*
X126092417Y-84040583D01*
X126078788Y-84020186D01*
X126063355Y-84004753D01*
X126051525Y-83979385D01*
X126034972Y-83954611D01*
X126031251Y-83935907D01*
X126024100Y-83920571D01*
X126016074Y-83859608D01*
X126014800Y-83853200D01*
X126014800Y-83353200D01*
X126016074Y-83346793D01*
X126024100Y-83285828D01*
X126031252Y-83270490D01*
X126034972Y-83251789D01*
X126051524Y-83227016D01*
X126063355Y-83201646D01*
X126078790Y-83186210D01*
X126092417Y-83165817D01*
X126112810Y-83152190D01*
X126128246Y-83136755D01*
X126153616Y-83124924D01*
X126178389Y-83108372D01*
X126197090Y-83104652D01*
X126212428Y-83097500D01*
X126273393Y-83089474D01*
X126279800Y-83088200D01*
X126729800Y-83088200D01*
X126736208Y-83089474D01*
G37*
G36*
X112164807Y-83066245D02*
G01*
X112177784Y-83074916D01*
X112186455Y-83087893D01*
X112189500Y-83103200D01*
X112189500Y-83703200D01*
X112186455Y-83718507D01*
X112177784Y-83731484D01*
X112164807Y-83740155D01*
X112149500Y-83743200D01*
X110909500Y-83743200D01*
X110894193Y-83740155D01*
X110881216Y-83731484D01*
X110872545Y-83718507D01*
X110869500Y-83703200D01*
X110869500Y-83103200D01*
X110872545Y-83087893D01*
X110881216Y-83074916D01*
X110894193Y-83066245D01*
X110909500Y-83063200D01*
X112149500Y-83063200D01*
X112164807Y-83066245D01*
G37*
G36*
X112164807Y-82566245D02*
G01*
X112177784Y-82574916D01*
X112186455Y-82587893D01*
X112189500Y-82603200D01*
X112189500Y-82903200D01*
X112186455Y-82918507D01*
X112177784Y-82931484D01*
X112164807Y-82940155D01*
X112149500Y-82943200D01*
X110909500Y-82943200D01*
X110894193Y-82940155D01*
X110881216Y-82931484D01*
X110872545Y-82918507D01*
X110869500Y-82903200D01*
X110869500Y-82603200D01*
X110872545Y-82587893D01*
X110881216Y-82574916D01*
X110894193Y-82566245D01*
X110909500Y-82563200D01*
X112149500Y-82563200D01*
X112164807Y-82566245D01*
G37*
G36*
X112164807Y-82066245D02*
G01*
X112177784Y-82074916D01*
X112186455Y-82087893D01*
X112189500Y-82103200D01*
X112189500Y-82403200D01*
X112186455Y-82418507D01*
X112177784Y-82431484D01*
X112164807Y-82440155D01*
X112149500Y-82443200D01*
X110909500Y-82443200D01*
X110894193Y-82440155D01*
X110881216Y-82431484D01*
X110872545Y-82418507D01*
X110869500Y-82403200D01*
X110869500Y-82103200D01*
X110872545Y-82087893D01*
X110881216Y-82074916D01*
X110894193Y-82066245D01*
X110909500Y-82063200D01*
X112149500Y-82063200D01*
X112164807Y-82066245D01*
G37*
G36*
X124195107Y-80216245D02*
G01*
X124208084Y-80224916D01*
X124216755Y-80237893D01*
X124219800Y-80253200D01*
X124219800Y-82253200D01*
X124216755Y-82268507D01*
X124208084Y-82281484D01*
X124195107Y-82290155D01*
X124179800Y-82293200D01*
X122679800Y-82293200D01*
X122664493Y-82290155D01*
X122651516Y-82281484D01*
X122642845Y-82268507D01*
X122639800Y-82253200D01*
X122639800Y-80253200D01*
X122642845Y-80237893D01*
X122651516Y-80224916D01*
X122664493Y-80216245D01*
X122679800Y-80213200D01*
X124179800Y-80213200D01*
X124195107Y-80216245D01*
G37*
G36*
X126495107Y-80216245D02*
G01*
X126508084Y-80224916D01*
X126516755Y-80237893D01*
X126519800Y-80253200D01*
X126519800Y-82253200D01*
X126516755Y-82268507D01*
X126508084Y-82281484D01*
X126495107Y-82290155D01*
X126479800Y-82293200D01*
X124979800Y-82293200D01*
X124964493Y-82290155D01*
X124951516Y-82281484D01*
X124942845Y-82268507D01*
X124939800Y-82253200D01*
X124939800Y-80253200D01*
X124942845Y-80237893D01*
X124951516Y-80224916D01*
X124964493Y-80216245D01*
X124979800Y-80213200D01*
X126479800Y-80213200D01*
X126495107Y-80216245D01*
G37*
G36*
X128795107Y-80216245D02*
G01*
X128808084Y-80224916D01*
X128816755Y-80237893D01*
X128819800Y-80253200D01*
X128819800Y-82253200D01*
X128816755Y-82268507D01*
X128808084Y-82281484D01*
X128795107Y-82290155D01*
X128779800Y-82293200D01*
X127279800Y-82293200D01*
X127264493Y-82290155D01*
X127251516Y-82281484D01*
X127242845Y-82268507D01*
X127239800Y-82253200D01*
X127239800Y-80253200D01*
X127242845Y-80237893D01*
X127251516Y-80224916D01*
X127264493Y-80216245D01*
X127279800Y-80213200D01*
X128779800Y-80213200D01*
X128795107Y-80216245D01*
G37*
G36*
X115338010Y-81577663D02*
G01*
X115399650Y-81618850D01*
X115440837Y-81680490D01*
X115455300Y-81753200D01*
X115455300Y-82053200D01*
X115440837Y-82125910D01*
X115399650Y-82187550D01*
X115338010Y-82228737D01*
X115265300Y-82243200D01*
X114240300Y-82243200D01*
X114167590Y-82228737D01*
X114105950Y-82187550D01*
X114064763Y-82125910D01*
X114050300Y-82053200D01*
X114050300Y-81753200D01*
X114064763Y-81680490D01*
X114105950Y-81618850D01*
X114167590Y-81577663D01*
X114240300Y-81563200D01*
X115265300Y-81563200D01*
X115338010Y-81577663D01*
G37*
G36*
X117613010Y-81577663D02*
G01*
X117674650Y-81618850D01*
X117715837Y-81680490D01*
X117730300Y-81753200D01*
X117730300Y-82053200D01*
X117715837Y-82125910D01*
X117674650Y-82187550D01*
X117613010Y-82228737D01*
X117540300Y-82243200D01*
X116515300Y-82243200D01*
X116442590Y-82228737D01*
X116380950Y-82187550D01*
X116339763Y-82125910D01*
X116325300Y-82053200D01*
X116325300Y-81753200D01*
X116339763Y-81680490D01*
X116380950Y-81618850D01*
X116442590Y-81577663D01*
X116515300Y-81563200D01*
X117540300Y-81563200D01*
X117613010Y-81577663D01*
G37*
G36*
X112164807Y-81566245D02*
G01*
X112177784Y-81574916D01*
X112186455Y-81587893D01*
X112189500Y-81603200D01*
X112189500Y-81903200D01*
X112186455Y-81918507D01*
X112177784Y-81931484D01*
X112164807Y-81940155D01*
X112149500Y-81943200D01*
X110909500Y-81943200D01*
X110894193Y-81940155D01*
X110881216Y-81931484D01*
X110872545Y-81918507D01*
X110869500Y-81903200D01*
X110869500Y-81603200D01*
X110872545Y-81587893D01*
X110881216Y-81574916D01*
X110894193Y-81566245D01*
X110909500Y-81563200D01*
X112149500Y-81563200D01*
X112164807Y-81566245D01*
G37*
G36*
X112164807Y-81066245D02*
G01*
X112177784Y-81074916D01*
X112186455Y-81087893D01*
X112189500Y-81103200D01*
X112189500Y-81403200D01*
X112186455Y-81418507D01*
X112177784Y-81431484D01*
X112164807Y-81440155D01*
X112149500Y-81443200D01*
X110909500Y-81443200D01*
X110894193Y-81440155D01*
X110881216Y-81431484D01*
X110872545Y-81418507D01*
X110869500Y-81403200D01*
X110869500Y-81103200D01*
X110872545Y-81087893D01*
X110881216Y-81074916D01*
X110894193Y-81066245D01*
X110909500Y-81063200D01*
X112149500Y-81063200D01*
X112164807Y-81066245D01*
G37*
G36*
X115338010Y-80627663D02*
G01*
X115399650Y-80668850D01*
X115440837Y-80730490D01*
X115455300Y-80803200D01*
X115455300Y-81103200D01*
X115440837Y-81175910D01*
X115399650Y-81237550D01*
X115338010Y-81278737D01*
X115265300Y-81293200D01*
X114240300Y-81293200D01*
X114167590Y-81278737D01*
X114105950Y-81237550D01*
X114064763Y-81175910D01*
X114050300Y-81103200D01*
X114050300Y-80803200D01*
X114064763Y-80730490D01*
X114105950Y-80668850D01*
X114167590Y-80627663D01*
X114240300Y-80613200D01*
X115265300Y-80613200D01*
X115338010Y-80627663D01*
G37*
G36*
X117613010Y-80627663D02*
G01*
X117674650Y-80668850D01*
X117715837Y-80730490D01*
X117730300Y-80803200D01*
X117730300Y-81103200D01*
X117715837Y-81175910D01*
X117674650Y-81237550D01*
X117613010Y-81278737D01*
X117540300Y-81293200D01*
X116515300Y-81293200D01*
X116442590Y-81278737D01*
X116380950Y-81237550D01*
X116339763Y-81175910D01*
X116325300Y-81103200D01*
X116325300Y-80803200D01*
X116339763Y-80730490D01*
X116380950Y-80668850D01*
X116442590Y-80627663D01*
X116515300Y-80613200D01*
X117540300Y-80613200D01*
X117613010Y-80627663D01*
G37*
G36*
X112164807Y-80566245D02*
G01*
X112177784Y-80574916D01*
X112186455Y-80587893D01*
X112189500Y-80603200D01*
X112189500Y-80903200D01*
X112186455Y-80918507D01*
X112177784Y-80931484D01*
X112164807Y-80940155D01*
X112149500Y-80943200D01*
X110909500Y-80943200D01*
X110894193Y-80940155D01*
X110881216Y-80931484D01*
X110872545Y-80918507D01*
X110869500Y-80903200D01*
X110869500Y-80603200D01*
X110872545Y-80587893D01*
X110881216Y-80574916D01*
X110894193Y-80566245D01*
X110909500Y-80563200D01*
X112149500Y-80563200D01*
X112164807Y-80566245D01*
G37*
G36*
X112164807Y-80066245D02*
G01*
X112177784Y-80074916D01*
X112186455Y-80087893D01*
X112189500Y-80103200D01*
X112189500Y-80403200D01*
X112186455Y-80418507D01*
X112177784Y-80431484D01*
X112164807Y-80440155D01*
X112149500Y-80443200D01*
X110909500Y-80443200D01*
X110894193Y-80440155D01*
X110881216Y-80431484D01*
X110872545Y-80418507D01*
X110869500Y-80403200D01*
X110869500Y-80103200D01*
X110872545Y-80087893D01*
X110881216Y-80074916D01*
X110894193Y-80066245D01*
X110909500Y-80063200D01*
X112149500Y-80063200D01*
X112164807Y-80066245D01*
G37*
G36*
X115338010Y-79677663D02*
G01*
X115399650Y-79718850D01*
X115440837Y-79780490D01*
X115455300Y-79853200D01*
X115455300Y-80153200D01*
X115440837Y-80225910D01*
X115399650Y-80287550D01*
X115338010Y-80328737D01*
X115265300Y-80343200D01*
X114240300Y-80343200D01*
X114167590Y-80328737D01*
X114105950Y-80287550D01*
X114064763Y-80225910D01*
X114050300Y-80153200D01*
X114050300Y-79853200D01*
X114064763Y-79780490D01*
X114105950Y-79718850D01*
X114167590Y-79677663D01*
X114240300Y-79663200D01*
X115265300Y-79663200D01*
X115338010Y-79677663D01*
G37*
G36*
X117613010Y-79677663D02*
G01*
X117674650Y-79718850D01*
X117715837Y-79780490D01*
X117730300Y-79853200D01*
X117730300Y-80153200D01*
X117715837Y-80225910D01*
X117674650Y-80287550D01*
X117613010Y-80328737D01*
X117540300Y-80343200D01*
X116515300Y-80343200D01*
X116442590Y-80328737D01*
X116380950Y-80287550D01*
X116339763Y-80225910D01*
X116325300Y-80153200D01*
X116325300Y-79853200D01*
X116339763Y-79780490D01*
X116380950Y-79718850D01*
X116442590Y-79677663D01*
X116515300Y-79663200D01*
X117540300Y-79663200D01*
X117613010Y-79677663D01*
G37*
G36*
X112164807Y-79566245D02*
G01*
X112177784Y-79574916D01*
X112186455Y-79587893D01*
X112189500Y-79603200D01*
X112189500Y-79903200D01*
X112186455Y-79918507D01*
X112177784Y-79931484D01*
X112164807Y-79940155D01*
X112149500Y-79943200D01*
X110909500Y-79943200D01*
X110894193Y-79940155D01*
X110881216Y-79931484D01*
X110872545Y-79918507D01*
X110869500Y-79903200D01*
X110869500Y-79603200D01*
X110872545Y-79587893D01*
X110881216Y-79574916D01*
X110894193Y-79566245D01*
X110909500Y-79563200D01*
X112149500Y-79563200D01*
X112164807Y-79566245D01*
G37*
G36*
X112164807Y-79066245D02*
G01*
X112177784Y-79074916D01*
X112186455Y-79087893D01*
X112189500Y-79103200D01*
X112189500Y-79403200D01*
X112186455Y-79418507D01*
X112177784Y-79431484D01*
X112164807Y-79440155D01*
X112149500Y-79443200D01*
X110909500Y-79443200D01*
X110894193Y-79440155D01*
X110881216Y-79431484D01*
X110872545Y-79418507D01*
X110869500Y-79403200D01*
X110869500Y-79103200D01*
X110872545Y-79087893D01*
X110881216Y-79074916D01*
X110894193Y-79066245D01*
X110909500Y-79063200D01*
X112149500Y-79063200D01*
X112164807Y-79066245D01*
G37*
G36*
X132580697Y-78315805D02*
G01*
X132634061Y-78321996D01*
X132652293Y-78330046D01*
X132675669Y-78334696D01*
X132700694Y-78351417D01*
X132722388Y-78360996D01*
X132737204Y-78375812D01*
X132759614Y-78390786D01*
X132774587Y-78413195D01*
X132789403Y-78428011D01*
X132798980Y-78449703D01*
X132815704Y-78474731D01*
X132820354Y-78498109D01*
X132828403Y-78516338D01*
X132834592Y-78569691D01*
X132835400Y-78573750D01*
X132835400Y-79011250D01*
X132834592Y-79015309D01*
X132828403Y-79068661D01*
X132820354Y-79086889D01*
X132815704Y-79110269D01*
X132798979Y-79135298D01*
X132789403Y-79156988D01*
X132774589Y-79171801D01*
X132759614Y-79194214D01*
X132737201Y-79209189D01*
X132722388Y-79224003D01*
X132700698Y-79233579D01*
X132675669Y-79250304D01*
X132652289Y-79254954D01*
X132634061Y-79263003D01*
X132580709Y-79269192D01*
X132576650Y-79270000D01*
X132064150Y-79270000D01*
X132060091Y-79269192D01*
X132006738Y-79263003D01*
X131988509Y-79254954D01*
X131965131Y-79250304D01*
X131940103Y-79233580D01*
X131918411Y-79224003D01*
X131903595Y-79209187D01*
X131881186Y-79194214D01*
X131866212Y-79171804D01*
X131851396Y-79156988D01*
X131841817Y-79135294D01*
X131825096Y-79110269D01*
X131820446Y-79086893D01*
X131812396Y-79068661D01*
X131806205Y-79015297D01*
X131805400Y-79011250D01*
X131805400Y-78573750D01*
X131806204Y-78569704D01*
X131812396Y-78516338D01*
X131820446Y-78498104D01*
X131825096Y-78474731D01*
X131841816Y-78449707D01*
X131851396Y-78428011D01*
X131866214Y-78413192D01*
X131881186Y-78390786D01*
X131903592Y-78375814D01*
X131918411Y-78360996D01*
X131940107Y-78351416D01*
X131965131Y-78334696D01*
X131988504Y-78330046D01*
X132006738Y-78321996D01*
X132060104Y-78315804D01*
X132064150Y-78315000D01*
X132576650Y-78315000D01*
X132580697Y-78315805D01*
G37*
G36*
X134651797Y-78315805D02*
G01*
X134705161Y-78321996D01*
X134723393Y-78330046D01*
X134746769Y-78334696D01*
X134771794Y-78351417D01*
X134793488Y-78360996D01*
X134808304Y-78375812D01*
X134830714Y-78390786D01*
X134845687Y-78413195D01*
X134860503Y-78428011D01*
X134870080Y-78449703D01*
X134886804Y-78474731D01*
X134891454Y-78498109D01*
X134899503Y-78516338D01*
X134905692Y-78569691D01*
X134906500Y-78573750D01*
X134906500Y-79011250D01*
X134905692Y-79015309D01*
X134899503Y-79068661D01*
X134891454Y-79086889D01*
X134886804Y-79110269D01*
X134870079Y-79135298D01*
X134860503Y-79156988D01*
X134845689Y-79171801D01*
X134830714Y-79194214D01*
X134808301Y-79209189D01*
X134793488Y-79224003D01*
X134771798Y-79233579D01*
X134746769Y-79250304D01*
X134723389Y-79254954D01*
X134705161Y-79263003D01*
X134651809Y-79269192D01*
X134647750Y-79270000D01*
X134135250Y-79270000D01*
X134131191Y-79269192D01*
X134077838Y-79263003D01*
X134059609Y-79254954D01*
X134036231Y-79250304D01*
X134011203Y-79233580D01*
X133989511Y-79224003D01*
X133974695Y-79209187D01*
X133952286Y-79194214D01*
X133937312Y-79171804D01*
X133922496Y-79156988D01*
X133912917Y-79135294D01*
X133896196Y-79110269D01*
X133891546Y-79086893D01*
X133883496Y-79068661D01*
X133877305Y-79015297D01*
X133876500Y-79011250D01*
X133876500Y-78573750D01*
X133877304Y-78569704D01*
X133883496Y-78516338D01*
X133891546Y-78498104D01*
X133896196Y-78474731D01*
X133912916Y-78449707D01*
X133922496Y-78428011D01*
X133937314Y-78413192D01*
X133952286Y-78390786D01*
X133974692Y-78375814D01*
X133989511Y-78360996D01*
X134011207Y-78351416D01*
X134036231Y-78334696D01*
X134059604Y-78330046D01*
X134077838Y-78321996D01*
X134131204Y-78315804D01*
X134135250Y-78315000D01*
X134647750Y-78315000D01*
X134651797Y-78315805D01*
G37*
G36*
X136683797Y-78315805D02*
G01*
X136737161Y-78321996D01*
X136755393Y-78330046D01*
X136778769Y-78334696D01*
X136803794Y-78351417D01*
X136825488Y-78360996D01*
X136840304Y-78375812D01*
X136862714Y-78390786D01*
X136877687Y-78413195D01*
X136892503Y-78428011D01*
X136902080Y-78449703D01*
X136918804Y-78474731D01*
X136923454Y-78498109D01*
X136931503Y-78516338D01*
X136937692Y-78569691D01*
X136938500Y-78573750D01*
X136938500Y-79011250D01*
X136937692Y-79015309D01*
X136931503Y-79068661D01*
X136923454Y-79086889D01*
X136918804Y-79110269D01*
X136902079Y-79135298D01*
X136892503Y-79156988D01*
X136877689Y-79171801D01*
X136862714Y-79194214D01*
X136840301Y-79209189D01*
X136825488Y-79224003D01*
X136803798Y-79233579D01*
X136778769Y-79250304D01*
X136755389Y-79254954D01*
X136737161Y-79263003D01*
X136683809Y-79269192D01*
X136679750Y-79270000D01*
X136167250Y-79270000D01*
X136163191Y-79269192D01*
X136109838Y-79263003D01*
X136091609Y-79254954D01*
X136068231Y-79250304D01*
X136043203Y-79233580D01*
X136021511Y-79224003D01*
X136006695Y-79209187D01*
X135984286Y-79194214D01*
X135969312Y-79171804D01*
X135954496Y-79156988D01*
X135944917Y-79135294D01*
X135928196Y-79110269D01*
X135923546Y-79086893D01*
X135915496Y-79068661D01*
X135909305Y-79015297D01*
X135908500Y-79011250D01*
X135908500Y-78573750D01*
X135909304Y-78569704D01*
X135915496Y-78516338D01*
X135923546Y-78498104D01*
X135928196Y-78474731D01*
X135944916Y-78449707D01*
X135954496Y-78428011D01*
X135969314Y-78413192D01*
X135984286Y-78390786D01*
X136006692Y-78375814D01*
X136021511Y-78360996D01*
X136043207Y-78351416D01*
X136068231Y-78334696D01*
X136091604Y-78330046D01*
X136109838Y-78321996D01*
X136163204Y-78315804D01*
X136167250Y-78315000D01*
X136679750Y-78315000D01*
X136683797Y-78315805D01*
G37*
G36*
X112164807Y-78266245D02*
G01*
X112177784Y-78274916D01*
X112186455Y-78287893D01*
X112189500Y-78303200D01*
X112189500Y-78903200D01*
X112186455Y-78918507D01*
X112177784Y-78931484D01*
X112164807Y-78940155D01*
X112149500Y-78943200D01*
X110909500Y-78943200D01*
X110894193Y-78940155D01*
X110881216Y-78931484D01*
X110872545Y-78918507D01*
X110869500Y-78903200D01*
X110869500Y-78303200D01*
X110872545Y-78287893D01*
X110881216Y-78274916D01*
X110894193Y-78266245D01*
X110909500Y-78263200D01*
X112149500Y-78263200D01*
X112164807Y-78266245D01*
G37*
G36*
X110522291Y-77766064D02*
G01*
X110624042Y-77817909D01*
X110704791Y-77898658D01*
X110756636Y-78000409D01*
X110774500Y-78113200D01*
X110756636Y-78225991D01*
X110704791Y-78327742D01*
X110624042Y-78408491D01*
X110522291Y-78460336D01*
X110409500Y-78478200D01*
X110296709Y-78460336D01*
X110194958Y-78408491D01*
X110114209Y-78327742D01*
X110062364Y-78225991D01*
X110044500Y-78113200D01*
X110062364Y-78000409D01*
X110114209Y-77898658D01*
X110194958Y-77817909D01*
X110296709Y-77766064D01*
X110409500Y-77748200D01*
X110522291Y-77766064D01*
G37*
G36*
X112164807Y-77466245D02*
G01*
X112177784Y-77474916D01*
X112186455Y-77487893D01*
X112189500Y-77503200D01*
X112189500Y-78103200D01*
X112186455Y-78118507D01*
X112177784Y-78131484D01*
X112164807Y-78140155D01*
X112149500Y-78143200D01*
X110909500Y-78143200D01*
X110894193Y-78140155D01*
X110881216Y-78131484D01*
X110872545Y-78118507D01*
X110869500Y-78103200D01*
X110869500Y-77503200D01*
X110872545Y-77487893D01*
X110881216Y-77474916D01*
X110894193Y-77466245D01*
X110909500Y-77463200D01*
X112149500Y-77463200D01*
X112164807Y-77466245D01*
G37*
G36*
X132580697Y-76740805D02*
G01*
X132634061Y-76746996D01*
X132652293Y-76755046D01*
X132675669Y-76759696D01*
X132700694Y-76776417D01*
X132722388Y-76785996D01*
X132737204Y-76800812D01*
X132759614Y-76815786D01*
X132774587Y-76838195D01*
X132789403Y-76853011D01*
X132798980Y-76874703D01*
X132815704Y-76899731D01*
X132820354Y-76923109D01*
X132828403Y-76941338D01*
X132834592Y-76994691D01*
X132835400Y-76998750D01*
X132835400Y-77436250D01*
X132834592Y-77440309D01*
X132828403Y-77493661D01*
X132820354Y-77511889D01*
X132815704Y-77535269D01*
X132798979Y-77560298D01*
X132789403Y-77581988D01*
X132774589Y-77596801D01*
X132759614Y-77619214D01*
X132737201Y-77634189D01*
X132722388Y-77649003D01*
X132700698Y-77658579D01*
X132675669Y-77675304D01*
X132652289Y-77679954D01*
X132634061Y-77688003D01*
X132580709Y-77694192D01*
X132576650Y-77695000D01*
X132064150Y-77695000D01*
X132060091Y-77694192D01*
X132006738Y-77688003D01*
X131988509Y-77679954D01*
X131965131Y-77675304D01*
X131940103Y-77658580D01*
X131918411Y-77649003D01*
X131903595Y-77634187D01*
X131881186Y-77619214D01*
X131866212Y-77596804D01*
X131851396Y-77581988D01*
X131841817Y-77560294D01*
X131825096Y-77535269D01*
X131820446Y-77511893D01*
X131812396Y-77493661D01*
X131806205Y-77440297D01*
X131805400Y-77436250D01*
X131805400Y-76998750D01*
X131806204Y-76994704D01*
X131812396Y-76941338D01*
X131820446Y-76923104D01*
X131825096Y-76899731D01*
X131841816Y-76874707D01*
X131851396Y-76853011D01*
X131866214Y-76838192D01*
X131881186Y-76815786D01*
X131903592Y-76800814D01*
X131918411Y-76785996D01*
X131940107Y-76776416D01*
X131965131Y-76759696D01*
X131988504Y-76755046D01*
X132006738Y-76746996D01*
X132060104Y-76740804D01*
X132064150Y-76740000D01*
X132576650Y-76740000D01*
X132580697Y-76740805D01*
G37*
G36*
X134651797Y-76740805D02*
G01*
X134705161Y-76746996D01*
X134723393Y-76755046D01*
X134746769Y-76759696D01*
X134771794Y-76776417D01*
X134793488Y-76785996D01*
X134808304Y-76800812D01*
X134830714Y-76815786D01*
X134845687Y-76838195D01*
X134860503Y-76853011D01*
X134870080Y-76874703D01*
X134886804Y-76899731D01*
X134891454Y-76923109D01*
X134899503Y-76941338D01*
X134905692Y-76994691D01*
X134906500Y-76998750D01*
X134906500Y-77436250D01*
X134905692Y-77440309D01*
X134899503Y-77493661D01*
X134891454Y-77511889D01*
X134886804Y-77535269D01*
X134870079Y-77560298D01*
X134860503Y-77581988D01*
X134845689Y-77596801D01*
X134830714Y-77619214D01*
X134808301Y-77634189D01*
X134793488Y-77649003D01*
X134771798Y-77658579D01*
X134746769Y-77675304D01*
X134723389Y-77679954D01*
X134705161Y-77688003D01*
X134651809Y-77694192D01*
X134647750Y-77695000D01*
X134135250Y-77695000D01*
X134131191Y-77694192D01*
X134077838Y-77688003D01*
X134059609Y-77679954D01*
X134036231Y-77675304D01*
X134011203Y-77658580D01*
X133989511Y-77649003D01*
X133974695Y-77634187D01*
X133952286Y-77619214D01*
X133937312Y-77596804D01*
X133922496Y-77581988D01*
X133912917Y-77560294D01*
X133896196Y-77535269D01*
X133891546Y-77511893D01*
X133883496Y-77493661D01*
X133877305Y-77440297D01*
X133876500Y-77436250D01*
X133876500Y-76998750D01*
X133877304Y-76994704D01*
X133883496Y-76941338D01*
X133891546Y-76923104D01*
X133896196Y-76899731D01*
X133912916Y-76874707D01*
X133922496Y-76853011D01*
X133937314Y-76838192D01*
X133952286Y-76815786D01*
X133974692Y-76800814D01*
X133989511Y-76785996D01*
X134011207Y-76776416D01*
X134036231Y-76759696D01*
X134059604Y-76755046D01*
X134077838Y-76746996D01*
X134131204Y-76740804D01*
X134135250Y-76740000D01*
X134647750Y-76740000D01*
X134651797Y-76740805D01*
G37*
G36*
X136683797Y-76740805D02*
G01*
X136737161Y-76746996D01*
X136755393Y-76755046D01*
X136778769Y-76759696D01*
X136803794Y-76776417D01*
X136825488Y-76785996D01*
X136840304Y-76800812D01*
X136862714Y-76815786D01*
X136877687Y-76838195D01*
X136892503Y-76853011D01*
X136902080Y-76874703D01*
X136918804Y-76899731D01*
X136923454Y-76923109D01*
X136931503Y-76941338D01*
X136937692Y-76994691D01*
X136938500Y-76998750D01*
X136938500Y-77436250D01*
X136937692Y-77440309D01*
X136931503Y-77493661D01*
X136923454Y-77511889D01*
X136918804Y-77535269D01*
X136902079Y-77560298D01*
X136892503Y-77581988D01*
X136877689Y-77596801D01*
X136862714Y-77619214D01*
X136840301Y-77634189D01*
X136825488Y-77649003D01*
X136803798Y-77658579D01*
X136778769Y-77675304D01*
X136755389Y-77679954D01*
X136737161Y-77688003D01*
X136683809Y-77694192D01*
X136679750Y-77695000D01*
X136167250Y-77695000D01*
X136163191Y-77694192D01*
X136109838Y-77688003D01*
X136091609Y-77679954D01*
X136068231Y-77675304D01*
X136043203Y-77658580D01*
X136021511Y-77649003D01*
X136006695Y-77634187D01*
X135984286Y-77619214D01*
X135969312Y-77596804D01*
X135954496Y-77581988D01*
X135944917Y-77560294D01*
X135928196Y-77535269D01*
X135923546Y-77511893D01*
X135915496Y-77493661D01*
X135909305Y-77440297D01*
X135908500Y-77436250D01*
X135908500Y-76998750D01*
X135909304Y-76994704D01*
X135915496Y-76941338D01*
X135923546Y-76923104D01*
X135928196Y-76899731D01*
X135944916Y-76874707D01*
X135954496Y-76853011D01*
X135969314Y-76838192D01*
X135984286Y-76815786D01*
X136006692Y-76800814D01*
X136021511Y-76785996D01*
X136043207Y-76776416D01*
X136068231Y-76759696D01*
X136091604Y-76755046D01*
X136109838Y-76746996D01*
X136163204Y-76740804D01*
X136167250Y-76740000D01*
X136679750Y-76740000D01*
X136683797Y-76740805D01*
G37*
G36*
X107203030Y-76148230D02*
G01*
X107237240Y-76157815D01*
X107269149Y-76162016D01*
X107304509Y-76176662D01*
X107344637Y-76187906D01*
X107372374Y-76204773D01*
X107399284Y-76215920D01*
X107432057Y-76241068D01*
X107470287Y-76264316D01*
X107490346Y-76285794D01*
X107511032Y-76301667D01*
X107538026Y-76336846D01*
X107570664Y-76371793D01*
X107582772Y-76395161D01*
X107596779Y-76413415D01*
X107614903Y-76457171D01*
X107638321Y-76502365D01*
X107643050Y-76525122D01*
X107650683Y-76543550D01*
X107657259Y-76593500D01*
X107668241Y-76646349D01*
X107666864Y-76666465D01*
X107669068Y-76683199D01*
X107662099Y-76736129D01*
X107658205Y-76793066D01*
X107652485Y-76809160D01*
X107650683Y-76822849D01*
X107629112Y-76874924D01*
X107608958Y-76931635D01*
X107600885Y-76943070D01*
X107596780Y-76952983D01*
X107560684Y-77000023D01*
X107524151Y-77051779D01*
X107515685Y-77058666D01*
X107511030Y-77064733D01*
X107461719Y-77102570D01*
X107410075Y-77144586D01*
X107402905Y-77147700D01*
X107399284Y-77150479D01*
X107339433Y-77175270D01*
X107275190Y-77203175D01*
X107270513Y-77203817D01*
X107269149Y-77204383D01*
X107203943Y-77212967D01*
X107129500Y-77223200D01*
X107126225Y-77223200D01*
X106332775Y-77223200D01*
X106329500Y-77223200D01*
X106255970Y-77218170D01*
X106221754Y-77208583D01*
X106189850Y-77204383D01*
X106154494Y-77189738D01*
X106114363Y-77178494D01*
X106086622Y-77161624D01*
X106059715Y-77150479D01*
X106026943Y-77125332D01*
X105988713Y-77102084D01*
X105968652Y-77080604D01*
X105947967Y-77064732D01*
X105920972Y-77029552D01*
X105888336Y-76994607D01*
X105876228Y-76971239D01*
X105862220Y-76952984D01*
X105844093Y-76909222D01*
X105820679Y-76864035D01*
X105815950Y-76841280D01*
X105808316Y-76822849D01*
X105801738Y-76772887D01*
X105790759Y-76720051D01*
X105792134Y-76699939D01*
X105789931Y-76683200D01*
X105796901Y-76630252D01*
X105800795Y-76573334D01*
X105806513Y-76557244D01*
X105808316Y-76543550D01*
X105829895Y-76491451D01*
X105850042Y-76434765D01*
X105858110Y-76423334D01*
X105862219Y-76413416D01*
X105898336Y-76366348D01*
X105934849Y-76314621D01*
X105943310Y-76307737D01*
X105947969Y-76301666D01*
X105997318Y-76263798D01*
X106048925Y-76221814D01*
X106056089Y-76218702D01*
X106059715Y-76215920D01*
X106119637Y-76191099D01*
X106183810Y-76163225D01*
X106188481Y-76162582D01*
X106189850Y-76162016D01*
X106255162Y-76153417D01*
X106329500Y-76143200D01*
X107129500Y-76143200D01*
X107203030Y-76148230D01*
G37*
G36*
X111553030Y-76148230D02*
G01*
X111587240Y-76157815D01*
X111619149Y-76162016D01*
X111654509Y-76176662D01*
X111694637Y-76187906D01*
X111722374Y-76204773D01*
X111749284Y-76215920D01*
X111782057Y-76241068D01*
X111820287Y-76264316D01*
X111840346Y-76285794D01*
X111861032Y-76301667D01*
X111888026Y-76336846D01*
X111920664Y-76371793D01*
X111932772Y-76395161D01*
X111946779Y-76413415D01*
X111964903Y-76457171D01*
X111988321Y-76502365D01*
X111993050Y-76525122D01*
X112000683Y-76543550D01*
X112007258Y-76593500D01*
X112018241Y-76646349D01*
X112016864Y-76666465D01*
X112019068Y-76683200D01*
X112012099Y-76736130D01*
X112008205Y-76793066D01*
X112002485Y-76809160D01*
X112000683Y-76822849D01*
X111979112Y-76874924D01*
X111958958Y-76931635D01*
X111950885Y-76943070D01*
X111946780Y-76952983D01*
X111910684Y-77000023D01*
X111874151Y-77051779D01*
X111865685Y-77058666D01*
X111861030Y-77064733D01*
X111811719Y-77102570D01*
X111760075Y-77144586D01*
X111752905Y-77147700D01*
X111749284Y-77150479D01*
X111689433Y-77175270D01*
X111625190Y-77203175D01*
X111620513Y-77203817D01*
X111619149Y-77204383D01*
X111553943Y-77212967D01*
X111479500Y-77223200D01*
X111476225Y-77223200D01*
X110382775Y-77223200D01*
X110379500Y-77223200D01*
X110305970Y-77218170D01*
X110271754Y-77208583D01*
X110239850Y-77204383D01*
X110204494Y-77189738D01*
X110164363Y-77178494D01*
X110136622Y-77161624D01*
X110109715Y-77150479D01*
X110076943Y-77125332D01*
X110038713Y-77102084D01*
X110018652Y-77080604D01*
X109997967Y-77064732D01*
X109970972Y-77029552D01*
X109938336Y-76994607D01*
X109926228Y-76971239D01*
X109912220Y-76952984D01*
X109894093Y-76909222D01*
X109870679Y-76864035D01*
X109865950Y-76841280D01*
X109858316Y-76822849D01*
X109851738Y-76772887D01*
X109840759Y-76720051D01*
X109842134Y-76699939D01*
X109839931Y-76683200D01*
X109846901Y-76630252D01*
X109850795Y-76573334D01*
X109856513Y-76557244D01*
X109858316Y-76543550D01*
X109879895Y-76491451D01*
X109900042Y-76434765D01*
X109908110Y-76423334D01*
X109912219Y-76413416D01*
X109948336Y-76366348D01*
X109984849Y-76314621D01*
X109993310Y-76307737D01*
X109997969Y-76301666D01*
X110047318Y-76263798D01*
X110098925Y-76221814D01*
X110106089Y-76218702D01*
X110109715Y-76215920D01*
X110169637Y-76191099D01*
X110233810Y-76163225D01*
X110238481Y-76162582D01*
X110239850Y-76162016D01*
X110305162Y-76153417D01*
X110379500Y-76143200D01*
X111479500Y-76143200D01*
X111553030Y-76148230D01*
G37*
G36*
X121258696Y-75820903D02*
G01*
X121263435Y-75822995D01*
X121266141Y-75823352D01*
X121299995Y-75839138D01*
X121356190Y-75863951D01*
X121431549Y-75939310D01*
X121456370Y-75995525D01*
X121472147Y-76029358D01*
X121472502Y-76032061D01*
X121474597Y-76036804D01*
X121482300Y-76103200D01*
X121482300Y-76603200D01*
X121474597Y-76669596D01*
X121472502Y-76674339D01*
X121472147Y-76677041D01*
X121456379Y-76710855D01*
X121431549Y-76767090D01*
X121356190Y-76842449D01*
X121299955Y-76867279D01*
X121266141Y-76883047D01*
X121263439Y-76883402D01*
X121258696Y-76885497D01*
X121192300Y-76893200D01*
X120242300Y-76893200D01*
X120175904Y-76885497D01*
X120171161Y-76883402D01*
X120168458Y-76883047D01*
X120134625Y-76867270D01*
X120078410Y-76842449D01*
X120003051Y-76767090D01*
X119978238Y-76710895D01*
X119962452Y-76677041D01*
X119962095Y-76674335D01*
X119960003Y-76669596D01*
X119952300Y-76603200D01*
X119952300Y-76103200D01*
X119960003Y-76036804D01*
X119962095Y-76032064D01*
X119962452Y-76029358D01*
X119978247Y-75995485D01*
X120003051Y-75939310D01*
X120078410Y-75863951D01*
X120134585Y-75839147D01*
X120168458Y-75823352D01*
X120171164Y-75822995D01*
X120175904Y-75820903D01*
X120242300Y-75813200D01*
X121192300Y-75813200D01*
X121258696Y-75820903D01*
G37*
G36*
X132599447Y-75173405D02*
G01*
X132648518Y-75179098D01*
X132665283Y-75186500D01*
X132687244Y-75190869D01*
X132710754Y-75206578D01*
X132730542Y-75215315D01*
X132744056Y-75228829D01*
X132765106Y-75242894D01*
X132779170Y-75263943D01*
X132792684Y-75277457D01*
X132801420Y-75297243D01*
X132817131Y-75320756D01*
X132821499Y-75342718D01*
X132828901Y-75359481D01*
X132834592Y-75408542D01*
X132835400Y-75412600D01*
X132835400Y-75812600D01*
X132834592Y-75816659D01*
X132828901Y-75865718D01*
X132821499Y-75882479D01*
X132817131Y-75904444D01*
X132801419Y-75927958D01*
X132792684Y-75947742D01*
X132779172Y-75961253D01*
X132765106Y-75982306D01*
X132744053Y-75996372D01*
X132730542Y-76009884D01*
X132710758Y-76018619D01*
X132687244Y-76034331D01*
X132665279Y-76038699D01*
X132648518Y-76046101D01*
X132599459Y-76051792D01*
X132595400Y-76052600D01*
X132045400Y-76052600D01*
X132041342Y-76051792D01*
X131992281Y-76046101D01*
X131975518Y-76038699D01*
X131953556Y-76034331D01*
X131930043Y-76018620D01*
X131910257Y-76009884D01*
X131896743Y-75996370D01*
X131875694Y-75982306D01*
X131861629Y-75961256D01*
X131848115Y-75947742D01*
X131839378Y-75927954D01*
X131823669Y-75904444D01*
X131819300Y-75882483D01*
X131811898Y-75865718D01*
X131806205Y-75816647D01*
X131805400Y-75812600D01*
X131805400Y-75412600D01*
X131806204Y-75408554D01*
X131811898Y-75359481D01*
X131819301Y-75342714D01*
X131823669Y-75320756D01*
X131839376Y-75297247D01*
X131848115Y-75277457D01*
X131861631Y-75263940D01*
X131875694Y-75242894D01*
X131896740Y-75228831D01*
X131910257Y-75215315D01*
X131930047Y-75206576D01*
X131953556Y-75190869D01*
X131975514Y-75186501D01*
X131992281Y-75179098D01*
X132041354Y-75173404D01*
X132045400Y-75172600D01*
X132595400Y-75172600D01*
X132599447Y-75173405D01*
G37*
G36*
X134670547Y-75173405D02*
G01*
X134719618Y-75179098D01*
X134736383Y-75186500D01*
X134758344Y-75190869D01*
X134781854Y-75206578D01*
X134801642Y-75215315D01*
X134815156Y-75228829D01*
X134836206Y-75242894D01*
X134850270Y-75263943D01*
X134863784Y-75277457D01*
X134872520Y-75297243D01*
X134888231Y-75320756D01*
X134892599Y-75342718D01*
X134900001Y-75359481D01*
X134905692Y-75408542D01*
X134906500Y-75412600D01*
X134906500Y-75812600D01*
X134905692Y-75816659D01*
X134900001Y-75865718D01*
X134892599Y-75882479D01*
X134888231Y-75904444D01*
X134872519Y-75927958D01*
X134863784Y-75947742D01*
X134850272Y-75961253D01*
X134836206Y-75982306D01*
X134815153Y-75996372D01*
X134801642Y-76009884D01*
X134781858Y-76018619D01*
X134758344Y-76034331D01*
X134736379Y-76038699D01*
X134719618Y-76046101D01*
X134670559Y-76051792D01*
X134666500Y-76052600D01*
X134116500Y-76052600D01*
X134112442Y-76051792D01*
X134063381Y-76046101D01*
X134046618Y-76038699D01*
X134024656Y-76034331D01*
X134001143Y-76018620D01*
X133981357Y-76009884D01*
X133967843Y-75996370D01*
X133946794Y-75982306D01*
X133932729Y-75961256D01*
X133919215Y-75947742D01*
X133910478Y-75927954D01*
X133894769Y-75904444D01*
X133890400Y-75882483D01*
X133882998Y-75865718D01*
X133877305Y-75816647D01*
X133876500Y-75812600D01*
X133876500Y-75412600D01*
X133877304Y-75408554D01*
X133882998Y-75359481D01*
X133890401Y-75342714D01*
X133894769Y-75320756D01*
X133910476Y-75297247D01*
X133919215Y-75277457D01*
X133932731Y-75263940D01*
X133946794Y-75242894D01*
X133967840Y-75228831D01*
X133981357Y-75215315D01*
X134001147Y-75206576D01*
X134024656Y-75190869D01*
X134046614Y-75186501D01*
X134063381Y-75179098D01*
X134112454Y-75173404D01*
X134116500Y-75172600D01*
X134666500Y-75172600D01*
X134670547Y-75173405D01*
G37*
G36*
X136702547Y-75173405D02*
G01*
X136751618Y-75179098D01*
X136768383Y-75186500D01*
X136790344Y-75190869D01*
X136813854Y-75206578D01*
X136833642Y-75215315D01*
X136847156Y-75228829D01*
X136868206Y-75242894D01*
X136882270Y-75263943D01*
X136895784Y-75277457D01*
X136904520Y-75297243D01*
X136920231Y-75320756D01*
X136924599Y-75342718D01*
X136932001Y-75359481D01*
X136937692Y-75408542D01*
X136938500Y-75412600D01*
X136938500Y-75812600D01*
X136937692Y-75816659D01*
X136932001Y-75865718D01*
X136924599Y-75882479D01*
X136920231Y-75904444D01*
X136904519Y-75927958D01*
X136895784Y-75947742D01*
X136882272Y-75961253D01*
X136868206Y-75982306D01*
X136847153Y-75996372D01*
X136833642Y-76009884D01*
X136813858Y-76018619D01*
X136790344Y-76034331D01*
X136768379Y-76038699D01*
X136751618Y-76046101D01*
X136702559Y-76051792D01*
X136698500Y-76052600D01*
X136148500Y-76052600D01*
X136144442Y-76051792D01*
X136095381Y-76046101D01*
X136078618Y-76038699D01*
X136056656Y-76034331D01*
X136033143Y-76018620D01*
X136013357Y-76009884D01*
X135999843Y-75996370D01*
X135978794Y-75982306D01*
X135964729Y-75961256D01*
X135951215Y-75947742D01*
X135942478Y-75927954D01*
X135926769Y-75904444D01*
X135922400Y-75882483D01*
X135914998Y-75865718D01*
X135909305Y-75816647D01*
X135908500Y-75812600D01*
X135908500Y-75412600D01*
X135909304Y-75408554D01*
X135914998Y-75359481D01*
X135922401Y-75342714D01*
X135926769Y-75320756D01*
X135942476Y-75297247D01*
X135951215Y-75277457D01*
X135964731Y-75263940D01*
X135978794Y-75242894D01*
X135999840Y-75228831D01*
X136013357Y-75215315D01*
X136033147Y-75206576D01*
X136056656Y-75190869D01*
X136078614Y-75186501D01*
X136095381Y-75179098D01*
X136144454Y-75173404D01*
X136148500Y-75172600D01*
X136698500Y-75172600D01*
X136702547Y-75173405D01*
G37*
G36*
X127645107Y-73916245D02*
G01*
X127658084Y-73924916D01*
X127666755Y-73937893D01*
X127669800Y-73953200D01*
X127669800Y-75953200D01*
X127666755Y-75968507D01*
X127658084Y-75981484D01*
X127645107Y-75990155D01*
X127629800Y-75993200D01*
X123829800Y-75993200D01*
X123814493Y-75990155D01*
X123801516Y-75981484D01*
X123792845Y-75968507D01*
X123789800Y-75953200D01*
X123789800Y-73953200D01*
X123792845Y-73937893D01*
X123801516Y-73924916D01*
X123814493Y-73916245D01*
X123829800Y-73913200D01*
X127629800Y-73913200D01*
X127645107Y-73916245D01*
G37*
G36*
X108844147Y-74350405D02*
G01*
X108893218Y-74356098D01*
X108909983Y-74363500D01*
X108931944Y-74367869D01*
X108955454Y-74383578D01*
X108975242Y-74392315D01*
X108988756Y-74405829D01*
X109009806Y-74419894D01*
X109023870Y-74440943D01*
X109037384Y-74454457D01*
X109046120Y-74474243D01*
X109061831Y-74497756D01*
X109066199Y-74519718D01*
X109073601Y-74536481D01*
X109079292Y-74585542D01*
X109080100Y-74589600D01*
X109080100Y-75139600D01*
X109079292Y-75143659D01*
X109073601Y-75192718D01*
X109066199Y-75209479D01*
X109061831Y-75231444D01*
X109046119Y-75254958D01*
X109037384Y-75274742D01*
X109023872Y-75288253D01*
X109009806Y-75309306D01*
X108988753Y-75323372D01*
X108975242Y-75336884D01*
X108955458Y-75345619D01*
X108931944Y-75361331D01*
X108909979Y-75365699D01*
X108893218Y-75373101D01*
X108844159Y-75378792D01*
X108840100Y-75379600D01*
X108440100Y-75379600D01*
X108436042Y-75378792D01*
X108386981Y-75373101D01*
X108370218Y-75365699D01*
X108348256Y-75361331D01*
X108324743Y-75345620D01*
X108304957Y-75336884D01*
X108291443Y-75323370D01*
X108270394Y-75309306D01*
X108256329Y-75288256D01*
X108242815Y-75274742D01*
X108234078Y-75254954D01*
X108218369Y-75231444D01*
X108214000Y-75209483D01*
X108206598Y-75192718D01*
X108200905Y-75143647D01*
X108200100Y-75139600D01*
X108200100Y-74589600D01*
X108200904Y-74585554D01*
X108206598Y-74536481D01*
X108214001Y-74519714D01*
X108218369Y-74497756D01*
X108234076Y-74474247D01*
X108242815Y-74454457D01*
X108256331Y-74440940D01*
X108270394Y-74419894D01*
X108291440Y-74405831D01*
X108304957Y-74392315D01*
X108324747Y-74383576D01*
X108348256Y-74367869D01*
X108370214Y-74363501D01*
X108386981Y-74356098D01*
X108436054Y-74350404D01*
X108440100Y-74349600D01*
X108840100Y-74349600D01*
X108844147Y-74350405D01*
G37*
G36*
X110494147Y-74350405D02*
G01*
X110543218Y-74356098D01*
X110559983Y-74363500D01*
X110581944Y-74367869D01*
X110605454Y-74383578D01*
X110625242Y-74392315D01*
X110638756Y-74405829D01*
X110659806Y-74419894D01*
X110673870Y-74440943D01*
X110687384Y-74454457D01*
X110696120Y-74474243D01*
X110711831Y-74497756D01*
X110716199Y-74519718D01*
X110723601Y-74536481D01*
X110729292Y-74585542D01*
X110730100Y-74589600D01*
X110730100Y-75139600D01*
X110729292Y-75143659D01*
X110723601Y-75192718D01*
X110716199Y-75209479D01*
X110711831Y-75231444D01*
X110696119Y-75254958D01*
X110687384Y-75274742D01*
X110673872Y-75288253D01*
X110659806Y-75309306D01*
X110638753Y-75323372D01*
X110625242Y-75336884D01*
X110605458Y-75345619D01*
X110581944Y-75361331D01*
X110559979Y-75365699D01*
X110543218Y-75373101D01*
X110494159Y-75378792D01*
X110490100Y-75379600D01*
X110090100Y-75379600D01*
X110086042Y-75378792D01*
X110036981Y-75373101D01*
X110020218Y-75365699D01*
X109998256Y-75361331D01*
X109974743Y-75345620D01*
X109954957Y-75336884D01*
X109941443Y-75323370D01*
X109920394Y-75309306D01*
X109906329Y-75288256D01*
X109892815Y-75274742D01*
X109884078Y-75254954D01*
X109868369Y-75231444D01*
X109864000Y-75209483D01*
X109856598Y-75192718D01*
X109850905Y-75143647D01*
X109850100Y-75139600D01*
X109850100Y-74589600D01*
X109850904Y-74585554D01*
X109856598Y-74536481D01*
X109864001Y-74519714D01*
X109868369Y-74497756D01*
X109884076Y-74474247D01*
X109892815Y-74454457D01*
X109906331Y-74440940D01*
X109920394Y-74419894D01*
X109941440Y-74405831D01*
X109954957Y-74392315D01*
X109974747Y-74383576D01*
X109998256Y-74367869D01*
X110020214Y-74363501D01*
X110036981Y-74356098D01*
X110086054Y-74350404D01*
X110090100Y-74349600D01*
X110490100Y-74349600D01*
X110494147Y-74350405D01*
G37*
G36*
X121258696Y-73920903D02*
G01*
X121263435Y-73922995D01*
X121266141Y-73923352D01*
X121299995Y-73939138D01*
X121356190Y-73963951D01*
X121431549Y-74039310D01*
X121456370Y-74095525D01*
X121472147Y-74129358D01*
X121472502Y-74132061D01*
X121474597Y-74136804D01*
X121482300Y-74203200D01*
X121482300Y-74703200D01*
X121474597Y-74769596D01*
X121472502Y-74774339D01*
X121472147Y-74777041D01*
X121456379Y-74810855D01*
X121431549Y-74867090D01*
X121356190Y-74942449D01*
X121299955Y-74967279D01*
X121266141Y-74983047D01*
X121263439Y-74983402D01*
X121258696Y-74985497D01*
X121192300Y-74993200D01*
X120242300Y-74993200D01*
X120175904Y-74985497D01*
X120171161Y-74983402D01*
X120168458Y-74983047D01*
X120134625Y-74967270D01*
X120078410Y-74942449D01*
X120003051Y-74867090D01*
X119978238Y-74810895D01*
X119962452Y-74777041D01*
X119962095Y-74774335D01*
X119960003Y-74769596D01*
X119952300Y-74703200D01*
X119952300Y-74203200D01*
X119960003Y-74136804D01*
X119962095Y-74132064D01*
X119962452Y-74129358D01*
X119978247Y-74095485D01*
X120003051Y-74039310D01*
X120078410Y-73963951D01*
X120134585Y-73939147D01*
X120168458Y-73923352D01*
X120171164Y-73922995D01*
X120175904Y-73920903D01*
X120242300Y-73913200D01*
X121192300Y-73913200D01*
X121258696Y-73920903D01*
G37*
G36*
X132599447Y-73523405D02*
G01*
X132648518Y-73529098D01*
X132665283Y-73536500D01*
X132687244Y-73540869D01*
X132710754Y-73556578D01*
X132730542Y-73565315D01*
X132744056Y-73578829D01*
X132765106Y-73592894D01*
X132779170Y-73613943D01*
X132792684Y-73627457D01*
X132801420Y-73647243D01*
X132817131Y-73670756D01*
X132821499Y-73692718D01*
X132828901Y-73709481D01*
X132834592Y-73758542D01*
X132835400Y-73762600D01*
X132835400Y-74162600D01*
X132834592Y-74166659D01*
X132828901Y-74215718D01*
X132821499Y-74232479D01*
X132817131Y-74254444D01*
X132801419Y-74277958D01*
X132792684Y-74297742D01*
X132779172Y-74311253D01*
X132765106Y-74332306D01*
X132744053Y-74346372D01*
X132730542Y-74359884D01*
X132710758Y-74368619D01*
X132687244Y-74384331D01*
X132665279Y-74388699D01*
X132648518Y-74396101D01*
X132599459Y-74401792D01*
X132595400Y-74402600D01*
X132045400Y-74402600D01*
X132041342Y-74401792D01*
X131992281Y-74396101D01*
X131975518Y-74388699D01*
X131953556Y-74384331D01*
X131930043Y-74368620D01*
X131910257Y-74359884D01*
X131896743Y-74346370D01*
X131875694Y-74332306D01*
X131861629Y-74311256D01*
X131848115Y-74297742D01*
X131839378Y-74277954D01*
X131823669Y-74254444D01*
X131819300Y-74232483D01*
X131811898Y-74215718D01*
X131806205Y-74166647D01*
X131805400Y-74162600D01*
X131805400Y-73762600D01*
X131806204Y-73758554D01*
X131811898Y-73709481D01*
X131819301Y-73692714D01*
X131823669Y-73670756D01*
X131839376Y-73647247D01*
X131848115Y-73627457D01*
X131861631Y-73613940D01*
X131875694Y-73592894D01*
X131896740Y-73578831D01*
X131910257Y-73565315D01*
X131930047Y-73556576D01*
X131953556Y-73540869D01*
X131975514Y-73536501D01*
X131992281Y-73529098D01*
X132041354Y-73523404D01*
X132045400Y-73522600D01*
X132595400Y-73522600D01*
X132599447Y-73523405D01*
G37*
G36*
X134670547Y-73523405D02*
G01*
X134719618Y-73529098D01*
X134736383Y-73536500D01*
X134758344Y-73540869D01*
X134781854Y-73556578D01*
X134801642Y-73565315D01*
X134815156Y-73578829D01*
X134836206Y-73592894D01*
X134850270Y-73613943D01*
X134863784Y-73627457D01*
X134872520Y-73647243D01*
X134888231Y-73670756D01*
X134892599Y-73692718D01*
X134900001Y-73709481D01*
X134905692Y-73758542D01*
X134906500Y-73762600D01*
X134906500Y-74162600D01*
X134905692Y-74166659D01*
X134900001Y-74215718D01*
X134892599Y-74232479D01*
X134888231Y-74254444D01*
X134872519Y-74277958D01*
X134863784Y-74297742D01*
X134850272Y-74311253D01*
X134836206Y-74332306D01*
X134815153Y-74346372D01*
X134801642Y-74359884D01*
X134781858Y-74368619D01*
X134758344Y-74384331D01*
X134736379Y-74388699D01*
X134719618Y-74396101D01*
X134670559Y-74401792D01*
X134666500Y-74402600D01*
X134116500Y-74402600D01*
X134112442Y-74401792D01*
X134063381Y-74396101D01*
X134046618Y-74388699D01*
X134024656Y-74384331D01*
X134001143Y-74368620D01*
X133981357Y-74359884D01*
X133967843Y-74346370D01*
X133946794Y-74332306D01*
X133932729Y-74311256D01*
X133919215Y-74297742D01*
X133910478Y-74277954D01*
X133894769Y-74254444D01*
X133890400Y-74232483D01*
X133882998Y-74215718D01*
X133877305Y-74166647D01*
X133876500Y-74162600D01*
X133876500Y-73762600D01*
X133877304Y-73758554D01*
X133882998Y-73709481D01*
X133890401Y-73692714D01*
X133894769Y-73670756D01*
X133910476Y-73647247D01*
X133919215Y-73627457D01*
X133932731Y-73613940D01*
X133946794Y-73592894D01*
X133967840Y-73578831D01*
X133981357Y-73565315D01*
X134001147Y-73556576D01*
X134024656Y-73540869D01*
X134046614Y-73536501D01*
X134063381Y-73529098D01*
X134112454Y-73523404D01*
X134116500Y-73522600D01*
X134666500Y-73522600D01*
X134670547Y-73523405D01*
G37*
G36*
X136702547Y-73523405D02*
G01*
X136751618Y-73529098D01*
X136768383Y-73536500D01*
X136790344Y-73540869D01*
X136813854Y-73556578D01*
X136833642Y-73565315D01*
X136847156Y-73578829D01*
X136868206Y-73592894D01*
X136882270Y-73613943D01*
X136895784Y-73627457D01*
X136904520Y-73647243D01*
X136920231Y-73670756D01*
X136924599Y-73692718D01*
X136932001Y-73709481D01*
X136937692Y-73758542D01*
X136938500Y-73762600D01*
X136938500Y-74162600D01*
X136937692Y-74166659D01*
X136932001Y-74215718D01*
X136924599Y-74232479D01*
X136920231Y-74254444D01*
X136904519Y-74277958D01*
X136895784Y-74297742D01*
X136882272Y-74311253D01*
X136868206Y-74332306D01*
X136847153Y-74346372D01*
X136833642Y-74359884D01*
X136813858Y-74368619D01*
X136790344Y-74384331D01*
X136768379Y-74388699D01*
X136751618Y-74396101D01*
X136702559Y-74401792D01*
X136698500Y-74402600D01*
X136148500Y-74402600D01*
X136144442Y-74401792D01*
X136095381Y-74396101D01*
X136078618Y-74388699D01*
X136056656Y-74384331D01*
X136033143Y-74368620D01*
X136013357Y-74359884D01*
X135999843Y-74346370D01*
X135978794Y-74332306D01*
X135964729Y-74311256D01*
X135951215Y-74297742D01*
X135942478Y-74277954D01*
X135926769Y-74254444D01*
X135922400Y-74232483D01*
X135914998Y-74215718D01*
X135909305Y-74166647D01*
X135908500Y-74162600D01*
X135908500Y-73762600D01*
X135909304Y-73758554D01*
X135914998Y-73709481D01*
X135922401Y-73692714D01*
X135926769Y-73670756D01*
X135942476Y-73647247D01*
X135951215Y-73627457D01*
X135964731Y-73613940D01*
X135978794Y-73592894D01*
X135999840Y-73578831D01*
X136013357Y-73565315D01*
X136033147Y-73556576D01*
X136056656Y-73540869D01*
X136078614Y-73536501D01*
X136095381Y-73529098D01*
X136144454Y-73523404D01*
X136148500Y-73522600D01*
X136698500Y-73522600D01*
X136702547Y-73523405D01*
G37*
G36*
X114597607Y-69016245D02*
G01*
X114610584Y-69024916D01*
X114619255Y-69037893D01*
X114622300Y-69053200D01*
X114622300Y-70553200D01*
X114619255Y-70568507D01*
X114610584Y-70581484D01*
X114597607Y-70590155D01*
X114582300Y-70593200D01*
X113682300Y-70593200D01*
X113666993Y-70590155D01*
X113654016Y-70581484D01*
X113645345Y-70568507D01*
X113642300Y-70553200D01*
X113642300Y-69053200D01*
X113645345Y-69037893D01*
X113654016Y-69024916D01*
X113666993Y-69016245D01*
X113682300Y-69013200D01*
X114582300Y-69013200D01*
X114597607Y-69016245D01*
G37*
G36*
X115867607Y-69016245D02*
G01*
X115880584Y-69024916D01*
X115889255Y-69037893D01*
X115892300Y-69053200D01*
X115892300Y-70553200D01*
X115889255Y-70568507D01*
X115880584Y-70581484D01*
X115867607Y-70590155D01*
X115852300Y-70593200D01*
X114952300Y-70593200D01*
X114936993Y-70590155D01*
X114924016Y-70581484D01*
X114915345Y-70568507D01*
X114912300Y-70553200D01*
X114912300Y-69053200D01*
X114915345Y-69037893D01*
X114924016Y-69024916D01*
X114936993Y-69016245D01*
X114952300Y-69013200D01*
X115852300Y-69013200D01*
X115867607Y-69016245D01*
G37*
G36*
X117137607Y-69016245D02*
G01*
X117150584Y-69024916D01*
X117159255Y-69037893D01*
X117162300Y-69053200D01*
X117162300Y-70553200D01*
X117159255Y-70568507D01*
X117150584Y-70581484D01*
X117137607Y-70590155D01*
X117122300Y-70593200D01*
X116222300Y-70593200D01*
X116206993Y-70590155D01*
X116194016Y-70581484D01*
X116185345Y-70568507D01*
X116182300Y-70553200D01*
X116182300Y-69053200D01*
X116185345Y-69037893D01*
X116194016Y-69024916D01*
X116206993Y-69016245D01*
X116222300Y-69013200D01*
X117122300Y-69013200D01*
X117137607Y-69016245D01*
G37*
G36*
X118407607Y-69016245D02*
G01*
X118420584Y-69024916D01*
X118429255Y-69037893D01*
X118432300Y-69053200D01*
X118432300Y-70553200D01*
X118429255Y-70568507D01*
X118420584Y-70581484D01*
X118407607Y-70590155D01*
X118392300Y-70593200D01*
X117492300Y-70593200D01*
X117476993Y-70590155D01*
X117464016Y-70581484D01*
X117455345Y-70568507D01*
X117452300Y-70553200D01*
X117452300Y-69053200D01*
X117455345Y-69037893D01*
X117464016Y-69024916D01*
X117476993Y-69016245D01*
X117492300Y-69013200D01*
X118392300Y-69013200D01*
X118407607Y-69016245D01*
G37*
G36*
X119677607Y-69016245D02*
G01*
X119690584Y-69024916D01*
X119699255Y-69037893D01*
X119702300Y-69053200D01*
X119702300Y-70553200D01*
X119699255Y-70568507D01*
X119690584Y-70581484D01*
X119677607Y-70590155D01*
X119662300Y-70593200D01*
X118762300Y-70593200D01*
X118746993Y-70590155D01*
X118734016Y-70581484D01*
X118725345Y-70568507D01*
X118722300Y-70553200D01*
X118722300Y-69053200D01*
X118725345Y-69037893D01*
X118734016Y-69024916D01*
X118746993Y-69016245D01*
X118762300Y-69013200D01*
X119662300Y-69013200D01*
X119677607Y-69016245D01*
G37*
G36*
X120947607Y-69016245D02*
G01*
X120960584Y-69024916D01*
X120969255Y-69037893D01*
X120972300Y-69053200D01*
X120972300Y-70553200D01*
X120969255Y-70568507D01*
X120960584Y-70581484D01*
X120947607Y-70590155D01*
X120932300Y-70593200D01*
X120032300Y-70593200D01*
X120016993Y-70590155D01*
X120004016Y-70581484D01*
X119995345Y-70568507D01*
X119992300Y-70553200D01*
X119992300Y-69053200D01*
X119995345Y-69037893D01*
X120004016Y-69024916D01*
X120016993Y-69016245D01*
X120032300Y-69013200D01*
X120932300Y-69013200D01*
X120947607Y-69016245D01*
G37*
G36*
X122217607Y-69016245D02*
G01*
X122230584Y-69024916D01*
X122239255Y-69037893D01*
X122242300Y-69053200D01*
X122242300Y-70553200D01*
X122239255Y-70568507D01*
X122230584Y-70581484D01*
X122217607Y-70590155D01*
X122202300Y-70593200D01*
X121302300Y-70593200D01*
X121286993Y-70590155D01*
X121274016Y-70581484D01*
X121265345Y-70568507D01*
X121262300Y-70553200D01*
X121262300Y-69053200D01*
X121265345Y-69037893D01*
X121274016Y-69024916D01*
X121286993Y-69016245D01*
X121302300Y-69013200D01*
X122202300Y-69013200D01*
X122217607Y-69016245D01*
G37*
G36*
X123487607Y-69016245D02*
G01*
X123500584Y-69024916D01*
X123509255Y-69037893D01*
X123512300Y-69053200D01*
X123512300Y-70553200D01*
X123509255Y-70568507D01*
X123500584Y-70581484D01*
X123487607Y-70590155D01*
X123472300Y-70593200D01*
X122572300Y-70593200D01*
X122556993Y-70590155D01*
X122544016Y-70581484D01*
X122535345Y-70568507D01*
X122532300Y-70553200D01*
X122532300Y-69053200D01*
X122535345Y-69037893D01*
X122544016Y-69024916D01*
X122556993Y-69016245D01*
X122572300Y-69013200D01*
X123472300Y-69013200D01*
X123487607Y-69016245D01*
G37*
G36*
X124757607Y-69016245D02*
G01*
X124770584Y-69024916D01*
X124779255Y-69037893D01*
X124782300Y-69053200D01*
X124782300Y-70553200D01*
X124779255Y-70568507D01*
X124770584Y-70581484D01*
X124757607Y-70590155D01*
X124742300Y-70593200D01*
X123842300Y-70593200D01*
X123826993Y-70590155D01*
X123814016Y-70581484D01*
X123805345Y-70568507D01*
X123802300Y-70553200D01*
X123802300Y-69053200D01*
X123805345Y-69037893D01*
X123814016Y-69024916D01*
X123826993Y-69016245D01*
X123842300Y-69013200D01*
X124742300Y-69013200D01*
X124757607Y-69016245D01*
G37*
G36*
X126027607Y-69016245D02*
G01*
X126040584Y-69024916D01*
X126049255Y-69037893D01*
X126052300Y-69053200D01*
X126052300Y-70553200D01*
X126049255Y-70568507D01*
X126040584Y-70581484D01*
X126027607Y-70590155D01*
X126012300Y-70593200D01*
X125112300Y-70593200D01*
X125096993Y-70590155D01*
X125084016Y-70581484D01*
X125075345Y-70568507D01*
X125072300Y-70553200D01*
X125072300Y-69053200D01*
X125075345Y-69037893D01*
X125084016Y-69024916D01*
X125096993Y-69016245D01*
X125112300Y-69013200D01*
X126012300Y-69013200D01*
X126027607Y-69016245D01*
G37*
G36*
X127297607Y-69016245D02*
G01*
X127310584Y-69024916D01*
X127319255Y-69037893D01*
X127322300Y-69053200D01*
X127322300Y-70553200D01*
X127319255Y-70568507D01*
X127310584Y-70581484D01*
X127297607Y-70590155D01*
X127282300Y-70593200D01*
X126382300Y-70593200D01*
X126366993Y-70590155D01*
X126354016Y-70581484D01*
X126345345Y-70568507D01*
X126342300Y-70553200D01*
X126342300Y-69053200D01*
X126345345Y-69037893D01*
X126354016Y-69024916D01*
X126366993Y-69016245D01*
X126382300Y-69013200D01*
X127282300Y-69013200D01*
X127297607Y-69016245D01*
G37*
G36*
X128567607Y-69016245D02*
G01*
X128580584Y-69024916D01*
X128589255Y-69037893D01*
X128592300Y-69053200D01*
X128592300Y-70553200D01*
X128589255Y-70568507D01*
X128580584Y-70581484D01*
X128567607Y-70590155D01*
X128552300Y-70593200D01*
X127652300Y-70593200D01*
X127636993Y-70590155D01*
X127624016Y-70581484D01*
X127615345Y-70568507D01*
X127612300Y-70553200D01*
X127612300Y-69053200D01*
X127615345Y-69037893D01*
X127624016Y-69024916D01*
X127636993Y-69016245D01*
X127652300Y-69013200D01*
X128552300Y-69013200D01*
X128567607Y-69016245D01*
G37*
G36*
X113132607Y-68066245D02*
G01*
X113145584Y-68074916D01*
X113154255Y-68087893D01*
X113157300Y-68103200D01*
X113157300Y-69003200D01*
X113154255Y-69018507D01*
X113145584Y-69031484D01*
X113132607Y-69040155D01*
X113117300Y-69043200D01*
X111617300Y-69043200D01*
X111601993Y-69040155D01*
X111589016Y-69031484D01*
X111580345Y-69018507D01*
X111577300Y-69003200D01*
X111577300Y-68103200D01*
X111580345Y-68087893D01*
X111589016Y-68074916D01*
X111601993Y-68066245D01*
X111617300Y-68063200D01*
X113117300Y-68063200D01*
X113132607Y-68066245D01*
G37*
G36*
X130632607Y-68066245D02*
G01*
X130645584Y-68074916D01*
X130654255Y-68087893D01*
X130657300Y-68103200D01*
X130657300Y-69003200D01*
X130654255Y-69018507D01*
X130645584Y-69031484D01*
X130632607Y-69040155D01*
X130617300Y-69043200D01*
X129117300Y-69043200D01*
X129101993Y-69040155D01*
X129089016Y-69031484D01*
X129080345Y-69018507D01*
X129077300Y-69003200D01*
X129077300Y-68103200D01*
X129080345Y-68087893D01*
X129089016Y-68074916D01*
X129101993Y-68066245D01*
X129117300Y-68063200D01*
X130617300Y-68063200D01*
X130632607Y-68066245D01*
G37*
G36*
X113132607Y-66796245D02*
G01*
X113145584Y-66804916D01*
X113154255Y-66817893D01*
X113157300Y-66833200D01*
X113157300Y-67733200D01*
X113154255Y-67748507D01*
X113145584Y-67761484D01*
X113132607Y-67770155D01*
X113117300Y-67773200D01*
X111617300Y-67773200D01*
X111601993Y-67770155D01*
X111589016Y-67761484D01*
X111580345Y-67748507D01*
X111577300Y-67733200D01*
X111577300Y-66833200D01*
X111580345Y-66817893D01*
X111589016Y-66804916D01*
X111601993Y-66796245D01*
X111617300Y-66793200D01*
X113117300Y-66793200D01*
X113132607Y-66796245D01*
G37*
G36*
X130632607Y-66796245D02*
G01*
X130645584Y-66804916D01*
X130654255Y-66817893D01*
X130657300Y-66833200D01*
X130657300Y-67733200D01*
X130654255Y-67748507D01*
X130645584Y-67761484D01*
X130632607Y-67770155D01*
X130617300Y-67773200D01*
X129117300Y-67773200D01*
X129101993Y-67770155D01*
X129089016Y-67761484D01*
X129080345Y-67748507D01*
X129077300Y-67733200D01*
X129077300Y-66833200D01*
X129080345Y-66817893D01*
X129089016Y-66804916D01*
X129101993Y-66796245D01*
X129117300Y-66793200D01*
X130617300Y-66793200D01*
X130632607Y-66796245D01*
G37*
G36*
X113132607Y-65526245D02*
G01*
X113145584Y-65534916D01*
X113154255Y-65547893D01*
X113157300Y-65563200D01*
X113157300Y-66463200D01*
X113154255Y-66478507D01*
X113145584Y-66491484D01*
X113132607Y-66500155D01*
X113117300Y-66503200D01*
X111617300Y-66503200D01*
X111601993Y-66500155D01*
X111589016Y-66491484D01*
X111580345Y-66478507D01*
X111577300Y-66463200D01*
X111577300Y-65563200D01*
X111580345Y-65547893D01*
X111589016Y-65534916D01*
X111601993Y-65526245D01*
X111617300Y-65523200D01*
X113117300Y-65523200D01*
X113132607Y-65526245D01*
G37*
G36*
X130632607Y-65526245D02*
G01*
X130645584Y-65534916D01*
X130654255Y-65547893D01*
X130657300Y-65563200D01*
X130657300Y-66463200D01*
X130654255Y-66478507D01*
X130645584Y-66491484D01*
X130632607Y-66500155D01*
X130617300Y-66503200D01*
X129117300Y-66503200D01*
X129101993Y-66500155D01*
X129089016Y-66491484D01*
X129080345Y-66478507D01*
X129077300Y-66463200D01*
X129077300Y-65563200D01*
X129080345Y-65547893D01*
X129089016Y-65534916D01*
X129101993Y-65526245D01*
X129117300Y-65523200D01*
X130617300Y-65523200D01*
X130632607Y-65526245D01*
G37*
G36*
X136392325Y-64353560D02*
G01*
X136562300Y-64429237D01*
X136712826Y-64538601D01*
X136837325Y-64676871D01*
X136930355Y-64838004D01*
X136987851Y-65014959D01*
X137007300Y-65200000D01*
X136987851Y-65385041D01*
X136930355Y-65561996D01*
X136837325Y-65723129D01*
X136712826Y-65861399D01*
X136562300Y-65970763D01*
X136392325Y-66046440D01*
X136210330Y-66085124D01*
X136024270Y-66085124D01*
X135842275Y-66046440D01*
X135672300Y-65970763D01*
X135521774Y-65861399D01*
X135397275Y-65723129D01*
X135304245Y-65561996D01*
X135246749Y-65385041D01*
X135227300Y-65200000D01*
X135246749Y-65014959D01*
X135304245Y-64838004D01*
X135397275Y-64676871D01*
X135521774Y-64538601D01*
X135672300Y-64429237D01*
X135842275Y-64353560D01*
X136024270Y-64314876D01*
X136210330Y-64314876D01*
X136392325Y-64353560D01*
G37*
G36*
X113132607Y-64256245D02*
G01*
X113145584Y-64264916D01*
X113154255Y-64277893D01*
X113157300Y-64293200D01*
X113157300Y-65193200D01*
X113154255Y-65208507D01*
X113145584Y-65221484D01*
X113132607Y-65230155D01*
X113117300Y-65233200D01*
X111617300Y-65233200D01*
X111601993Y-65230155D01*
X111589016Y-65221484D01*
X111580345Y-65208507D01*
X111577300Y-65193200D01*
X111577300Y-64293200D01*
X111580345Y-64277893D01*
X111589016Y-64264916D01*
X111601993Y-64256245D01*
X111617300Y-64253200D01*
X113117300Y-64253200D01*
X113132607Y-64256245D01*
G37*
G36*
X130632607Y-64256245D02*
G01*
X130645584Y-64264916D01*
X130654255Y-64277893D01*
X130657300Y-64293200D01*
X130657300Y-65193200D01*
X130654255Y-65208507D01*
X130645584Y-65221484D01*
X130632607Y-65230155D01*
X130617300Y-65233200D01*
X129117300Y-65233200D01*
X129101993Y-65230155D01*
X129089016Y-65221484D01*
X129080345Y-65208507D01*
X129077300Y-65193200D01*
X129077300Y-64293200D01*
X129080345Y-64277893D01*
X129089016Y-64264916D01*
X129101993Y-64256245D01*
X129117300Y-64253200D01*
X130617300Y-64253200D01*
X130632607Y-64256245D01*
G37*
G36*
X113132607Y-62986245D02*
G01*
X113145584Y-62994916D01*
X113154255Y-63007893D01*
X113157300Y-63023200D01*
X113157300Y-63923200D01*
X113154255Y-63938507D01*
X113145584Y-63951484D01*
X113132607Y-63960155D01*
X113117300Y-63963200D01*
X111617300Y-63963200D01*
X111601993Y-63960155D01*
X111589016Y-63951484D01*
X111580345Y-63938507D01*
X111577300Y-63923200D01*
X111577300Y-63023200D01*
X111580345Y-63007893D01*
X111589016Y-62994916D01*
X111601993Y-62986245D01*
X111617300Y-62983200D01*
X113117300Y-62983200D01*
X113132607Y-62986245D01*
G37*
G36*
X130632607Y-62986245D02*
G01*
X130645584Y-62994916D01*
X130654255Y-63007893D01*
X130657300Y-63023200D01*
X130657300Y-63923200D01*
X130654255Y-63938507D01*
X130645584Y-63951484D01*
X130632607Y-63960155D01*
X130617300Y-63963200D01*
X129117300Y-63963200D01*
X129101993Y-63960155D01*
X129089016Y-63951484D01*
X129080345Y-63938507D01*
X129077300Y-63923200D01*
X129077300Y-63023200D01*
X129080345Y-63007893D01*
X129089016Y-62994916D01*
X129101993Y-62986245D01*
X129117300Y-62983200D01*
X130617300Y-62983200D01*
X130632607Y-62986245D01*
G37*
G36*
X136392325Y-61813560D02*
G01*
X136562300Y-61889237D01*
X136712826Y-61998601D01*
X136837325Y-62136871D01*
X136930355Y-62298004D01*
X136987851Y-62474959D01*
X137007300Y-62660000D01*
X136987851Y-62845041D01*
X136930355Y-63021996D01*
X136837325Y-63183129D01*
X136712826Y-63321399D01*
X136562300Y-63430763D01*
X136392325Y-63506440D01*
X136210330Y-63545124D01*
X136024270Y-63545124D01*
X135842275Y-63506440D01*
X135672300Y-63430763D01*
X135521774Y-63321399D01*
X135397275Y-63183129D01*
X135304245Y-63021996D01*
X135246749Y-62845041D01*
X135227300Y-62660000D01*
X135246749Y-62474959D01*
X135304245Y-62298004D01*
X135397275Y-62136871D01*
X135521774Y-61998601D01*
X135672300Y-61889237D01*
X135842275Y-61813560D01*
X136024270Y-61774876D01*
X136210330Y-61774876D01*
X136392325Y-61813560D01*
G37*
G36*
X113132607Y-61716245D02*
G01*
X113145584Y-61724916D01*
X113154255Y-61737893D01*
X113157300Y-61753200D01*
X113157300Y-62653200D01*
X113154255Y-62668507D01*
X113145584Y-62681484D01*
X113132607Y-62690155D01*
X113117300Y-62693200D01*
X111617300Y-62693200D01*
X111601993Y-62690155D01*
X111589016Y-62681484D01*
X111580345Y-62668507D01*
X111577300Y-62653200D01*
X111577300Y-61753200D01*
X111580345Y-61737893D01*
X111589016Y-61724916D01*
X111601993Y-61716245D01*
X111617300Y-61713200D01*
X113117300Y-61713200D01*
X113132607Y-61716245D01*
G37*
G36*
X130632607Y-61716245D02*
G01*
X130645584Y-61724916D01*
X130654255Y-61737893D01*
X130657300Y-61753200D01*
X130657300Y-62653200D01*
X130654255Y-62668507D01*
X130645584Y-62681484D01*
X130632607Y-62690155D01*
X130617300Y-62693200D01*
X129117300Y-62693200D01*
X129101993Y-62690155D01*
X129089016Y-62681484D01*
X129080345Y-62668507D01*
X129077300Y-62653200D01*
X129077300Y-61753200D01*
X129080345Y-61737893D01*
X129089016Y-61724916D01*
X129101993Y-61716245D01*
X129117300Y-61713200D01*
X130617300Y-61713200D01*
X130632607Y-61716245D01*
G37*
G36*
X118682607Y-60676245D02*
G01*
X118695584Y-60684916D01*
X118704255Y-60697893D01*
X118707300Y-60713200D01*
X118707300Y-61613200D01*
X118704255Y-61628507D01*
X118695584Y-61641484D01*
X118682607Y-61650155D01*
X118667300Y-61653200D01*
X117767300Y-61653200D01*
X117751993Y-61650155D01*
X117739016Y-61641484D01*
X117730345Y-61628507D01*
X117727300Y-61613200D01*
X117727300Y-60713200D01*
X117730345Y-60697893D01*
X117739016Y-60684916D01*
X117751993Y-60676245D01*
X117767300Y-60673200D01*
X118667300Y-60673200D01*
X118682607Y-60676245D01*
G37*
G36*
X120082607Y-60676245D02*
G01*
X120095584Y-60684916D01*
X120104255Y-60697893D01*
X120107300Y-60713200D01*
X120107300Y-61613200D01*
X120104255Y-61628507D01*
X120095584Y-61641484D01*
X120082607Y-61650155D01*
X120067300Y-61653200D01*
X119167300Y-61653200D01*
X119151993Y-61650155D01*
X119139016Y-61641484D01*
X119130345Y-61628507D01*
X119127300Y-61613200D01*
X119127300Y-60713200D01*
X119130345Y-60697893D01*
X119139016Y-60684916D01*
X119151993Y-60676245D01*
X119167300Y-60673200D01*
X120067300Y-60673200D01*
X120082607Y-60676245D01*
G37*
G36*
X121482607Y-60676245D02*
G01*
X121495584Y-60684916D01*
X121504255Y-60697893D01*
X121507300Y-60713200D01*
X121507300Y-61613200D01*
X121504255Y-61628507D01*
X121495584Y-61641484D01*
X121482607Y-61650155D01*
X121467300Y-61653200D01*
X120567300Y-61653200D01*
X120551993Y-61650155D01*
X120539016Y-61641484D01*
X120530345Y-61628507D01*
X120527300Y-61613200D01*
X120527300Y-60713200D01*
X120530345Y-60697893D01*
X120539016Y-60684916D01*
X120551993Y-60676245D01*
X120567300Y-60673200D01*
X121467300Y-60673200D01*
X121482607Y-60676245D01*
G37*
G36*
X113132607Y-60446245D02*
G01*
X113145584Y-60454916D01*
X113154255Y-60467893D01*
X113157300Y-60483200D01*
X113157300Y-61383200D01*
X113154255Y-61398507D01*
X113145584Y-61411484D01*
X113132607Y-61420155D01*
X113117300Y-61423200D01*
X111617300Y-61423200D01*
X111601993Y-61420155D01*
X111589016Y-61411484D01*
X111580345Y-61398507D01*
X111577300Y-61383200D01*
X111577300Y-60483200D01*
X111580345Y-60467893D01*
X111589016Y-60454916D01*
X111601993Y-60446245D01*
X111617300Y-60443200D01*
X113117300Y-60443200D01*
X113132607Y-60446245D01*
G37*
G36*
X130632607Y-60446245D02*
G01*
X130645584Y-60454916D01*
X130654255Y-60467893D01*
X130657300Y-60483200D01*
X130657300Y-61383200D01*
X130654255Y-61398507D01*
X130645584Y-61411484D01*
X130632607Y-61420155D01*
X130617300Y-61423200D01*
X129117300Y-61423200D01*
X129101993Y-61420155D01*
X129089016Y-61411484D01*
X129080345Y-61398507D01*
X129077300Y-61383200D01*
X129077300Y-60483200D01*
X129080345Y-60467893D01*
X129089016Y-60454916D01*
X129101993Y-60446245D01*
X129117300Y-60443200D01*
X130617300Y-60443200D01*
X130632607Y-60446245D01*
G37*
G36*
X136392325Y-59273560D02*
G01*
X136562300Y-59349237D01*
X136712826Y-59458601D01*
X136837325Y-59596871D01*
X136930355Y-59758004D01*
X136987851Y-59934959D01*
X137007300Y-60120000D01*
X136987851Y-60305041D01*
X136930355Y-60481996D01*
X136837325Y-60643129D01*
X136712826Y-60781399D01*
X136562300Y-60890763D01*
X136392325Y-60966440D01*
X136210330Y-61005124D01*
X136024270Y-61005124D01*
X135842275Y-60966440D01*
X135672300Y-60890763D01*
X135521774Y-60781399D01*
X135397275Y-60643129D01*
X135304245Y-60481996D01*
X135246749Y-60305041D01*
X135227300Y-60120000D01*
X135246749Y-59934959D01*
X135304245Y-59758004D01*
X135397275Y-59596871D01*
X135521774Y-59458601D01*
X135672300Y-59349237D01*
X135842275Y-59273560D01*
X136024270Y-59234876D01*
X136210330Y-59234876D01*
X136392325Y-59273560D01*
G37*
G36*
X118682607Y-59276245D02*
G01*
X118695584Y-59284916D01*
X118704255Y-59297893D01*
X118707300Y-59313200D01*
X118707300Y-60213200D01*
X118704255Y-60228507D01*
X118695584Y-60241484D01*
X118682607Y-60250155D01*
X118667300Y-60253200D01*
X117767300Y-60253200D01*
X117751993Y-60250155D01*
X117739016Y-60241484D01*
X117730345Y-60228507D01*
X117727300Y-60213200D01*
X117727300Y-59313200D01*
X117730345Y-59297893D01*
X117739016Y-59284916D01*
X117751993Y-59276245D01*
X117767300Y-59273200D01*
X118667300Y-59273200D01*
X118682607Y-59276245D01*
G37*
G36*
X120082607Y-59276245D02*
G01*
X120095584Y-59284916D01*
X120104255Y-59297893D01*
X120107300Y-59313200D01*
X120107300Y-60213200D01*
X120104255Y-60228507D01*
X120095584Y-60241484D01*
X120082607Y-60250155D01*
X120067300Y-60253200D01*
X119167300Y-60253200D01*
X119151993Y-60250155D01*
X119139016Y-60241484D01*
X119130345Y-60228507D01*
X119127300Y-60213200D01*
X119127300Y-59313200D01*
X119130345Y-59297893D01*
X119139016Y-59284916D01*
X119151993Y-59276245D01*
X119167300Y-59273200D01*
X120067300Y-59273200D01*
X120082607Y-59276245D01*
G37*
G36*
X121482607Y-59276245D02*
G01*
X121495584Y-59284916D01*
X121504255Y-59297893D01*
X121507300Y-59313200D01*
X121507300Y-60213200D01*
X121504255Y-60228507D01*
X121495584Y-60241484D01*
X121482607Y-60250155D01*
X121467300Y-60253200D01*
X120567300Y-60253200D01*
X120551993Y-60250155D01*
X120539016Y-60241484D01*
X120530345Y-60228507D01*
X120527300Y-60213200D01*
X120527300Y-59313200D01*
X120530345Y-59297893D01*
X120539016Y-59284916D01*
X120551993Y-59276245D01*
X120567300Y-59273200D01*
X121467300Y-59273200D01*
X121482607Y-59276245D01*
G37*
G36*
X113132607Y-59176245D02*
G01*
X113145584Y-59184916D01*
X113154255Y-59197893D01*
X113157300Y-59213200D01*
X113157300Y-60113200D01*
X113154255Y-60128507D01*
X113145584Y-60141484D01*
X113132607Y-60150155D01*
X113117300Y-60153200D01*
X111617300Y-60153200D01*
X111601993Y-60150155D01*
X111589016Y-60141484D01*
X111580345Y-60128507D01*
X111577300Y-60113200D01*
X111577300Y-59213200D01*
X111580345Y-59197893D01*
X111589016Y-59184916D01*
X111601993Y-59176245D01*
X111617300Y-59173200D01*
X113117300Y-59173200D01*
X113132607Y-59176245D01*
G37*
G36*
X130632607Y-59176245D02*
G01*
X130645584Y-59184916D01*
X130654255Y-59197893D01*
X130657300Y-59213200D01*
X130657300Y-60113200D01*
X130654255Y-60128507D01*
X130645584Y-60141484D01*
X130632607Y-60150155D01*
X130617300Y-60153200D01*
X129117300Y-60153200D01*
X129101993Y-60150155D01*
X129089016Y-60141484D01*
X129080345Y-60128507D01*
X129077300Y-60113200D01*
X129077300Y-59213200D01*
X129080345Y-59197893D01*
X129089016Y-59184916D01*
X129101993Y-59176245D01*
X129117300Y-59173200D01*
X130617300Y-59173200D01*
X130632607Y-59176245D01*
G37*
G36*
X113132607Y-57906245D02*
G01*
X113145584Y-57914916D01*
X113154255Y-57927893D01*
X113157300Y-57943200D01*
X113157300Y-58843200D01*
X113154255Y-58858507D01*
X113145584Y-58871484D01*
X113132607Y-58880155D01*
X113117300Y-58883200D01*
X111617300Y-58883200D01*
X111601993Y-58880155D01*
X111589016Y-58871484D01*
X111580345Y-58858507D01*
X111577300Y-58843200D01*
X111577300Y-57943200D01*
X111580345Y-57927893D01*
X111589016Y-57914916D01*
X111601993Y-57906245D01*
X111617300Y-57903200D01*
X113117300Y-57903200D01*
X113132607Y-57906245D01*
G37*
G36*
X130632607Y-57906245D02*
G01*
X130645584Y-57914916D01*
X130654255Y-57927893D01*
X130657300Y-57943200D01*
X130657300Y-58843200D01*
X130654255Y-58858507D01*
X130645584Y-58871484D01*
X130632607Y-58880155D01*
X130617300Y-58883200D01*
X129117300Y-58883200D01*
X129101993Y-58880155D01*
X129089016Y-58871484D01*
X129080345Y-58858507D01*
X129077300Y-58843200D01*
X129077300Y-57943200D01*
X129080345Y-57927893D01*
X129089016Y-57914916D01*
X129101993Y-57906245D01*
X129117300Y-57903200D01*
X130617300Y-57903200D01*
X130632607Y-57906245D01*
G37*
G36*
X118682607Y-57876245D02*
G01*
X118695584Y-57884916D01*
X118704255Y-57897893D01*
X118707300Y-57913200D01*
X118707300Y-58813200D01*
X118704255Y-58828507D01*
X118695584Y-58841484D01*
X118682607Y-58850155D01*
X118667300Y-58853200D01*
X117767300Y-58853200D01*
X117751993Y-58850155D01*
X117739016Y-58841484D01*
X117730345Y-58828507D01*
X117727300Y-58813200D01*
X117727300Y-57913200D01*
X117730345Y-57897893D01*
X117739016Y-57884916D01*
X117751993Y-57876245D01*
X117767300Y-57873200D01*
X118667300Y-57873200D01*
X118682607Y-57876245D01*
G37*
G36*
X120082607Y-57876245D02*
G01*
X120095584Y-57884916D01*
X120104255Y-57897893D01*
X120107300Y-57913200D01*
X120107300Y-58813200D01*
X120104255Y-58828507D01*
X120095584Y-58841484D01*
X120082607Y-58850155D01*
X120067300Y-58853200D01*
X119167300Y-58853200D01*
X119151993Y-58850155D01*
X119139016Y-58841484D01*
X119130345Y-58828507D01*
X119127300Y-58813200D01*
X119127300Y-57913200D01*
X119130345Y-57897893D01*
X119139016Y-57884916D01*
X119151993Y-57876245D01*
X119167300Y-57873200D01*
X120067300Y-57873200D01*
X120082607Y-57876245D01*
G37*
G36*
X121482607Y-57876245D02*
G01*
X121495584Y-57884916D01*
X121504255Y-57897893D01*
X121507300Y-57913200D01*
X121507300Y-58813200D01*
X121504255Y-58828507D01*
X121495584Y-58841484D01*
X121482607Y-58850155D01*
X121467300Y-58853200D01*
X120567300Y-58853200D01*
X120551993Y-58850155D01*
X120539016Y-58841484D01*
X120530345Y-58828507D01*
X120527300Y-58813200D01*
X120527300Y-57913200D01*
X120530345Y-57897893D01*
X120539016Y-57884916D01*
X120551993Y-57876245D01*
X120567300Y-57873200D01*
X121467300Y-57873200D01*
X121482607Y-57876245D01*
G37*
G36*
X136392325Y-56733560D02*
G01*
X136562300Y-56809237D01*
X136712826Y-56918601D01*
X136837325Y-57056871D01*
X136930355Y-57218004D01*
X136987851Y-57394959D01*
X137007300Y-57580000D01*
X136987851Y-57765041D01*
X136930355Y-57941996D01*
X136837325Y-58103129D01*
X136712826Y-58241399D01*
X136562300Y-58350763D01*
X136392325Y-58426440D01*
X136210330Y-58465124D01*
X136024270Y-58465124D01*
X135842275Y-58426440D01*
X135672300Y-58350763D01*
X135521774Y-58241399D01*
X135397275Y-58103129D01*
X135304245Y-57941996D01*
X135246749Y-57765041D01*
X135227300Y-57580000D01*
X135246749Y-57394959D01*
X135304245Y-57218004D01*
X135397275Y-57056871D01*
X135521774Y-56918601D01*
X135672300Y-56809237D01*
X135842275Y-56733560D01*
X136024270Y-56694876D01*
X136210330Y-56694876D01*
X136392325Y-56733560D01*
G37*
G36*
X113132607Y-56636245D02*
G01*
X113145584Y-56644916D01*
X113154255Y-56657893D01*
X113157300Y-56673200D01*
X113157300Y-57573200D01*
X113154255Y-57588507D01*
X113145584Y-57601484D01*
X113132607Y-57610155D01*
X113117300Y-57613200D01*
X111617300Y-57613200D01*
X111601993Y-57610155D01*
X111589016Y-57601484D01*
X111580345Y-57588507D01*
X111577300Y-57573200D01*
X111577300Y-56673200D01*
X111580345Y-56657893D01*
X111589016Y-56644916D01*
X111601993Y-56636245D01*
X111617300Y-56633200D01*
X113117300Y-56633200D01*
X113132607Y-56636245D01*
G37*
G36*
X130632607Y-56636245D02*
G01*
X130645584Y-56644916D01*
X130654255Y-56657893D01*
X130657300Y-56673200D01*
X130657300Y-57573200D01*
X130654255Y-57588507D01*
X130645584Y-57601484D01*
X130632607Y-57610155D01*
X130617300Y-57613200D01*
X129117300Y-57613200D01*
X129101993Y-57610155D01*
X129089016Y-57601484D01*
X129080345Y-57588507D01*
X129077300Y-57573200D01*
X129077300Y-56673200D01*
X129080345Y-56657893D01*
X129089016Y-56644916D01*
X129101993Y-56636245D01*
X129117300Y-56633200D01*
X130617300Y-56633200D01*
X130632607Y-56636245D01*
G37*
G36*
X106345708Y-56623574D02*
G01*
X106406671Y-56631600D01*
X106422007Y-56638751D01*
X106440711Y-56642472D01*
X106465485Y-56659025D01*
X106490853Y-56670855D01*
X106506286Y-56686288D01*
X106526683Y-56699917D01*
X106540311Y-56720313D01*
X106555744Y-56735746D01*
X106567572Y-56761112D01*
X106584128Y-56785889D01*
X106587848Y-56804594D01*
X106594999Y-56819928D01*
X106603022Y-56880878D01*
X106604300Y-56887300D01*
X106604300Y-57337300D01*
X106603022Y-57343723D01*
X106594999Y-57404671D01*
X106587849Y-57420003D01*
X106584128Y-57438711D01*
X106567570Y-57463490D01*
X106555744Y-57488853D01*
X106540313Y-57504283D01*
X106526683Y-57524683D01*
X106506283Y-57538313D01*
X106490853Y-57553744D01*
X106465490Y-57565570D01*
X106440711Y-57582128D01*
X106422003Y-57585849D01*
X106406671Y-57592999D01*
X106345723Y-57601022D01*
X106339300Y-57602300D01*
X105839300Y-57602300D01*
X105832878Y-57601022D01*
X105771928Y-57592999D01*
X105756594Y-57585848D01*
X105737889Y-57582128D01*
X105713112Y-57565572D01*
X105687746Y-57553744D01*
X105672313Y-57538311D01*
X105651917Y-57524683D01*
X105638288Y-57504286D01*
X105622855Y-57488853D01*
X105611025Y-57463485D01*
X105594472Y-57438711D01*
X105590751Y-57420007D01*
X105583600Y-57404671D01*
X105575574Y-57343708D01*
X105574300Y-57337300D01*
X105574300Y-56887300D01*
X105575574Y-56880893D01*
X105583600Y-56819928D01*
X105590752Y-56804590D01*
X105594472Y-56785889D01*
X105611024Y-56761116D01*
X105622855Y-56735746D01*
X105638290Y-56720310D01*
X105651917Y-56699917D01*
X105672310Y-56686290D01*
X105687746Y-56670855D01*
X105713116Y-56659024D01*
X105737889Y-56642472D01*
X105756590Y-56638752D01*
X105771928Y-56631600D01*
X105832893Y-56623574D01*
X105839300Y-56622300D01*
X106339300Y-56622300D01*
X106345708Y-56623574D01*
G37*
G36*
X113132607Y-55366245D02*
G01*
X113145584Y-55374916D01*
X113154255Y-55387893D01*
X113157300Y-55403200D01*
X113157300Y-56303200D01*
X113154255Y-56318507D01*
X113145584Y-56331484D01*
X113132607Y-56340155D01*
X113117300Y-56343200D01*
X111617300Y-56343200D01*
X111601993Y-56340155D01*
X111589016Y-56331484D01*
X111580345Y-56318507D01*
X111577300Y-56303200D01*
X111577300Y-55403200D01*
X111580345Y-55387893D01*
X111589016Y-55374916D01*
X111601993Y-55366245D01*
X111617300Y-55363200D01*
X113117300Y-55363200D01*
X113132607Y-55366245D01*
G37*
G36*
X130632607Y-55366245D02*
G01*
X130645584Y-55374916D01*
X130654255Y-55387893D01*
X130657300Y-55403200D01*
X130657300Y-56303200D01*
X130654255Y-56318507D01*
X130645584Y-56331484D01*
X130632607Y-56340155D01*
X130617300Y-56343200D01*
X129117300Y-56343200D01*
X129101993Y-56340155D01*
X129089016Y-56331484D01*
X129080345Y-56318507D01*
X129077300Y-56303200D01*
X129077300Y-55403200D01*
X129080345Y-55387893D01*
X129089016Y-55374916D01*
X129101993Y-55366245D01*
X129117300Y-55363200D01*
X130617300Y-55363200D01*
X130632607Y-55366245D01*
G37*
G36*
X106345708Y-55073574D02*
G01*
X106406671Y-55081600D01*
X106422007Y-55088751D01*
X106440711Y-55092472D01*
X106465485Y-55109025D01*
X106490853Y-55120855D01*
X106506286Y-55136288D01*
X106526683Y-55149917D01*
X106540311Y-55170313D01*
X106555744Y-55185746D01*
X106567572Y-55211112D01*
X106584128Y-55235889D01*
X106587848Y-55254594D01*
X106594999Y-55269928D01*
X106603022Y-55330878D01*
X106604300Y-55337300D01*
X106604300Y-55787300D01*
X106603022Y-55793723D01*
X106594999Y-55854671D01*
X106587849Y-55870003D01*
X106584128Y-55888711D01*
X106567570Y-55913490D01*
X106555744Y-55938853D01*
X106540313Y-55954283D01*
X106526683Y-55974683D01*
X106506283Y-55988313D01*
X106490853Y-56003744D01*
X106465490Y-56015570D01*
X106440711Y-56032128D01*
X106422003Y-56035849D01*
X106406671Y-56042999D01*
X106345723Y-56051022D01*
X106339300Y-56052300D01*
X105839300Y-56052300D01*
X105832878Y-56051022D01*
X105771928Y-56042999D01*
X105756594Y-56035848D01*
X105737889Y-56032128D01*
X105713112Y-56015572D01*
X105687746Y-56003744D01*
X105672313Y-55988311D01*
X105651917Y-55974683D01*
X105638288Y-55954286D01*
X105622855Y-55938853D01*
X105611025Y-55913485D01*
X105594472Y-55888711D01*
X105590751Y-55870007D01*
X105583600Y-55854671D01*
X105575574Y-55793708D01*
X105574300Y-55787300D01*
X105574300Y-55337300D01*
X105575574Y-55330893D01*
X105583600Y-55269928D01*
X105590752Y-55254590D01*
X105594472Y-55235889D01*
X105611024Y-55211116D01*
X105622855Y-55185746D01*
X105638290Y-55170310D01*
X105651917Y-55149917D01*
X105672310Y-55136290D01*
X105687746Y-55120855D01*
X105713116Y-55109024D01*
X105737889Y-55092472D01*
X105756590Y-55088752D01*
X105771928Y-55081600D01*
X105832893Y-55073574D01*
X105839300Y-55072300D01*
X106339300Y-55072300D01*
X106345708Y-55073574D01*
G37*
G36*
X136392325Y-54193560D02*
G01*
X136562300Y-54269237D01*
X136712826Y-54378601D01*
X136837325Y-54516871D01*
X136930355Y-54678004D01*
X136987851Y-54854959D01*
X137007300Y-55040000D01*
X136987851Y-55225041D01*
X136930355Y-55401996D01*
X136837325Y-55563129D01*
X136712826Y-55701399D01*
X136562300Y-55810763D01*
X136392325Y-55886440D01*
X136210330Y-55925124D01*
X136024270Y-55925124D01*
X135842275Y-55886440D01*
X135672300Y-55810763D01*
X135521774Y-55701399D01*
X135397275Y-55563129D01*
X135304245Y-55401996D01*
X135246749Y-55225041D01*
X135227300Y-55040000D01*
X135246749Y-54854959D01*
X135304245Y-54678004D01*
X135397275Y-54516871D01*
X135521774Y-54378601D01*
X135672300Y-54269237D01*
X135842275Y-54193560D01*
X136024270Y-54154876D01*
X136210330Y-54154876D01*
X136392325Y-54193560D01*
G37*
G36*
X113132607Y-54096245D02*
G01*
X113145584Y-54104916D01*
X113154255Y-54117893D01*
X113157300Y-54133200D01*
X113157300Y-55033200D01*
X113154255Y-55048507D01*
X113145584Y-55061484D01*
X113132607Y-55070155D01*
X113117300Y-55073200D01*
X111617300Y-55073200D01*
X111601993Y-55070155D01*
X111589016Y-55061484D01*
X111580345Y-55048507D01*
X111577300Y-55033200D01*
X111577300Y-54133200D01*
X111580345Y-54117893D01*
X111589016Y-54104916D01*
X111601993Y-54096245D01*
X111617300Y-54093200D01*
X113117300Y-54093200D01*
X113132607Y-54096245D01*
G37*
G36*
X130632607Y-54096245D02*
G01*
X130645584Y-54104916D01*
X130654255Y-54117893D01*
X130657300Y-54133200D01*
X130657300Y-55033200D01*
X130654255Y-55048507D01*
X130645584Y-55061484D01*
X130632607Y-55070155D01*
X130617300Y-55073200D01*
X129117300Y-55073200D01*
X129101993Y-55070155D01*
X129089016Y-55061484D01*
X129080345Y-55048507D01*
X129077300Y-55033200D01*
X129077300Y-54133200D01*
X129080345Y-54117893D01*
X129089016Y-54104916D01*
X129101993Y-54096245D01*
X129117300Y-54093200D01*
X130617300Y-54093200D01*
X130632607Y-54096245D01*
G37*
G36*
X89662390Y-52572415D02*
G01*
X89849983Y-52629320D01*
X90022870Y-52721730D01*
X90174407Y-52846093D01*
X90298770Y-52997630D01*
X90391180Y-53170517D01*
X90448085Y-53358110D01*
X90467300Y-53553200D01*
X90448085Y-53748290D01*
X90391180Y-53935883D01*
X90298770Y-54108770D01*
X90174407Y-54260307D01*
X90022870Y-54384670D01*
X89849983Y-54477080D01*
X89662390Y-54533985D01*
X89467300Y-54553200D01*
X89272210Y-54533985D01*
X89084617Y-54477080D01*
X88911730Y-54384670D01*
X88760193Y-54260307D01*
X88635830Y-54108770D01*
X88543420Y-53935883D01*
X88486515Y-53748290D01*
X88467300Y-53553200D01*
X88486515Y-53358110D01*
X88543420Y-53170517D01*
X88635830Y-52997630D01*
X88760193Y-52846093D01*
X88911730Y-52721730D01*
X89084617Y-52629320D01*
X89272210Y-52572415D01*
X89467300Y-52553200D01*
X89662390Y-52572415D01*
G37*
G36*
X152962390Y-52572415D02*
G01*
X153149983Y-52629320D01*
X153322870Y-52721730D01*
X153474407Y-52846093D01*
X153598770Y-52997630D01*
X153691180Y-53170517D01*
X153748085Y-53358110D01*
X153767300Y-53553200D01*
X153748085Y-53748290D01*
X153691180Y-53935883D01*
X153598770Y-54108770D01*
X153474407Y-54260307D01*
X153322870Y-54384670D01*
X153149983Y-54477080D01*
X152962390Y-54533985D01*
X152767300Y-54553200D01*
X152572210Y-54533985D01*
X152384617Y-54477080D01*
X152211730Y-54384670D01*
X152060193Y-54260307D01*
X151935830Y-54108770D01*
X151843420Y-53935883D01*
X151786515Y-53748290D01*
X151767300Y-53553200D01*
X151786515Y-53358110D01*
X151843420Y-53170517D01*
X151935830Y-52997630D01*
X152060193Y-52846093D01*
X152211730Y-52721730D01*
X152384617Y-52629320D01*
X152572210Y-52572415D01*
X152767300Y-52553200D01*
X152962390Y-52572415D01*
G37*
G36*
X106368347Y-53323105D02*
G01*
X106417418Y-53328798D01*
X106434183Y-53336200D01*
X106456144Y-53340569D01*
X106479654Y-53356278D01*
X106499442Y-53365015D01*
X106512956Y-53378529D01*
X106534006Y-53392594D01*
X106548070Y-53413643D01*
X106561584Y-53427157D01*
X106570320Y-53446943D01*
X106586031Y-53470456D01*
X106590399Y-53492418D01*
X106597801Y-53509181D01*
X106603492Y-53558242D01*
X106604300Y-53562300D01*
X106604300Y-53962300D01*
X106603492Y-53966359D01*
X106597801Y-54015418D01*
X106590399Y-54032179D01*
X106586031Y-54054144D01*
X106570319Y-54077658D01*
X106561584Y-54097442D01*
X106548072Y-54110953D01*
X106534006Y-54132006D01*
X106512953Y-54146072D01*
X106499442Y-54159584D01*
X106479658Y-54168319D01*
X106456144Y-54184031D01*
X106434179Y-54188399D01*
X106417418Y-54195801D01*
X106368359Y-54201492D01*
X106364300Y-54202300D01*
X105814300Y-54202300D01*
X105810242Y-54201492D01*
X105761181Y-54195801D01*
X105744418Y-54188399D01*
X105722456Y-54184031D01*
X105698943Y-54168320D01*
X105679157Y-54159584D01*
X105665643Y-54146070D01*
X105644594Y-54132006D01*
X105630529Y-54110956D01*
X105617015Y-54097442D01*
X105608278Y-54077654D01*
X105592569Y-54054144D01*
X105588200Y-54032183D01*
X105580798Y-54015418D01*
X105575105Y-53966347D01*
X105574300Y-53962300D01*
X105574300Y-53562300D01*
X105575104Y-53558254D01*
X105580798Y-53509181D01*
X105588201Y-53492414D01*
X105592569Y-53470456D01*
X105608276Y-53446947D01*
X105617015Y-53427157D01*
X105630531Y-53413640D01*
X105644594Y-53392594D01*
X105665640Y-53378531D01*
X105679157Y-53365015D01*
X105698947Y-53356276D01*
X105722456Y-53340569D01*
X105744414Y-53336201D01*
X105761181Y-53328798D01*
X105810254Y-53323104D01*
X105814300Y-53322300D01*
X106364300Y-53322300D01*
X106368347Y-53323105D01*
G37*
G36*
X108373708Y-53223574D02*
G01*
X108434671Y-53231600D01*
X108450007Y-53238751D01*
X108468711Y-53242472D01*
X108493485Y-53259025D01*
X108518853Y-53270855D01*
X108534286Y-53286288D01*
X108554683Y-53299917D01*
X108568311Y-53320313D01*
X108583744Y-53335746D01*
X108595572Y-53361112D01*
X108612128Y-53385889D01*
X108615848Y-53404594D01*
X108622999Y-53419928D01*
X108631022Y-53480878D01*
X108632300Y-53487300D01*
X108632300Y-53937300D01*
X108631022Y-53943723D01*
X108622999Y-54004671D01*
X108615849Y-54020003D01*
X108612128Y-54038711D01*
X108595570Y-54063490D01*
X108583744Y-54088853D01*
X108568313Y-54104283D01*
X108554683Y-54124683D01*
X108534283Y-54138313D01*
X108518853Y-54153744D01*
X108493490Y-54165570D01*
X108468711Y-54182128D01*
X108450003Y-54185849D01*
X108434671Y-54192999D01*
X108373723Y-54201022D01*
X108367300Y-54202300D01*
X107867300Y-54202300D01*
X107860878Y-54201022D01*
X107799928Y-54192999D01*
X107784594Y-54185848D01*
X107765889Y-54182128D01*
X107741112Y-54165572D01*
X107715746Y-54153744D01*
X107700313Y-54138311D01*
X107679917Y-54124683D01*
X107666288Y-54104286D01*
X107650855Y-54088853D01*
X107639025Y-54063485D01*
X107622472Y-54038711D01*
X107618751Y-54020007D01*
X107611600Y-54004671D01*
X107603574Y-53943708D01*
X107602300Y-53937300D01*
X107602300Y-53487300D01*
X107603574Y-53480893D01*
X107611600Y-53419928D01*
X107618752Y-53404590D01*
X107622472Y-53385889D01*
X107639024Y-53361116D01*
X107650855Y-53335746D01*
X107666290Y-53320310D01*
X107679917Y-53299917D01*
X107700310Y-53286290D01*
X107715746Y-53270855D01*
X107741116Y-53259024D01*
X107765889Y-53242472D01*
X107784590Y-53238752D01*
X107799928Y-53231600D01*
X107860893Y-53223574D01*
X107867300Y-53222300D01*
X108367300Y-53222300D01*
X108373708Y-53223574D01*
G37*
G36*
X110451708Y-53223474D02*
G01*
X110512671Y-53231500D01*
X110528007Y-53238651D01*
X110546711Y-53242372D01*
X110571485Y-53258925D01*
X110596853Y-53270755D01*
X110612286Y-53286188D01*
X110632683Y-53299817D01*
X110646311Y-53320213D01*
X110661744Y-53335646D01*
X110673572Y-53361012D01*
X110690128Y-53385789D01*
X110693848Y-53404494D01*
X110700999Y-53419828D01*
X110709022Y-53480778D01*
X110710300Y-53487200D01*
X110710300Y-53937200D01*
X110709022Y-53943623D01*
X110700999Y-54004571D01*
X110693849Y-54019903D01*
X110690128Y-54038611D01*
X110673570Y-54063390D01*
X110661744Y-54088753D01*
X110646313Y-54104183D01*
X110632683Y-54124583D01*
X110612283Y-54138213D01*
X110596853Y-54153644D01*
X110571490Y-54165470D01*
X110546711Y-54182028D01*
X110528003Y-54185749D01*
X110512671Y-54192899D01*
X110451723Y-54200922D01*
X110445300Y-54202200D01*
X109945300Y-54202200D01*
X109938878Y-54200922D01*
X109877928Y-54192899D01*
X109862594Y-54185748D01*
X109843889Y-54182028D01*
X109819112Y-54165472D01*
X109793746Y-54153644D01*
X109778313Y-54138211D01*
X109757917Y-54124583D01*
X109744288Y-54104186D01*
X109728855Y-54088753D01*
X109717025Y-54063385D01*
X109700472Y-54038611D01*
X109696751Y-54019907D01*
X109689600Y-54004571D01*
X109681574Y-53943608D01*
X109680300Y-53937200D01*
X109680300Y-53487200D01*
X109681574Y-53480793D01*
X109689600Y-53419828D01*
X109696752Y-53404490D01*
X109700472Y-53385789D01*
X109717024Y-53361016D01*
X109728855Y-53335646D01*
X109744290Y-53320210D01*
X109757917Y-53299817D01*
X109778310Y-53286190D01*
X109793746Y-53270755D01*
X109819116Y-53258924D01*
X109843889Y-53242372D01*
X109862590Y-53238652D01*
X109877928Y-53231500D01*
X109938893Y-53223474D01*
X109945300Y-53222200D01*
X110445300Y-53222200D01*
X110451708Y-53223474D01*
G37*
G36*
X113132607Y-52826245D02*
G01*
X113145584Y-52834916D01*
X113154255Y-52847893D01*
X113157300Y-52863200D01*
X113157300Y-53763200D01*
X113154255Y-53778507D01*
X113145584Y-53791484D01*
X113132607Y-53800155D01*
X113117300Y-53803200D01*
X111617300Y-53803200D01*
X111601993Y-53800155D01*
X111589016Y-53791484D01*
X111580345Y-53778507D01*
X111577300Y-53763200D01*
X111577300Y-52863200D01*
X111580345Y-52847893D01*
X111589016Y-52834916D01*
X111601993Y-52826245D01*
X111617300Y-52823200D01*
X113117300Y-52823200D01*
X113132607Y-52826245D01*
G37*
G36*
X130632607Y-52826245D02*
G01*
X130645584Y-52834916D01*
X130654255Y-52847893D01*
X130657300Y-52863200D01*
X130657300Y-53763200D01*
X130654255Y-53778507D01*
X130645584Y-53791484D01*
X130632607Y-53800155D01*
X130617300Y-53803200D01*
X129117300Y-53803200D01*
X129101993Y-53800155D01*
X129089016Y-53791484D01*
X129080345Y-53778507D01*
X129077300Y-53763200D01*
X129077300Y-52863200D01*
X129080345Y-52847893D01*
X129089016Y-52834916D01*
X129101993Y-52826245D01*
X129117300Y-52823200D01*
X130617300Y-52823200D01*
X130632607Y-52826245D01*
G37*
G36*
X136982607Y-51613045D02*
G01*
X136995584Y-51621716D01*
X137004255Y-51634693D01*
X137007300Y-51650000D01*
X137007300Y-53350000D01*
X137004255Y-53365307D01*
X136995584Y-53378284D01*
X136982607Y-53386955D01*
X136967300Y-53390000D01*
X135267300Y-53390000D01*
X135251993Y-53386955D01*
X135239016Y-53378284D01*
X135230345Y-53365307D01*
X135227300Y-53350000D01*
X135227300Y-51650000D01*
X135230345Y-51634693D01*
X135239016Y-51621716D01*
X135251993Y-51613045D01*
X135267300Y-51610000D01*
X136967300Y-51610000D01*
X136982607Y-51613045D01*
G37*
G36*
X108373708Y-51673574D02*
G01*
X108434671Y-51681600D01*
X108450007Y-51688751D01*
X108468711Y-51692472D01*
X108493485Y-51709025D01*
X108518853Y-51720855D01*
X108534286Y-51736288D01*
X108554683Y-51749917D01*
X108568311Y-51770313D01*
X108583744Y-51785746D01*
X108595572Y-51811112D01*
X108612128Y-51835889D01*
X108615848Y-51854594D01*
X108622999Y-51869928D01*
X108631022Y-51930878D01*
X108632300Y-51937300D01*
X108632300Y-52387300D01*
X108631022Y-52393723D01*
X108622999Y-52454671D01*
X108615849Y-52470003D01*
X108612128Y-52488711D01*
X108595570Y-52513490D01*
X108583744Y-52538853D01*
X108568313Y-52554283D01*
X108554683Y-52574683D01*
X108534283Y-52588313D01*
X108518853Y-52603744D01*
X108493490Y-52615570D01*
X108468711Y-52632128D01*
X108450003Y-52635849D01*
X108434671Y-52642999D01*
X108373723Y-52651022D01*
X108367300Y-52652300D01*
X107867300Y-52652300D01*
X107860878Y-52651022D01*
X107799928Y-52642999D01*
X107784594Y-52635848D01*
X107765889Y-52632128D01*
X107741112Y-52615572D01*
X107715746Y-52603744D01*
X107700313Y-52588311D01*
X107679917Y-52574683D01*
X107666288Y-52554286D01*
X107650855Y-52538853D01*
X107639025Y-52513485D01*
X107622472Y-52488711D01*
X107618751Y-52470007D01*
X107611600Y-52454671D01*
X107603574Y-52393708D01*
X107602300Y-52387300D01*
X107602300Y-51937300D01*
X107603574Y-51930893D01*
X107611600Y-51869928D01*
X107618752Y-51854590D01*
X107622472Y-51835889D01*
X107639024Y-51811116D01*
X107650855Y-51785746D01*
X107666290Y-51770310D01*
X107679917Y-51749917D01*
X107700310Y-51736290D01*
X107715746Y-51720855D01*
X107741116Y-51709024D01*
X107765889Y-51692472D01*
X107784590Y-51688752D01*
X107799928Y-51681600D01*
X107860893Y-51673574D01*
X107867300Y-51672300D01*
X108367300Y-51672300D01*
X108373708Y-51673574D01*
G37*
G36*
X110451708Y-51673474D02*
G01*
X110512671Y-51681500D01*
X110528007Y-51688651D01*
X110546711Y-51692372D01*
X110571485Y-51708925D01*
X110596853Y-51720755D01*
X110612286Y-51736188D01*
X110632683Y-51749817D01*
X110646311Y-51770213D01*
X110661744Y-51785646D01*
X110673572Y-51811012D01*
X110690128Y-51835789D01*
X110693848Y-51854494D01*
X110700999Y-51869828D01*
X110709022Y-51930778D01*
X110710300Y-51937200D01*
X110710300Y-52387200D01*
X110709022Y-52393623D01*
X110700999Y-52454571D01*
X110693849Y-52469903D01*
X110690128Y-52488611D01*
X110673570Y-52513390D01*
X110661744Y-52538753D01*
X110646313Y-52554183D01*
X110632683Y-52574583D01*
X110612283Y-52588213D01*
X110596853Y-52603644D01*
X110571490Y-52615470D01*
X110546711Y-52632028D01*
X110528003Y-52635749D01*
X110512671Y-52642899D01*
X110451723Y-52650922D01*
X110445300Y-52652200D01*
X109945300Y-52652200D01*
X109938878Y-52650922D01*
X109877928Y-52642899D01*
X109862594Y-52635748D01*
X109843889Y-52632028D01*
X109819112Y-52615472D01*
X109793746Y-52603644D01*
X109778313Y-52588211D01*
X109757917Y-52574583D01*
X109744288Y-52554186D01*
X109728855Y-52538753D01*
X109717025Y-52513385D01*
X109700472Y-52488611D01*
X109696751Y-52469907D01*
X109689600Y-52454571D01*
X109681574Y-52393608D01*
X109680300Y-52387200D01*
X109680300Y-51937200D01*
X109681574Y-51930793D01*
X109689600Y-51869828D01*
X109696752Y-51854490D01*
X109700472Y-51835789D01*
X109717024Y-51811016D01*
X109728855Y-51785646D01*
X109744290Y-51770210D01*
X109757917Y-51749817D01*
X109778310Y-51736190D01*
X109793746Y-51720755D01*
X109819116Y-51708924D01*
X109843889Y-51692372D01*
X109862590Y-51688652D01*
X109877928Y-51681500D01*
X109938893Y-51673474D01*
X109945300Y-51672200D01*
X110445300Y-51672200D01*
X110451708Y-51673474D01*
G37*
G36*
X106368347Y-51673105D02*
G01*
X106417418Y-51678798D01*
X106434183Y-51686200D01*
X106456144Y-51690569D01*
X106479654Y-51706278D01*
X106499442Y-51715015D01*
X106512956Y-51728529D01*
X106534006Y-51742594D01*
X106548070Y-51763643D01*
X106561584Y-51777157D01*
X106570320Y-51796943D01*
X106586031Y-51820456D01*
X106590399Y-51842418D01*
X106597801Y-51859181D01*
X106603492Y-51908242D01*
X106604300Y-51912300D01*
X106604300Y-52312300D01*
X106603492Y-52316359D01*
X106597801Y-52365418D01*
X106590399Y-52382179D01*
X106586031Y-52404144D01*
X106570319Y-52427658D01*
X106561584Y-52447442D01*
X106548072Y-52460953D01*
X106534006Y-52482006D01*
X106512953Y-52496072D01*
X106499442Y-52509584D01*
X106479658Y-52518319D01*
X106456144Y-52534031D01*
X106434179Y-52538399D01*
X106417418Y-52545801D01*
X106368359Y-52551492D01*
X106364300Y-52552300D01*
X105814300Y-52552300D01*
X105810242Y-52551492D01*
X105761181Y-52545801D01*
X105744418Y-52538399D01*
X105722456Y-52534031D01*
X105698943Y-52518320D01*
X105679157Y-52509584D01*
X105665643Y-52496070D01*
X105644594Y-52482006D01*
X105630529Y-52460956D01*
X105617015Y-52447442D01*
X105608278Y-52427654D01*
X105592569Y-52404144D01*
X105588200Y-52382183D01*
X105580798Y-52365418D01*
X105575105Y-52316347D01*
X105574300Y-52312300D01*
X105574300Y-51912300D01*
X105575104Y-51908254D01*
X105580798Y-51859181D01*
X105588201Y-51842414D01*
X105592569Y-51820456D01*
X105608276Y-51796947D01*
X105617015Y-51777157D01*
X105630531Y-51763640D01*
X105644594Y-51742594D01*
X105665640Y-51728531D01*
X105679157Y-51715015D01*
X105698947Y-51706276D01*
X105722456Y-51690569D01*
X105744414Y-51686201D01*
X105761181Y-51678798D01*
X105810254Y-51673104D01*
X105814300Y-51672300D01*
X106364300Y-51672300D01*
X106368347Y-51673105D01*
G37*
G36*
X113132607Y-51556245D02*
G01*
X113145584Y-51564916D01*
X113154255Y-51577893D01*
X113157300Y-51593200D01*
X113157300Y-52493200D01*
X113154255Y-52508507D01*
X113145584Y-52521484D01*
X113132607Y-52530155D01*
X113117300Y-52533200D01*
X111617300Y-52533200D01*
X111601993Y-52530155D01*
X111589016Y-52521484D01*
X111580345Y-52508507D01*
X111577300Y-52493200D01*
X111577300Y-51593200D01*
X111580345Y-51577893D01*
X111589016Y-51564916D01*
X111601993Y-51556245D01*
X111617300Y-51553200D01*
X113117300Y-51553200D01*
X113132607Y-51556245D01*
G37*
G36*
X130632607Y-51556245D02*
G01*
X130645584Y-51564916D01*
X130654255Y-51577893D01*
X130657300Y-51593200D01*
X130657300Y-52493200D01*
X130654255Y-52508507D01*
X130645584Y-52521484D01*
X130632607Y-52530155D01*
X130617300Y-52533200D01*
X129117300Y-52533200D01*
X129101993Y-52530155D01*
X129089016Y-52521484D01*
X129080345Y-52508507D01*
X129077300Y-52493200D01*
X129077300Y-51593200D01*
X129080345Y-51577893D01*
X129089016Y-51564916D01*
X129101993Y-51556245D01*
X129117300Y-51553200D01*
X130617300Y-51553200D01*
X130632607Y-51556245D01*
G37*
G36*
X107458525Y-45955734D02*
G01*
X107675657Y-46030275D01*
X107877558Y-46139539D01*
X108058721Y-46280544D01*
X108214205Y-46449444D01*
X108339769Y-46641633D01*
X108431986Y-46851868D01*
X108488342Y-47074414D01*
X108507300Y-47303200D01*
X108488342Y-47531986D01*
X108431986Y-47754532D01*
X108339769Y-47964767D01*
X108214205Y-48156956D01*
X108058721Y-48325856D01*
X107877558Y-48466861D01*
X107675657Y-48576125D01*
X107458525Y-48650666D01*
X107232085Y-48688452D01*
X107002515Y-48688452D01*
X106776075Y-48650666D01*
X106558943Y-48576125D01*
X106357042Y-48466861D01*
X106175879Y-48325856D01*
X106020395Y-48156956D01*
X105894831Y-47964767D01*
X105802614Y-47754532D01*
X105746258Y-47531986D01*
X105727300Y-47303200D01*
X105746258Y-47074414D01*
X105802614Y-46851868D01*
X105894831Y-46641633D01*
X106020395Y-46449444D01*
X106175879Y-46280544D01*
X106357042Y-46139539D01*
X106558943Y-46030275D01*
X106776075Y-45955734D01*
X107002515Y-45917948D01*
X107232085Y-45917948D01*
X107458525Y-45955734D01*
G37*
G36*
X135458525Y-45955734D02*
G01*
X135675657Y-46030275D01*
X135877558Y-46139539D01*
X136058721Y-46280544D01*
X136214205Y-46449444D01*
X136339769Y-46641633D01*
X136431986Y-46851868D01*
X136488342Y-47074414D01*
X136507300Y-47303200D01*
X136488342Y-47531986D01*
X136431986Y-47754532D01*
X136339769Y-47964767D01*
X136214205Y-48156956D01*
X136058721Y-48325856D01*
X135877558Y-48466861D01*
X135675657Y-48576125D01*
X135458525Y-48650666D01*
X135232085Y-48688452D01*
X135002515Y-48688452D01*
X134776075Y-48650666D01*
X134558943Y-48576125D01*
X134357042Y-48466861D01*
X134175879Y-48325856D01*
X134020395Y-48156956D01*
X133894831Y-47964767D01*
X133802614Y-47754532D01*
X133746258Y-47531986D01*
X133727300Y-47303200D01*
X133746258Y-47074414D01*
X133802614Y-46851868D01*
X133894831Y-46641633D01*
X134020395Y-46449444D01*
X134175879Y-46280544D01*
X134357042Y-46139539D01*
X134558943Y-46030275D01*
X134776075Y-45955734D01*
X135002515Y-45917948D01*
X135232085Y-45917948D01*
X135458525Y-45955734D01*
G37*
M02*
