M48
; DRILL file {KiCad 7.0.5-7.0.5~ubuntu23.04.1} date Fr 30 Jun 2023 21:46:09
; FORMAT={-:-/ absolute / inch / decimal}
; #@! TF.CreationDate,2023-06-30T21:46:09+02:00
; #@! TF.GenerationSoftware,Kicad,Pcbnew,7.0.5-7.0.5~ubuntu23.04.1
; #@! TF.FileFunction,Plated,1,4,PTH
FMAT,2
INCH
; #@! TA.AperFunction,Plated,PTH,ViaDrill
T1C0.0118
; #@! TA.AperFunction,Plated,PTH,ComponentDrill
T2C0.0236
; #@! TA.AperFunction,Plated,PTH,ComponentDrill
T3C0.0394
%
G90
G05
T1
X4.1375Y-2.0513
X4.1414Y-2.2491
X4.2113Y-3.5159
X4.2133Y-2.2482
X4.2212Y-2.0533
X4.2969Y-2.0533
X4.2979Y-2.1143
X4.3708Y-2.197
X4.3708Y-2.2482
X4.3708Y-2.2993
X4.3708Y-2.3466
X4.3708Y-2.3978
X4.3708Y-2.4489
X4.3708Y-2.4962
X4.3708Y-2.5474
X4.3708Y-2.5986
X4.3747Y-2.948
X4.3757Y-2.0493
X4.3757Y-2.0995
X4.3757Y-3.4322
X4.4337Y-3.1021
X4.4347Y-3.0572
X4.4376Y-3.2832
X4.4416Y-3.3338
X4.4685Y-3.189
X4.4702Y-2.0484
X4.4712Y-2.0986
X4.4928Y-2.7954
X4.5079Y-3.626
X4.5163Y-3.3265
X4.544Y-2.7954
X4.5512Y-3.6772
X4.563Y-3.1496
X4.563Y-3.2244
X4.5675Y-3.1887
X4.5692Y-3.4604
X4.5709Y-3.5079
X4.5952Y-2.7954
X4.5984Y-3.4685
X4.6012Y-3.5
X4.622Y-2.2677
X4.6247Y-3.2915
X4.626Y-2.437
X4.6267Y-2.3269
X4.6267Y-2.382
X4.6464Y-2.7954
X4.6818Y-2.2678
X4.6818Y-2.3269
X4.6818Y-2.382
X4.6818Y-2.4371
X4.689Y-3.5
X4.6897Y-3.4685
X4.6936Y-2.7954
X4.7044Y-3.005
X4.7064Y-2.9293
X4.7369Y-2.2678
X4.7369Y-2.3269
X4.7369Y-2.382
X4.7369Y-2.4371
X4.7448Y-2.7954
X4.7536Y-2.8919
X4.755Y-3.5009
X4.7633Y-3.6023
X4.7913Y-2.437
X4.792Y-2.3269
X4.792Y-2.382
X4.7923Y-3.4636
X4.7953Y-2.2677
X4.796Y-2.7954
X4.7989Y-3.007
X4.7999Y-2.9312
X4.8097Y-3.1989
X4.8218Y-3.5876
X4.8425Y-3.4921
X4.8471Y-2.7954
X4.8474Y-3.4622
X4.856Y-2.9194
X4.858Y-2.9844
X4.8583Y-3.0551
X4.8589Y-3.1409
X4.8875Y-3.259
X4.8937Y-3.4646
X4.8944Y-2.7954
X4.9213Y-2.8898
X4.9213Y-3.0551
X4.9213Y-3.1181
X4.9331Y-3.4618
X4.9331Y-3.4921
X4.9456Y-2.7954
X4.9685Y-2.8898
X4.9685Y-3.0551
X4.9685Y-3.1181
X4.9724Y-3.5118
X4.9843Y-3.4252
X4.9928Y-2.7954
X4.9967Y-3.6714
X5.0197Y-3.0551
X5.0433Y-3.626
X5.044Y-2.7954
X5.0656Y-2.0484
X5.0664Y-2.9184
X5.0664Y-2.9843
X5.0669Y-3.0551
X5.1149Y-2.7363
X5.1611Y-2.0484
X5.1621Y-2.0986
X5.1621Y-2.1497
X5.1621Y-2.2009
X5.1621Y-2.2993
X5.1621Y-2.3505
X5.1621Y-2.3978
X5.1621Y-2.4489
X5.1621Y-2.5001
X5.1621Y-2.5474
X5.1621Y-2.5986
X5.1621Y-2.6497
X5.2992Y-3.2047
X5.3334Y-3.5159
X5.3543Y-3.2047
X5.4078Y-2.6992
T3
X5.3589Y-2.0669
X5.3589Y-2.1669
X5.3589Y-2.2669
X5.3589Y-2.3669
X5.3589Y-2.4669
X5.3589Y-2.5669
T2
G00X4.2177Y-3.019
M15
G01X4.1862Y-3.019
M16
G05
G00X4.2177Y-3.3592
M15
G01X4.1862Y-3.3592
M16
G05
G00X4.389Y-3.019
M15
G01X4.3456Y-3.019
M16
G05
G00X4.389Y-3.3592
M15
G01X4.3456Y-3.3592
M16
G05
T0
M30
