%TF.GenerationSoftware,KiCad,Pcbnew,7.0.5-7.0.5~ubuntu20.04.1*%
%TF.CreationDate,2023-06-26T22:11:10+02:00*%
%TF.ProjectId,ESP32_UniBoard,45535033-325f-4556-9e69-426f6172642e,rev?*%
%TF.SameCoordinates,Original*%
%TF.FileFunction,Copper,L2,Inr*%
%TF.FilePolarity,Positive*%
%FSLAX46Y46*%
G04 Gerber Fmt 4.6, Leading zero omitted, Abs format (unit mm)*
G04 Created by KiCad (PCBNEW 7.0.5-7.0.5~ubuntu20.04.1) date 2023-06-26 22:11:10*
%MOMM*%
%LPD*%
G01*
G04 APERTURE LIST*
%TA.AperFunction,ComponentPad*%
%ADD10R,1.700000X1.700000*%
%TD*%
%TA.AperFunction,ComponentPad*%
%ADD11O,1.700000X1.700000*%
%TD*%
%TA.AperFunction,ComponentPad*%
%ADD12O,2.100000X1.000000*%
%TD*%
%TA.AperFunction,ComponentPad*%
%ADD13O,1.800000X1.000000*%
%TD*%
%TA.AperFunction,ViaPad*%
%ADD14C,0.600000*%
%TD*%
G04 APERTURE END LIST*
D10*
%TO.N,GND*%
%TO.C,J2*%
X136117300Y-52500000D03*
D11*
%TO.N,/ESP_TX*%
X136117300Y-55040000D03*
%TO.N,/ESP_RX*%
X136117300Y-57580000D03*
%TO.N,+3V3*%
X136117300Y-60120000D03*
%TO.N,/EN*%
X136117300Y-62660000D03*
%TO.N,/BOOT*%
X136117300Y-65200000D03*
%TD*%
D12*
%TO.N,unconnected-(J1-SHIELD-PadS1)*%
%TO.C,J1*%
X110929500Y-76683200D03*
D13*
X106729500Y-76683200D03*
D12*
X110929500Y-85323200D03*
D13*
X106729500Y-85323200D03*
%TD*%
D14*
%TO.N,GND*%
X123417300Y-79778200D03*
X116100000Y-89100000D03*
X107017300Y-57103200D03*
X114500000Y-92100000D03*
X128100000Y-92100000D03*
X135467300Y-89303200D03*
X126300000Y-89200000D03*
X105192300Y-57128200D03*
X117400000Y-57600000D03*
X111142300Y-52053200D03*
X113542300Y-52028200D03*
X120776591Y-88923409D03*
X113500000Y-81000000D03*
X117517300Y-60503200D03*
X107217300Y-52153200D03*
X126917300Y-93253700D03*
X117517300Y-59103200D03*
X119492300Y-76328200D03*
X118917300Y-60503200D03*
X109142300Y-52153200D03*
X121717300Y-59103200D03*
X134600000Y-81400000D03*
X112817300Y-84678200D03*
X136000000Y-81400000D03*
X120317300Y-59103200D03*
X124142300Y-82778200D03*
X131092300Y-52028200D03*
X118917300Y-59103200D03*
X121800000Y-57600000D03*
X121717300Y-60503200D03*
X120317300Y-60503200D03*
X121892300Y-76378200D03*
X118917300Y-57603200D03*
X112642300Y-77653200D03*
X121723409Y-87976591D03*
X121700000Y-61900000D03*
X126600000Y-87000000D03*
X120317300Y-61903200D03*
X120317300Y-57603200D03*
X122167300Y-81253200D03*
X111117300Y-74878200D03*
X111142300Y-87178200D03*
X115600000Y-93400000D03*
X117500000Y-61900000D03*
X116058732Y-87893467D03*
X106967300Y-89303200D03*
X118917300Y-61903200D03*
X128667300Y-52028200D03*
X117467300Y-83603200D03*
%TO.N,+3V3*%
X125300000Y-87930497D03*
X119542300Y-74403200D03*
X126200000Y-77600000D03*
X113567300Y-53303200D03*
X121917300Y-74453200D03*
X128686800Y-75800000D03*
X127500000Y-77600000D03*
X126200000Y-79200000D03*
X123124829Y-87940690D03*
X125000000Y-79200000D03*
X109167300Y-53703200D03*
X125000000Y-73400000D03*
X125000000Y-77600000D03*
X105092300Y-52103200D03*
X111142300Y-53328200D03*
X123400000Y-77600000D03*
X123392300Y-75803200D03*
X119100000Y-88900000D03*
X128686800Y-74128200D03*
X128700000Y-77600000D03*
X116869503Y-88900000D03*
X120742300Y-73453200D03*
X123342300Y-74153200D03*
X126200000Y-73400000D03*
%TO.N,/BOOT*%
X129917300Y-69503200D03*
X124300000Y-88000000D03*
%TO.N,VBUS*%
X114715100Y-84493200D03*
X112715100Y-83393200D03*
X116015100Y-80993200D03*
X112615100Y-78793200D03*
%TO.N,+5V*%
X123000000Y-88700000D03*
X116800000Y-88100000D03*
X119117300Y-88100000D03*
X125300000Y-88700000D03*
%TO.N,/ESP_TX*%
X131117300Y-55903200D03*
%TO.N,/ESP_RX*%
X122474414Y-91125586D03*
%TO.N,/GPIO4*%
X111017300Y-55803200D03*
%TO.N,/GPIO5*%
X111017300Y-57103200D03*
%TO.N,/GPIO6*%
X111017300Y-58403200D03*
%TO.N,/GPIO7*%
X111017300Y-59603200D03*
%TO.N,/GPIO15*%
X111017300Y-60903200D03*
%TO.N,/GPIO16*%
X111017300Y-62203200D03*
%TO.N,/GPIO17*%
X111017300Y-63403200D03*
%TO.N,/GPIO18*%
X111017300Y-64703200D03*
%TO.N,/GPIO8*%
X111017300Y-66003200D03*
%TO.N,/GPIO3*%
X114117300Y-71003200D03*
%TO.N,/GPIO46*%
X115417300Y-71003200D03*
%TO.N,/GPIO9*%
X116717300Y-71003200D03*
%TO.N,/GPIO10*%
X118017300Y-71003200D03*
%TO.N,/GPIO11*%
X119217300Y-71003200D03*
%TO.N,/GPIO12*%
X120517300Y-71003200D03*
%TO.N,/GPIO13*%
X121817300Y-71003200D03*
%TO.N,/GPIO14*%
X123117300Y-71003200D03*
%TO.N,/GPIO21*%
X124317300Y-71003200D03*
%TO.N,/GPIO47*%
X125617300Y-71003200D03*
%TO.N,/GPIO48*%
X126817300Y-71003200D03*
%TO.N,/GPIO45*%
X128117300Y-71003200D03*
%TO.N,/GPIO35*%
X131117300Y-67303200D03*
%TO.N,/GPIO36*%
X131117300Y-66003200D03*
%TO.N,/GPIO37*%
X131117300Y-64703200D03*
%TO.N,/GPIO38*%
X131117300Y-63503200D03*
%TO.N,/GPIO39*%
X131117300Y-62203200D03*
%TO.N,/GPIO40*%
X131117300Y-60903200D03*
%TO.N,/GPIO41*%
X131117300Y-59703200D03*
%TO.N,/GPIO42*%
X131117300Y-58403200D03*
%TO.N,/GPIO2*%
X131117300Y-54603200D03*
%TO.N,/GPIO1*%
X120987800Y-91499068D03*
X131117300Y-53303200D03*
X137358900Y-68558900D03*
%TO.N,/DPr_P*%
X115900000Y-81900000D03*
%TO.N,/DPr_N*%
X115900000Y-80000000D03*
%TD*%
%TA.AperFunction,Conductor*%
%TO.N,GND*%
G36*
X110769306Y-50557556D02*
G01*
X110812766Y-50571677D01*
X111014948Y-50603700D01*
X131219652Y-50603700D01*
X131421834Y-50571677D01*
X131465293Y-50557556D01*
X131492797Y-50553200D01*
X137727800Y-50553200D01*
X137785008Y-50574022D01*
X137815448Y-50626745D01*
X137816800Y-50642200D01*
X137816800Y-68191334D01*
X137795978Y-68248542D01*
X137743255Y-68278982D01*
X137683300Y-68268410D01*
X137660539Y-68249618D01*
X137659607Y-68248542D01*
X137643717Y-68230204D01*
X137539575Y-68163276D01*
X137539573Y-68163275D01*
X137539571Y-68163274D01*
X137420798Y-68128400D01*
X137420797Y-68128400D01*
X137297003Y-68128400D01*
X137297001Y-68128400D01*
X137178228Y-68163274D01*
X137074084Y-68230203D01*
X136993014Y-68323763D01*
X136941591Y-68436364D01*
X136923973Y-68558898D01*
X136923973Y-68558901D01*
X136941591Y-68681435D01*
X136993014Y-68794036D01*
X136993015Y-68794037D01*
X136993016Y-68794039D01*
X137074083Y-68887596D01*
X137178225Y-68954524D01*
X137297003Y-68989400D01*
X137297006Y-68989400D01*
X137420794Y-68989400D01*
X137420797Y-68989400D01*
X137539575Y-68954524D01*
X137643717Y-68887596D01*
X137660538Y-68868182D01*
X137713737Y-68838583D01*
X137773517Y-68850104D01*
X137811905Y-68897356D01*
X137816800Y-68926465D01*
X137816800Y-91617835D01*
X137816758Y-91619748D01*
X137807228Y-91838030D01*
X137799002Y-92026437D01*
X137798663Y-92030306D01*
X137745656Y-92432941D01*
X137744984Y-92436753D01*
X137690003Y-92684755D01*
X137657090Y-92833215D01*
X137656085Y-92836967D01*
X137533967Y-93224274D01*
X137532638Y-93227924D01*
X137377238Y-93603095D01*
X137375597Y-93606615D01*
X137188083Y-93966824D01*
X137186141Y-93970188D01*
X136967945Y-94312687D01*
X136965718Y-94315869D01*
X136718514Y-94638030D01*
X136716018Y-94641006D01*
X136441661Y-94940414D01*
X136438914Y-94943161D01*
X136139506Y-95217518D01*
X136136530Y-95220014D01*
X135814369Y-95467218D01*
X135811187Y-95469445D01*
X135468688Y-95687641D01*
X135465324Y-95689583D01*
X135105115Y-95877097D01*
X135101595Y-95878738D01*
X134726424Y-96034138D01*
X134722774Y-96035467D01*
X134335467Y-96157585D01*
X134331715Y-96158590D01*
X134183255Y-96191503D01*
X133935253Y-96246484D01*
X133931441Y-96247156D01*
X133528806Y-96300163D01*
X133524937Y-96300502D01*
X133436502Y-96304363D01*
X133118247Y-96318258D01*
X133116336Y-96318300D01*
X109118264Y-96318300D01*
X109116352Y-96318258D01*
X108780632Y-96303600D01*
X108709662Y-96300502D01*
X108705793Y-96300163D01*
X108303158Y-96247156D01*
X108299350Y-96246484D01*
X107902886Y-96158590D01*
X107899132Y-96157585D01*
X107511825Y-96035467D01*
X107508175Y-96034138D01*
X107133004Y-95878738D01*
X107129484Y-95877097D01*
X106769275Y-95689583D01*
X106765911Y-95687641D01*
X106423412Y-95469445D01*
X106420242Y-95467226D01*
X106232556Y-95323210D01*
X106098069Y-95220014D01*
X106095093Y-95217518D01*
X105795685Y-94943161D01*
X105792938Y-94940414D01*
X105518581Y-94641006D01*
X105516085Y-94638030D01*
X105407760Y-94496859D01*
X105268870Y-94315853D01*
X105266654Y-94312687D01*
X105048458Y-93970188D01*
X105046516Y-93966824D01*
X104859002Y-93606615D01*
X104857361Y-93603095D01*
X104836694Y-93553200D01*
X119511851Y-93553200D01*
X119531617Y-93804350D01*
X119590425Y-94049306D01*
X119686834Y-94282060D01*
X119818461Y-94496856D01*
X119818463Y-94496858D01*
X119818464Y-94496859D01*
X119982076Y-94688424D01*
X119982082Y-94688429D01*
X120173641Y-94852036D01*
X120173643Y-94852038D01*
X120388439Y-94983665D01*
X120388441Y-94983666D01*
X120621189Y-95080073D01*
X120866152Y-95138883D01*
X121054418Y-95153700D01*
X121054424Y-95153700D01*
X121180176Y-95153700D01*
X121180182Y-95153700D01*
X121368448Y-95138883D01*
X121613411Y-95080073D01*
X121846159Y-94983666D01*
X122060959Y-94852036D01*
X122252524Y-94688424D01*
X122416136Y-94496859D01*
X122547766Y-94282059D01*
X122644173Y-94049311D01*
X122702983Y-93804348D01*
X122722749Y-93553200D01*
X122702983Y-93302052D01*
X122644173Y-93057089D01*
X122547766Y-92824341D01*
X122476150Y-92707474D01*
X122416138Y-92609543D01*
X122416136Y-92609541D01*
X122252529Y-92417982D01*
X122252524Y-92417976D01*
X122252517Y-92417970D01*
X122060958Y-92254363D01*
X122060956Y-92254361D01*
X121846160Y-92122734D01*
X121618387Y-92028388D01*
X121613411Y-92026327D01*
X121613410Y-92026326D01*
X121613406Y-92026325D01*
X121368450Y-91967517D01*
X121360257Y-91966872D01*
X121341048Y-91965360D01*
X121285651Y-91940114D01*
X121259443Y-91885164D01*
X121274686Y-91826224D01*
X121280758Y-91818367D01*
X121353684Y-91734207D01*
X121405109Y-91621601D01*
X121422727Y-91499068D01*
X121405109Y-91376535D01*
X121353684Y-91263929D01*
X121272617Y-91170372D01*
X121202930Y-91125587D01*
X122039487Y-91125587D01*
X122057105Y-91248121D01*
X122108528Y-91360722D01*
X122108529Y-91360723D01*
X122108530Y-91360725D01*
X122189597Y-91454282D01*
X122293739Y-91521210D01*
X122412517Y-91556086D01*
X122412520Y-91556086D01*
X122536308Y-91556086D01*
X122536311Y-91556086D01*
X122655089Y-91521210D01*
X122759231Y-91454282D01*
X122840298Y-91360725D01*
X122891723Y-91248119D01*
X122909341Y-91125586D01*
X122906157Y-91103444D01*
X122901143Y-91068568D01*
X122891723Y-91003053D01*
X122840298Y-90890447D01*
X122759231Y-90796890D01*
X122655089Y-90729962D01*
X122655087Y-90729961D01*
X122655085Y-90729960D01*
X122536312Y-90695086D01*
X122536311Y-90695086D01*
X122412517Y-90695086D01*
X122412515Y-90695086D01*
X122293742Y-90729960D01*
X122189598Y-90796889D01*
X122108528Y-90890449D01*
X122057105Y-91003050D01*
X122039487Y-91125584D01*
X122039487Y-91125587D01*
X121202930Y-91125587D01*
X121168475Y-91103444D01*
X121168473Y-91103443D01*
X121168471Y-91103442D01*
X121049698Y-91068568D01*
X121049697Y-91068568D01*
X120925903Y-91068568D01*
X120925901Y-91068568D01*
X120807128Y-91103442D01*
X120702984Y-91170371D01*
X120621914Y-91263931D01*
X120570491Y-91376532D01*
X120552873Y-91499066D01*
X120552873Y-91499069D01*
X120570491Y-91621603D01*
X120621914Y-91734204D01*
X120621915Y-91734205D01*
X120621916Y-91734207D01*
X120702983Y-91827764D01*
X120730258Y-91845293D01*
X120767127Y-91893738D01*
X120764231Y-91954549D01*
X120722923Y-91999270D01*
X120702918Y-92006705D01*
X120621192Y-92026325D01*
X120388439Y-92122734D01*
X120173643Y-92254361D01*
X120173641Y-92254363D01*
X119982082Y-92417970D01*
X119982070Y-92417982D01*
X119818463Y-92609541D01*
X119818461Y-92609543D01*
X119686834Y-92824339D01*
X119590425Y-93057093D01*
X119531617Y-93302049D01*
X119511851Y-93553200D01*
X104836694Y-93553200D01*
X104834217Y-93547221D01*
X104779661Y-93415509D01*
X104701961Y-93227924D01*
X104700632Y-93224274D01*
X104578514Y-92836967D01*
X104577512Y-92833229D01*
X104489610Y-92436731D01*
X104488943Y-92432941D01*
X104435936Y-92030306D01*
X104435598Y-92026455D01*
X104417841Y-91619748D01*
X104417800Y-91617835D01*
X104417800Y-88100001D01*
X116324662Y-88100001D01*
X116343917Y-88233920D01*
X116400118Y-88356985D01*
X116400120Y-88356987D01*
X116414455Y-88373530D01*
X116474662Y-88443013D01*
X116488720Y-88459236D01*
X116492329Y-88461555D01*
X116529200Y-88509997D01*
X116526307Y-88570808D01*
X116511477Y-88594710D01*
X116469624Y-88643011D01*
X116469621Y-88643014D01*
X116413420Y-88766079D01*
X116394165Y-88899998D01*
X116394165Y-88900001D01*
X116413420Y-89033920D01*
X116469621Y-89156985D01*
X116469623Y-89156987D01*
X116558223Y-89259236D01*
X116672040Y-89332383D01*
X116801855Y-89370500D01*
X116801856Y-89370500D01*
X116937150Y-89370500D01*
X116937151Y-89370500D01*
X117066966Y-89332383D01*
X117180783Y-89259236D01*
X117269383Y-89156987D01*
X117325586Y-89033918D01*
X117344841Y-88900001D01*
X118624662Y-88900001D01*
X118643917Y-89033920D01*
X118700118Y-89156985D01*
X118700120Y-89156987D01*
X118788720Y-89259236D01*
X118902537Y-89332383D01*
X119032352Y-89370500D01*
X119032353Y-89370500D01*
X119167647Y-89370500D01*
X119167648Y-89370500D01*
X119297463Y-89332383D01*
X119411280Y-89259236D01*
X119499880Y-89156987D01*
X119556083Y-89033918D01*
X119575338Y-88900000D01*
X119556083Y-88766082D01*
X119556082Y-88766079D01*
X119525906Y-88700001D01*
X122524662Y-88700001D01*
X122543917Y-88833920D01*
X122600118Y-88956985D01*
X122600120Y-88956987D01*
X122688720Y-89059236D01*
X122802537Y-89132383D01*
X122932352Y-89170500D01*
X122932353Y-89170500D01*
X123067647Y-89170500D01*
X123067648Y-89170500D01*
X123197463Y-89132383D01*
X123311280Y-89059236D01*
X123399880Y-88956987D01*
X123456083Y-88833918D01*
X123475338Y-88700000D01*
X123456083Y-88566082D01*
X123456082Y-88566079D01*
X123399881Y-88443014D01*
X123396439Y-88437659D01*
X123397820Y-88436771D01*
X123378735Y-88386808D01*
X123398651Y-88329278D01*
X123419604Y-88310532D01*
X123436109Y-88299926D01*
X123524709Y-88197677D01*
X123529364Y-88187485D01*
X123574457Y-88088742D01*
X123580912Y-88074608D01*
X123591639Y-88000001D01*
X123865073Y-88000001D01*
X123882691Y-88122535D01*
X123934114Y-88235136D01*
X123934115Y-88235137D01*
X123934116Y-88235139D01*
X124015183Y-88328696D01*
X124119325Y-88395624D01*
X124238103Y-88430500D01*
X124238106Y-88430500D01*
X124361894Y-88430500D01*
X124361897Y-88430500D01*
X124480675Y-88395624D01*
X124584817Y-88328696D01*
X124665884Y-88235139D01*
X124712925Y-88132131D01*
X124755631Y-88088742D01*
X124816235Y-88082954D01*
X124866380Y-88117476D01*
X124874840Y-88132130D01*
X124900118Y-88187481D01*
X124900121Y-88187485D01*
X124960326Y-88256965D01*
X124982054Y-88313836D01*
X124962142Y-88371367D01*
X124960327Y-88373530D01*
X124900120Y-88443011D01*
X124900118Y-88443014D01*
X124843917Y-88566079D01*
X124824662Y-88699998D01*
X124824662Y-88700001D01*
X124843917Y-88833920D01*
X124900118Y-88956985D01*
X124900120Y-88956987D01*
X124988720Y-89059236D01*
X125102537Y-89132383D01*
X125232352Y-89170500D01*
X125232353Y-89170500D01*
X125367647Y-89170500D01*
X125367648Y-89170500D01*
X125497463Y-89132383D01*
X125611280Y-89059236D01*
X125699880Y-88956987D01*
X125756083Y-88833918D01*
X125775338Y-88700000D01*
X125756083Y-88566082D01*
X125756082Y-88566079D01*
X125699881Y-88443014D01*
X125699878Y-88443011D01*
X125695240Y-88437659D01*
X125639672Y-88373530D01*
X125617945Y-88316661D01*
X125637857Y-88259129D01*
X125639646Y-88256996D01*
X125699880Y-88187484D01*
X125756083Y-88064415D01*
X125773872Y-87940691D01*
X125775338Y-87930498D01*
X125775338Y-87930495D01*
X125763410Y-87847541D01*
X125756083Y-87796579D01*
X125741598Y-87764861D01*
X125699881Y-87673511D01*
X125699878Y-87673508D01*
X125697967Y-87671303D01*
X125611280Y-87571261D01*
X125608540Y-87569500D01*
X125497464Y-87498114D01*
X125497461Y-87498113D01*
X125402362Y-87470190D01*
X125367648Y-87459997D01*
X125232352Y-87459997D01*
X125102538Y-87498113D01*
X125102535Y-87498114D01*
X124988719Y-87571261D01*
X124900121Y-87673508D01*
X124900118Y-87673512D01*
X124843099Y-87798366D01*
X124800393Y-87841755D01*
X124739789Y-87847541D01*
X124689644Y-87813019D01*
X124681185Y-87798366D01*
X124665884Y-87764861D01*
X124584817Y-87671304D01*
X124480675Y-87604376D01*
X124480673Y-87604375D01*
X124480671Y-87604374D01*
X124361898Y-87569500D01*
X124361897Y-87569500D01*
X124238103Y-87569500D01*
X124238101Y-87569500D01*
X124119328Y-87604374D01*
X124015184Y-87671303D01*
X123934114Y-87764863D01*
X123882691Y-87877464D01*
X123865073Y-87999998D01*
X123865073Y-88000001D01*
X123591639Y-88000001D01*
X123600167Y-87940690D01*
X123598701Y-87930497D01*
X123586123Y-87843014D01*
X123580912Y-87806772D01*
X123580911Y-87806769D01*
X123524710Y-87683704D01*
X123524707Y-87683701D01*
X123515877Y-87673511D01*
X123436109Y-87581454D01*
X123417509Y-87569500D01*
X123322293Y-87508307D01*
X123322290Y-87508306D01*
X123246437Y-87486034D01*
X123192477Y-87470190D01*
X123057181Y-87470190D01*
X122927367Y-87508306D01*
X122927364Y-87508307D01*
X122813548Y-87581454D01*
X122724950Y-87683701D01*
X122724947Y-87683704D01*
X122668746Y-87806769D01*
X122649491Y-87940688D01*
X122649491Y-87940691D01*
X122668746Y-88074610D01*
X122724947Y-88197675D01*
X122728390Y-88203031D01*
X122727009Y-88203918D01*
X122746093Y-88253882D01*
X122726176Y-88311412D01*
X122705224Y-88330156D01*
X122688722Y-88340762D01*
X122688720Y-88340763D01*
X122600121Y-88443011D01*
X122600118Y-88443014D01*
X122543917Y-88566079D01*
X122524662Y-88699998D01*
X122524662Y-88700001D01*
X119525906Y-88700001D01*
X119499881Y-88643014D01*
X119499878Y-88643011D01*
X119435110Y-88568265D01*
X119413382Y-88511395D01*
X119433294Y-88453863D01*
X119435082Y-88451732D01*
X119517180Y-88356987D01*
X119573383Y-88233918D01*
X119592638Y-88100000D01*
X119591019Y-88088742D01*
X119578260Y-88000001D01*
X119573383Y-87966082D01*
X119573382Y-87966079D01*
X119517181Y-87843014D01*
X119517178Y-87843011D01*
X119428580Y-87740764D01*
X119314764Y-87667617D01*
X119314761Y-87667616D01*
X119238908Y-87645344D01*
X119184948Y-87629500D01*
X119049652Y-87629500D01*
X118919838Y-87667616D01*
X118919835Y-87667617D01*
X118806019Y-87740764D01*
X118717421Y-87843011D01*
X118717418Y-87843014D01*
X118661217Y-87966079D01*
X118641962Y-88099998D01*
X118641962Y-88100001D01*
X118661217Y-88233920D01*
X118717418Y-88356985D01*
X118717420Y-88356987D01*
X118731755Y-88373530D01*
X118782189Y-88431734D01*
X118803917Y-88488605D01*
X118784005Y-88546136D01*
X118782190Y-88548300D01*
X118700118Y-88643015D01*
X118643917Y-88766079D01*
X118624662Y-88899998D01*
X118624662Y-88900001D01*
X117344841Y-88900001D01*
X117344841Y-88900000D01*
X117325586Y-88766082D01*
X117325585Y-88766079D01*
X117269384Y-88643014D01*
X117269381Y-88643011D01*
X117180783Y-88540764D01*
X117177170Y-88538442D01*
X117140302Y-88489999D01*
X117143196Y-88429189D01*
X117158024Y-88405290D01*
X117199880Y-88356987D01*
X117256083Y-88233918D01*
X117275338Y-88100000D01*
X117273719Y-88088742D01*
X117260960Y-88000001D01*
X117256083Y-87966082D01*
X117256082Y-87966079D01*
X117199881Y-87843014D01*
X117199878Y-87843011D01*
X117111280Y-87740764D01*
X116997464Y-87667617D01*
X116997461Y-87667616D01*
X116921608Y-87645344D01*
X116867648Y-87629500D01*
X116732352Y-87629500D01*
X116602538Y-87667616D01*
X116602535Y-87667617D01*
X116488719Y-87740764D01*
X116400121Y-87843011D01*
X116400118Y-87843014D01*
X116343917Y-87966079D01*
X116324662Y-88099998D01*
X116324662Y-88100001D01*
X104417800Y-88100001D01*
X104417800Y-85283296D01*
X105695243Y-85283296D01*
X105705244Y-85442274D01*
X105705246Y-85442285D01*
X105754471Y-85593787D01*
X105798855Y-85663724D01*
X105839830Y-85728290D01*
X105955956Y-85837339D01*
X105955961Y-85837342D01*
X105955963Y-85837343D01*
X106033743Y-85880103D01*
X106095553Y-85914083D01*
X106249849Y-85953700D01*
X106249852Y-85953700D01*
X107169163Y-85953700D01*
X107169166Y-85953700D01*
X107169171Y-85953699D01*
X107169175Y-85953699D01*
X107180843Y-85952224D01*
X107287545Y-85938745D01*
X107435660Y-85880103D01*
X107564537Y-85786468D01*
X107666080Y-85663724D01*
X107733907Y-85519584D01*
X107763757Y-85363104D01*
X107758736Y-85283296D01*
X109745243Y-85283296D01*
X109755244Y-85442274D01*
X109755246Y-85442285D01*
X109804471Y-85593787D01*
X109848855Y-85663724D01*
X109889830Y-85728290D01*
X110005956Y-85837339D01*
X110005961Y-85837342D01*
X110005963Y-85837343D01*
X110083743Y-85880103D01*
X110145553Y-85914083D01*
X110299849Y-85953700D01*
X110299852Y-85953700D01*
X111519163Y-85953700D01*
X111519166Y-85953700D01*
X111519171Y-85953699D01*
X111519175Y-85953699D01*
X111530843Y-85952224D01*
X111637545Y-85938745D01*
X111785660Y-85880103D01*
X111914537Y-85786468D01*
X112016080Y-85663724D01*
X112083907Y-85519584D01*
X112113757Y-85363104D01*
X112103754Y-85204117D01*
X112078638Y-85126816D01*
X112054528Y-85052612D01*
X111969171Y-84918112D01*
X111969170Y-84918110D01*
X111853046Y-84809063D01*
X111853044Y-84809061D01*
X111853040Y-84809058D01*
X111853036Y-84809056D01*
X111713450Y-84732318D01*
X111713447Y-84732317D01*
X111559151Y-84692700D01*
X110339834Y-84692700D01*
X110339824Y-84692700D01*
X110232216Y-84706295D01*
X110221455Y-84707655D01*
X110221453Y-84707655D01*
X110073338Y-84766297D01*
X109944465Y-84859929D01*
X109944462Y-84859933D01*
X109842919Y-84982675D01*
X109842919Y-84982676D01*
X109775094Y-85126812D01*
X109745243Y-85283296D01*
X107758736Y-85283296D01*
X107753754Y-85204117D01*
X107728638Y-85126816D01*
X107704528Y-85052612D01*
X107619171Y-84918112D01*
X107619170Y-84918110D01*
X107503046Y-84809063D01*
X107503044Y-84809061D01*
X107503040Y-84809058D01*
X107503036Y-84809056D01*
X107363450Y-84732318D01*
X107363447Y-84732317D01*
X107209151Y-84692700D01*
X106289834Y-84692700D01*
X106289824Y-84692700D01*
X106182216Y-84706295D01*
X106171455Y-84707655D01*
X106171453Y-84707655D01*
X106023338Y-84766297D01*
X105894465Y-84859929D01*
X105894462Y-84859933D01*
X105792919Y-84982675D01*
X105792919Y-84982676D01*
X105725094Y-85126812D01*
X105695243Y-85283296D01*
X104417800Y-85283296D01*
X104417800Y-84493201D01*
X114239762Y-84493201D01*
X114259017Y-84627120D01*
X114315218Y-84750185D01*
X114315220Y-84750187D01*
X114403820Y-84852436D01*
X114517637Y-84925583D01*
X114647452Y-84963700D01*
X114647453Y-84963700D01*
X114782747Y-84963700D01*
X114782748Y-84963700D01*
X114912563Y-84925583D01*
X115026380Y-84852436D01*
X115114980Y-84750187D01*
X115171183Y-84627118D01*
X115190438Y-84493200D01*
X115184785Y-84453887D01*
X115176448Y-84395900D01*
X115171183Y-84359282D01*
X115171182Y-84359279D01*
X115114981Y-84236214D01*
X115114978Y-84236211D01*
X115026380Y-84133964D01*
X114912564Y-84060817D01*
X114912561Y-84060816D01*
X114836708Y-84038544D01*
X114782748Y-84022700D01*
X114647452Y-84022700D01*
X114517638Y-84060816D01*
X114517635Y-84060817D01*
X114403819Y-84133964D01*
X114315221Y-84236211D01*
X114315218Y-84236214D01*
X114259017Y-84359279D01*
X114239762Y-84493198D01*
X114239762Y-84493201D01*
X104417800Y-84493201D01*
X104417800Y-83893199D01*
X109829034Y-83893199D01*
X109848814Y-84043441D01*
X109906799Y-84183427D01*
X109906800Y-84183429D01*
X109906802Y-84183433D01*
X109999049Y-84303651D01*
X110119267Y-84395898D01*
X110119272Y-84395900D01*
X110259259Y-84453885D01*
X110259264Y-84453887D01*
X110371780Y-84468700D01*
X110371787Y-84468700D01*
X110447213Y-84468700D01*
X110447220Y-84468700D01*
X110559736Y-84453887D01*
X110699733Y-84395898D01*
X110819951Y-84303651D01*
X110912198Y-84183433D01*
X110970187Y-84043436D01*
X110989966Y-83893200D01*
X110970187Y-83742964D01*
X110931756Y-83650185D01*
X110912200Y-83602972D01*
X110912198Y-83602967D01*
X110819951Y-83482749D01*
X110819946Y-83482745D01*
X110819945Y-83482744D01*
X110703250Y-83393201D01*
X112239762Y-83393201D01*
X112259017Y-83527120D01*
X112315218Y-83650185D01*
X112315220Y-83650187D01*
X112403820Y-83752436D01*
X112517637Y-83825583D01*
X112647452Y-83863700D01*
X112647453Y-83863700D01*
X112782747Y-83863700D01*
X112782748Y-83863700D01*
X112912563Y-83825583D01*
X113026380Y-83752436D01*
X113114980Y-83650187D01*
X113171183Y-83527118D01*
X113190438Y-83393200D01*
X113190050Y-83390504D01*
X113179582Y-83317700D01*
X113171183Y-83259282D01*
X113171182Y-83259279D01*
X113114981Y-83136214D01*
X113114978Y-83136211D01*
X113026380Y-83033964D01*
X112912564Y-82960817D01*
X112912561Y-82960816D01*
X112836708Y-82938544D01*
X112782748Y-82922700D01*
X112647452Y-82922700D01*
X112517638Y-82960816D01*
X112517635Y-82960817D01*
X112403819Y-83033964D01*
X112315221Y-83136211D01*
X112315218Y-83136214D01*
X112259017Y-83259279D01*
X112239762Y-83393198D01*
X112239762Y-83393201D01*
X110703250Y-83393201D01*
X110703246Y-83393198D01*
X110699733Y-83390502D01*
X110699729Y-83390500D01*
X110699727Y-83390499D01*
X110559740Y-83332514D01*
X110559741Y-83332514D01*
X110559737Y-83332513D01*
X110559736Y-83332513D01*
X110478513Y-83321819D01*
X110447221Y-83317700D01*
X110447220Y-83317700D01*
X110371780Y-83317700D01*
X110371778Y-83317700D01*
X110322811Y-83324146D01*
X110259264Y-83332513D01*
X110259262Y-83332513D01*
X110259259Y-83332514D01*
X110119272Y-83390499D01*
X110119264Y-83390504D01*
X109999054Y-83482744D01*
X109999044Y-83482754D01*
X109906804Y-83602964D01*
X109906799Y-83602972D01*
X109848814Y-83742958D01*
X109829034Y-83893199D01*
X104417800Y-83893199D01*
X104417800Y-81900001D01*
X115465073Y-81900001D01*
X115482691Y-82022535D01*
X115534114Y-82135136D01*
X115534115Y-82135137D01*
X115534116Y-82135139D01*
X115615183Y-82228696D01*
X115719325Y-82295624D01*
X115838103Y-82330500D01*
X115838106Y-82330500D01*
X115961894Y-82330500D01*
X115961897Y-82330500D01*
X116080675Y-82295624D01*
X116184817Y-82228696D01*
X116265884Y-82135139D01*
X116317309Y-82022533D01*
X116334927Y-81900000D01*
X116317309Y-81777467D01*
X116265884Y-81664861D01*
X116184817Y-81571304D01*
X116184814Y-81571302D01*
X116180648Y-81566494D01*
X116183093Y-81564374D01*
X116159329Y-81521686D01*
X116170837Y-81461904D01*
X116207343Y-81429235D01*
X116207208Y-81429025D01*
X116208521Y-81428180D01*
X116210239Y-81426644D01*
X116212559Y-81425584D01*
X116212563Y-81425583D01*
X116326380Y-81352436D01*
X116414980Y-81250187D01*
X116471183Y-81127118D01*
X116490438Y-80993200D01*
X116471183Y-80859282D01*
X116471182Y-80859279D01*
X116414981Y-80736214D01*
X116414978Y-80736211D01*
X116326380Y-80633964D01*
X116212564Y-80560817D01*
X116212562Y-80560816D01*
X116132590Y-80537335D01*
X116083566Y-80501239D01*
X116069212Y-80442076D01*
X116096247Y-80387528D01*
X116109539Y-80377073D01*
X116184817Y-80328696D01*
X116265884Y-80235139D01*
X116317309Y-80122533D01*
X116334927Y-80000000D01*
X116317309Y-79877467D01*
X116265884Y-79764861D01*
X116184817Y-79671304D01*
X116080675Y-79604376D01*
X116080673Y-79604375D01*
X116080671Y-79604374D01*
X115961898Y-79569500D01*
X115961897Y-79569500D01*
X115838103Y-79569500D01*
X115838101Y-79569500D01*
X115719328Y-79604374D01*
X115615184Y-79671303D01*
X115534114Y-79764863D01*
X115482691Y-79877464D01*
X115465073Y-79999998D01*
X115465073Y-80000001D01*
X115482691Y-80122535D01*
X115534114Y-80235136D01*
X115534115Y-80235137D01*
X115534116Y-80235139D01*
X115615183Y-80328696D01*
X115719325Y-80395624D01*
X115776249Y-80412338D01*
X115825274Y-80448433D01*
X115839628Y-80507596D01*
X115812594Y-80562144D01*
X115799294Y-80572604D01*
X115703820Y-80633964D01*
X115615221Y-80736211D01*
X115615218Y-80736214D01*
X115559017Y-80859279D01*
X115539762Y-80993198D01*
X115539762Y-80993201D01*
X115559017Y-81127120D01*
X115615218Y-81250185D01*
X115615220Y-81250187D01*
X115703820Y-81352436D01*
X115712940Y-81358297D01*
X115713282Y-81358517D01*
X115750151Y-81406963D01*
X115747253Y-81467774D01*
X115713281Y-81508259D01*
X115615186Y-81571301D01*
X115534114Y-81664863D01*
X115482691Y-81777464D01*
X115465073Y-81899998D01*
X115465073Y-81900001D01*
X104417800Y-81900001D01*
X104417800Y-78793201D01*
X112139762Y-78793201D01*
X112159017Y-78927120D01*
X112215218Y-79050185D01*
X112215220Y-79050187D01*
X112303820Y-79152436D01*
X112417637Y-79225583D01*
X112547452Y-79263700D01*
X112547453Y-79263700D01*
X112682747Y-79263700D01*
X112682748Y-79263700D01*
X112812563Y-79225583D01*
X112852369Y-79200001D01*
X124524662Y-79200001D01*
X124543917Y-79333920D01*
X124600118Y-79456985D01*
X124600120Y-79456987D01*
X124688720Y-79559236D01*
X124802537Y-79632383D01*
X124932352Y-79670500D01*
X124932353Y-79670500D01*
X125067647Y-79670500D01*
X125067648Y-79670500D01*
X125197463Y-79632383D01*
X125311280Y-79559236D01*
X125399880Y-79456987D01*
X125456083Y-79333918D01*
X125475338Y-79200001D01*
X125724662Y-79200001D01*
X125743917Y-79333920D01*
X125800118Y-79456985D01*
X125800120Y-79456987D01*
X125888720Y-79559236D01*
X126002537Y-79632383D01*
X126132352Y-79670500D01*
X126132353Y-79670500D01*
X126267647Y-79670500D01*
X126267648Y-79670500D01*
X126397463Y-79632383D01*
X126511280Y-79559236D01*
X126599880Y-79456987D01*
X126656083Y-79333918D01*
X126675338Y-79200000D01*
X126656083Y-79066082D01*
X126648824Y-79050187D01*
X126599881Y-78943014D01*
X126599878Y-78943011D01*
X126586108Y-78927120D01*
X126511280Y-78840764D01*
X126437272Y-78793201D01*
X126397464Y-78767617D01*
X126397461Y-78767616D01*
X126321608Y-78745344D01*
X126267648Y-78729500D01*
X126132352Y-78729500D01*
X126002538Y-78767616D01*
X126002535Y-78767617D01*
X125888719Y-78840764D01*
X125800121Y-78943011D01*
X125800118Y-78943014D01*
X125743917Y-79066079D01*
X125724662Y-79199998D01*
X125724662Y-79200001D01*
X125475338Y-79200001D01*
X125475338Y-79200000D01*
X125456083Y-79066082D01*
X125448824Y-79050187D01*
X125399881Y-78943014D01*
X125399878Y-78943011D01*
X125386108Y-78927120D01*
X125311280Y-78840764D01*
X125237272Y-78793201D01*
X125197464Y-78767617D01*
X125197461Y-78767616D01*
X125121608Y-78745344D01*
X125067648Y-78729500D01*
X124932352Y-78729500D01*
X124802538Y-78767616D01*
X124802535Y-78767617D01*
X124688719Y-78840764D01*
X124600121Y-78943011D01*
X124600118Y-78943014D01*
X124543917Y-79066079D01*
X124524662Y-79199998D01*
X124524662Y-79200001D01*
X112852369Y-79200001D01*
X112926380Y-79152436D01*
X113014980Y-79050187D01*
X113071183Y-78927118D01*
X113090438Y-78793200D01*
X113086759Y-78767616D01*
X113081279Y-78729500D01*
X113071183Y-78659282D01*
X113071182Y-78659279D01*
X113014981Y-78536214D01*
X113014978Y-78536211D01*
X113004089Y-78523645D01*
X112926380Y-78433964D01*
X112878874Y-78403433D01*
X112812564Y-78360817D01*
X112812561Y-78360816D01*
X112736708Y-78338544D01*
X112682748Y-78322700D01*
X112547452Y-78322700D01*
X112417638Y-78360816D01*
X112417635Y-78360817D01*
X112303819Y-78433964D01*
X112215221Y-78536211D01*
X112215218Y-78536214D01*
X112159017Y-78659279D01*
X112139762Y-78793198D01*
X112139762Y-78793201D01*
X104417800Y-78793201D01*
X104417800Y-78113199D01*
X109829034Y-78113199D01*
X109848814Y-78263441D01*
X109906799Y-78403427D01*
X109906800Y-78403429D01*
X109906802Y-78403433D01*
X109999049Y-78523651D01*
X110119267Y-78615898D01*
X110119272Y-78615900D01*
X110259259Y-78673885D01*
X110259264Y-78673887D01*
X110371780Y-78688700D01*
X110371787Y-78688700D01*
X110447213Y-78688700D01*
X110447220Y-78688700D01*
X110559736Y-78673887D01*
X110699733Y-78615898D01*
X110819951Y-78523651D01*
X110912198Y-78403433D01*
X110970187Y-78263436D01*
X110989966Y-78113200D01*
X110970187Y-77962964D01*
X110968642Y-77959235D01*
X110912200Y-77822972D01*
X110912198Y-77822967D01*
X110819951Y-77702749D01*
X110819946Y-77702745D01*
X110819945Y-77702744D01*
X110764677Y-77660335D01*
X110699733Y-77610502D01*
X110699729Y-77610500D01*
X110699727Y-77610499D01*
X110674383Y-77600001D01*
X122924662Y-77600001D01*
X122943917Y-77733920D01*
X123000118Y-77856985D01*
X123000120Y-77856987D01*
X123088720Y-77959236D01*
X123202537Y-78032383D01*
X123332352Y-78070500D01*
X123332353Y-78070500D01*
X123467647Y-78070500D01*
X123467648Y-78070500D01*
X123597463Y-78032383D01*
X123711280Y-77959236D01*
X123799880Y-77856987D01*
X123856083Y-77733918D01*
X123873828Y-77610502D01*
X123875338Y-77600001D01*
X124524662Y-77600001D01*
X124543917Y-77733920D01*
X124600118Y-77856985D01*
X124600120Y-77856987D01*
X124688720Y-77959236D01*
X124802537Y-78032383D01*
X124932352Y-78070500D01*
X124932353Y-78070500D01*
X125067647Y-78070500D01*
X125067648Y-78070500D01*
X125197463Y-78032383D01*
X125311280Y-77959236D01*
X125399880Y-77856987D01*
X125456083Y-77733918D01*
X125473828Y-77610502D01*
X125475338Y-77600001D01*
X125724662Y-77600001D01*
X125743917Y-77733920D01*
X125800118Y-77856985D01*
X125800120Y-77856987D01*
X125888720Y-77959236D01*
X126002537Y-78032383D01*
X126132352Y-78070500D01*
X126132353Y-78070500D01*
X126267647Y-78070500D01*
X126267648Y-78070500D01*
X126397463Y-78032383D01*
X126511280Y-77959236D01*
X126599880Y-77856987D01*
X126656083Y-77733918D01*
X126673828Y-77610502D01*
X126675338Y-77600001D01*
X127024662Y-77600001D01*
X127043917Y-77733920D01*
X127100118Y-77856985D01*
X127100120Y-77856987D01*
X127188720Y-77959236D01*
X127302537Y-78032383D01*
X127432352Y-78070500D01*
X127432353Y-78070500D01*
X127567647Y-78070500D01*
X127567648Y-78070500D01*
X127697463Y-78032383D01*
X127811280Y-77959236D01*
X127899880Y-77856987D01*
X127956083Y-77733918D01*
X127973828Y-77610502D01*
X127975338Y-77600001D01*
X128224662Y-77600001D01*
X128243917Y-77733920D01*
X128300118Y-77856985D01*
X128300120Y-77856987D01*
X128388720Y-77959236D01*
X128502537Y-78032383D01*
X128632352Y-78070500D01*
X128632353Y-78070500D01*
X128767647Y-78070500D01*
X128767648Y-78070500D01*
X128897463Y-78032383D01*
X129011280Y-77959236D01*
X129099880Y-77856987D01*
X129156083Y-77733918D01*
X129173828Y-77610502D01*
X129175338Y-77600001D01*
X129175338Y-77599998D01*
X129166380Y-77537700D01*
X129156083Y-77466082D01*
X129156082Y-77466079D01*
X129099881Y-77343014D01*
X129099878Y-77343011D01*
X129040149Y-77274081D01*
X129011280Y-77240764D01*
X128943706Y-77197336D01*
X128897464Y-77167617D01*
X128897461Y-77167616D01*
X128821608Y-77145344D01*
X128767648Y-77129500D01*
X128632352Y-77129500D01*
X128502538Y-77167616D01*
X128502535Y-77167617D01*
X128388719Y-77240764D01*
X128300121Y-77343011D01*
X128300118Y-77343014D01*
X128243917Y-77466079D01*
X128224662Y-77599998D01*
X128224662Y-77600001D01*
X127975338Y-77600001D01*
X127975338Y-77599998D01*
X127966380Y-77537700D01*
X127956083Y-77466082D01*
X127956082Y-77466079D01*
X127899881Y-77343014D01*
X127899878Y-77343011D01*
X127840149Y-77274081D01*
X127811280Y-77240764D01*
X127743706Y-77197336D01*
X127697464Y-77167617D01*
X127697461Y-77167616D01*
X127621608Y-77145344D01*
X127567648Y-77129500D01*
X127432352Y-77129500D01*
X127302538Y-77167616D01*
X127302535Y-77167617D01*
X127188719Y-77240764D01*
X127100121Y-77343011D01*
X127100118Y-77343014D01*
X127043917Y-77466079D01*
X127024662Y-77599998D01*
X127024662Y-77600001D01*
X126675338Y-77600001D01*
X126675338Y-77599998D01*
X126666380Y-77537700D01*
X126656083Y-77466082D01*
X126656082Y-77466079D01*
X126599881Y-77343014D01*
X126599878Y-77343011D01*
X126540149Y-77274081D01*
X126511280Y-77240764D01*
X126443706Y-77197336D01*
X126397464Y-77167617D01*
X126397461Y-77167616D01*
X126321608Y-77145344D01*
X126267648Y-77129500D01*
X126132352Y-77129500D01*
X126002538Y-77167616D01*
X126002535Y-77167617D01*
X125888719Y-77240764D01*
X125800121Y-77343011D01*
X125800118Y-77343014D01*
X125743917Y-77466079D01*
X125724662Y-77599998D01*
X125724662Y-77600001D01*
X125475338Y-77600001D01*
X125475338Y-77599998D01*
X125466380Y-77537700D01*
X125456083Y-77466082D01*
X125456082Y-77466079D01*
X125399881Y-77343014D01*
X125399878Y-77343011D01*
X125340149Y-77274081D01*
X125311280Y-77240764D01*
X125243706Y-77197336D01*
X125197464Y-77167617D01*
X125197461Y-77167616D01*
X125121608Y-77145344D01*
X125067648Y-77129500D01*
X124932352Y-77129500D01*
X124802538Y-77167616D01*
X124802535Y-77167617D01*
X124688719Y-77240764D01*
X124600121Y-77343011D01*
X124600118Y-77343014D01*
X124543917Y-77466079D01*
X124524662Y-77599998D01*
X124524662Y-77600001D01*
X123875338Y-77600001D01*
X123875338Y-77599998D01*
X123866380Y-77537700D01*
X123856083Y-77466082D01*
X123856082Y-77466079D01*
X123799881Y-77343014D01*
X123799878Y-77343011D01*
X123740149Y-77274081D01*
X123711280Y-77240764D01*
X123643706Y-77197336D01*
X123597464Y-77167617D01*
X123597461Y-77167616D01*
X123521608Y-77145344D01*
X123467648Y-77129500D01*
X123332352Y-77129500D01*
X123202538Y-77167616D01*
X123202535Y-77167617D01*
X123088719Y-77240764D01*
X123000121Y-77343011D01*
X123000118Y-77343014D01*
X122943917Y-77466079D01*
X122924662Y-77599998D01*
X122924662Y-77600001D01*
X110674383Y-77600001D01*
X110559740Y-77552514D01*
X110559741Y-77552514D01*
X110559737Y-77552513D01*
X110559736Y-77552513D01*
X110478513Y-77541819D01*
X110447221Y-77537700D01*
X110447220Y-77537700D01*
X110371780Y-77537700D01*
X110371778Y-77537700D01*
X110322811Y-77544146D01*
X110259264Y-77552513D01*
X110259262Y-77552513D01*
X110259259Y-77552514D01*
X110119272Y-77610499D01*
X110119264Y-77610504D01*
X109999054Y-77702744D01*
X109999044Y-77702754D01*
X109906804Y-77822964D01*
X109906799Y-77822972D01*
X109848814Y-77962958D01*
X109829034Y-78113199D01*
X104417800Y-78113199D01*
X104417800Y-76643296D01*
X105695243Y-76643296D01*
X105705244Y-76802274D01*
X105705246Y-76802285D01*
X105754471Y-76953787D01*
X105798855Y-77023724D01*
X105839830Y-77088290D01*
X105955956Y-77197339D01*
X105955961Y-77197342D01*
X105955963Y-77197343D01*
X106033743Y-77240103D01*
X106095553Y-77274083D01*
X106249849Y-77313700D01*
X106249852Y-77313700D01*
X107169163Y-77313700D01*
X107169166Y-77313700D01*
X107169171Y-77313699D01*
X107169175Y-77313699D01*
X107180843Y-77312224D01*
X107287545Y-77298745D01*
X107435660Y-77240103D01*
X107564537Y-77146468D01*
X107666080Y-77023724D01*
X107733907Y-76879584D01*
X107763757Y-76723104D01*
X107758736Y-76643296D01*
X109745243Y-76643296D01*
X109755244Y-76802274D01*
X109755246Y-76802285D01*
X109804471Y-76953787D01*
X109848855Y-77023724D01*
X109889830Y-77088290D01*
X110005956Y-77197339D01*
X110005961Y-77197342D01*
X110005963Y-77197343D01*
X110083743Y-77240103D01*
X110145553Y-77274083D01*
X110299849Y-77313700D01*
X110299852Y-77313700D01*
X111519163Y-77313700D01*
X111519166Y-77313700D01*
X111519171Y-77313699D01*
X111519175Y-77313699D01*
X111530843Y-77312224D01*
X111637545Y-77298745D01*
X111785660Y-77240103D01*
X111914537Y-77146468D01*
X112016080Y-77023724D01*
X112083907Y-76879584D01*
X112113757Y-76723104D01*
X112103754Y-76564117D01*
X112078638Y-76486816D01*
X112054528Y-76412612D01*
X111969171Y-76278112D01*
X111969170Y-76278110D01*
X111853046Y-76169063D01*
X111853044Y-76169061D01*
X111853040Y-76169058D01*
X111853036Y-76169056D01*
X111713450Y-76092318D01*
X111713447Y-76092317D01*
X111559151Y-76052700D01*
X110339834Y-76052700D01*
X110339824Y-76052700D01*
X110232216Y-76066295D01*
X110221455Y-76067655D01*
X110221453Y-76067655D01*
X110073338Y-76126297D01*
X109944465Y-76219929D01*
X109944462Y-76219933D01*
X109842919Y-76342675D01*
X109842919Y-76342676D01*
X109775094Y-76486812D01*
X109745243Y-76643296D01*
X107758736Y-76643296D01*
X107753754Y-76564117D01*
X107728638Y-76486816D01*
X107704528Y-76412612D01*
X107619171Y-76278112D01*
X107619170Y-76278110D01*
X107503046Y-76169063D01*
X107503044Y-76169061D01*
X107503040Y-76169058D01*
X107503036Y-76169056D01*
X107363450Y-76092318D01*
X107363447Y-76092317D01*
X107209151Y-76052700D01*
X106289834Y-76052700D01*
X106289824Y-76052700D01*
X106182216Y-76066295D01*
X106171455Y-76067655D01*
X106171453Y-76067655D01*
X106023338Y-76126297D01*
X105894465Y-76219929D01*
X105894462Y-76219933D01*
X105792919Y-76342675D01*
X105792919Y-76342676D01*
X105725094Y-76486812D01*
X105695243Y-76643296D01*
X104417800Y-76643296D01*
X104417800Y-75803201D01*
X122916962Y-75803201D01*
X122936217Y-75937120D01*
X122992418Y-76060185D01*
X122992420Y-76060187D01*
X123081020Y-76162436D01*
X123091321Y-76169056D01*
X123189857Y-76232383D01*
X123194837Y-76235583D01*
X123324652Y-76273700D01*
X123324653Y-76273700D01*
X123459947Y-76273700D01*
X123459948Y-76273700D01*
X123589763Y-76235583D01*
X123703580Y-76162436D01*
X123792180Y-76060187D01*
X123848383Y-75937118D01*
X123867638Y-75803200D01*
X123867178Y-75800001D01*
X128211462Y-75800001D01*
X128230717Y-75933920D01*
X128286918Y-76056985D01*
X128286920Y-76056987D01*
X128375520Y-76159236D01*
X128390800Y-76169056D01*
X128469964Y-76219933D01*
X128489337Y-76232383D01*
X128619152Y-76270500D01*
X128619153Y-76270500D01*
X128754447Y-76270500D01*
X128754448Y-76270500D01*
X128884263Y-76232383D01*
X128998080Y-76159236D01*
X129086680Y-76056987D01*
X129142883Y-75933918D01*
X129162138Y-75800000D01*
X129142883Y-75666082D01*
X129088142Y-75546214D01*
X129086681Y-75543014D01*
X129086678Y-75543011D01*
X128998080Y-75440764D01*
X128884264Y-75367617D01*
X128884261Y-75367616D01*
X128808408Y-75345344D01*
X128754448Y-75329500D01*
X128619152Y-75329500D01*
X128489338Y-75367616D01*
X128489335Y-75367617D01*
X128375519Y-75440764D01*
X128286921Y-75543011D01*
X128286918Y-75543014D01*
X128230717Y-75666079D01*
X128211462Y-75799998D01*
X128211462Y-75800001D01*
X123867178Y-75800001D01*
X123848383Y-75669282D01*
X123846922Y-75666082D01*
X123792181Y-75546214D01*
X123792178Y-75546211D01*
X123703580Y-75443964D01*
X123589764Y-75370817D01*
X123589761Y-75370816D01*
X123513908Y-75348544D01*
X123459948Y-75332700D01*
X123324652Y-75332700D01*
X123194838Y-75370816D01*
X123194835Y-75370817D01*
X123081019Y-75443964D01*
X122992421Y-75546211D01*
X122992418Y-75546214D01*
X122936217Y-75669279D01*
X122916962Y-75803198D01*
X122916962Y-75803201D01*
X104417800Y-75803201D01*
X104417800Y-74403201D01*
X119066962Y-74403201D01*
X119086217Y-74537120D01*
X119142418Y-74660185D01*
X119142420Y-74660187D01*
X119231020Y-74762436D01*
X119294301Y-74803105D01*
X119308818Y-74812435D01*
X119344837Y-74835583D01*
X119474652Y-74873700D01*
X119474653Y-74873700D01*
X119609947Y-74873700D01*
X119609948Y-74873700D01*
X119739763Y-74835583D01*
X119853580Y-74762436D01*
X119942180Y-74660187D01*
X119998383Y-74537118D01*
X120010449Y-74453201D01*
X121441962Y-74453201D01*
X121461217Y-74587120D01*
X121517418Y-74710185D01*
X121517420Y-74710187D01*
X121606020Y-74812436D01*
X121719837Y-74885583D01*
X121849652Y-74923700D01*
X121849653Y-74923700D01*
X121984947Y-74923700D01*
X121984948Y-74923700D01*
X122114763Y-74885583D01*
X122228580Y-74812436D01*
X122317180Y-74710187D01*
X122373383Y-74587118D01*
X122392638Y-74453200D01*
X122373383Y-74319282D01*
X122373382Y-74319279D01*
X122317181Y-74196214D01*
X122317178Y-74196211D01*
X122279909Y-74153201D01*
X122866962Y-74153201D01*
X122886217Y-74287120D01*
X122942418Y-74410185D01*
X122942420Y-74410187D01*
X123031020Y-74512436D01*
X123144837Y-74585583D01*
X123274652Y-74623700D01*
X123274653Y-74623700D01*
X123409947Y-74623700D01*
X123409948Y-74623700D01*
X123539763Y-74585583D01*
X123653580Y-74512436D01*
X123742180Y-74410187D01*
X123798383Y-74287118D01*
X123817638Y-74153200D01*
X123816633Y-74146213D01*
X123814043Y-74128201D01*
X128211462Y-74128201D01*
X128230717Y-74262120D01*
X128286918Y-74385185D01*
X128286920Y-74385187D01*
X128375520Y-74487436D01*
X128489337Y-74560583D01*
X128619152Y-74598700D01*
X128619153Y-74598700D01*
X128754447Y-74598700D01*
X128754448Y-74598700D01*
X128884263Y-74560583D01*
X128998080Y-74487436D01*
X129086680Y-74385187D01*
X129142883Y-74262118D01*
X129162138Y-74128200D01*
X129157215Y-74093964D01*
X129146698Y-74020816D01*
X129142883Y-73994282D01*
X129110650Y-73923700D01*
X129086681Y-73871214D01*
X129086678Y-73871211D01*
X128998080Y-73768964D01*
X128884264Y-73695817D01*
X128884261Y-73695816D01*
X128808408Y-73673544D01*
X128754448Y-73657700D01*
X128619152Y-73657700D01*
X128489338Y-73695816D01*
X128489335Y-73695817D01*
X128375519Y-73768964D01*
X128286921Y-73871211D01*
X128286918Y-73871214D01*
X128230717Y-73994279D01*
X128211462Y-74128198D01*
X128211462Y-74128201D01*
X123814043Y-74128201D01*
X123809121Y-74093964D01*
X123798383Y-74019282D01*
X123781677Y-73982700D01*
X123742181Y-73896214D01*
X123742178Y-73896211D01*
X123719898Y-73870499D01*
X123653580Y-73793964D01*
X123614680Y-73768964D01*
X123539764Y-73720817D01*
X123539761Y-73720816D01*
X123463908Y-73698544D01*
X123409948Y-73682700D01*
X123274652Y-73682700D01*
X123144838Y-73720816D01*
X123144835Y-73720817D01*
X123031019Y-73793964D01*
X122942421Y-73896211D01*
X122942418Y-73896214D01*
X122886217Y-74019279D01*
X122866962Y-74153198D01*
X122866962Y-74153201D01*
X122279909Y-74153201D01*
X122228580Y-74093964D01*
X122228580Y-74093963D01*
X122114764Y-74020817D01*
X122114761Y-74020816D01*
X122024393Y-73994282D01*
X121984948Y-73982700D01*
X121849652Y-73982700D01*
X121719838Y-74020816D01*
X121719835Y-74020817D01*
X121606019Y-74093964D01*
X121517421Y-74196211D01*
X121517418Y-74196214D01*
X121461217Y-74319279D01*
X121441962Y-74453198D01*
X121441962Y-74453201D01*
X120010449Y-74453201D01*
X120017638Y-74403200D01*
X119998383Y-74269282D01*
X119998382Y-74269279D01*
X119942181Y-74146214D01*
X119942178Y-74146211D01*
X119926571Y-74128200D01*
X119853580Y-74043964D01*
X119776275Y-73994282D01*
X119739764Y-73970817D01*
X119739761Y-73970816D01*
X119663908Y-73948544D01*
X119609948Y-73932700D01*
X119474652Y-73932700D01*
X119344838Y-73970816D01*
X119344835Y-73970817D01*
X119231019Y-74043964D01*
X119142421Y-74146211D01*
X119142418Y-74146214D01*
X119086217Y-74269279D01*
X119066962Y-74403198D01*
X119066962Y-74403201D01*
X104417800Y-74403201D01*
X104417800Y-73453201D01*
X120266962Y-73453201D01*
X120286217Y-73587120D01*
X120342418Y-73710185D01*
X120342420Y-73710187D01*
X120431020Y-73812436D01*
X120544837Y-73885583D01*
X120674652Y-73923700D01*
X120674653Y-73923700D01*
X120809947Y-73923700D01*
X120809948Y-73923700D01*
X120939763Y-73885583D01*
X121053580Y-73812436D01*
X121142180Y-73710187D01*
X121148743Y-73695817D01*
X121198382Y-73587120D01*
X121198381Y-73587120D01*
X121198383Y-73587118D01*
X121217638Y-73453200D01*
X121209989Y-73400001D01*
X124524662Y-73400001D01*
X124543917Y-73533920D01*
X124600118Y-73656985D01*
X124600120Y-73656987D01*
X124688720Y-73759236D01*
X124802537Y-73832383D01*
X124932352Y-73870500D01*
X124932353Y-73870500D01*
X125067647Y-73870500D01*
X125067648Y-73870500D01*
X125197463Y-73832383D01*
X125311280Y-73759236D01*
X125399880Y-73656987D01*
X125456083Y-73533918D01*
X125475338Y-73400001D01*
X125724662Y-73400001D01*
X125743917Y-73533920D01*
X125800118Y-73656985D01*
X125800120Y-73656987D01*
X125888720Y-73759236D01*
X126002537Y-73832383D01*
X126132352Y-73870500D01*
X126132353Y-73870500D01*
X126267647Y-73870500D01*
X126267648Y-73870500D01*
X126397463Y-73832383D01*
X126511280Y-73759236D01*
X126599880Y-73656987D01*
X126656083Y-73533918D01*
X126675338Y-73400000D01*
X126656083Y-73266082D01*
X126624176Y-73196214D01*
X126599881Y-73143014D01*
X126599878Y-73143011D01*
X126511280Y-73040764D01*
X126397464Y-72967617D01*
X126397461Y-72967616D01*
X126321608Y-72945344D01*
X126267648Y-72929500D01*
X126132352Y-72929500D01*
X126002538Y-72967616D01*
X126002535Y-72967617D01*
X125888719Y-73040764D01*
X125800121Y-73143011D01*
X125800118Y-73143014D01*
X125743917Y-73266079D01*
X125724662Y-73399998D01*
X125724662Y-73400001D01*
X125475338Y-73400001D01*
X125475338Y-73400000D01*
X125456083Y-73266082D01*
X125424176Y-73196214D01*
X125399881Y-73143014D01*
X125399878Y-73143011D01*
X125311280Y-73040764D01*
X125197464Y-72967617D01*
X125197461Y-72967616D01*
X125121608Y-72945344D01*
X125067648Y-72929500D01*
X124932352Y-72929500D01*
X124802538Y-72967616D01*
X124802535Y-72967617D01*
X124688719Y-73040764D01*
X124600121Y-73143011D01*
X124600118Y-73143014D01*
X124543917Y-73266079D01*
X124524662Y-73399998D01*
X124524662Y-73400001D01*
X121209989Y-73400001D01*
X121198383Y-73319282D01*
X121174088Y-73266082D01*
X121142181Y-73196214D01*
X121142178Y-73196211D01*
X121096081Y-73143013D01*
X121053580Y-73093964D01*
X120970801Y-73040764D01*
X120939764Y-73020817D01*
X120939761Y-73020816D01*
X120863908Y-72998544D01*
X120809948Y-72982700D01*
X120674652Y-72982700D01*
X120544838Y-73020816D01*
X120544835Y-73020817D01*
X120431019Y-73093964D01*
X120342421Y-73196211D01*
X120342418Y-73196214D01*
X120286217Y-73319279D01*
X120266962Y-73453198D01*
X120266962Y-73453201D01*
X104417800Y-73453201D01*
X104417800Y-71003201D01*
X113682373Y-71003201D01*
X113699991Y-71125735D01*
X113751414Y-71238336D01*
X113751415Y-71238337D01*
X113751416Y-71238339D01*
X113832483Y-71331896D01*
X113936625Y-71398824D01*
X114055403Y-71433700D01*
X114055406Y-71433700D01*
X114179194Y-71433700D01*
X114179197Y-71433700D01*
X114297975Y-71398824D01*
X114402117Y-71331896D01*
X114483184Y-71238339D01*
X114534609Y-71125733D01*
X114552227Y-71003201D01*
X114982373Y-71003201D01*
X114999991Y-71125735D01*
X115051414Y-71238336D01*
X115051415Y-71238337D01*
X115051416Y-71238339D01*
X115132483Y-71331896D01*
X115236625Y-71398824D01*
X115355403Y-71433700D01*
X115355406Y-71433700D01*
X115479194Y-71433700D01*
X115479197Y-71433700D01*
X115597975Y-71398824D01*
X115702117Y-71331896D01*
X115783184Y-71238339D01*
X115834609Y-71125733D01*
X115852227Y-71003201D01*
X116282373Y-71003201D01*
X116299991Y-71125735D01*
X116351414Y-71238336D01*
X116351415Y-71238337D01*
X116351416Y-71238339D01*
X116432483Y-71331896D01*
X116536625Y-71398824D01*
X116655403Y-71433700D01*
X116655406Y-71433700D01*
X116779194Y-71433700D01*
X116779197Y-71433700D01*
X116897975Y-71398824D01*
X117002117Y-71331896D01*
X117083184Y-71238339D01*
X117134609Y-71125733D01*
X117152227Y-71003201D01*
X117582373Y-71003201D01*
X117599991Y-71125735D01*
X117651414Y-71238336D01*
X117651415Y-71238337D01*
X117651416Y-71238339D01*
X117732483Y-71331896D01*
X117836625Y-71398824D01*
X117955403Y-71433700D01*
X117955406Y-71433700D01*
X118079194Y-71433700D01*
X118079197Y-71433700D01*
X118197975Y-71398824D01*
X118302117Y-71331896D01*
X118383184Y-71238339D01*
X118434609Y-71125733D01*
X118452227Y-71003201D01*
X118782373Y-71003201D01*
X118799991Y-71125735D01*
X118851414Y-71238336D01*
X118851415Y-71238337D01*
X118851416Y-71238339D01*
X118932483Y-71331896D01*
X119036625Y-71398824D01*
X119155403Y-71433700D01*
X119155406Y-71433700D01*
X119279194Y-71433700D01*
X119279197Y-71433700D01*
X119397975Y-71398824D01*
X119502117Y-71331896D01*
X119583184Y-71238339D01*
X119634609Y-71125733D01*
X119652227Y-71003201D01*
X120082373Y-71003201D01*
X120099991Y-71125735D01*
X120151414Y-71238336D01*
X120151415Y-71238337D01*
X120151416Y-71238339D01*
X120232483Y-71331896D01*
X120336625Y-71398824D01*
X120455403Y-71433700D01*
X120455406Y-71433700D01*
X120579194Y-71433700D01*
X120579197Y-71433700D01*
X120697975Y-71398824D01*
X120802117Y-71331896D01*
X120883184Y-71238339D01*
X120934609Y-71125733D01*
X120952227Y-71003201D01*
X121382373Y-71003201D01*
X121399991Y-71125735D01*
X121451414Y-71238336D01*
X121451415Y-71238337D01*
X121451416Y-71238339D01*
X121532483Y-71331896D01*
X121636625Y-71398824D01*
X121755403Y-71433700D01*
X121755406Y-71433700D01*
X121879194Y-71433700D01*
X121879197Y-71433700D01*
X121997975Y-71398824D01*
X122102117Y-71331896D01*
X122183184Y-71238339D01*
X122234609Y-71125733D01*
X122252227Y-71003201D01*
X122682373Y-71003201D01*
X122699991Y-71125735D01*
X122751414Y-71238336D01*
X122751415Y-71238337D01*
X122751416Y-71238339D01*
X122832483Y-71331896D01*
X122936625Y-71398824D01*
X123055403Y-71433700D01*
X123055406Y-71433700D01*
X123179194Y-71433700D01*
X123179197Y-71433700D01*
X123297975Y-71398824D01*
X123402117Y-71331896D01*
X123483184Y-71238339D01*
X123534609Y-71125733D01*
X123552227Y-71003201D01*
X123882373Y-71003201D01*
X123899991Y-71125735D01*
X123951414Y-71238336D01*
X123951415Y-71238337D01*
X123951416Y-71238339D01*
X124032483Y-71331896D01*
X124136625Y-71398824D01*
X124255403Y-71433700D01*
X124255406Y-71433700D01*
X124379194Y-71433700D01*
X124379197Y-71433700D01*
X124497975Y-71398824D01*
X124602117Y-71331896D01*
X124683184Y-71238339D01*
X124734609Y-71125733D01*
X124752227Y-71003201D01*
X125182373Y-71003201D01*
X125199991Y-71125735D01*
X125251414Y-71238336D01*
X125251415Y-71238337D01*
X125251416Y-71238339D01*
X125332483Y-71331896D01*
X125436625Y-71398824D01*
X125555403Y-71433700D01*
X125555406Y-71433700D01*
X125679194Y-71433700D01*
X125679197Y-71433700D01*
X125797975Y-71398824D01*
X125902117Y-71331896D01*
X125983184Y-71238339D01*
X126034609Y-71125733D01*
X126052227Y-71003201D01*
X126382373Y-71003201D01*
X126399991Y-71125735D01*
X126451414Y-71238336D01*
X126451415Y-71238337D01*
X126451416Y-71238339D01*
X126532483Y-71331896D01*
X126636625Y-71398824D01*
X126755403Y-71433700D01*
X126755406Y-71433700D01*
X126879194Y-71433700D01*
X126879197Y-71433700D01*
X126997975Y-71398824D01*
X127102117Y-71331896D01*
X127183184Y-71238339D01*
X127234609Y-71125733D01*
X127252227Y-71003201D01*
X127682373Y-71003201D01*
X127699991Y-71125735D01*
X127751414Y-71238336D01*
X127751415Y-71238337D01*
X127751416Y-71238339D01*
X127832483Y-71331896D01*
X127936625Y-71398824D01*
X128055403Y-71433700D01*
X128055406Y-71433700D01*
X128179194Y-71433700D01*
X128179197Y-71433700D01*
X128297975Y-71398824D01*
X128402117Y-71331896D01*
X128483184Y-71238339D01*
X128534609Y-71125733D01*
X128552227Y-71003200D01*
X128534609Y-70880667D01*
X128483184Y-70768061D01*
X128402117Y-70674504D01*
X128297975Y-70607576D01*
X128297973Y-70607575D01*
X128297971Y-70607574D01*
X128179198Y-70572700D01*
X128179197Y-70572700D01*
X128055403Y-70572700D01*
X128055401Y-70572700D01*
X127936628Y-70607574D01*
X127832484Y-70674503D01*
X127751414Y-70768063D01*
X127699991Y-70880664D01*
X127682373Y-71003198D01*
X127682373Y-71003201D01*
X127252227Y-71003201D01*
X127252227Y-71003200D01*
X127234609Y-70880667D01*
X127183184Y-70768061D01*
X127102117Y-70674504D01*
X126997975Y-70607576D01*
X126997973Y-70607575D01*
X126997971Y-70607574D01*
X126879198Y-70572700D01*
X126879197Y-70572700D01*
X126755403Y-70572700D01*
X126755401Y-70572700D01*
X126636628Y-70607574D01*
X126532484Y-70674503D01*
X126451414Y-70768063D01*
X126399991Y-70880664D01*
X126382373Y-71003198D01*
X126382373Y-71003201D01*
X126052227Y-71003201D01*
X126052227Y-71003200D01*
X126034609Y-70880667D01*
X125983184Y-70768061D01*
X125902117Y-70674504D01*
X125797975Y-70607576D01*
X125797973Y-70607575D01*
X125797971Y-70607574D01*
X125679198Y-70572700D01*
X125679197Y-70572700D01*
X125555403Y-70572700D01*
X125555401Y-70572700D01*
X125436628Y-70607574D01*
X125332484Y-70674503D01*
X125251414Y-70768063D01*
X125199991Y-70880664D01*
X125182373Y-71003198D01*
X125182373Y-71003201D01*
X124752227Y-71003201D01*
X124752227Y-71003200D01*
X124734609Y-70880667D01*
X124683184Y-70768061D01*
X124602117Y-70674504D01*
X124497975Y-70607576D01*
X124497973Y-70607575D01*
X124497971Y-70607574D01*
X124379198Y-70572700D01*
X124379197Y-70572700D01*
X124255403Y-70572700D01*
X124255401Y-70572700D01*
X124136628Y-70607574D01*
X124032484Y-70674503D01*
X123951414Y-70768063D01*
X123899991Y-70880664D01*
X123882373Y-71003198D01*
X123882373Y-71003201D01*
X123552227Y-71003201D01*
X123552227Y-71003200D01*
X123534609Y-70880667D01*
X123483184Y-70768061D01*
X123402117Y-70674504D01*
X123297975Y-70607576D01*
X123297973Y-70607575D01*
X123297971Y-70607574D01*
X123179198Y-70572700D01*
X123179197Y-70572700D01*
X123055403Y-70572700D01*
X123055401Y-70572700D01*
X122936628Y-70607574D01*
X122832484Y-70674503D01*
X122751414Y-70768063D01*
X122699991Y-70880664D01*
X122682373Y-71003198D01*
X122682373Y-71003201D01*
X122252227Y-71003201D01*
X122252227Y-71003200D01*
X122234609Y-70880667D01*
X122183184Y-70768061D01*
X122102117Y-70674504D01*
X121997975Y-70607576D01*
X121997973Y-70607575D01*
X121997971Y-70607574D01*
X121879198Y-70572700D01*
X121879197Y-70572700D01*
X121755403Y-70572700D01*
X121755401Y-70572700D01*
X121636628Y-70607574D01*
X121532484Y-70674503D01*
X121451414Y-70768063D01*
X121399991Y-70880664D01*
X121382373Y-71003198D01*
X121382373Y-71003201D01*
X120952227Y-71003201D01*
X120952227Y-71003200D01*
X120934609Y-70880667D01*
X120883184Y-70768061D01*
X120802117Y-70674504D01*
X120697975Y-70607576D01*
X120697973Y-70607575D01*
X120697971Y-70607574D01*
X120579198Y-70572700D01*
X120579197Y-70572700D01*
X120455403Y-70572700D01*
X120455401Y-70572700D01*
X120336628Y-70607574D01*
X120232484Y-70674503D01*
X120151414Y-70768063D01*
X120099991Y-70880664D01*
X120082373Y-71003198D01*
X120082373Y-71003201D01*
X119652227Y-71003201D01*
X119652227Y-71003200D01*
X119634609Y-70880667D01*
X119583184Y-70768061D01*
X119502117Y-70674504D01*
X119397975Y-70607576D01*
X119397973Y-70607575D01*
X119397971Y-70607574D01*
X119279198Y-70572700D01*
X119279197Y-70572700D01*
X119155403Y-70572700D01*
X119155401Y-70572700D01*
X119036628Y-70607574D01*
X118932484Y-70674503D01*
X118851414Y-70768063D01*
X118799991Y-70880664D01*
X118782373Y-71003198D01*
X118782373Y-71003201D01*
X118452227Y-71003201D01*
X118452227Y-71003200D01*
X118434609Y-70880667D01*
X118383184Y-70768061D01*
X118302117Y-70674504D01*
X118197975Y-70607576D01*
X118197973Y-70607575D01*
X118197971Y-70607574D01*
X118079198Y-70572700D01*
X118079197Y-70572700D01*
X117955403Y-70572700D01*
X117955401Y-70572700D01*
X117836628Y-70607574D01*
X117732484Y-70674503D01*
X117651414Y-70768063D01*
X117599991Y-70880664D01*
X117582373Y-71003198D01*
X117582373Y-71003201D01*
X117152227Y-71003201D01*
X117152227Y-71003200D01*
X117134609Y-70880667D01*
X117083184Y-70768061D01*
X117002117Y-70674504D01*
X116897975Y-70607576D01*
X116897973Y-70607575D01*
X116897971Y-70607574D01*
X116779198Y-70572700D01*
X116779197Y-70572700D01*
X116655403Y-70572700D01*
X116655401Y-70572700D01*
X116536628Y-70607574D01*
X116432484Y-70674503D01*
X116351414Y-70768063D01*
X116299991Y-70880664D01*
X116282373Y-71003198D01*
X116282373Y-71003201D01*
X115852227Y-71003201D01*
X115852227Y-71003200D01*
X115834609Y-70880667D01*
X115783184Y-70768061D01*
X115702117Y-70674504D01*
X115597975Y-70607576D01*
X115597973Y-70607575D01*
X115597971Y-70607574D01*
X115479198Y-70572700D01*
X115479197Y-70572700D01*
X115355403Y-70572700D01*
X115355401Y-70572700D01*
X115236628Y-70607574D01*
X115132484Y-70674503D01*
X115051414Y-70768063D01*
X114999991Y-70880664D01*
X114982373Y-71003198D01*
X114982373Y-71003201D01*
X114552227Y-71003201D01*
X114552227Y-71003200D01*
X114534609Y-70880667D01*
X114483184Y-70768061D01*
X114402117Y-70674504D01*
X114297975Y-70607576D01*
X114297973Y-70607575D01*
X114297971Y-70607574D01*
X114179198Y-70572700D01*
X114179197Y-70572700D01*
X114055403Y-70572700D01*
X114055401Y-70572700D01*
X113936628Y-70607574D01*
X113832484Y-70674503D01*
X113751414Y-70768063D01*
X113699991Y-70880664D01*
X113682373Y-71003198D01*
X113682373Y-71003201D01*
X104417800Y-71003201D01*
X104417800Y-69503201D01*
X129482373Y-69503201D01*
X129499991Y-69625735D01*
X129551414Y-69738336D01*
X129551415Y-69738337D01*
X129551416Y-69738339D01*
X129632483Y-69831896D01*
X129736625Y-69898824D01*
X129855403Y-69933700D01*
X129855406Y-69933700D01*
X129979194Y-69933700D01*
X129979197Y-69933700D01*
X130097975Y-69898824D01*
X130202117Y-69831896D01*
X130283184Y-69738339D01*
X130334609Y-69625733D01*
X130352227Y-69503200D01*
X130334609Y-69380667D01*
X130283184Y-69268061D01*
X130202117Y-69174504D01*
X130097975Y-69107576D01*
X130097973Y-69107575D01*
X130097971Y-69107574D01*
X129979198Y-69072700D01*
X129979197Y-69072700D01*
X129855403Y-69072700D01*
X129855401Y-69072700D01*
X129736628Y-69107574D01*
X129632484Y-69174503D01*
X129551414Y-69268063D01*
X129499991Y-69380664D01*
X129482373Y-69503198D01*
X129482373Y-69503201D01*
X104417800Y-69503201D01*
X104417800Y-67303201D01*
X130682373Y-67303201D01*
X130699991Y-67425735D01*
X130751414Y-67538336D01*
X130751415Y-67538337D01*
X130751416Y-67538339D01*
X130832483Y-67631896D01*
X130936625Y-67698824D01*
X131055403Y-67733700D01*
X131055406Y-67733700D01*
X131179194Y-67733700D01*
X131179197Y-67733700D01*
X131297975Y-67698824D01*
X131402117Y-67631896D01*
X131483184Y-67538339D01*
X131534609Y-67425733D01*
X131552227Y-67303200D01*
X131534609Y-67180667D01*
X131483184Y-67068061D01*
X131402117Y-66974504D01*
X131297975Y-66907576D01*
X131297973Y-66907575D01*
X131297971Y-66907574D01*
X131179198Y-66872700D01*
X131179197Y-66872700D01*
X131055403Y-66872700D01*
X131055401Y-66872700D01*
X130936628Y-66907574D01*
X130832484Y-66974503D01*
X130751414Y-67068063D01*
X130699991Y-67180664D01*
X130682373Y-67303198D01*
X130682373Y-67303201D01*
X104417800Y-67303201D01*
X104417800Y-66003201D01*
X110582373Y-66003201D01*
X110599991Y-66125735D01*
X110651414Y-66238336D01*
X110651415Y-66238337D01*
X110651416Y-66238339D01*
X110732483Y-66331896D01*
X110836625Y-66398824D01*
X110955403Y-66433700D01*
X110955406Y-66433700D01*
X111079194Y-66433700D01*
X111079197Y-66433700D01*
X111197975Y-66398824D01*
X111302117Y-66331896D01*
X111383184Y-66238339D01*
X111434609Y-66125733D01*
X111449268Y-66023777D01*
X111452227Y-66003201D01*
X130682373Y-66003201D01*
X130699991Y-66125735D01*
X130751414Y-66238336D01*
X130751415Y-66238337D01*
X130751416Y-66238339D01*
X130832483Y-66331896D01*
X130936625Y-66398824D01*
X131055403Y-66433700D01*
X131055406Y-66433700D01*
X131179194Y-66433700D01*
X131179197Y-66433700D01*
X131297975Y-66398824D01*
X131402117Y-66331896D01*
X131483184Y-66238339D01*
X131534609Y-66125733D01*
X131549268Y-66023777D01*
X131552227Y-66003201D01*
X131552227Y-66003198D01*
X131546309Y-65962044D01*
X131534609Y-65880667D01*
X131483184Y-65768061D01*
X131402117Y-65674504D01*
X131297975Y-65607576D01*
X131297973Y-65607575D01*
X131297971Y-65607574D01*
X131179198Y-65572700D01*
X131179197Y-65572700D01*
X131055403Y-65572700D01*
X131055401Y-65572700D01*
X130936628Y-65607574D01*
X130832484Y-65674503D01*
X130751414Y-65768063D01*
X130699991Y-65880664D01*
X130682373Y-66003198D01*
X130682373Y-66003201D01*
X111452227Y-66003201D01*
X111452227Y-66003198D01*
X111446309Y-65962044D01*
X111434609Y-65880667D01*
X111383184Y-65768061D01*
X111302117Y-65674504D01*
X111197975Y-65607576D01*
X111197973Y-65607575D01*
X111197971Y-65607574D01*
X111079198Y-65572700D01*
X111079197Y-65572700D01*
X110955403Y-65572700D01*
X110955401Y-65572700D01*
X110836628Y-65607574D01*
X110732484Y-65674503D01*
X110651414Y-65768063D01*
X110599991Y-65880664D01*
X110582373Y-66003198D01*
X110582373Y-66003201D01*
X104417800Y-66003201D01*
X104417800Y-65200004D01*
X135132056Y-65200004D01*
X135150985Y-65392203D01*
X135150986Y-65392208D01*
X135150986Y-65392210D01*
X135150987Y-65392212D01*
X135207053Y-65577037D01*
X135207054Y-65577040D01*
X135207055Y-65577041D01*
X135298099Y-65747372D01*
X135407489Y-65880664D01*
X135420627Y-65896673D01*
X135420631Y-65896676D01*
X135569927Y-66019200D01*
X135675555Y-66075659D01*
X135740263Y-66110247D01*
X135925088Y-66166313D01*
X135925093Y-66166313D01*
X135925096Y-66166314D01*
X136117295Y-66185244D01*
X136117300Y-66185244D01*
X136117305Y-66185244D01*
X136309503Y-66166314D01*
X136309504Y-66166313D01*
X136309512Y-66166313D01*
X136494337Y-66110247D01*
X136664672Y-66019200D01*
X136813973Y-65896673D01*
X136936500Y-65747372D01*
X137027547Y-65577037D01*
X137083613Y-65392212D01*
X137102544Y-65200000D01*
X137092579Y-65098825D01*
X137083614Y-65007796D01*
X137083613Y-65007791D01*
X137083613Y-65007788D01*
X137027547Y-64822963D01*
X136963531Y-64703198D01*
X136936500Y-64652627D01*
X136813976Y-64503331D01*
X136813973Y-64503327D01*
X136799982Y-64491845D01*
X136664672Y-64380799D01*
X136494341Y-64289755D01*
X136494340Y-64289754D01*
X136494337Y-64289753D01*
X136309512Y-64233687D01*
X136309510Y-64233686D01*
X136309508Y-64233686D01*
X136309503Y-64233685D01*
X136117305Y-64214756D01*
X136117295Y-64214756D01*
X135925096Y-64233685D01*
X135925091Y-64233686D01*
X135925087Y-64233687D01*
X135925088Y-64233687D01*
X135740263Y-64289753D01*
X135740260Y-64289754D01*
X135740258Y-64289755D01*
X135569927Y-64380799D01*
X135420631Y-64503323D01*
X135420623Y-64503331D01*
X135298099Y-64652627D01*
X135207055Y-64822958D01*
X135207054Y-64822960D01*
X135207053Y-64822963D01*
X135172055Y-64938336D01*
X135150986Y-65007791D01*
X135150985Y-65007796D01*
X135132056Y-65199995D01*
X135132056Y-65200004D01*
X104417800Y-65200004D01*
X104417800Y-64703201D01*
X110582373Y-64703201D01*
X110599991Y-64825735D01*
X110651414Y-64938336D01*
X110651415Y-64938337D01*
X110651416Y-64938339D01*
X110732483Y-65031896D01*
X110836625Y-65098824D01*
X110955403Y-65133700D01*
X110955406Y-65133700D01*
X111079194Y-65133700D01*
X111079197Y-65133700D01*
X111197975Y-65098824D01*
X111302117Y-65031896D01*
X111383184Y-64938339D01*
X111434609Y-64825733D01*
X111452227Y-64703201D01*
X130682373Y-64703201D01*
X130699991Y-64825735D01*
X130751414Y-64938336D01*
X130751415Y-64938337D01*
X130751416Y-64938339D01*
X130832483Y-65031896D01*
X130936625Y-65098824D01*
X131055403Y-65133700D01*
X131055406Y-65133700D01*
X131179194Y-65133700D01*
X131179197Y-65133700D01*
X131297975Y-65098824D01*
X131402117Y-65031896D01*
X131483184Y-64938339D01*
X131534609Y-64825733D01*
X131552227Y-64703200D01*
X131534609Y-64580667D01*
X131499287Y-64503323D01*
X131483185Y-64468063D01*
X131483184Y-64468062D01*
X131483184Y-64468061D01*
X131402117Y-64374504D01*
X131297975Y-64307576D01*
X131297973Y-64307575D01*
X131297971Y-64307574D01*
X131179198Y-64272700D01*
X131179197Y-64272700D01*
X131055403Y-64272700D01*
X131055401Y-64272700D01*
X130936628Y-64307574D01*
X130832484Y-64374503D01*
X130751414Y-64468063D01*
X130699991Y-64580664D01*
X130682373Y-64703198D01*
X130682373Y-64703201D01*
X111452227Y-64703201D01*
X111452227Y-64703200D01*
X111434609Y-64580667D01*
X111399287Y-64503323D01*
X111383185Y-64468063D01*
X111383184Y-64468062D01*
X111383184Y-64468061D01*
X111302117Y-64374504D01*
X111197975Y-64307576D01*
X111197973Y-64307575D01*
X111197971Y-64307574D01*
X111079198Y-64272700D01*
X111079197Y-64272700D01*
X110955403Y-64272700D01*
X110955401Y-64272700D01*
X110836628Y-64307574D01*
X110732484Y-64374503D01*
X110651414Y-64468063D01*
X110599991Y-64580664D01*
X110582373Y-64703198D01*
X110582373Y-64703201D01*
X104417800Y-64703201D01*
X104417800Y-63403201D01*
X110582373Y-63403201D01*
X110599991Y-63525735D01*
X110651414Y-63638336D01*
X110651415Y-63638337D01*
X110651416Y-63638339D01*
X110732483Y-63731896D01*
X110836625Y-63798824D01*
X110955403Y-63833700D01*
X110955406Y-63833700D01*
X111079194Y-63833700D01*
X111079197Y-63833700D01*
X111197975Y-63798824D01*
X111302117Y-63731896D01*
X111383184Y-63638339D01*
X111434609Y-63525733D01*
X111437849Y-63503201D01*
X130682373Y-63503201D01*
X130699991Y-63625735D01*
X130751414Y-63738336D01*
X130751415Y-63738337D01*
X130751416Y-63738339D01*
X130832483Y-63831896D01*
X130936625Y-63898824D01*
X131055403Y-63933700D01*
X131055406Y-63933700D01*
X131179194Y-63933700D01*
X131179197Y-63933700D01*
X131297975Y-63898824D01*
X131402117Y-63831896D01*
X131483184Y-63738339D01*
X131534609Y-63625733D01*
X131552227Y-63503200D01*
X131534609Y-63380667D01*
X131523651Y-63356673D01*
X131483185Y-63268063D01*
X131483184Y-63268062D01*
X131483184Y-63268061D01*
X131402117Y-63174504D01*
X131297975Y-63107576D01*
X131297973Y-63107575D01*
X131297971Y-63107574D01*
X131179198Y-63072700D01*
X131179197Y-63072700D01*
X131055403Y-63072700D01*
X131055401Y-63072700D01*
X130936628Y-63107574D01*
X130832484Y-63174503D01*
X130751414Y-63268063D01*
X130699991Y-63380664D01*
X130682373Y-63503198D01*
X130682373Y-63503201D01*
X111437849Y-63503201D01*
X111452227Y-63403200D01*
X111434609Y-63280667D01*
X111383184Y-63168061D01*
X111302117Y-63074504D01*
X111197975Y-63007576D01*
X111197973Y-63007575D01*
X111197971Y-63007574D01*
X111079198Y-62972700D01*
X111079197Y-62972700D01*
X110955403Y-62972700D01*
X110955401Y-62972700D01*
X110836628Y-63007574D01*
X110732484Y-63074503D01*
X110651414Y-63168063D01*
X110599991Y-63280664D01*
X110582373Y-63403198D01*
X110582373Y-63403201D01*
X104417800Y-63403201D01*
X104417800Y-62660004D01*
X135132056Y-62660004D01*
X135150985Y-62852203D01*
X135150986Y-62852208D01*
X135150986Y-62852210D01*
X135150987Y-62852212D01*
X135207053Y-63037037D01*
X135207054Y-63037040D01*
X135207055Y-63037041D01*
X135298099Y-63207372D01*
X135358251Y-63280667D01*
X135420627Y-63356673D01*
X135420631Y-63356676D01*
X135569927Y-63479200D01*
X135614828Y-63503200D01*
X135740263Y-63570247D01*
X135925088Y-63626313D01*
X135925093Y-63626313D01*
X135925096Y-63626314D01*
X136117295Y-63645244D01*
X136117300Y-63645244D01*
X136117305Y-63645244D01*
X136309503Y-63626314D01*
X136309504Y-63626313D01*
X136309512Y-63626313D01*
X136494337Y-63570247D01*
X136664672Y-63479200D01*
X136813973Y-63356673D01*
X136936500Y-63207372D01*
X137027547Y-63037037D01*
X137083613Y-62852212D01*
X137102544Y-62660000D01*
X137083613Y-62467788D01*
X137027547Y-62282963D01*
X136984911Y-62203198D01*
X136936500Y-62112627D01*
X136845367Y-62001581D01*
X136813973Y-61963327D01*
X136799982Y-61951845D01*
X136664672Y-61840799D01*
X136494341Y-61749755D01*
X136494340Y-61749754D01*
X136494337Y-61749753D01*
X136309512Y-61693687D01*
X136309510Y-61693686D01*
X136309508Y-61693686D01*
X136309503Y-61693685D01*
X136117305Y-61674756D01*
X136117295Y-61674756D01*
X135925096Y-61693685D01*
X135925091Y-61693686D01*
X135925087Y-61693687D01*
X135925088Y-61693687D01*
X135740263Y-61749753D01*
X135740260Y-61749754D01*
X135740258Y-61749755D01*
X135569927Y-61840799D01*
X135420631Y-61963323D01*
X135420623Y-61963331D01*
X135298099Y-62112627D01*
X135207055Y-62282958D01*
X135207054Y-62282960D01*
X135207053Y-62282963D01*
X135159921Y-62438336D01*
X135150986Y-62467791D01*
X135150985Y-62467796D01*
X135132056Y-62659995D01*
X135132056Y-62660004D01*
X104417800Y-62660004D01*
X104417800Y-62203201D01*
X110582373Y-62203201D01*
X110599991Y-62325735D01*
X110651414Y-62438336D01*
X110651415Y-62438337D01*
X110651416Y-62438339D01*
X110732483Y-62531896D01*
X110836625Y-62598824D01*
X110955403Y-62633700D01*
X110955406Y-62633700D01*
X111079194Y-62633700D01*
X111079197Y-62633700D01*
X111197975Y-62598824D01*
X111302117Y-62531896D01*
X111383184Y-62438339D01*
X111434609Y-62325733D01*
X111452227Y-62203201D01*
X130682373Y-62203201D01*
X130699991Y-62325735D01*
X130751414Y-62438336D01*
X130751415Y-62438337D01*
X130751416Y-62438339D01*
X130832483Y-62531896D01*
X130936625Y-62598824D01*
X131055403Y-62633700D01*
X131055406Y-62633700D01*
X131179194Y-62633700D01*
X131179197Y-62633700D01*
X131297975Y-62598824D01*
X131402117Y-62531896D01*
X131483184Y-62438339D01*
X131534609Y-62325733D01*
X131552227Y-62203200D01*
X131534609Y-62080667D01*
X131483184Y-61968061D01*
X131402117Y-61874504D01*
X131297975Y-61807576D01*
X131297973Y-61807575D01*
X131297971Y-61807574D01*
X131179198Y-61772700D01*
X131179197Y-61772700D01*
X131055403Y-61772700D01*
X131055401Y-61772700D01*
X130936628Y-61807574D01*
X130832484Y-61874503D01*
X130751414Y-61968063D01*
X130699991Y-62080664D01*
X130682373Y-62203198D01*
X130682373Y-62203201D01*
X111452227Y-62203201D01*
X111452227Y-62203200D01*
X111434609Y-62080667D01*
X111383184Y-61968061D01*
X111302117Y-61874504D01*
X111197975Y-61807576D01*
X111197973Y-61807575D01*
X111197971Y-61807574D01*
X111079198Y-61772700D01*
X111079197Y-61772700D01*
X110955403Y-61772700D01*
X110955401Y-61772700D01*
X110836628Y-61807574D01*
X110732484Y-61874503D01*
X110651414Y-61968063D01*
X110599991Y-62080664D01*
X110582373Y-62203198D01*
X110582373Y-62203201D01*
X104417800Y-62203201D01*
X104417800Y-60903201D01*
X110582373Y-60903201D01*
X110599991Y-61025735D01*
X110651414Y-61138336D01*
X110651415Y-61138337D01*
X110651416Y-61138339D01*
X110732483Y-61231896D01*
X110836625Y-61298824D01*
X110955403Y-61333700D01*
X110955406Y-61333700D01*
X111079194Y-61333700D01*
X111079197Y-61333700D01*
X111197975Y-61298824D01*
X111302117Y-61231896D01*
X111383184Y-61138339D01*
X111434609Y-61025733D01*
X111452227Y-60903201D01*
X130682373Y-60903201D01*
X130699991Y-61025735D01*
X130751414Y-61138336D01*
X130751415Y-61138337D01*
X130751416Y-61138339D01*
X130832483Y-61231896D01*
X130936625Y-61298824D01*
X131055403Y-61333700D01*
X131055406Y-61333700D01*
X131179194Y-61333700D01*
X131179197Y-61333700D01*
X131297975Y-61298824D01*
X131402117Y-61231896D01*
X131483184Y-61138339D01*
X131534609Y-61025733D01*
X131552227Y-60903200D01*
X131534609Y-60780667D01*
X131493067Y-60689703D01*
X131483185Y-60668063D01*
X131483184Y-60668062D01*
X131483184Y-60668061D01*
X131402117Y-60574504D01*
X131297975Y-60507576D01*
X131297973Y-60507575D01*
X131297971Y-60507574D01*
X131179198Y-60472700D01*
X131179197Y-60472700D01*
X131055403Y-60472700D01*
X131055401Y-60472700D01*
X130936628Y-60507574D01*
X130832484Y-60574503D01*
X130751414Y-60668063D01*
X130699991Y-60780664D01*
X130682373Y-60903198D01*
X130682373Y-60903201D01*
X111452227Y-60903201D01*
X111452227Y-60903200D01*
X111434609Y-60780667D01*
X111393067Y-60689703D01*
X111383185Y-60668063D01*
X111383184Y-60668062D01*
X111383184Y-60668061D01*
X111302117Y-60574504D01*
X111197975Y-60507576D01*
X111197973Y-60507575D01*
X111197971Y-60507574D01*
X111079198Y-60472700D01*
X111079197Y-60472700D01*
X110955403Y-60472700D01*
X110955401Y-60472700D01*
X110836628Y-60507574D01*
X110732484Y-60574503D01*
X110651414Y-60668063D01*
X110599991Y-60780664D01*
X110582373Y-60903198D01*
X110582373Y-60903201D01*
X104417800Y-60903201D01*
X104417800Y-59603201D01*
X110582373Y-59603201D01*
X110599991Y-59725735D01*
X110651414Y-59838336D01*
X110651415Y-59838337D01*
X110651416Y-59838339D01*
X110732483Y-59931896D01*
X110836625Y-59998824D01*
X110955403Y-60033700D01*
X110955406Y-60033700D01*
X111079194Y-60033700D01*
X111079197Y-60033700D01*
X111197975Y-59998824D01*
X111302117Y-59931896D01*
X111383184Y-59838339D01*
X111434609Y-59725733D01*
X111437849Y-59703201D01*
X130682373Y-59703201D01*
X130699991Y-59825735D01*
X130751414Y-59938336D01*
X130751415Y-59938337D01*
X130751416Y-59938339D01*
X130832483Y-60031896D01*
X130936625Y-60098824D01*
X131055403Y-60133700D01*
X131055406Y-60133700D01*
X131179194Y-60133700D01*
X131179197Y-60133700D01*
X131225845Y-60120003D01*
X135091862Y-60120003D01*
X135111564Y-60320045D01*
X135111566Y-60320053D01*
X135169918Y-60512416D01*
X135264678Y-60689703D01*
X135392201Y-60845088D01*
X135392206Y-60845094D01*
X135392211Y-60845098D01*
X135547596Y-60972621D01*
X135636239Y-61020001D01*
X135724882Y-61067381D01*
X135917247Y-61125734D01*
X135917251Y-61125734D01*
X135917254Y-61125735D01*
X136117296Y-61145438D01*
X136117300Y-61145438D01*
X136117304Y-61145438D01*
X136317345Y-61125735D01*
X136317346Y-61125734D01*
X136317353Y-61125734D01*
X136509718Y-61067381D01*
X136687003Y-60972621D01*
X136842394Y-60845094D01*
X136969921Y-60689703D01*
X137064681Y-60512418D01*
X137123034Y-60320053D01*
X137142738Y-60120000D01*
X137140652Y-60098825D01*
X137123035Y-59919954D01*
X137123034Y-59919951D01*
X137123034Y-59919947D01*
X137064681Y-59727582D01*
X136986154Y-59580667D01*
X136969921Y-59550296D01*
X136842398Y-59394911D01*
X136842394Y-59394906D01*
X136842388Y-59394901D01*
X136687003Y-59267378D01*
X136521161Y-59178735D01*
X136509718Y-59172619D01*
X136509717Y-59172618D01*
X136509716Y-59172618D01*
X136317353Y-59114266D01*
X136317345Y-59114264D01*
X136117304Y-59094562D01*
X136117296Y-59094562D01*
X135917254Y-59114264D01*
X135917246Y-59114266D01*
X135724883Y-59172618D01*
X135547596Y-59267378D01*
X135392211Y-59394901D01*
X135392201Y-59394911D01*
X135264678Y-59550296D01*
X135169918Y-59727583D01*
X135111566Y-59919946D01*
X135111564Y-59919954D01*
X135091862Y-60119996D01*
X135091862Y-60120003D01*
X131225845Y-60120003D01*
X131297975Y-60098824D01*
X131402117Y-60031896D01*
X131483184Y-59938339D01*
X131534609Y-59825733D01*
X131552227Y-59703200D01*
X131534609Y-59580667D01*
X131483184Y-59468061D01*
X131402117Y-59374504D01*
X131297975Y-59307576D01*
X131297973Y-59307575D01*
X131297971Y-59307574D01*
X131179198Y-59272700D01*
X131179197Y-59272700D01*
X131055403Y-59272700D01*
X131055401Y-59272700D01*
X130936628Y-59307574D01*
X130832484Y-59374503D01*
X130751414Y-59468063D01*
X130699991Y-59580664D01*
X130682373Y-59703198D01*
X130682373Y-59703201D01*
X111437849Y-59703201D01*
X111452227Y-59603200D01*
X111434609Y-59480667D01*
X111383184Y-59368061D01*
X111302117Y-59274504D01*
X111197975Y-59207576D01*
X111197973Y-59207575D01*
X111197971Y-59207574D01*
X111079198Y-59172700D01*
X111079197Y-59172700D01*
X110955403Y-59172700D01*
X110955401Y-59172700D01*
X110836628Y-59207574D01*
X110732484Y-59274503D01*
X110651414Y-59368063D01*
X110599991Y-59480664D01*
X110582373Y-59603198D01*
X110582373Y-59603201D01*
X104417800Y-59603201D01*
X104417800Y-58403201D01*
X110582373Y-58403201D01*
X110599991Y-58525735D01*
X110651414Y-58638336D01*
X110651415Y-58638337D01*
X110651416Y-58638339D01*
X110732483Y-58731896D01*
X110836625Y-58798824D01*
X110955403Y-58833700D01*
X110955406Y-58833700D01*
X111079194Y-58833700D01*
X111079197Y-58833700D01*
X111197975Y-58798824D01*
X111302117Y-58731896D01*
X111383184Y-58638339D01*
X111434609Y-58525733D01*
X111452227Y-58403201D01*
X130682373Y-58403201D01*
X130699991Y-58525735D01*
X130751414Y-58638336D01*
X130751415Y-58638337D01*
X130751416Y-58638339D01*
X130832483Y-58731896D01*
X130936625Y-58798824D01*
X131055403Y-58833700D01*
X131055406Y-58833700D01*
X131179194Y-58833700D01*
X131179197Y-58833700D01*
X131297975Y-58798824D01*
X131402117Y-58731896D01*
X131483184Y-58638339D01*
X131534609Y-58525733D01*
X131552227Y-58403200D01*
X131534609Y-58280667D01*
X131532786Y-58276676D01*
X131483185Y-58168063D01*
X131483184Y-58168062D01*
X131483184Y-58168061D01*
X131402117Y-58074504D01*
X131297975Y-58007576D01*
X131297973Y-58007575D01*
X131297971Y-58007574D01*
X131179198Y-57972700D01*
X131179197Y-57972700D01*
X131055403Y-57972700D01*
X131055401Y-57972700D01*
X130936628Y-58007574D01*
X130832484Y-58074503D01*
X130751414Y-58168063D01*
X130699991Y-58280664D01*
X130682373Y-58403198D01*
X130682373Y-58403201D01*
X111452227Y-58403201D01*
X111452227Y-58403200D01*
X111434609Y-58280667D01*
X111432786Y-58276676D01*
X111383185Y-58168063D01*
X111383184Y-58168062D01*
X111383184Y-58168061D01*
X111302117Y-58074504D01*
X111197975Y-58007576D01*
X111197973Y-58007575D01*
X111197971Y-58007574D01*
X111079198Y-57972700D01*
X111079197Y-57972700D01*
X110955403Y-57972700D01*
X110955401Y-57972700D01*
X110836628Y-58007574D01*
X110732484Y-58074503D01*
X110651414Y-58168063D01*
X110599991Y-58280664D01*
X110582373Y-58403198D01*
X110582373Y-58403201D01*
X104417800Y-58403201D01*
X104417800Y-57580004D01*
X135132056Y-57580004D01*
X135150985Y-57772203D01*
X135150986Y-57772208D01*
X135150986Y-57772210D01*
X135150987Y-57772212D01*
X135207053Y-57957037D01*
X135207054Y-57957040D01*
X135207055Y-57957041D01*
X135298099Y-58127372D01*
X135409145Y-58262682D01*
X135420627Y-58276673D01*
X135420631Y-58276676D01*
X135569927Y-58399200D01*
X135675555Y-58455659D01*
X135740263Y-58490247D01*
X135925088Y-58546313D01*
X135925093Y-58546313D01*
X135925096Y-58546314D01*
X136117295Y-58565244D01*
X136117300Y-58565244D01*
X136117305Y-58565244D01*
X136309503Y-58546314D01*
X136309504Y-58546313D01*
X136309512Y-58546313D01*
X136494337Y-58490247D01*
X136664672Y-58399200D01*
X136813973Y-58276673D01*
X136936500Y-58127372D01*
X137027547Y-57957037D01*
X137083613Y-57772212D01*
X137102544Y-57580000D01*
X137083613Y-57387788D01*
X137027547Y-57202963D01*
X136992959Y-57138255D01*
X136936500Y-57032627D01*
X136813976Y-56883331D01*
X136813973Y-56883327D01*
X136795371Y-56868061D01*
X136664672Y-56760799D01*
X136494341Y-56669755D01*
X136494340Y-56669754D01*
X136494337Y-56669753D01*
X136309512Y-56613687D01*
X136309510Y-56613686D01*
X136309508Y-56613686D01*
X136309503Y-56613685D01*
X136117305Y-56594756D01*
X136117295Y-56594756D01*
X135925096Y-56613685D01*
X135925091Y-56613686D01*
X135925087Y-56613687D01*
X135925088Y-56613687D01*
X135740263Y-56669753D01*
X135740260Y-56669754D01*
X135740258Y-56669755D01*
X135569927Y-56760799D01*
X135420631Y-56883323D01*
X135420623Y-56883331D01*
X135298099Y-57032627D01*
X135207055Y-57202958D01*
X135207054Y-57202960D01*
X135207053Y-57202963D01*
X135165988Y-57338336D01*
X135150986Y-57387791D01*
X135150985Y-57387796D01*
X135132056Y-57579995D01*
X135132056Y-57580004D01*
X104417800Y-57580004D01*
X104417800Y-57103201D01*
X110582373Y-57103201D01*
X110599991Y-57225735D01*
X110651414Y-57338336D01*
X110651415Y-57338337D01*
X110651416Y-57338339D01*
X110732483Y-57431896D01*
X110836625Y-57498824D01*
X110955403Y-57533700D01*
X110955406Y-57533700D01*
X111079194Y-57533700D01*
X111079197Y-57533700D01*
X111197975Y-57498824D01*
X111302117Y-57431896D01*
X111383184Y-57338339D01*
X111434609Y-57225733D01*
X111452227Y-57103200D01*
X111434609Y-56980667D01*
X111383184Y-56868061D01*
X111302117Y-56774504D01*
X111197975Y-56707576D01*
X111197973Y-56707575D01*
X111197971Y-56707574D01*
X111079198Y-56672700D01*
X111079197Y-56672700D01*
X110955403Y-56672700D01*
X110955401Y-56672700D01*
X110836628Y-56707574D01*
X110732484Y-56774503D01*
X110651414Y-56868063D01*
X110599991Y-56980664D01*
X110582373Y-57103198D01*
X110582373Y-57103201D01*
X104417800Y-57103201D01*
X104417800Y-55803201D01*
X110582373Y-55803201D01*
X110599991Y-55925735D01*
X110651414Y-56038336D01*
X110651415Y-56038337D01*
X110651416Y-56038339D01*
X110732483Y-56131896D01*
X110836625Y-56198824D01*
X110955403Y-56233700D01*
X110955406Y-56233700D01*
X111079194Y-56233700D01*
X111079197Y-56233700D01*
X111197975Y-56198824D01*
X111302117Y-56131896D01*
X111383184Y-56038339D01*
X111434609Y-55925733D01*
X111437849Y-55903201D01*
X130682373Y-55903201D01*
X130699991Y-56025735D01*
X130751414Y-56138336D01*
X130751415Y-56138337D01*
X130751416Y-56138339D01*
X130832483Y-56231896D01*
X130936625Y-56298824D01*
X131055403Y-56333700D01*
X131055406Y-56333700D01*
X131179194Y-56333700D01*
X131179197Y-56333700D01*
X131297975Y-56298824D01*
X131402117Y-56231896D01*
X131483184Y-56138339D01*
X131534609Y-56025733D01*
X131552227Y-55903200D01*
X131534609Y-55780667D01*
X131483184Y-55668061D01*
X131402117Y-55574504D01*
X131297975Y-55507576D01*
X131297973Y-55507575D01*
X131297971Y-55507574D01*
X131179198Y-55472700D01*
X131179197Y-55472700D01*
X131055403Y-55472700D01*
X131055401Y-55472700D01*
X130936628Y-55507574D01*
X130832484Y-55574503D01*
X130751414Y-55668063D01*
X130699991Y-55780664D01*
X130682373Y-55903198D01*
X130682373Y-55903201D01*
X111437849Y-55903201D01*
X111452227Y-55803200D01*
X111434609Y-55680667D01*
X111383184Y-55568061D01*
X111302117Y-55474504D01*
X111197975Y-55407576D01*
X111197973Y-55407575D01*
X111197971Y-55407574D01*
X111079198Y-55372700D01*
X111079197Y-55372700D01*
X110955403Y-55372700D01*
X110955401Y-55372700D01*
X110836628Y-55407574D01*
X110732484Y-55474503D01*
X110651414Y-55568063D01*
X110599991Y-55680664D01*
X110582373Y-55803198D01*
X110582373Y-55803201D01*
X104417800Y-55803201D01*
X104417800Y-55040004D01*
X135132056Y-55040004D01*
X135150985Y-55232203D01*
X135150986Y-55232208D01*
X135150986Y-55232210D01*
X135150987Y-55232212D01*
X135207053Y-55417037D01*
X135207054Y-55417040D01*
X135207055Y-55417041D01*
X135298099Y-55587372D01*
X135409145Y-55722682D01*
X135420627Y-55736673D01*
X135420631Y-55736676D01*
X135569927Y-55859200D01*
X135652245Y-55903200D01*
X135740263Y-55950247D01*
X135925088Y-56006313D01*
X135925093Y-56006313D01*
X135925096Y-56006314D01*
X136117295Y-56025244D01*
X136117300Y-56025244D01*
X136117305Y-56025244D01*
X136309503Y-56006314D01*
X136309504Y-56006313D01*
X136309512Y-56006313D01*
X136494337Y-55950247D01*
X136664672Y-55859200D01*
X136813973Y-55736673D01*
X136936500Y-55587372D01*
X137027547Y-55417037D01*
X137083613Y-55232212D01*
X137102544Y-55040000D01*
X137101923Y-55033699D01*
X137083614Y-54847796D01*
X137083613Y-54847791D01*
X137083613Y-54847788D01*
X137027547Y-54662963D01*
X136992959Y-54598255D01*
X136936500Y-54492627D01*
X136813976Y-54343331D01*
X136813973Y-54343327D01*
X136799982Y-54331845D01*
X136664672Y-54220799D01*
X136494341Y-54129755D01*
X136494340Y-54129754D01*
X136494337Y-54129753D01*
X136309512Y-54073687D01*
X136309510Y-54073686D01*
X136309508Y-54073686D01*
X136309503Y-54073685D01*
X136117305Y-54054756D01*
X136117295Y-54054756D01*
X135925096Y-54073685D01*
X135925091Y-54073686D01*
X135925087Y-54073687D01*
X135925088Y-54073687D01*
X135740263Y-54129753D01*
X135740260Y-54129754D01*
X135740258Y-54129755D01*
X135569927Y-54220799D01*
X135420631Y-54343323D01*
X135420623Y-54343331D01*
X135298099Y-54492627D01*
X135207055Y-54662958D01*
X135207054Y-54662960D01*
X135207053Y-54662963D01*
X135159785Y-54818783D01*
X135150986Y-54847791D01*
X135150985Y-54847796D01*
X135132056Y-55039995D01*
X135132056Y-55040004D01*
X104417800Y-55040004D01*
X104417800Y-54603201D01*
X130682373Y-54603201D01*
X130699991Y-54725735D01*
X130751414Y-54838336D01*
X130751415Y-54838337D01*
X130751416Y-54838339D01*
X130832483Y-54931896D01*
X130936625Y-54998824D01*
X131055403Y-55033700D01*
X131055406Y-55033700D01*
X131179194Y-55033700D01*
X131179197Y-55033700D01*
X131297975Y-54998824D01*
X131402117Y-54931896D01*
X131483184Y-54838339D01*
X131534609Y-54725733D01*
X131552227Y-54603200D01*
X131534609Y-54480667D01*
X131483184Y-54368061D01*
X131402117Y-54274504D01*
X131297975Y-54207576D01*
X131297973Y-54207575D01*
X131297971Y-54207574D01*
X131179198Y-54172700D01*
X131179197Y-54172700D01*
X131055403Y-54172700D01*
X131055401Y-54172700D01*
X130936628Y-54207574D01*
X130832484Y-54274503D01*
X130751414Y-54368063D01*
X130699991Y-54480664D01*
X130682373Y-54603198D01*
X130682373Y-54603201D01*
X104417800Y-54603201D01*
X104417800Y-53703201D01*
X108691962Y-53703201D01*
X108711217Y-53837120D01*
X108767418Y-53960185D01*
X108767420Y-53960187D01*
X108856020Y-54062436D01*
X108873525Y-54073686D01*
X108960768Y-54129755D01*
X108969837Y-54135583D01*
X109099652Y-54173700D01*
X109099653Y-54173700D01*
X109234947Y-54173700D01*
X109234948Y-54173700D01*
X109364763Y-54135583D01*
X109478580Y-54062436D01*
X109567180Y-53960187D01*
X109623383Y-53837118D01*
X109642638Y-53703200D01*
X109640371Y-53687436D01*
X109625670Y-53585188D01*
X109623383Y-53569282D01*
X109582610Y-53480000D01*
X109567181Y-53446214D01*
X109567178Y-53446211D01*
X109565020Y-53443721D01*
X109478580Y-53343964D01*
X109454053Y-53328201D01*
X110666962Y-53328201D01*
X110686217Y-53462120D01*
X110742418Y-53585185D01*
X110742420Y-53585187D01*
X110831020Y-53687436D01*
X110944837Y-53760583D01*
X111074652Y-53798700D01*
X111074653Y-53798700D01*
X111209947Y-53798700D01*
X111209948Y-53798700D01*
X111339763Y-53760583D01*
X111453580Y-53687436D01*
X111542180Y-53585187D01*
X111549444Y-53569282D01*
X111598382Y-53462120D01*
X111598381Y-53462120D01*
X111598383Y-53462118D01*
X111617638Y-53328200D01*
X111614043Y-53303201D01*
X113091962Y-53303201D01*
X113111217Y-53437120D01*
X113167418Y-53560185D01*
X113167420Y-53560187D01*
X113256020Y-53662436D01*
X113369837Y-53735583D01*
X113499652Y-53773700D01*
X113499653Y-53773700D01*
X113634947Y-53773700D01*
X113634948Y-53773700D01*
X113764763Y-53735583D01*
X113878580Y-53662436D01*
X113967180Y-53560187D01*
X114023383Y-53437118D01*
X114042638Y-53303201D01*
X130682373Y-53303201D01*
X130699991Y-53425735D01*
X130751414Y-53538336D01*
X130751415Y-53538337D01*
X130751416Y-53538339D01*
X130832483Y-53631896D01*
X130936625Y-53698824D01*
X130936627Y-53698824D01*
X130936628Y-53698825D01*
X130951528Y-53703200D01*
X131055403Y-53733700D01*
X131055406Y-53733700D01*
X131179194Y-53733700D01*
X131179197Y-53733700D01*
X131297975Y-53698824D01*
X131402117Y-53631896D01*
X131483184Y-53538339D01*
X131534609Y-53425733D01*
X131543656Y-53362808D01*
X135137300Y-53362808D01*
X135144842Y-53400721D01*
X135144844Y-53400726D01*
X135173572Y-53443721D01*
X135173578Y-53443727D01*
X135216573Y-53472455D01*
X135216578Y-53472457D01*
X135254491Y-53479999D01*
X135254500Y-53480000D01*
X135917299Y-53480000D01*
X135917300Y-53479999D01*
X135917300Y-52958335D01*
X135974985Y-52984680D01*
X136081537Y-53000000D01*
X136153063Y-53000000D01*
X136259615Y-52984680D01*
X136317300Y-52958335D01*
X136317300Y-53479999D01*
X136317301Y-53480000D01*
X136980100Y-53480000D01*
X136980108Y-53479999D01*
X137018021Y-53472457D01*
X137018026Y-53472455D01*
X137061021Y-53443727D01*
X137061027Y-53443721D01*
X137089755Y-53400726D01*
X137089757Y-53400721D01*
X137097299Y-53362808D01*
X137097300Y-53362800D01*
X137097300Y-52700001D01*
X137097299Y-52700000D01*
X136579683Y-52700000D01*
X136617300Y-52571889D01*
X136617300Y-52428111D01*
X136579683Y-52300000D01*
X137097299Y-52300000D01*
X137097300Y-52299999D01*
X137097300Y-51637199D01*
X137097299Y-51637191D01*
X137089757Y-51599278D01*
X137089755Y-51599273D01*
X137061027Y-51556278D01*
X137061021Y-51556272D01*
X137018026Y-51527544D01*
X137018021Y-51527542D01*
X136980108Y-51520000D01*
X136317301Y-51520000D01*
X136317300Y-51520001D01*
X136317300Y-52041664D01*
X136259615Y-52015320D01*
X136153063Y-52000000D01*
X136081537Y-52000000D01*
X135974985Y-52015320D01*
X135917300Y-52041664D01*
X135917300Y-51520000D01*
X135254491Y-51520000D01*
X135216578Y-51527542D01*
X135216573Y-51527544D01*
X135173578Y-51556272D01*
X135173572Y-51556278D01*
X135144844Y-51599273D01*
X135144842Y-51599278D01*
X135137300Y-51637191D01*
X135137300Y-52299999D01*
X135137301Y-52300000D01*
X135654917Y-52300000D01*
X135617300Y-52428111D01*
X135617300Y-52571889D01*
X135654917Y-52700000D01*
X135137301Y-52700000D01*
X135137300Y-52700001D01*
X135137300Y-53362808D01*
X131543656Y-53362808D01*
X131552227Y-53303200D01*
X131534609Y-53180667D01*
X131529408Y-53169279D01*
X131483185Y-53068063D01*
X131483184Y-53068062D01*
X131483184Y-53068061D01*
X131402117Y-52974504D01*
X131297975Y-52907576D01*
X131297973Y-52907575D01*
X131297971Y-52907574D01*
X131179198Y-52872700D01*
X131179197Y-52872700D01*
X131055403Y-52872700D01*
X131055401Y-52872700D01*
X130936628Y-52907574D01*
X130832484Y-52974503D01*
X130751414Y-53068063D01*
X130699991Y-53180664D01*
X130682373Y-53303198D01*
X130682373Y-53303201D01*
X114042638Y-53303201D01*
X114042638Y-53303200D01*
X114023383Y-53169282D01*
X114023382Y-53169279D01*
X113967181Y-53046214D01*
X113967178Y-53046211D01*
X113878580Y-52943964D01*
X113764764Y-52870817D01*
X113764761Y-52870816D01*
X113688908Y-52848544D01*
X113634948Y-52832700D01*
X113499652Y-52832700D01*
X113369838Y-52870816D01*
X113369835Y-52870817D01*
X113256019Y-52943964D01*
X113167421Y-53046211D01*
X113167418Y-53046214D01*
X113111217Y-53169279D01*
X113091962Y-53303198D01*
X113091962Y-53303201D01*
X111614043Y-53303201D01*
X111614043Y-53303200D01*
X111609387Y-53270816D01*
X111598383Y-53194282D01*
X111598382Y-53194279D01*
X111542181Y-53071214D01*
X111542178Y-53071211D01*
X111539448Y-53068061D01*
X111453580Y-52968964D01*
X111414680Y-52943964D01*
X111339764Y-52895817D01*
X111339761Y-52895816D01*
X111261033Y-52872700D01*
X111209948Y-52857700D01*
X111074652Y-52857700D01*
X110944838Y-52895816D01*
X110944835Y-52895817D01*
X110831019Y-52968964D01*
X110742421Y-53071211D01*
X110742418Y-53071214D01*
X110686217Y-53194279D01*
X110666962Y-53328198D01*
X110666962Y-53328201D01*
X109454053Y-53328201D01*
X109415153Y-53303201D01*
X109364764Y-53270817D01*
X109364761Y-53270816D01*
X109288908Y-53248544D01*
X109234948Y-53232700D01*
X109099652Y-53232700D01*
X108969838Y-53270816D01*
X108969835Y-53270817D01*
X108856019Y-53343964D01*
X108767421Y-53446211D01*
X108767418Y-53446214D01*
X108711217Y-53569279D01*
X108691962Y-53703198D01*
X108691962Y-53703201D01*
X104417800Y-53703201D01*
X104417800Y-52103201D01*
X104616962Y-52103201D01*
X104636217Y-52237120D01*
X104692418Y-52360185D01*
X104692420Y-52360187D01*
X104781020Y-52462436D01*
X104894837Y-52535583D01*
X105024652Y-52573700D01*
X105024653Y-52573700D01*
X105159947Y-52573700D01*
X105159948Y-52573700D01*
X105289763Y-52535583D01*
X105403580Y-52462436D01*
X105492180Y-52360187D01*
X105548383Y-52237118D01*
X105567638Y-52103200D01*
X105548383Y-51969282D01*
X105548382Y-51969279D01*
X105492181Y-51846214D01*
X105492178Y-51846211D01*
X105403580Y-51743964D01*
X105289764Y-51670817D01*
X105289761Y-51670816D01*
X105175270Y-51637199D01*
X105159948Y-51632700D01*
X105024652Y-51632700D01*
X104894838Y-51670816D01*
X104894835Y-51670817D01*
X104781019Y-51743964D01*
X104692421Y-51846211D01*
X104692418Y-51846214D01*
X104636217Y-51969279D01*
X104616962Y-52103198D01*
X104616962Y-52103201D01*
X104417800Y-52103201D01*
X104417800Y-50642200D01*
X104438622Y-50584992D01*
X104491345Y-50554552D01*
X104506800Y-50553200D01*
X110741803Y-50553200D01*
X110769306Y-50557556D01*
G37*
%TD.AperFunction*%
%TD*%
M02*
