%TF.GenerationSoftware,KiCad,Pcbnew,7.0.5-7.0.5~ubuntu20.04.1*%
%TF.CreationDate,2023-06-26T22:11:10+02:00*%
%TF.ProjectId,ESP32_UniBoard,45535033-325f-4556-9e69-426f6172642e,rev?*%
%TF.SameCoordinates,Original*%
%TF.FileFunction,Copper,L4,Bot*%
%TF.FilePolarity,Positive*%
%FSLAX46Y46*%
G04 Gerber Fmt 4.6, Leading zero omitted, Abs format (unit mm)*
G04 Created by KiCad (PCBNEW 7.0.5-7.0.5~ubuntu20.04.1) date 2023-06-26 22:11:10*
%MOMM*%
%LPD*%
G01*
G04 APERTURE LIST*
G04 Aperture macros list*
%AMRoundRect*
0 Rectangle with rounded corners*
0 $1 Rounding radius*
0 $2 $3 $4 $5 $6 $7 $8 $9 X,Y pos of 4 corners*
0 Add a 4 corners polygon primitive as box body*
4,1,4,$2,$3,$4,$5,$6,$7,$8,$9,$2,$3,0*
0 Add four circle primitives for the rounded corners*
1,1,$1+$1,$2,$3*
1,1,$1+$1,$4,$5*
1,1,$1+$1,$6,$7*
1,1,$1+$1,$8,$9*
0 Add four rect primitives between the rounded corners*
20,1,$1+$1,$2,$3,$4,$5,0*
20,1,$1+$1,$4,$5,$6,$7,0*
20,1,$1+$1,$6,$7,$8,$9,0*
20,1,$1+$1,$8,$9,$2,$3,0*%
G04 Aperture macros list end*
%TA.AperFunction,ComponentPad*%
%ADD10R,1.700000X1.700000*%
%TD*%
%TA.AperFunction,ComponentPad*%
%ADD11O,1.700000X1.700000*%
%TD*%
%TA.AperFunction,ComponentPad*%
%ADD12O,2.100000X1.000000*%
%TD*%
%TA.AperFunction,ComponentPad*%
%ADD13O,1.800000X1.000000*%
%TD*%
%TA.AperFunction,SMDPad,CuDef*%
%ADD14RoundRect,0.030000X-0.070000X-0.320000X0.070000X-0.320000X0.070000X0.320000X-0.070000X0.320000X0*%
%TD*%
%TA.AperFunction,ViaPad*%
%ADD15C,0.600000*%
%TD*%
%TA.AperFunction,Conductor*%
%ADD16C,0.200000*%
%TD*%
%TA.AperFunction,Conductor*%
%ADD17C,0.400000*%
%TD*%
G04 APERTURE END LIST*
D10*
%TO.P,J2,1,Pin_1*%
%TO.N,GND*%
X136117300Y-52500000D03*
D11*
%TO.P,J2,2,Pin_2*%
%TO.N,/ESP_TX*%
X136117300Y-55040000D03*
%TO.P,J2,3,Pin_3*%
%TO.N,/ESP_RX*%
X136117300Y-57580000D03*
%TO.P,J2,4,Pin_4*%
%TO.N,+3V3*%
X136117300Y-60120000D03*
%TO.P,J2,5,Pin_5*%
%TO.N,/EN*%
X136117300Y-62660000D03*
%TO.P,J2,6,Pin_6*%
%TO.N,/BOOT*%
X136117300Y-65200000D03*
%TD*%
D12*
%TO.P,J1,S1,SHIELD*%
%TO.N,unconnected-(J1-SHIELD-PadS1)*%
X110929500Y-76683200D03*
D13*
X106729500Y-76683200D03*
D12*
X110929500Y-85323200D03*
D13*
X106729500Y-85323200D03*
%TD*%
D14*
%TO.P,J3,1,Pin_1*%
%TO.N,GND*%
X116317300Y-86913200D03*
%TO.P,J3,2,Pin_2*%
%TO.N,+5V*%
X116717300Y-86913200D03*
%TO.P,J3,3,Pin_3*%
%TO.N,/GPIO8*%
X117117300Y-86913200D03*
%TO.P,J3,4,Pin_4*%
%TO.N,/DPr_P*%
X117517300Y-86913200D03*
%TO.P,J3,5,Pin_5*%
%TO.N,/DPr_N*%
X117917300Y-86913200D03*
%TO.P,J3,6,Pin_6*%
%TO.N,/GPIO3*%
X118317300Y-86913200D03*
%TO.P,J3,7,Pin_7*%
%TO.N,/GPIO46*%
X118717300Y-86913200D03*
%TO.P,J3,8,Pin_8*%
%TO.N,+5V*%
X119117300Y-86913200D03*
%TO.P,J3,9,Pin_9*%
%TO.N,/GPIO9*%
X119517300Y-86913200D03*
%TO.P,J3,10,Pin_10*%
%TO.N,/GPIO10*%
X119917300Y-86913200D03*
%TO.P,J3,11,Pin_11*%
%TO.N,/GPIO11*%
X120317300Y-86913200D03*
%TO.P,J3,12,Pin_12*%
%TO.N,/GPIO12*%
X120717300Y-86913200D03*
%TO.P,J3,13,Pin_13*%
%TO.N,GND*%
X121117300Y-86913200D03*
%TO.P,J3,14,Pin_14*%
%TO.N,/GPIO13*%
X121517300Y-86913200D03*
%TO.P,J3,15,Pin_15*%
%TO.N,/GPIO14*%
X121917300Y-86913200D03*
%TO.P,J3,16,Pin_16*%
%TO.N,/GPIO21*%
X122317300Y-86913200D03*
%TO.P,J3,17,Pin_17*%
%TO.N,/GPIO47*%
X122717300Y-86913200D03*
%TO.P,J3,18,Pin_18*%
%TO.N,+3V3*%
X123117300Y-86913200D03*
%TO.P,J3,19,Pin_19*%
%TO.N,/GPIO48*%
X123517300Y-86913200D03*
%TO.P,J3,20,Pin_20*%
%TO.N,/GPIO45*%
X123917300Y-86913200D03*
%TO.P,J3,21,Pin_21*%
%TO.N,/BOOT*%
X124317300Y-86913200D03*
%TO.P,J3,22,Pin_22*%
%TO.N,/GPIO35*%
X124717300Y-86913200D03*
%TO.P,J3,23,Pin_23*%
%TO.N,/GPIO36*%
X125117300Y-86913200D03*
%TO.P,J3,24,Pin_24*%
%TO.N,+3V3*%
X125517300Y-86913200D03*
%TO.P,J3,25,Pin_25*%
%TO.N,GND*%
X125917300Y-86913200D03*
%TO.P,J3,26,Pin_26*%
X125917300Y-89993200D03*
%TO.P,J3,27,Pin_27*%
%TO.N,+5V*%
X125517300Y-89993200D03*
%TO.P,J3,28,Pin_28*%
%TO.N,/GPIO37*%
X125117300Y-89993200D03*
%TO.P,J3,29,Pin_29*%
%TO.N,/GPIO38*%
X124717300Y-89993200D03*
%TO.P,J3,30,Pin_30*%
%TO.N,/GPIO39*%
X124317300Y-89993200D03*
%TO.P,J3,31,Pin_31*%
%TO.N,/GPIO40*%
X123917300Y-89993200D03*
%TO.P,J3,32,Pin_32*%
%TO.N,/GPIO41*%
X123517300Y-89993200D03*
%TO.P,J3,33,Pin_33*%
%TO.N,+5V*%
X123117300Y-89993200D03*
%TO.P,J3,34,Pin_34*%
%TO.N,/GPIO42*%
X122717300Y-89993200D03*
%TO.P,J3,35,Pin_35*%
%TO.N,/ESP_RX*%
X122317300Y-89993200D03*
%TO.P,J3,36,Pin_36*%
%TO.N,/ESP_TX*%
X121917300Y-89993200D03*
%TO.P,J3,37,Pin_37*%
%TO.N,/GPIO2*%
X121517300Y-89993200D03*
%TO.P,J3,38,Pin_38*%
%TO.N,GND*%
X121117300Y-89993200D03*
%TO.P,J3,39,Pin_39*%
%TO.N,/GPIO1*%
X120717300Y-89993200D03*
%TO.P,J3,40,Pin_40*%
%TO.N,/GPIO4*%
X120317300Y-89993200D03*
%TO.P,J3,41,Pin_41*%
%TO.N,/GPIO5*%
X119917300Y-89993200D03*
%TO.P,J3,42,Pin_42*%
%TO.N,/GPIO6*%
X119517300Y-89993200D03*
%TO.P,J3,43,Pin_43*%
%TO.N,+3V3*%
X119117300Y-89993200D03*
%TO.P,J3,44,Pin_44*%
%TO.N,/GPIO7*%
X118717300Y-89993200D03*
%TO.P,J3,45,Pin_45*%
%TO.N,/GPIO15*%
X118317300Y-89993200D03*
%TO.P,J3,46,Pin_46*%
%TO.N,/GPIO16*%
X117917300Y-89993200D03*
%TO.P,J3,47,Pin_47*%
%TO.N,/GPIO17*%
X117517300Y-89993200D03*
%TO.P,J3,48,Pin_48*%
%TO.N,/GPIO18*%
X117117300Y-89993200D03*
%TO.P,J3,49,Pin_49*%
%TO.N,+3V3*%
X116717300Y-89993200D03*
%TO.P,J3,50,Pin_50*%
%TO.N,GND*%
X116317300Y-89993200D03*
%TD*%
D15*
%TO.N,GND*%
X123417300Y-79778200D03*
X116100000Y-89100000D03*
X107017300Y-57103200D03*
X114500000Y-92100000D03*
X128100000Y-92100000D03*
X135467300Y-89303200D03*
X126300000Y-89200000D03*
X105192300Y-57128200D03*
X117400000Y-57600000D03*
X111142300Y-52053200D03*
X113542300Y-52028200D03*
X120776591Y-88923409D03*
X113500000Y-81000000D03*
X117517300Y-60503200D03*
X107217300Y-52153200D03*
X126917300Y-93253700D03*
X117517300Y-59103200D03*
X119492300Y-76328200D03*
X118917300Y-60503200D03*
X109142300Y-52153200D03*
X121717300Y-59103200D03*
X134600000Y-81400000D03*
X112817300Y-84678200D03*
X136000000Y-81400000D03*
X120317300Y-59103200D03*
X124142300Y-82778200D03*
X131092300Y-52028200D03*
X118917300Y-59103200D03*
X121800000Y-57600000D03*
X121717300Y-60503200D03*
X120317300Y-60503200D03*
X121892300Y-76378200D03*
X118917300Y-57603200D03*
X112642300Y-77653200D03*
X121723409Y-87976591D03*
X121700000Y-61900000D03*
X126600000Y-87000000D03*
X120317300Y-61903200D03*
X120317300Y-57603200D03*
X122167300Y-81253200D03*
X111117300Y-74878200D03*
X111142300Y-87178200D03*
X115600000Y-93400000D03*
X117500000Y-61900000D03*
X116058732Y-87893467D03*
X106967300Y-89303200D03*
X118917300Y-61903200D03*
X128667300Y-52028200D03*
X117467300Y-83603200D03*
%TO.N,+3V3*%
X125300000Y-87930497D03*
X119542300Y-74403200D03*
X126200000Y-77600000D03*
X113567300Y-53303200D03*
X121917300Y-74453200D03*
X128686800Y-75800000D03*
X127500000Y-77600000D03*
X126200000Y-79200000D03*
X123124829Y-87940690D03*
X125000000Y-79200000D03*
X109167300Y-53703200D03*
X125000000Y-73400000D03*
X125000000Y-77600000D03*
X105092300Y-52103200D03*
X111142300Y-53328200D03*
X123400000Y-77600000D03*
X123392300Y-75803200D03*
X119100000Y-88900000D03*
X128686800Y-74128200D03*
X128700000Y-77600000D03*
X116869503Y-88900000D03*
X120742300Y-73453200D03*
X123342300Y-74153200D03*
X126200000Y-73400000D03*
%TO.N,/BOOT*%
X129917300Y-69503200D03*
X124300000Y-88000000D03*
%TO.N,VBUS*%
X114715100Y-84493200D03*
X112715100Y-83393200D03*
X116015100Y-80993200D03*
X112615100Y-78793200D03*
%TO.N,+5V*%
X123000000Y-88700000D03*
X116800000Y-88100000D03*
X119117300Y-88100000D03*
X125300000Y-88700000D03*
%TO.N,/ESP_TX*%
X131117300Y-55903200D03*
%TO.N,/ESP_RX*%
X122474414Y-91125586D03*
%TO.N,/GPIO4*%
X111017300Y-55803200D03*
%TO.N,/GPIO5*%
X111017300Y-57103200D03*
%TO.N,/GPIO6*%
X111017300Y-58403200D03*
%TO.N,/GPIO7*%
X111017300Y-59603200D03*
%TO.N,/GPIO15*%
X111017300Y-60903200D03*
%TO.N,/GPIO16*%
X111017300Y-62203200D03*
%TO.N,/GPIO17*%
X111017300Y-63403200D03*
%TO.N,/GPIO18*%
X111017300Y-64703200D03*
%TO.N,/GPIO8*%
X111017300Y-66003200D03*
%TO.N,/GPIO3*%
X114117300Y-71003200D03*
%TO.N,/GPIO46*%
X115417300Y-71003200D03*
%TO.N,/GPIO9*%
X116717300Y-71003200D03*
%TO.N,/GPIO10*%
X118017300Y-71003200D03*
%TO.N,/GPIO11*%
X119217300Y-71003200D03*
%TO.N,/GPIO12*%
X120517300Y-71003200D03*
%TO.N,/GPIO13*%
X121817300Y-71003200D03*
%TO.N,/GPIO14*%
X123117300Y-71003200D03*
%TO.N,/GPIO21*%
X124317300Y-71003200D03*
%TO.N,/GPIO47*%
X125617300Y-71003200D03*
%TO.N,/GPIO48*%
X126817300Y-71003200D03*
%TO.N,/GPIO45*%
X128117300Y-71003200D03*
%TO.N,/GPIO35*%
X131117300Y-67303200D03*
%TO.N,/GPIO36*%
X131117300Y-66003200D03*
%TO.N,/GPIO37*%
X131117300Y-64703200D03*
%TO.N,/GPIO38*%
X131117300Y-63503200D03*
%TO.N,/GPIO39*%
X131117300Y-62203200D03*
%TO.N,/GPIO40*%
X131117300Y-60903200D03*
%TO.N,/GPIO41*%
X131117300Y-59703200D03*
%TO.N,/GPIO42*%
X131117300Y-58403200D03*
%TO.N,/GPIO2*%
X131117300Y-54603200D03*
%TO.N,/GPIO1*%
X120987800Y-91499068D03*
X131117300Y-53303200D03*
X137358900Y-68558900D03*
%TO.N,/DPr_P*%
X115900000Y-81900000D03*
%TO.N,/DPr_N*%
X115900000Y-80000000D03*
%TD*%
D16*
%TO.N,GND*%
X125917300Y-89993200D02*
X125917300Y-89582700D01*
X116058732Y-87893467D02*
X116317300Y-87634899D01*
X125917300Y-86913200D02*
X126513200Y-86913200D01*
X121117300Y-86913200D02*
X121117300Y-87370482D01*
X121117300Y-87370482D02*
X121723409Y-87976591D01*
X116317300Y-87634899D02*
X116317300Y-86913200D01*
X126513200Y-86913200D02*
X126600000Y-87000000D01*
X121117300Y-89993200D02*
X121117300Y-89264118D01*
X125917300Y-89582700D02*
X126300000Y-89200000D01*
X116317300Y-89317300D02*
X116100000Y-89100000D01*
X116317300Y-89993200D02*
X116317300Y-89317300D01*
X121117300Y-89264118D02*
X120776591Y-88923409D01*
%TO.N,+3V3*%
X123117300Y-87933161D02*
X123117300Y-86913200D01*
X116717300Y-89052203D02*
X116717300Y-89993200D01*
X119117300Y-88917300D02*
X119117300Y-89993200D01*
X125300000Y-87930497D02*
X125517300Y-87713197D01*
X119100000Y-88900000D02*
X119117300Y-88917300D01*
X116869503Y-88900000D02*
X116717300Y-89052203D01*
X123124829Y-87940690D02*
X123117300Y-87933161D01*
X125517300Y-87713197D02*
X125517300Y-86913200D01*
%TO.N,/BOOT*%
X124317300Y-85003200D02*
X129300000Y-80020500D01*
X124317300Y-86913200D02*
X124317300Y-85003200D01*
X129300000Y-70120500D02*
X129917300Y-69503200D01*
X124317300Y-87982700D02*
X124300000Y-88000000D01*
X129300000Y-80020500D02*
X129300000Y-70120500D01*
X124317300Y-86913200D02*
X124317300Y-87982700D01*
%TO.N,+5V*%
X123117300Y-89993200D02*
X123117300Y-88817300D01*
X123117300Y-88817300D02*
X123000000Y-88700000D01*
X116717300Y-88017300D02*
X116717300Y-86913200D01*
X116800000Y-88100000D02*
X116717300Y-88017300D01*
X125517300Y-89993200D02*
X125517300Y-88917300D01*
D17*
X123000000Y-88700000D02*
X125300000Y-88700000D01*
D16*
X119117300Y-88100000D02*
X119117300Y-86913200D01*
X125517300Y-88917300D02*
X125300000Y-88700000D01*
%TO.N,/ESP_TX*%
X134000000Y-88400000D02*
X136700000Y-85700000D01*
X134600000Y-58200000D02*
X132303200Y-55903200D01*
X135037300Y-60837300D02*
X134600000Y-60400000D01*
X136700000Y-85700000D02*
X136700000Y-71300000D01*
X132303200Y-55903200D02*
X131117300Y-55903200D01*
X131200000Y-94700000D02*
X134000000Y-91900000D01*
X134000000Y-91900000D02*
X134000000Y-88400000D01*
X121917300Y-89993200D02*
X121917300Y-91317300D01*
X136700000Y-71300000D02*
X135037300Y-69637300D01*
X125300000Y-94700000D02*
X131200000Y-94700000D01*
X121917300Y-91317300D02*
X125300000Y-94700000D01*
X134600000Y-60400000D02*
X134600000Y-58200000D01*
X135037300Y-69637300D02*
X135037300Y-60837300D01*
%TO.N,/ESP_RX*%
X122317300Y-90968472D02*
X122474414Y-91125586D01*
X122317300Y-89993200D02*
X122317300Y-90968472D01*
%TO.N,/GPIO4*%
X104600000Y-87685434D02*
X104600000Y-62220500D01*
X120317300Y-89993200D02*
X120317300Y-91949037D01*
X116566337Y-95700000D02*
X112614566Y-95700000D01*
X120317300Y-91949037D02*
X116566337Y-95700000D01*
X112614566Y-95700000D02*
X104600000Y-87685434D01*
X104600000Y-62220500D02*
X111017300Y-55803200D01*
%TO.N,/GPIO5*%
X113800000Y-95100000D02*
X107900000Y-89200000D01*
X107900000Y-83200000D02*
X105100000Y-80400000D01*
X105500000Y-62620500D02*
X111017300Y-57103200D01*
X119917300Y-89993200D02*
X119917300Y-91482700D01*
X105100000Y-75000000D02*
X105500000Y-74600000D01*
X116300000Y-95100000D02*
X113800000Y-95100000D01*
X119917300Y-91482700D02*
X116300000Y-95100000D01*
X107900000Y-89200000D02*
X107900000Y-83200000D01*
X105100000Y-80400000D02*
X105100000Y-75000000D01*
X105500000Y-74600000D02*
X105500000Y-62620500D01*
%TO.N,/GPIO6*%
X119517300Y-91082700D02*
X116100000Y-94500000D01*
X108500000Y-82400000D02*
X105600000Y-79500000D01*
X105600000Y-76000000D02*
X106300000Y-75300000D01*
X116100000Y-94500000D02*
X114500000Y-94500000D01*
X119517300Y-89993200D02*
X119517300Y-91082700D01*
X106300000Y-75300000D02*
X106300000Y-63120500D01*
X114500000Y-94500000D02*
X108500000Y-88500000D01*
X106300000Y-63120500D02*
X111017300Y-58403200D01*
X105600000Y-79500000D02*
X105600000Y-76000000D01*
X108500000Y-88500000D02*
X108500000Y-82400000D01*
%TO.N,/GPIO7*%
X107300000Y-63320500D02*
X111017300Y-59603200D01*
X107859500Y-76159500D02*
X107300000Y-75600000D01*
X118717300Y-91182700D02*
X117100000Y-92800000D01*
X107300000Y-75600000D02*
X107300000Y-63320500D01*
X107859500Y-80559500D02*
X107859500Y-76159500D01*
X109100000Y-87800000D02*
X109100000Y-81800000D01*
X114100000Y-92800000D02*
X109100000Y-87800000D01*
X117100000Y-92800000D02*
X114100000Y-92800000D01*
X109100000Y-81800000D02*
X107859500Y-80559500D01*
X118717300Y-89993200D02*
X118717300Y-91182700D01*
%TO.N,/GPIO15*%
X108500000Y-75700000D02*
X108100000Y-75300000D01*
X112200000Y-87400000D02*
X111000000Y-86200000D01*
X118317300Y-90982700D02*
X117100000Y-92200000D01*
X118317300Y-89993200D02*
X118317300Y-90982700D01*
X112200000Y-89000000D02*
X112200000Y-87400000D01*
X109649500Y-85625576D02*
X109649500Y-81149500D01*
X117100000Y-92200000D02*
X115400000Y-92200000D01*
X108500000Y-80000000D02*
X108500000Y-75700000D01*
X109649500Y-81149500D02*
X108500000Y-80000000D01*
X108100000Y-63820500D02*
X111017300Y-60903200D01*
X108100000Y-75300000D02*
X108100000Y-63820500D01*
X111000000Y-86200000D02*
X110223924Y-86200000D01*
X110223924Y-86200000D02*
X109649500Y-85625576D01*
X115400000Y-92200000D02*
X112200000Y-89000000D01*
%TO.N,/GPIO16*%
X117000000Y-91700000D02*
X115700000Y-91700000D01*
X108900000Y-75100000D02*
X108900000Y-64320500D01*
X109100000Y-79500000D02*
X109100000Y-75300000D01*
X115700000Y-91700000D02*
X112900000Y-88900000D01*
X112900000Y-85600000D02*
X111700000Y-84400000D01*
X117917300Y-89993200D02*
X117917300Y-90782700D01*
X117917300Y-90782700D02*
X117000000Y-91700000D01*
X111700000Y-84400000D02*
X111700000Y-82100000D01*
X109100000Y-75300000D02*
X108900000Y-75100000D01*
X112900000Y-88900000D02*
X112900000Y-85600000D01*
X111700000Y-82100000D02*
X109100000Y-79500000D01*
X108900000Y-64320500D02*
X111017300Y-62203200D01*
%TO.N,/GPIO17*%
X117517300Y-89993200D02*
X117517300Y-90582700D01*
X116900000Y-91200000D02*
X116000000Y-91200000D01*
X113500000Y-82800000D02*
X109649500Y-78949500D01*
X109649500Y-78949500D02*
X109649500Y-64771000D01*
X109649500Y-64771000D02*
X111017300Y-63403200D01*
X113500000Y-88700000D02*
X113500000Y-82800000D01*
X117517300Y-90582700D02*
X116900000Y-91200000D01*
X116000000Y-91200000D02*
X113500000Y-88700000D01*
%TO.N,/GPIO18*%
X112700000Y-76961366D02*
X112700000Y-72900000D01*
X114117300Y-78378666D02*
X112700000Y-76961366D01*
X117117300Y-90407464D02*
X116911564Y-90613200D01*
X110400000Y-70600000D02*
X110400000Y-65320500D01*
X117117300Y-89993200D02*
X117117300Y-90407464D01*
X112700000Y-72900000D02*
X110400000Y-70600000D01*
X114117300Y-88584098D02*
X114117300Y-78378666D01*
X116911564Y-90613200D02*
X116146402Y-90613200D01*
X110400000Y-65320500D02*
X111017300Y-64703200D01*
X116146402Y-90613200D02*
X114117300Y-88584098D01*
%TO.N,/GPIO8*%
X111017300Y-70117300D02*
X111017300Y-66003200D01*
X113400000Y-76900000D02*
X113400000Y-72500000D01*
X114900000Y-83300000D02*
X114900000Y-78400000D01*
X117117300Y-85517300D02*
X114900000Y-83300000D01*
X113400000Y-72500000D02*
X111017300Y-70117300D01*
X117117300Y-86913200D02*
X117117300Y-85517300D01*
X114900000Y-78400000D02*
X113400000Y-76900000D01*
%TO.N,/GPIO3*%
X114117300Y-76817300D02*
X118600000Y-81300000D01*
X114117300Y-71003200D02*
X114117300Y-76817300D01*
X118600000Y-81300000D02*
X118600000Y-85600000D01*
X118317300Y-85882700D02*
X118317300Y-86913200D01*
X118600000Y-85600000D02*
X118317300Y-85882700D01*
%TO.N,/GPIO46*%
X118717300Y-86240818D02*
X118717300Y-86913200D01*
X119100000Y-85858118D02*
X118717300Y-86240818D01*
X115417300Y-77117300D02*
X119100000Y-80800000D01*
X119100000Y-80800000D02*
X119100000Y-85858118D01*
X115417300Y-71003200D02*
X115417300Y-77117300D01*
%TO.N,/GPIO9*%
X116717300Y-77517300D02*
X119517300Y-80317300D01*
X119517300Y-80317300D02*
X119517300Y-86913200D01*
X116717300Y-71003200D02*
X116717300Y-77517300D01*
%TO.N,/GPIO10*%
X118017300Y-71003200D02*
X118017300Y-77617300D01*
X119917300Y-85682700D02*
X119917300Y-86913200D01*
X120000000Y-85600000D02*
X119917300Y-85682700D01*
X120000000Y-79600000D02*
X120000000Y-85600000D01*
X118017300Y-77617300D02*
X120000000Y-79600000D01*
%TO.N,/GPIO11*%
X120317300Y-86082700D02*
X120317300Y-86913200D01*
X118962300Y-71258200D02*
X118962300Y-77562300D01*
X120500000Y-85900000D02*
X120317300Y-86082700D01*
X118962300Y-77562300D02*
X120500000Y-79100000D01*
X120500000Y-79100000D02*
X120500000Y-85900000D01*
X119217300Y-71003200D02*
X118962300Y-71258200D01*
%TO.N,/GPIO12*%
X121000000Y-77000000D02*
X121000000Y-86036402D01*
X120517300Y-71003200D02*
X120172300Y-71348200D01*
X120172300Y-76172300D02*
X121000000Y-77000000D01*
X121000000Y-86036402D02*
X120717300Y-86319102D01*
X120717300Y-86319102D02*
X120717300Y-86913200D01*
X120172300Y-71348200D02*
X120172300Y-76172300D01*
%TO.N,/GPIO13*%
X121517300Y-76752734D02*
X121347300Y-76582734D01*
X121347300Y-76582734D02*
X121347300Y-71473200D01*
X121347300Y-71473200D02*
X121817300Y-71003200D01*
X121517300Y-86913200D02*
X121517300Y-76752734D01*
%TO.N,/GPIO14*%
X122772300Y-81397734D02*
X122772300Y-71348200D01*
X122772300Y-71348200D02*
X123117300Y-71003200D01*
X121917300Y-82252734D02*
X122772300Y-81397734D01*
X121917300Y-86913200D02*
X121917300Y-82252734D01*
%TO.N,/GPIO21*%
X124317300Y-80803200D02*
X124317300Y-71003200D01*
X122317300Y-86913200D02*
X122317300Y-82803200D01*
X122317300Y-82803200D02*
X124317300Y-80803200D01*
%TO.N,/GPIO47*%
X122717300Y-83403200D02*
X125617300Y-80503200D01*
X125617300Y-80503200D02*
X125617300Y-71003200D01*
X122717300Y-86913200D02*
X122717300Y-83403200D01*
%TO.N,/GPIO48*%
X123517300Y-84203200D02*
X126817300Y-80903200D01*
X126817300Y-80903200D02*
X126817300Y-71003200D01*
X123517300Y-86913200D02*
X123517300Y-84203200D01*
%TO.N,/GPIO45*%
X128117300Y-71003200D02*
X128117300Y-80203200D01*
X123917300Y-84603200D02*
X128117300Y-80403200D01*
X128117300Y-80403200D02*
X128117300Y-80203200D01*
X123917300Y-86913200D02*
X123917300Y-84603200D01*
%TO.N,/GPIO35*%
X129900000Y-80220500D02*
X129900000Y-70600000D01*
X129900000Y-70600000D02*
X130500000Y-70000000D01*
X130500000Y-70000000D02*
X130500000Y-67920500D01*
X124717300Y-86913200D02*
X124717300Y-85403200D01*
X124717300Y-85403200D02*
X129900000Y-80220500D01*
X130500000Y-67920500D02*
X131117300Y-67303200D01*
%TO.N,/GPIO36*%
X130500000Y-70900000D02*
X131100000Y-70300000D01*
X131647300Y-67902700D02*
X131647300Y-66533200D01*
X131100000Y-68450000D02*
X131647300Y-67902700D01*
X125117300Y-85903200D02*
X130500000Y-80520500D01*
X131647300Y-66533200D02*
X131117300Y-66003200D01*
X131100000Y-70300000D02*
X131100000Y-68450000D01*
X130500000Y-80520500D02*
X130500000Y-70900000D01*
X125117300Y-86913200D02*
X125117300Y-85903200D01*
%TO.N,/GPIO37*%
X131100000Y-71200000D02*
X131700000Y-70600000D01*
X125968196Y-90700000D02*
X127500000Y-89168196D01*
X125117300Y-89993200D02*
X125117300Y-90617300D01*
X125200000Y-90700000D02*
X125968196Y-90700000D01*
X127500000Y-89168196D02*
X127500000Y-84500000D01*
X132100000Y-68300000D02*
X132100000Y-65685900D01*
X132100000Y-65685900D02*
X131117300Y-64703200D01*
X127500000Y-84500000D02*
X131100000Y-80900000D01*
X131700000Y-68700000D02*
X132100000Y-68300000D01*
X131100000Y-80900000D02*
X131100000Y-71200000D01*
X131700000Y-70600000D02*
X131700000Y-68700000D01*
X125117300Y-90617300D02*
X125200000Y-90700000D01*
%TO.N,/GPIO38*%
X132300000Y-70900000D02*
X132300000Y-69000000D01*
X125000000Y-91200000D02*
X126300000Y-91200000D01*
X124717300Y-89993200D02*
X124717300Y-90917300D01*
X126300000Y-91200000D02*
X128400000Y-89100000D01*
X132300000Y-69000000D02*
X132600000Y-68700000D01*
X128400000Y-89100000D02*
X128400000Y-84650000D01*
X131700000Y-81350000D02*
X131700000Y-71500000D01*
X132600000Y-64985900D02*
X131117300Y-63503200D01*
X132600000Y-68700000D02*
X132600000Y-64985900D01*
X131700000Y-71500000D02*
X132300000Y-70900000D01*
X128400000Y-84650000D02*
X131700000Y-81350000D01*
X124717300Y-90917300D02*
X125000000Y-91200000D01*
%TO.N,/GPIO39*%
X129300000Y-85000000D02*
X132400000Y-81900000D01*
X133000000Y-71100000D02*
X133000000Y-64085900D01*
X126600000Y-91700000D02*
X129300000Y-89000000D01*
X129300000Y-89000000D02*
X129300000Y-85000000D01*
X132400000Y-81900000D02*
X132400000Y-71700000D01*
X133000000Y-64085900D02*
X131117300Y-62203200D01*
X124317300Y-91217300D02*
X124800000Y-91700000D01*
X124800000Y-91700000D02*
X126600000Y-91700000D01*
X124317300Y-89993200D02*
X124317300Y-91217300D01*
X132400000Y-71700000D02*
X133000000Y-71100000D01*
%TO.N,/GPIO40*%
X133100000Y-71900000D02*
X133500000Y-71500000D01*
X127100000Y-92200000D02*
X130100000Y-89200000D01*
X133500000Y-63285900D02*
X131117300Y-60903200D01*
X130100000Y-85350000D02*
X133100000Y-82350000D01*
X133100000Y-82350000D02*
X133100000Y-71900000D01*
X123917300Y-91517300D02*
X124600000Y-92200000D01*
X133500000Y-71500000D02*
X133500000Y-63285900D01*
X124600000Y-92200000D02*
X127100000Y-92200000D01*
X130100000Y-89200000D02*
X130100000Y-85350000D01*
X123917300Y-89993200D02*
X123917300Y-91517300D01*
%TO.N,/GPIO41*%
X123517300Y-89993200D02*
X123517300Y-91717300D01*
X131000000Y-90000000D02*
X131000000Y-85700000D01*
X131000000Y-85700000D02*
X134000000Y-82700000D01*
X134000000Y-82700000D02*
X134000000Y-62585900D01*
X123517300Y-91717300D02*
X124500000Y-92700000D01*
X124500000Y-92700000D02*
X128300000Y-92700000D01*
X128300000Y-92700000D02*
X131000000Y-90000000D01*
X134000000Y-62585900D02*
X131117300Y-59703200D01*
%TO.N,/GPIO42*%
X134500000Y-70500000D02*
X135200000Y-71200000D01*
X123187300Y-91987300D02*
X123187300Y-91088938D01*
X134500000Y-61785900D02*
X134500000Y-70500000D01*
X123187300Y-91088938D02*
X122717300Y-90618938D01*
X122717300Y-90618938D02*
X122717300Y-89993200D01*
X131800000Y-90900000D02*
X128600000Y-94100000D01*
X131800000Y-86300000D02*
X131800000Y-90900000D01*
X131117300Y-58403200D02*
X134500000Y-61785900D01*
X135200000Y-71200000D02*
X135200000Y-82900000D01*
X128600000Y-94100000D02*
X125300000Y-94100000D01*
X135200000Y-82900000D02*
X131800000Y-86300000D01*
X125300000Y-94100000D02*
X123187300Y-91987300D01*
%TO.N,/GPIO2*%
X137500000Y-71000000D02*
X137500000Y-86300000D01*
X134900000Y-88900000D02*
X134900000Y-92400000D01*
X137237300Y-56837300D02*
X137237300Y-65607351D01*
X137500000Y-86300000D02*
X134900000Y-88900000D01*
X125468263Y-95500000D02*
X121517300Y-91549037D01*
X134200000Y-56300000D02*
X136700000Y-56300000D01*
X132503200Y-54603200D02*
X134200000Y-56300000D01*
X134900000Y-92400000D02*
X131800000Y-95500000D01*
X121517300Y-91549037D02*
X121517300Y-89993200D01*
X136700000Y-56300000D02*
X137237300Y-56837300D01*
X136100000Y-66744651D02*
X136100000Y-69600000D01*
X137237300Y-65607351D02*
X136100000Y-66744651D01*
X136100000Y-69600000D02*
X137500000Y-71000000D01*
X131117300Y-54603200D02*
X132503200Y-54603200D01*
X131800000Y-95500000D02*
X125468263Y-95500000D01*
%TO.N,/GPIO1*%
X120717300Y-91228568D02*
X120717300Y-89993200D01*
X137700000Y-68217800D02*
X137700000Y-54522700D01*
X136977300Y-53800000D02*
X132193600Y-53800000D01*
X137358900Y-68558900D02*
X137700000Y-68217800D01*
X131696800Y-53303200D02*
X131117300Y-53303200D01*
X132193600Y-53800000D02*
X131696800Y-53303200D01*
X120987800Y-91499068D02*
X120717300Y-91228568D01*
X137700000Y-54522700D02*
X136977300Y-53800000D01*
%TO.N,/DPr_P*%
X115800000Y-82000000D02*
X115900000Y-81900000D01*
X115800000Y-82900000D02*
X115800000Y-82000000D01*
X117517300Y-86913200D02*
X117517300Y-84617300D01*
X117517300Y-84617300D02*
X115800000Y-82900000D01*
%TO.N,/DPr_N*%
X118100000Y-82200000D02*
X115900000Y-80000000D01*
X117917300Y-86913200D02*
X117917300Y-85382700D01*
X118100000Y-85200000D02*
X118100000Y-82200000D01*
X117917300Y-85382700D02*
X118100000Y-85200000D01*
%TD*%
M02*
