%TF.GenerationSoftware,KiCad,Pcbnew,7.0.5-7.0.5~ubuntu20.04.1*%
%TF.CreationDate,2023-06-26T22:11:10+02:00*%
%TF.ProjectId,ESP32_UniBoard,45535033-325f-4556-9e69-426f6172642e,rev?*%
%TF.SameCoordinates,Original*%
%TF.FileFunction,Copper,L1,Top*%
%TF.FilePolarity,Positive*%
%FSLAX46Y46*%
G04 Gerber Fmt 4.6, Leading zero omitted, Abs format (unit mm)*
G04 Created by KiCad (PCBNEW 7.0.5-7.0.5~ubuntu20.04.1) date 2023-06-26 22:11:10*
%MOMM*%
%LPD*%
G01*
G04 APERTURE LIST*
G04 Aperture macros list*
%AMRoundRect*
0 Rectangle with rounded corners*
0 $1 Rounding radius*
0 $2 $3 $4 $5 $6 $7 $8 $9 X,Y pos of 4 corners*
0 Add a 4 corners polygon primitive as box body*
4,1,4,$2,$3,$4,$5,$6,$7,$8,$9,$2,$3,0*
0 Add four circle primitives for the rounded corners*
1,1,$1+$1,$2,$3*
1,1,$1+$1,$4,$5*
1,1,$1+$1,$6,$7*
1,1,$1+$1,$8,$9*
0 Add four rect primitives between the rounded corners*
20,1,$1+$1,$2,$3,$4,$5,0*
20,1,$1+$1,$4,$5,$6,$7,0*
20,1,$1+$1,$6,$7,$8,$9,0*
20,1,$1+$1,$8,$9,$2,$3,0*%
G04 Aperture macros list end*
%TA.AperFunction,ComponentPad*%
%ADD10R,1.700000X1.700000*%
%TD*%
%TA.AperFunction,ComponentPad*%
%ADD11O,1.700000X1.700000*%
%TD*%
%TA.AperFunction,SMDPad,CuDef*%
%ADD12R,1.500000X0.900000*%
%TD*%
%TA.AperFunction,SMDPad,CuDef*%
%ADD13R,0.900000X1.500000*%
%TD*%
%TA.AperFunction,SMDPad,CuDef*%
%ADD14R,0.900000X0.900000*%
%TD*%
%TA.AperFunction,SMDPad,CuDef*%
%ADD15RoundRect,0.243750X-0.243750X-0.456250X0.243750X-0.456250X0.243750X0.456250X-0.243750X0.456250X0*%
%TD*%
%TA.AperFunction,SMDPad,CuDef*%
%ADD16RoundRect,0.200000X-0.200000X-0.275000X0.200000X-0.275000X0.200000X0.275000X-0.200000X0.275000X0*%
%TD*%
%TA.AperFunction,SMDPad,CuDef*%
%ADD17R,1.250000X1.000000*%
%TD*%
%TA.AperFunction,SMDPad,CuDef*%
%ADD18RoundRect,0.218750X0.256250X-0.218750X0.256250X0.218750X-0.256250X0.218750X-0.256250X-0.218750X0*%
%TD*%
%TA.AperFunction,SMDPad,CuDef*%
%ADD19RoundRect,0.200000X-0.275000X0.200000X-0.275000X-0.200000X0.275000X-0.200000X0.275000X0.200000X0*%
%TD*%
%TA.AperFunction,SMDPad,CuDef*%
%ADD20RoundRect,0.225000X0.250000X-0.225000X0.250000X0.225000X-0.250000X0.225000X-0.250000X-0.225000X0*%
%TD*%
%TA.AperFunction,SMDPad,CuDef*%
%ADD21RoundRect,0.225000X0.225000X0.250000X-0.225000X0.250000X-0.225000X-0.250000X0.225000X-0.250000X0*%
%TD*%
%TA.AperFunction,SMDPad,CuDef*%
%ADD22R,1.240000X0.600000*%
%TD*%
%TA.AperFunction,SMDPad,CuDef*%
%ADD23R,1.240000X0.300000*%
%TD*%
%TA.AperFunction,ComponentPad*%
%ADD24O,2.100000X1.000000*%
%TD*%
%TA.AperFunction,ComponentPad*%
%ADD25O,1.800000X1.000000*%
%TD*%
%TA.AperFunction,SMDPad,CuDef*%
%ADD26RoundRect,0.150000X-0.512500X-0.150000X0.512500X-0.150000X0.512500X0.150000X-0.512500X0.150000X0*%
%TD*%
%TA.AperFunction,SMDPad,CuDef*%
%ADD27RoundRect,0.225000X-0.250000X0.225000X-0.250000X-0.225000X0.250000X-0.225000X0.250000X0.225000X0*%
%TD*%
%TA.AperFunction,SMDPad,CuDef*%
%ADD28RoundRect,0.225000X-0.225000X-0.250000X0.225000X-0.250000X0.225000X0.250000X-0.225000X0.250000X0*%
%TD*%
%TA.AperFunction,SMDPad,CuDef*%
%ADD29R,1.500000X2.000000*%
%TD*%
%TA.AperFunction,SMDPad,CuDef*%
%ADD30R,3.800000X2.000000*%
%TD*%
%TA.AperFunction,SMDPad,CuDef*%
%ADD31RoundRect,0.225000X0.225000X0.375000X-0.225000X0.375000X-0.225000X-0.375000X0.225000X-0.375000X0*%
%TD*%
%TA.AperFunction,SMDPad,CuDef*%
%ADD32RoundRect,0.250000X-0.475000X0.250000X-0.475000X-0.250000X0.475000X-0.250000X0.475000X0.250000X0*%
%TD*%
%TA.AperFunction,ViaPad*%
%ADD33C,0.600000*%
%TD*%
%TA.AperFunction,Conductor*%
%ADD34C,0.200000*%
%TD*%
%TA.AperFunction,Conductor*%
%ADD35C,0.400000*%
%TD*%
%TA.AperFunction,Conductor*%
%ADD36C,0.500000*%
%TD*%
%TA.AperFunction,Conductor*%
%ADD37C,0.310000*%
%TD*%
G04 APERTURE END LIST*
D10*
%TO.P,J2,1,Pin_1*%
%TO.N,GND*%
X136117300Y-52500000D03*
D11*
%TO.P,J2,2,Pin_2*%
%TO.N,/ESP_TX*%
X136117300Y-55040000D03*
%TO.P,J2,3,Pin_3*%
%TO.N,/ESP_RX*%
X136117300Y-57580000D03*
%TO.P,J2,4,Pin_4*%
%TO.N,+3V3*%
X136117300Y-60120000D03*
%TO.P,J2,5,Pin_5*%
%TO.N,/EN*%
X136117300Y-62660000D03*
%TO.P,J2,6,Pin_6*%
%TO.N,/BOOT*%
X136117300Y-65200000D03*
%TD*%
D12*
%TO.P,U1,1,GND*%
%TO.N,GND*%
X112367300Y-52043200D03*
%TO.P,U1,2,3V3*%
%TO.N,+3V3*%
X112367300Y-53313200D03*
%TO.P,U1,3,EN*%
%TO.N,/EN*%
X112367300Y-54583200D03*
%TO.P,U1,4,GPIO4/TOUCH4/ADC1_CH3*%
%TO.N,/GPIO4*%
X112367300Y-55853200D03*
%TO.P,U1,5,GPIO5/TOUCH5/ADC1_CH4*%
%TO.N,/GPIO5*%
X112367300Y-57123200D03*
%TO.P,U1,6,GPIO6/TOUCH6/ADC1_CH5*%
%TO.N,/GPIO6*%
X112367300Y-58393200D03*
%TO.P,U1,7,GPIO7/TOUCH7/ADC1_CH6*%
%TO.N,/GPIO7*%
X112367300Y-59663200D03*
%TO.P,U1,8,GPIO15/U0RTS/ADC2_CH4/XTAL_32K_P*%
%TO.N,/GPIO15*%
X112367300Y-60933200D03*
%TO.P,U1,9,GPIO16/U0CTS/ADC2_CH5/XTAL_32K_N*%
%TO.N,/GPIO16*%
X112367300Y-62203200D03*
%TO.P,U1,10,GPIO17/U1TXD/ADC2_CH6*%
%TO.N,/GPIO17*%
X112367300Y-63473200D03*
%TO.P,U1,11,GPIO18/U1RXD/ADC2_CH7/CLK_OUT3*%
%TO.N,/GPIO18*%
X112367300Y-64743200D03*
%TO.P,U1,12,GPIO8/TOUCH8/ADC1_CH7/SUBSPICS1*%
%TO.N,/GPIO8*%
X112367300Y-66013200D03*
%TO.P,U1,13,GPIO19/U1RTS/ADC2_CH8/CLK_OUT2/USB_D-*%
%TO.N,/DPr_N*%
X112367300Y-67283200D03*
%TO.P,U1,14,GPIO20/U1CTS/ADC2_CH9/CLK_OUT1/USB_D+*%
%TO.N,/DPr_P*%
X112367300Y-68553200D03*
D13*
%TO.P,U1,15,GPIO3/TOUCH3/ADC1_CH2*%
%TO.N,/GPIO3*%
X114132300Y-69803200D03*
%TO.P,U1,16,GPIO46*%
%TO.N,/GPIO46*%
X115402300Y-69803200D03*
%TO.P,U1,17,GPIO9/TOUCH9/ADC1_CH8/FSPIHD/SUBSPIHD*%
%TO.N,/GPIO9*%
X116672300Y-69803200D03*
%TO.P,U1,18,GPIO10/TOUCH10/ADC1_CH9/FSPICS0/FSPIIO4/SUBSPICS0*%
%TO.N,/GPIO10*%
X117942300Y-69803200D03*
%TO.P,U1,19,GPIO11/TOUCH11/ADC2_CH0/FSPID/FSPIIO5/SUBSPID*%
%TO.N,/GPIO11*%
X119212300Y-69803200D03*
%TO.P,U1,20,GPIO12/TOUCH12/ADC2_CH1/FSPICLK/FSPIIO6/SUBSPICLK*%
%TO.N,/GPIO12*%
X120482300Y-69803200D03*
%TO.P,U1,21,GPIO13/TOUCH13/ADC2_CH2/FSPIQ/FSPIIO7/SUBSPIQ*%
%TO.N,/GPIO13*%
X121752300Y-69803200D03*
%TO.P,U1,22,GPIO14/TOUCH14/ADC2_CH3/FSPIWP/FSPIDQS/SUBSPIWP*%
%TO.N,/GPIO14*%
X123022300Y-69803200D03*
%TO.P,U1,23,GPIO21*%
%TO.N,/GPIO21*%
X124292300Y-69803200D03*
%TO.P,U1,24,GPIO47/SPICLK_P/SUBSPICLK_P_DIFF*%
%TO.N,/GPIO47*%
X125562300Y-69803200D03*
%TO.P,U1,25,GPIO48/SPICLK_N/SUBSPICLK_N_DIFF*%
%TO.N,/GPIO48*%
X126832300Y-69803200D03*
%TO.P,U1,26,GPIO45*%
%TO.N,/GPIO45*%
X128102300Y-69803200D03*
D12*
%TO.P,U1,27,GPIO0/BOOT*%
%TO.N,/BOOT*%
X129867300Y-68553200D03*
%TO.P,U1,28,SPIIO6/GPIO35/FSPID/SUBSPID*%
%TO.N,/GPIO35*%
X129867300Y-67283200D03*
%TO.P,U1,29,SPIIO7/GPIO36/FSPICLK/SUBSPICLK*%
%TO.N,/GPIO36*%
X129867300Y-66013200D03*
%TO.P,U1,30,SPIDQS/GPIO37/FSPIQ/SUBSPIQ*%
%TO.N,/GPIO37*%
X129867300Y-64743200D03*
%TO.P,U1,31,GPIO38/FSPIWP/SUBSPIWP*%
%TO.N,/GPIO38*%
X129867300Y-63473200D03*
%TO.P,U1,32,MTCK/GPIO39/CLK_OUT3/SUBSPICS1*%
%TO.N,/GPIO39*%
X129867300Y-62203200D03*
%TO.P,U1,33,MTDO/GPIO40/CLK_OUT2*%
%TO.N,/GPIO40*%
X129867300Y-60933200D03*
%TO.P,U1,34,MTDI/GPIO41/CLK_OUT1*%
%TO.N,/GPIO41*%
X129867300Y-59663200D03*
%TO.P,U1,35,MTMS/GPIO42*%
%TO.N,/GPIO42*%
X129867300Y-58393200D03*
%TO.P,U1,36,U0RXD/GPIO44/CLK_OUT2*%
%TO.N,/ESP_RX*%
X129867300Y-57123200D03*
%TO.P,U1,37,U0TXD/GPIO43/CLK_OUT1*%
%TO.N,/ESP_TX*%
X129867300Y-55853200D03*
%TO.P,U1,38,GPIO2/TOUCH2/ADC1_CH1*%
%TO.N,/GPIO2*%
X129867300Y-54583200D03*
%TO.P,U1,39,GPIO1/TOUCH1/ADC1_CH0*%
%TO.N,/GPIO1*%
X129867300Y-53313200D03*
%TO.P,U1,40,GND*%
%TO.N,GND*%
X129867300Y-52043200D03*
D14*
%TO.P,U1,41,GND*%
X118217300Y-58363200D03*
X118217300Y-59763200D03*
X118217300Y-61163200D03*
X119617300Y-58363200D03*
X119617300Y-59763200D03*
X119617300Y-61163200D03*
X121017300Y-58363200D03*
X121017300Y-59763200D03*
X121017300Y-61163200D03*
%TD*%
D15*
%TO.P,F1,1*%
%TO.N,VBUS*%
X114752800Y-85603200D03*
%TO.P,F1,2*%
%TO.N,/VBUS_Fused*%
X116627800Y-85603200D03*
%TD*%
D16*
%TO.P,R2,1*%
%TO.N,/R_CC2*%
X108640100Y-87182800D03*
%TO.P,R2,2*%
%TO.N,GND*%
X110290100Y-87182800D03*
%TD*%
D17*
%TO.P,SW1,1,1*%
%TO.N,GND*%
X114492300Y-93303200D03*
%TO.P,SW1,2,2*%
%TO.N,/EN*%
X106742300Y-93303200D03*
%TD*%
D18*
%TO.P,D3,1,K*%
%TO.N,GND*%
X134391500Y-78792500D03*
%TO.P,D3,2,A*%
%TO.N,Net-(D3-A)*%
X134391500Y-77217500D03*
%TD*%
D19*
%TO.P,R6,1*%
%TO.N,/GPIO1*%
X136423500Y-73962600D03*
%TO.P,R6,2*%
%TO.N,Net-(D4-A)*%
X136423500Y-75612600D03*
%TD*%
D20*
%TO.P,C4,1*%
%TO.N,+3V3*%
X110195300Y-53712200D03*
%TO.P,C4,2*%
%TO.N,GND*%
X110195300Y-52162200D03*
%TD*%
D19*
%TO.P,R3,1*%
%TO.N,+3V3*%
X106089300Y-52112300D03*
%TO.P,R3,2*%
%TO.N,/EN*%
X106089300Y-53762300D03*
%TD*%
D21*
%TO.P,C8,1*%
%TO.N,+5V*%
X126504800Y-83603200D03*
%TO.P,C8,2*%
%TO.N,GND*%
X124954800Y-83603200D03*
%TD*%
D22*
%TO.P,J1,A1,GND*%
%TO.N,GND*%
X111529500Y-77803200D03*
%TO.P,J1,A4,VBUS*%
%TO.N,VBUS*%
X111529500Y-78603200D03*
D23*
%TO.P,J1,A5,CC1*%
%TO.N,/R_CC1*%
X111529500Y-79753200D03*
%TO.P,J1,A6,D+*%
%TO.N,/D_P*%
X111529500Y-80753200D03*
%TO.P,J1,A7,D-*%
%TO.N,/D_N*%
X111529500Y-81253200D03*
%TO.P,J1,A8,SBU1*%
%TO.N,unconnected-(J1-SBU1-PadA8)*%
X111529500Y-82253200D03*
D22*
%TO.P,J1,A9,VBUS*%
%TO.N,VBUS*%
X111529500Y-83403200D03*
%TO.P,J1,A12,GND*%
%TO.N,GND*%
X111529500Y-84203200D03*
%TO.P,J1,B1,GND*%
X111529500Y-84203200D03*
%TO.P,J1,B4,VBUS*%
%TO.N,VBUS*%
X111529500Y-83403200D03*
D23*
%TO.P,J1,B5,CC2*%
%TO.N,/R_CC2*%
X111529500Y-82753200D03*
%TO.P,J1,B6,D+*%
%TO.N,/D_P*%
X111529500Y-81753200D03*
%TO.P,J1,B7,D-*%
%TO.N,/D_N*%
X111529500Y-80253200D03*
%TO.P,J1,B8,SBU2*%
%TO.N,unconnected-(J1-SBU2-PadB8)*%
X111529500Y-79253200D03*
D22*
%TO.P,J1,B9,VBUS*%
%TO.N,VBUS*%
X111529500Y-78603200D03*
%TO.P,J1,B12,GND*%
%TO.N,GND*%
X111529500Y-77803200D03*
D24*
%TO.P,J1,S1,SHIELD*%
%TO.N,unconnected-(J1-SHIELD-PadS1)*%
X110929500Y-76683200D03*
D25*
X106729500Y-76683200D03*
D24*
X110929500Y-85323200D03*
D25*
X106729500Y-85323200D03*
%TD*%
D17*
%TO.P,SW2,1,1*%
%TO.N,GND*%
X127967300Y-93253200D03*
%TO.P,SW2,2,2*%
%TO.N,/BOOT*%
X135717300Y-93253200D03*
%TD*%
D18*
%TO.P,D4,1,K*%
%TO.N,GND*%
X136423500Y-78792500D03*
%TO.P,D4,2,A*%
%TO.N,Net-(D4-A)*%
X136423500Y-77217500D03*
%TD*%
D26*
%TO.P,U3,1,I/O1*%
%TO.N,/D_N*%
X114752800Y-80003200D03*
%TO.P,U3,2,GND*%
%TO.N,GND*%
X114752800Y-80953200D03*
%TO.P,U3,3,I/O2*%
%TO.N,/D_P*%
X114752800Y-81903200D03*
%TO.P,U3,4,I/O2*%
%TO.N,/DPr_P*%
X117027800Y-81903200D03*
%TO.P,U3,5,VBUS*%
%TO.N,VBUS*%
X117027800Y-80953200D03*
%TO.P,U3,6,I/O1*%
%TO.N,/DPr_N*%
X117027800Y-80003200D03*
%TD*%
D27*
%TO.P,C2,1*%
%TO.N,GND*%
X106317300Y-89978200D03*
%TO.P,C2,2*%
%TO.N,/EN*%
X106317300Y-91528200D03*
%TD*%
D28*
%TO.P,C9,1*%
%TO.N,VBUS*%
X114708900Y-83603200D03*
%TO.P,C9,2*%
%TO.N,GND*%
X116258900Y-83603200D03*
%TD*%
D20*
%TO.P,C3,1*%
%TO.N,+3V3*%
X108117300Y-53712300D03*
%TO.P,C3,2*%
%TO.N,GND*%
X108117300Y-52162300D03*
%TD*%
D18*
%TO.P,D2,1,K*%
%TO.N,GND*%
X132320400Y-78792500D03*
%TO.P,D2,2,A*%
%TO.N,Net-(D2-A)*%
X132320400Y-77217500D03*
%TD*%
D27*
%TO.P,C5,1*%
%TO.N,GND*%
X136192300Y-89928200D03*
%TO.P,C5,2*%
%TO.N,/BOOT*%
X136192300Y-91478200D03*
%TD*%
D29*
%TO.P,U2,1,GND*%
%TO.N,GND*%
X123429800Y-81253200D03*
%TO.P,U2,2,VO*%
%TO.N,+3V3*%
X125729800Y-81253200D03*
D30*
X125729800Y-74953200D03*
D29*
%TO.P,U2,3,VI*%
%TO.N,+5V*%
X128029800Y-81253200D03*
%TD*%
D16*
%TO.P,R1,1*%
%TO.N,/R_CC1*%
X108640100Y-74864600D03*
%TO.P,R1,2*%
%TO.N,GND*%
X110290100Y-74864600D03*
%TD*%
D19*
%TO.P,R5,1*%
%TO.N,/ESP_RX*%
X134391500Y-73962600D03*
%TO.P,R5,2*%
%TO.N,Net-(D3-A)*%
X134391500Y-75612600D03*
%TD*%
%TO.P,R4,1*%
%TO.N,+3V3*%
X132320400Y-73962600D03*
%TO.P,R4,2*%
%TO.N,Net-(D2-A)*%
X132320400Y-75612600D03*
%TD*%
D27*
%TO.P,C1,1*%
%TO.N,/EN*%
X106089300Y-55562300D03*
%TO.P,C1,2*%
%TO.N,GND*%
X106089300Y-57112300D03*
%TD*%
D31*
%TO.P,D1,1,K*%
%TO.N,+5V*%
X126500000Y-85700000D03*
%TO.P,D1,2,A*%
%TO.N,/VBUS_Fused*%
X123200000Y-85700000D03*
%TD*%
D32*
%TO.P,C6,1*%
%TO.N,+3V3*%
X120717300Y-74453200D03*
%TO.P,C6,2*%
%TO.N,GND*%
X120717300Y-76353200D03*
%TD*%
D33*
%TO.N,GND*%
X123417300Y-79778200D03*
X116100000Y-89100000D03*
X107017300Y-57103200D03*
X114500000Y-92100000D03*
X128100000Y-92100000D03*
X135467300Y-89303200D03*
X126300000Y-89200000D03*
X105192300Y-57128200D03*
X117400000Y-57600000D03*
X111142300Y-52053200D03*
X113542300Y-52028200D03*
X120776591Y-88923409D03*
X113500000Y-81000000D03*
X117517300Y-60503200D03*
X107217300Y-52153200D03*
X126917300Y-93253700D03*
X117517300Y-59103200D03*
X119492300Y-76328200D03*
X118917300Y-60503200D03*
X109142300Y-52153200D03*
X121717300Y-59103200D03*
X134600000Y-81400000D03*
X112817300Y-84678200D03*
X136000000Y-81400000D03*
X120317300Y-59103200D03*
X124142300Y-82778200D03*
X131092300Y-52028200D03*
X118917300Y-59103200D03*
X121800000Y-57600000D03*
X121717300Y-60503200D03*
X120317300Y-60503200D03*
X121892300Y-76378200D03*
X118917300Y-57603200D03*
X112642300Y-77653200D03*
X121723409Y-87976591D03*
X121700000Y-61900000D03*
X126600000Y-87000000D03*
X120317300Y-61903200D03*
X120317300Y-57603200D03*
X122167300Y-81253200D03*
X111117300Y-74878200D03*
X111142300Y-87178200D03*
X115600000Y-93400000D03*
X117500000Y-61900000D03*
X116058732Y-87893467D03*
X106967300Y-89303200D03*
X118917300Y-61903200D03*
X128667300Y-52028200D03*
X117467300Y-83603200D03*
%TO.N,+3V3*%
X125300000Y-87930497D03*
X119542300Y-74403200D03*
X126200000Y-77600000D03*
X113567300Y-53303200D03*
X121917300Y-74453200D03*
X128686800Y-75800000D03*
X127500000Y-77600000D03*
X126200000Y-79200000D03*
X123124829Y-87940690D03*
X125000000Y-79200000D03*
X109167300Y-53703200D03*
X125000000Y-73400000D03*
X125000000Y-77600000D03*
X105092300Y-52103200D03*
X111142300Y-53328200D03*
X123400000Y-77600000D03*
X123392300Y-75803200D03*
X119100000Y-88900000D03*
X128686800Y-74128200D03*
X128700000Y-77600000D03*
X116869503Y-88900000D03*
X120742300Y-73453200D03*
X123342300Y-74153200D03*
X126200000Y-73400000D03*
%TO.N,/BOOT*%
X129917300Y-69503200D03*
X124300000Y-88000000D03*
%TO.N,VBUS*%
X114715100Y-84493200D03*
X112715100Y-83393200D03*
X116015100Y-80993200D03*
X112615100Y-78793200D03*
%TO.N,+5V*%
X123000000Y-88700000D03*
X116800000Y-88100000D03*
X119117300Y-88100000D03*
X125300000Y-88700000D03*
%TO.N,/ESP_TX*%
X131117300Y-55903200D03*
%TO.N,/ESP_RX*%
X122474414Y-91125586D03*
%TO.N,/GPIO4*%
X111017300Y-55803200D03*
%TO.N,/GPIO5*%
X111017300Y-57103200D03*
%TO.N,/GPIO6*%
X111017300Y-58403200D03*
%TO.N,/GPIO7*%
X111017300Y-59603200D03*
%TO.N,/GPIO15*%
X111017300Y-60903200D03*
%TO.N,/GPIO16*%
X111017300Y-62203200D03*
%TO.N,/GPIO17*%
X111017300Y-63403200D03*
%TO.N,/GPIO18*%
X111017300Y-64703200D03*
%TO.N,/GPIO8*%
X111017300Y-66003200D03*
%TO.N,/GPIO3*%
X114117300Y-71003200D03*
%TO.N,/GPIO46*%
X115417300Y-71003200D03*
%TO.N,/GPIO9*%
X116717300Y-71003200D03*
%TO.N,/GPIO10*%
X118017300Y-71003200D03*
%TO.N,/GPIO11*%
X119217300Y-71003200D03*
%TO.N,/GPIO12*%
X120517300Y-71003200D03*
%TO.N,/GPIO13*%
X121817300Y-71003200D03*
%TO.N,/GPIO14*%
X123117300Y-71003200D03*
%TO.N,/GPIO21*%
X124317300Y-71003200D03*
%TO.N,/GPIO47*%
X125617300Y-71003200D03*
%TO.N,/GPIO48*%
X126817300Y-71003200D03*
%TO.N,/GPIO45*%
X128117300Y-71003200D03*
%TO.N,/GPIO35*%
X131117300Y-67303200D03*
%TO.N,/GPIO36*%
X131117300Y-66003200D03*
%TO.N,/GPIO37*%
X131117300Y-64703200D03*
%TO.N,/GPIO38*%
X131117300Y-63503200D03*
%TO.N,/GPIO39*%
X131117300Y-62203200D03*
%TO.N,/GPIO40*%
X131117300Y-60903200D03*
%TO.N,/GPIO41*%
X131117300Y-59703200D03*
%TO.N,/GPIO42*%
X131117300Y-58403200D03*
%TO.N,/GPIO2*%
X131117300Y-54603200D03*
%TO.N,/GPIO1*%
X120987800Y-91499068D03*
X131117300Y-53303200D03*
X137358900Y-68558900D03*
%TO.N,/DPr_P*%
X115900000Y-81900000D03*
%TO.N,/DPr_N*%
X115900000Y-80000000D03*
%TD*%
D34*
%TO.N,/EN*%
X112367300Y-54583200D02*
X106094300Y-54583200D01*
X106317300Y-91878200D02*
X106742300Y-92303200D01*
X104662300Y-56427000D02*
X105527000Y-55562300D01*
X106317300Y-91528200D02*
X104662300Y-89873200D01*
X105527000Y-55562300D02*
X106089300Y-55562300D01*
X104662300Y-89873200D02*
X104662300Y-56427000D01*
X106089300Y-53762300D02*
X106089300Y-55562300D01*
X106317300Y-91528200D02*
X106317300Y-91878200D01*
X106742300Y-92303200D02*
X106742300Y-93303200D01*
X136800000Y-51100000D02*
X137400000Y-51700000D01*
X137400000Y-61377300D02*
X136117300Y-62660000D01*
X117600000Y-51100000D02*
X136800000Y-51100000D01*
X114116800Y-54583200D02*
X117600000Y-51100000D01*
X112367300Y-54583200D02*
X114116800Y-54583200D01*
X137400000Y-51700000D02*
X137400000Y-61377300D01*
D35*
%TO.N,GND*%
X116483900Y-83603200D02*
X117467300Y-83603200D01*
X106089300Y-57112300D02*
X105208200Y-57112300D01*
D36*
X119517300Y-76353200D02*
X119492300Y-76328200D01*
X121867300Y-76353200D02*
X121892300Y-76378200D01*
D34*
X127967300Y-92232700D02*
X128100000Y-92100000D01*
X126917800Y-93253200D02*
X126917300Y-93253700D01*
D36*
X129867300Y-52043200D02*
X131077300Y-52043200D01*
X108117300Y-52162300D02*
X107226400Y-52162300D01*
X112367300Y-52043200D02*
X113527300Y-52043200D01*
D34*
X132320400Y-78792500D02*
X134391500Y-78792500D01*
D36*
X111103700Y-74864600D02*
X111117300Y-74878200D01*
D34*
X114492300Y-93303200D02*
X115503200Y-93303200D01*
D35*
X106089300Y-57112300D02*
X107008200Y-57112300D01*
D36*
X123429800Y-81253200D02*
X122167300Y-81253200D01*
D35*
X113527300Y-52043200D02*
X113542300Y-52028200D01*
X110195200Y-52162300D02*
X110195300Y-52162200D01*
X112492300Y-77803200D02*
X112642300Y-77653200D01*
D36*
X120717300Y-76353200D02*
X119517300Y-76353200D01*
D35*
X114752800Y-80953200D02*
X113546800Y-80953200D01*
D36*
X123429800Y-81253200D02*
X123429800Y-79790700D01*
D34*
X136423500Y-80976500D02*
X136000000Y-81400000D01*
D36*
X110290100Y-87182800D02*
X111137700Y-87182800D01*
D34*
X127967300Y-93253200D02*
X127967300Y-92232700D01*
X106317300Y-89978200D02*
X106317300Y-89953200D01*
X136192300Y-89928200D02*
X136092300Y-89928200D01*
X134391500Y-81191500D02*
X134600000Y-81400000D01*
X106317300Y-89953200D02*
X106967300Y-89303200D01*
D35*
X110195300Y-52162200D02*
X110304300Y-52053200D01*
D34*
X115503200Y-93303200D02*
X115600000Y-93400000D01*
D36*
X120717300Y-76353200D02*
X121867300Y-76353200D01*
X107226400Y-52162300D02*
X107217300Y-52153200D01*
D34*
X127967300Y-93253200D02*
X126917800Y-93253200D01*
D36*
X110304300Y-52053200D02*
X111142300Y-52053200D01*
X124129800Y-82778200D02*
X124142300Y-82778200D01*
D34*
X134391500Y-78792500D02*
X134391500Y-81191500D01*
D36*
X124142300Y-82778200D02*
X124142300Y-82790700D01*
D34*
X136423500Y-78792500D02*
X136423500Y-80976500D01*
D36*
X124142300Y-82790700D02*
X124954800Y-83603200D01*
X123429800Y-79790700D02*
X123417300Y-79778200D01*
X109151400Y-52162300D02*
X110195200Y-52162300D01*
X108117300Y-52162300D02*
X109133200Y-52162300D01*
D35*
X112342300Y-84203200D02*
X112817300Y-84678200D01*
D34*
X136092300Y-89928200D02*
X135467300Y-89303200D01*
D36*
X110290100Y-74864600D02*
X111103700Y-74864600D01*
X123429800Y-82078200D02*
X124129800Y-82778200D01*
D35*
X113546800Y-80953200D02*
X113500000Y-81000000D01*
X107008200Y-57112300D02*
X107017300Y-57103200D01*
D36*
X111142300Y-52053200D02*
X112357300Y-52053200D01*
D35*
X109142300Y-52153200D02*
X109151400Y-52162300D01*
X109133200Y-52162300D02*
X109142300Y-52153200D01*
D34*
X114492300Y-93303200D02*
X114492300Y-92107700D01*
D36*
X111137700Y-87182800D02*
X111142300Y-87178200D01*
X128682300Y-52043200D02*
X128667300Y-52028200D01*
X123429800Y-81253200D02*
X123429800Y-82078200D01*
X131077300Y-52043200D02*
X131092300Y-52028200D01*
X129867300Y-52043200D02*
X128682300Y-52043200D01*
D35*
X111754500Y-84203200D02*
X112342300Y-84203200D01*
X105208200Y-57112300D02*
X105192300Y-57128200D01*
D34*
X114492300Y-92107700D02*
X114500000Y-92100000D01*
D35*
X112357300Y-52053200D02*
X112367300Y-52043200D01*
X111529500Y-77803200D02*
X112492300Y-77803200D01*
D36*
%TO.N,+3V3*%
X111127300Y-53313200D02*
X110594300Y-53313200D01*
D34*
X130637400Y-73962600D02*
X132320400Y-73962600D01*
D35*
X106089300Y-52112300D02*
X105101400Y-52112300D01*
D34*
X129646800Y-74953200D02*
X130637400Y-73962600D01*
D35*
X111157300Y-53313200D02*
X111142300Y-53328200D01*
D36*
X112367300Y-53313200D02*
X111157300Y-53313200D01*
D35*
X105101400Y-52112300D02*
X105092300Y-52103200D01*
D36*
X112367300Y-53313200D02*
X113557300Y-53313200D01*
D34*
X125729800Y-74953200D02*
X129646800Y-74953200D01*
D36*
X110594300Y-53313200D02*
X110195300Y-53712200D01*
X113557300Y-53313200D02*
X113567300Y-53303200D01*
D35*
X111142300Y-53328200D02*
X111127300Y-53313200D01*
D36*
X108117300Y-53712300D02*
X109133200Y-53712300D01*
D35*
X109167300Y-53678200D02*
X109201400Y-53712300D01*
X109133200Y-53712300D02*
X109167300Y-53678200D01*
X110195200Y-53712300D02*
X110195300Y-53712200D01*
D36*
X109201400Y-53712300D02*
X110195200Y-53712300D01*
D34*
%TO.N,/BOOT*%
X129867300Y-69453200D02*
X129917300Y-69503200D01*
X132940500Y-96030000D02*
X135717300Y-93253200D01*
X129867300Y-68553200D02*
X129867300Y-69453200D01*
X123100000Y-90300000D02*
X120700000Y-90300000D01*
X120700000Y-90300000D02*
X119000000Y-92000000D01*
X129867300Y-68553200D02*
X132764100Y-68553200D01*
X124300000Y-88000000D02*
X124300000Y-89100000D01*
X124300000Y-89100000D02*
X123100000Y-90300000D01*
X119000000Y-92000000D02*
X119000000Y-94700000D01*
X136192300Y-91478200D02*
X135717300Y-91953200D01*
X120330000Y-96030000D02*
X132940500Y-96030000D01*
X132764100Y-68553200D02*
X136117300Y-65200000D01*
X119000000Y-94700000D02*
X120330000Y-96030000D01*
X135717300Y-91953200D02*
X135717300Y-93253200D01*
D36*
%TO.N,VBUS*%
X117027800Y-80953200D02*
X116055100Y-80953200D01*
X114708900Y-84499400D02*
X114708900Y-85559300D01*
X114708900Y-84487000D02*
X114715100Y-84493200D01*
X111529500Y-78603200D02*
X112425100Y-78603200D01*
X114715100Y-84493200D02*
X114708900Y-84499400D01*
X116055100Y-80953200D02*
X116015100Y-80993200D01*
X114708900Y-85559300D02*
X114752800Y-85603200D01*
X112705100Y-83403200D02*
X112715100Y-83393200D01*
X111529500Y-83403200D02*
X112705100Y-83403200D01*
X114708900Y-83603200D02*
X114708900Y-84487000D01*
X112425100Y-78603200D02*
X112615100Y-78793200D01*
D35*
%TO.N,+5V*%
X127270000Y-87277524D02*
X127270000Y-86318400D01*
X121500000Y-88700000D02*
X123000000Y-88700000D01*
X120900000Y-88100000D02*
X121500000Y-88700000D01*
X125300000Y-88700000D02*
X125847524Y-88700000D01*
X119117300Y-88100000D02*
X120900000Y-88100000D01*
X125847524Y-88700000D02*
X127270000Y-87277524D01*
X127270000Y-86318400D02*
X126554800Y-85603200D01*
X119117300Y-88100000D02*
X116800000Y-88100000D01*
D34*
%TO.N,Net-(D2-A)*%
X132320400Y-75612600D02*
X132320400Y-77217500D01*
%TO.N,/ESP_TX*%
X135257300Y-55900000D02*
X136117300Y-55040000D01*
X131117300Y-55903200D02*
X131120500Y-55900000D01*
X131067300Y-55853200D02*
X131117300Y-55903200D01*
X131120500Y-55900000D02*
X135257300Y-55900000D01*
X129867300Y-55853200D02*
X131067300Y-55853200D01*
%TO.N,/ESP_RX*%
X135400000Y-74000000D02*
X135400000Y-68700000D01*
X135400000Y-68700000D02*
X137300000Y-66800000D01*
X137300000Y-66800000D02*
X137300000Y-64499999D01*
X136800001Y-64000000D02*
X135600000Y-64000000D01*
X129600000Y-94600000D02*
X133800000Y-90400000D01*
X134391500Y-73962600D02*
X135362600Y-73962600D01*
X133800000Y-86400000D02*
X135400000Y-84800000D01*
X137300000Y-64499999D02*
X136800001Y-64000000D01*
X135400000Y-84800000D02*
X135400000Y-74000000D01*
X125948828Y-94600000D02*
X129600000Y-94600000D01*
X129867300Y-57123200D02*
X131137300Y-57123200D01*
X122474414Y-91125586D02*
X125948828Y-94600000D01*
X135054350Y-58642950D02*
X132657050Y-58642950D01*
X135600000Y-64000000D02*
X133300000Y-61700000D01*
X133300000Y-61700000D02*
X133300000Y-59285900D01*
X131137300Y-57123200D02*
X133300000Y-59285900D01*
X133800000Y-90400000D02*
X133800000Y-86400000D01*
X135362600Y-73962600D02*
X135400000Y-74000000D01*
X136117300Y-57580000D02*
X135054350Y-58642950D01*
%TO.N,/GPIO4*%
X111067300Y-55853200D02*
X111017300Y-55803200D01*
X112367300Y-55853200D02*
X111067300Y-55853200D01*
%TO.N,/GPIO5*%
X112367300Y-57123200D02*
X111037300Y-57123200D01*
X111037300Y-57123200D02*
X111017300Y-57103200D01*
%TO.N,/GPIO6*%
X112367300Y-58393200D02*
X111027300Y-58393200D01*
X111027300Y-58393200D02*
X111017300Y-58403200D01*
%TO.N,/GPIO7*%
X112367300Y-59663200D02*
X111077300Y-59663200D01*
X111077300Y-59663200D02*
X111017300Y-59603200D01*
%TO.N,/GPIO15*%
X112367300Y-60933200D02*
X111047300Y-60933200D01*
X111047300Y-60933200D02*
X111017300Y-60903200D01*
%TO.N,/GPIO16*%
X112367300Y-62203200D02*
X111017300Y-62203200D01*
%TO.N,/GPIO17*%
X112367300Y-63473200D02*
X111087300Y-63473200D01*
X111087300Y-63473200D02*
X111017300Y-63403200D01*
%TO.N,/GPIO18*%
X112367300Y-64743200D02*
X111057300Y-64743200D01*
X111057300Y-64743200D02*
X111017300Y-64703200D01*
%TO.N,/GPIO8*%
X112367300Y-66013200D02*
X111027300Y-66013200D01*
X111027300Y-66013200D02*
X111017300Y-66003200D01*
%TO.N,/D_P*%
X110709500Y-81753200D02*
X110679500Y-81723200D01*
X111529500Y-81753200D02*
X110709500Y-81753200D01*
X113167300Y-81903200D02*
X114752800Y-81903200D01*
X111529500Y-81753200D02*
X113017300Y-81753200D01*
X110709500Y-80753200D02*
X111529500Y-80753200D01*
X110679500Y-81723200D02*
X110679500Y-80783200D01*
X113017300Y-81753200D02*
X113167300Y-81903200D01*
X110679500Y-80783200D02*
X110709500Y-80753200D01*
%TO.N,/D_N*%
X112349500Y-81253200D02*
X111529500Y-81253200D01*
X111529500Y-80253200D02*
X112349500Y-80253200D01*
X112599500Y-80003200D02*
X114752800Y-80003200D01*
X112349500Y-80253200D02*
X112379500Y-80283200D01*
X112379500Y-80283200D02*
X112379500Y-81223200D01*
X112349500Y-80253200D02*
X112599500Y-80003200D01*
X112379500Y-81223200D02*
X112349500Y-81253200D01*
%TO.N,/GPIO3*%
X114132300Y-69803200D02*
X114132300Y-70988200D01*
X114132300Y-70988200D02*
X114117300Y-71003200D01*
%TO.N,/GPIO46*%
X115402300Y-70988200D02*
X115417300Y-71003200D01*
X115402300Y-69803200D02*
X115402300Y-70988200D01*
%TO.N,/GPIO9*%
X116672300Y-70958200D02*
X116717300Y-71003200D01*
X116672300Y-69803200D02*
X116672300Y-70958200D01*
%TO.N,/GPIO10*%
X117942300Y-69803200D02*
X117942300Y-70928200D01*
X117942300Y-70928200D02*
X118017300Y-71003200D01*
%TO.N,/GPIO11*%
X119212300Y-70998200D02*
X119217300Y-71003200D01*
X119212300Y-69803200D02*
X119212300Y-70998200D01*
%TO.N,/GPIO12*%
X120482300Y-69803200D02*
X120482300Y-70968200D01*
X120482300Y-70968200D02*
X120517300Y-71003200D01*
%TO.N,/GPIO13*%
X121752300Y-70938200D02*
X121817300Y-71003200D01*
X121752300Y-69803200D02*
X121752300Y-70938200D01*
%TO.N,/GPIO14*%
X123022300Y-70908200D02*
X123117300Y-71003200D01*
X123022300Y-69803200D02*
X123022300Y-70908200D01*
%TO.N,/GPIO21*%
X124292300Y-70978200D02*
X124317300Y-71003200D01*
X124292300Y-69803200D02*
X124292300Y-70978200D01*
%TO.N,/GPIO47*%
X125562300Y-69803200D02*
X125562300Y-70948200D01*
X125562300Y-70948200D02*
X125617300Y-71003200D01*
%TO.N,/GPIO48*%
X126832300Y-69803200D02*
X126832300Y-70988200D01*
X126832300Y-70988200D02*
X126817300Y-71003200D01*
%TO.N,/GPIO45*%
X128102300Y-69803200D02*
X128102300Y-70988200D01*
X128102300Y-70988200D02*
X128117300Y-71003200D01*
%TO.N,/GPIO35*%
X129867300Y-67283200D02*
X131097300Y-67283200D01*
X131097300Y-67283200D02*
X131117300Y-67303200D01*
%TO.N,/GPIO36*%
X129867300Y-66013200D02*
X131107300Y-66013200D01*
X131107300Y-66013200D02*
X131117300Y-66003200D01*
%TO.N,/GPIO37*%
X131077300Y-64743200D02*
X131117300Y-64703200D01*
X129867300Y-64743200D02*
X131077300Y-64743200D01*
%TO.N,/GPIO38*%
X131087300Y-63473200D02*
X131117300Y-63503200D01*
X129867300Y-63473200D02*
X131087300Y-63473200D01*
%TO.N,/GPIO39*%
X129867300Y-62203200D02*
X131117300Y-62203200D01*
%TO.N,/GPIO40*%
X129867300Y-60933200D02*
X131087300Y-60933200D01*
X131087300Y-60933200D02*
X131117300Y-60903200D01*
%TO.N,/GPIO41*%
X131077300Y-59663200D02*
X131117300Y-59703200D01*
X129867300Y-59663200D02*
X131077300Y-59663200D01*
%TO.N,/GPIO42*%
X129867300Y-58393200D02*
X131107300Y-58393200D01*
X131107300Y-58393200D02*
X131117300Y-58403200D01*
%TO.N,/GPIO2*%
X131097300Y-54583200D02*
X131117300Y-54603200D01*
X129867300Y-54583200D02*
X131097300Y-54583200D01*
%TO.N,/GPIO1*%
X136900000Y-69017800D02*
X136900000Y-72500000D01*
X137400000Y-73000000D02*
X137400000Y-74100000D01*
X137400000Y-86200000D02*
X137400000Y-74100000D01*
X125268263Y-95300000D02*
X131900000Y-95300000D01*
X120987800Y-91499068D02*
X121467331Y-91499068D01*
X134800000Y-92400000D02*
X134800000Y-88800000D01*
X136423500Y-73962600D02*
X137262600Y-73962600D01*
X137262600Y-73962600D02*
X137400000Y-74100000D01*
X131107300Y-53313200D02*
X131117300Y-53303200D01*
X121467331Y-91499068D02*
X125268263Y-95300000D01*
X129867300Y-53313200D02*
X131107300Y-53313200D01*
X131900000Y-95300000D02*
X134800000Y-92400000D01*
X134800000Y-88800000D02*
X137400000Y-86200000D01*
X137358900Y-68558900D02*
X136900000Y-69017800D01*
X136900000Y-72500000D02*
X137400000Y-73000000D01*
%TO.N,/R_CC1*%
X108640100Y-77683800D02*
X108640100Y-74864600D01*
X110709500Y-79753200D02*
X108640100Y-77683800D01*
X111529500Y-79753200D02*
X110709500Y-79753200D01*
%TO.N,Net-(D3-A)*%
X134391500Y-75612600D02*
X134391500Y-77217500D01*
%TO.N,Net-(D4-A)*%
X136423500Y-75612600D02*
X136423500Y-77217500D01*
%TO.N,/R_CC2*%
X108640100Y-84708006D02*
X108640100Y-87182800D01*
X110594906Y-82753200D02*
X108640100Y-84708006D01*
X111529500Y-82753200D02*
X110594906Y-82753200D01*
D37*
%TO.N,/DPr_P*%
X112417300Y-72573200D02*
X109718636Y-72573200D01*
X111242299Y-68553200D02*
X112367300Y-68553200D01*
X118666551Y-81258200D02*
X119343636Y-81258200D01*
X119343636Y-81258200D02*
X120047300Y-80554536D01*
X108372300Y-69329536D02*
X109478636Y-68223200D01*
X120047300Y-80554536D02*
X120047300Y-79026864D01*
X109478636Y-68223200D02*
X110912299Y-68223200D01*
X117027800Y-81903200D02*
X118021551Y-81903200D01*
X113593636Y-72573200D02*
X112417300Y-72573200D01*
X118021551Y-81903200D02*
X118666551Y-81258200D01*
D34*
X115900000Y-81900000D02*
X117024600Y-81900000D01*
D37*
X109718636Y-72573200D02*
X108372300Y-71226864D01*
X120047300Y-79026864D02*
X113593636Y-72573200D01*
X110912299Y-68223200D02*
X111242299Y-68553200D01*
X108372300Y-71226864D02*
X108372300Y-69329536D01*
D34*
X117024600Y-81900000D02*
X117027800Y-81903200D01*
D37*
%TO.N,/DPr_N*%
X119437300Y-79279536D02*
X113340964Y-73183200D01*
D34*
X115900000Y-80000000D02*
X117024600Y-80000000D01*
D37*
X107762300Y-71479536D02*
X107762300Y-69076864D01*
X119437300Y-80301864D02*
X119437300Y-79279536D01*
X113340964Y-73183200D02*
X109465964Y-73183200D01*
D34*
X117024600Y-80000000D02*
X117027800Y-80003200D01*
D37*
X109465964Y-73183200D02*
X107762300Y-71479536D01*
X107762300Y-69076864D02*
X109225964Y-67613200D01*
X117027800Y-80003200D02*
X118021551Y-80003200D01*
X111242299Y-67283200D02*
X112367300Y-67283200D01*
X109225964Y-67613200D02*
X110912299Y-67613200D01*
X118666551Y-80648200D02*
X119090964Y-80648200D01*
X118021551Y-80003200D02*
X118666551Y-80648200D01*
X119090964Y-80648200D02*
X119437300Y-80301864D01*
X110912299Y-67613200D02*
X111242299Y-67283200D01*
%TD*%
%TA.AperFunction,Conductor*%
%TO.N,/VBUS_Fused*%
G36*
X120455777Y-84500122D02*
G01*
X120512884Y-84503731D01*
X120520639Y-84504715D01*
X120576848Y-84515489D01*
X120580636Y-84516340D01*
X120717300Y-84551600D01*
X120823812Y-84579080D01*
X120855855Y-84587347D01*
X120869730Y-84590006D01*
X120917805Y-84599221D01*
X120980761Y-84603200D01*
X123713233Y-84603200D01*
X123721331Y-84603730D01*
X123813179Y-84615822D01*
X123830523Y-84618106D01*
X123861791Y-84626484D01*
X123952218Y-84663940D01*
X123980252Y-84680125D01*
X124057902Y-84739709D01*
X124080791Y-84762598D01*
X124140374Y-84840248D01*
X124156559Y-84868281D01*
X124194015Y-84958708D01*
X124202393Y-84989975D01*
X124216769Y-85099164D01*
X124217300Y-85107265D01*
X124217300Y-86199134D01*
X124216769Y-86207235D01*
X124202393Y-86316424D01*
X124194015Y-86347691D01*
X124156559Y-86438118D01*
X124140374Y-86466151D01*
X124080791Y-86543801D01*
X124057901Y-86566691D01*
X123980251Y-86626274D01*
X123952218Y-86642459D01*
X123861791Y-86679915D01*
X123830524Y-86688293D01*
X123742083Y-86699937D01*
X123721331Y-86702669D01*
X123713234Y-86703200D01*
X116221366Y-86703200D01*
X116213268Y-86702669D01*
X116189757Y-86699574D01*
X116104075Y-86688293D01*
X116072808Y-86679915D01*
X115982381Y-86642459D01*
X115954348Y-86626274D01*
X115876698Y-86566691D01*
X115853808Y-86543801D01*
X115794225Y-86466151D01*
X115778040Y-86438118D01*
X115740584Y-86347691D01*
X115732206Y-86316424D01*
X115717828Y-86207216D01*
X115717300Y-86199149D01*
X115717300Y-84851106D01*
X115718827Y-84831708D01*
X115730934Y-84755266D01*
X115742920Y-84718372D01*
X115773578Y-84658203D01*
X115796377Y-84626824D01*
X115844124Y-84579077D01*
X115875503Y-84556278D01*
X115935672Y-84525620D01*
X115972565Y-84513634D01*
X116035094Y-84503731D01*
X116049010Y-84501527D01*
X116068407Y-84500000D01*
X120451882Y-84500000D01*
X120455777Y-84500122D01*
G37*
%TD.AperFunction*%
%TD*%
%TA.AperFunction,Conductor*%
%TO.N,+5V*%
G36*
X128715272Y-79808913D02*
G01*
X128829446Y-79822824D01*
X128854625Y-79829334D01*
X128952094Y-79868809D01*
X128974711Y-79881657D01*
X129058529Y-79945158D01*
X129077020Y-79963455D01*
X129083077Y-79971277D01*
X129141399Y-80046598D01*
X129154486Y-80069083D01*
X129194980Y-80166122D01*
X129201758Y-80191239D01*
X129216870Y-80305250D01*
X129217300Y-80311762D01*
X129217300Y-82151138D01*
X129216164Y-82166092D01*
X129196769Y-82293017D01*
X129187838Y-82321559D01*
X129134768Y-82430068D01*
X129117721Y-82454641D01*
X129029440Y-82547873D01*
X129018334Y-82557950D01*
X127610330Y-83653065D01*
X127506477Y-83762742D01*
X127506477Y-83762743D01*
X127440115Y-83898430D01*
X127417299Y-84047742D01*
X127417300Y-86099952D01*
X127416876Y-86106420D01*
X127401964Y-86219687D01*
X127395275Y-86244651D01*
X127355301Y-86341157D01*
X127342379Y-86363539D01*
X127278787Y-86446413D01*
X127260513Y-86464687D01*
X127177639Y-86528279D01*
X127155257Y-86541201D01*
X127058751Y-86581175D01*
X127033787Y-86587864D01*
X126920521Y-86602776D01*
X126914053Y-86603200D01*
X126881900Y-86603200D01*
X126828376Y-86587484D01*
X126797462Y-86567616D01*
X126667649Y-86529500D01*
X126667648Y-86529500D01*
X126532352Y-86529500D01*
X126532350Y-86529500D01*
X126402537Y-86567616D01*
X126371624Y-86587484D01*
X126318100Y-86603200D01*
X126120547Y-86603200D01*
X126114079Y-86602776D01*
X126000812Y-86587864D01*
X125975848Y-86581175D01*
X125879342Y-86541201D01*
X125856960Y-86528279D01*
X125774083Y-86464684D01*
X125755815Y-86446416D01*
X125692218Y-86363536D01*
X125679300Y-86341160D01*
X125639323Y-86244647D01*
X125632636Y-86219689D01*
X125617724Y-86106419D01*
X125617300Y-86099952D01*
X125617300Y-83318513D01*
X125617781Y-83311626D01*
X125634681Y-83191194D01*
X125642252Y-83164746D01*
X125687414Y-83063139D01*
X125701970Y-83039802D01*
X125773353Y-82954551D01*
X125793770Y-82936120D01*
X125894500Y-82867963D01*
X125900467Y-82864505D01*
X126523337Y-82559426D01*
X126558266Y-82549712D01*
X126566321Y-82549008D01*
X126570949Y-82548605D01*
X126570953Y-82548604D01*
X126570958Y-82548604D01*
X126579508Y-82547431D01*
X126631588Y-82537661D01*
X126664670Y-82528012D01*
X126700569Y-82513585D01*
X126731126Y-82497659D01*
X126763533Y-82476483D01*
X126790390Y-82454892D01*
X126818019Y-82427807D01*
X126840141Y-82401382D01*
X126861956Y-82369403D01*
X126878487Y-82339167D01*
X126893625Y-82303560D01*
X126903929Y-82270674D01*
X126914732Y-82218796D01*
X126916075Y-82210268D01*
X126919071Y-82182356D01*
X126919569Y-82173741D01*
X126937716Y-80068460D01*
X126957123Y-80010438D01*
X126957778Y-80009562D01*
X126979062Y-79981572D01*
X126997107Y-79963337D01*
X127079054Y-79899654D01*
X127101177Y-79886673D01*
X127196741Y-79846201D01*
X127221473Y-79839342D01*
X127333844Y-79823443D01*
X127340258Y-79822958D01*
X128708777Y-79808553D01*
X128715272Y-79808913D01*
G37*
%TD.AperFunction*%
%TD*%
%TA.AperFunction,Conductor*%
%TO.N,GND*%
G36*
X122211971Y-56902381D02*
G01*
X122290618Y-56918024D01*
X122335308Y-56936535D01*
X122391626Y-56974166D01*
X122425833Y-57008373D01*
X122463462Y-57064688D01*
X122481976Y-57109387D01*
X122497617Y-57188019D01*
X122500000Y-57212210D01*
X122500000Y-62287789D01*
X122497617Y-62311980D01*
X122481976Y-62390612D01*
X122463462Y-62435311D01*
X122425836Y-62491623D01*
X122391623Y-62525836D01*
X122335311Y-62563462D01*
X122290612Y-62581976D01*
X122211980Y-62597617D01*
X122187789Y-62600000D01*
X117012211Y-62600000D01*
X116988020Y-62597617D01*
X116909387Y-62581976D01*
X116864689Y-62563462D01*
X116808373Y-62525833D01*
X116774166Y-62491626D01*
X116736535Y-62435308D01*
X116718024Y-62390618D01*
X116702381Y-62311971D01*
X116700000Y-62287789D01*
X116700000Y-57212210D01*
X116702381Y-57188029D01*
X116718025Y-57109379D01*
X116736534Y-57064693D01*
X116774168Y-57008370D01*
X116808370Y-56974168D01*
X116864693Y-56936534D01*
X116909379Y-56918025D01*
X116988028Y-56902381D01*
X117012211Y-56900000D01*
X122187789Y-56900000D01*
X122211971Y-56902381D01*
G37*
%TD.AperFunction*%
%TD*%
%TA.AperFunction,Conductor*%
%TO.N,+3V3*%
G36*
X130709109Y-71746670D02*
G01*
X130756864Y-71756068D01*
X130792626Y-71770808D01*
X130816971Y-71787024D01*
X130824843Y-71792267D01*
X130852226Y-71819586D01*
X130873760Y-71851753D01*
X130888584Y-71887481D01*
X130898092Y-71935207D01*
X130900000Y-71954550D01*
X130900000Y-79268448D01*
X130898097Y-79287763D01*
X130888616Y-79335424D01*
X130873835Y-79371110D01*
X130852362Y-79403247D01*
X130825047Y-79430562D01*
X130792910Y-79452035D01*
X130757224Y-79466816D01*
X130709563Y-79476297D01*
X130690248Y-79478200D01*
X126965576Y-79478200D01*
X126866081Y-79504707D01*
X126866079Y-79504708D01*
X126792956Y-79577204D01*
X126792955Y-79577206D01*
X126765590Y-79676477D01*
X126744113Y-82167914D01*
X126742038Y-82187244D01*
X126732115Y-82234896D01*
X126716977Y-82270503D01*
X126695162Y-82302482D01*
X126667533Y-82329567D01*
X126635126Y-82350743D01*
X126599227Y-82365170D01*
X126551388Y-82374145D01*
X126532028Y-82375836D01*
X125545387Y-82364751D01*
X125243245Y-82361356D01*
X124727992Y-82355567D01*
X124702588Y-82351956D01*
X124641372Y-82334938D01*
X124597492Y-82309163D01*
X124562232Y-82273504D01*
X124536955Y-82229340D01*
X124520626Y-82167941D01*
X124517300Y-82142497D01*
X124517300Y-79766612D01*
X124501232Y-79688068D01*
X124501231Y-79688066D01*
X124455612Y-79622148D01*
X124455610Y-79622146D01*
X124455609Y-79622145D01*
X124387763Y-79579435D01*
X124088606Y-79466816D01*
X122455080Y-78851868D01*
X122437326Y-78843065D01*
X122395326Y-78816701D01*
X122366776Y-78789511D01*
X122344212Y-78757177D01*
X122328540Y-78720998D01*
X122318287Y-78672487D01*
X122316150Y-78652788D01*
X122300420Y-76639453D01*
X122309364Y-76597558D01*
X122348382Y-76512121D01*
X122348384Y-76512112D01*
X122367638Y-76378202D01*
X122367638Y-76378197D01*
X122348384Y-76244287D01*
X122348382Y-76244278D01*
X122305222Y-76149772D01*
X122296279Y-76109427D01*
X122293862Y-75799956D01*
X122287649Y-75769948D01*
X122278045Y-75723551D01*
X122278044Y-75723549D01*
X122234193Y-75659009D01*
X122168985Y-75616160D01*
X122106980Y-75604319D01*
X122092344Y-75601524D01*
X122092343Y-75601524D01*
X122075312Y-75601653D01*
X121582572Y-75605409D01*
X119156286Y-75623901D01*
X119036898Y-75624811D01*
X118803621Y-75626589D01*
X118784199Y-75624816D01*
X118736257Y-75615611D01*
X118700317Y-75600965D01*
X118667927Y-75579546D01*
X118640378Y-75552207D01*
X118618709Y-75519977D01*
X118603790Y-75484149D01*
X118594221Y-75436279D01*
X118592300Y-75416873D01*
X118592300Y-71985619D01*
X118595663Y-71960034D01*
X118612172Y-71898324D01*
X118637722Y-71853989D01*
X118673324Y-71818303D01*
X118717597Y-71792651D01*
X118779274Y-71775996D01*
X118804842Y-71772574D01*
X130689776Y-71744808D01*
X130709109Y-71746670D01*
G37*
%TD.AperFunction*%
%TD*%
M02*
