M48
; DRILL file {KiCad 7.0.5-7.0.5~ubuntu20.04.1} date Mo 26 Jun 2023 22:10:52
; FORMAT={-:-/ absolute / metric / decimal}
; #@! TF.CreationDate,2023-06-26T22:10:52+02:00
; #@! TF.GenerationSoftware,Kicad,Pcbnew,7.0.5-7.0.5~ubuntu20.04.1
; #@! TF.FileFunction,Plated,1,4,PTH
FMAT,2
METRIC
; #@! TA.AperFunction,Plated,PTH,ViaDrill
T1C0.300
; #@! TA.AperFunction,Plated,PTH,ComponentDrill
T2C0.600
; #@! TA.AperFunction,Plated,PTH,ComponentDrill
T3C1.000
%
G90
G05
T1
X105.092Y-52.103
X105.192Y-57.128
X106.967Y-89.303
X107.017Y-57.103
X107.217Y-52.153
X109.142Y-52.153
X109.167Y-53.703
X111.017Y-55.803
X111.017Y-57.103
X111.017Y-58.403
X111.017Y-59.603
X111.017Y-60.903
X111.017Y-62.203
X111.017Y-63.403
X111.017Y-64.703
X111.017Y-66.003
X111.117Y-74.878
X111.142Y-52.053
X111.142Y-53.328
X111.142Y-87.178
X112.615Y-78.793
X112.642Y-77.653
X112.715Y-83.393
X112.817Y-84.678
X113.5Y-81.0
X113.542Y-52.028
X113.567Y-53.303
X114.117Y-71.003
X114.5Y-92.1
X114.715Y-84.493
X115.417Y-71.003
X115.6Y-93.4
X115.9Y-80.0
X115.9Y-81.9
X116.015Y-80.993
X116.059Y-87.893
X116.1Y-89.1
X116.717Y-71.003
X116.8Y-88.1
X116.87Y-88.9
X117.4Y-57.6
X117.467Y-83.603
X117.5Y-61.9
X117.517Y-59.103
X117.517Y-60.503
X118.017Y-71.003
X118.917Y-57.603
X118.917Y-59.103
X118.917Y-60.503
X118.917Y-61.903
X119.1Y-88.9
X119.117Y-88.1
X119.217Y-71.003
X119.492Y-76.328
X119.542Y-74.403
X120.317Y-57.603
X120.317Y-59.103
X120.317Y-60.503
X120.317Y-61.903
X120.517Y-71.003
X120.742Y-73.453
X120.777Y-88.923
X120.988Y-91.499
X121.7Y-61.9
X121.717Y-59.103
X121.717Y-60.503
X121.723Y-87.977
X121.8Y-57.6
X121.817Y-71.003
X121.892Y-76.378
X121.917Y-74.453
X122.167Y-81.253
X122.474Y-91.126
X123.0Y-88.7
X123.117Y-71.003
X123.125Y-87.941
X123.342Y-74.153
X123.392Y-75.803
X123.4Y-77.6
X123.417Y-79.778
X124.142Y-82.778
X124.3Y-88.0
X124.317Y-71.003
X125.0Y-73.4
X125.0Y-77.6
X125.0Y-79.2
X125.3Y-87.93
X125.3Y-88.7
X125.617Y-71.003
X126.2Y-73.4
X126.2Y-77.6
X126.2Y-79.2
X126.3Y-89.2
X126.6Y-87.0
X126.817Y-71.003
X126.917Y-93.254
X127.5Y-77.6
X128.1Y-92.1
X128.117Y-71.003
X128.667Y-52.028
X128.687Y-74.128
X128.687Y-75.8
X128.7Y-77.6
X129.917Y-69.503
X131.092Y-52.028
X131.117Y-53.303
X131.117Y-54.603
X131.117Y-55.903
X131.117Y-58.403
X131.117Y-59.703
X131.117Y-60.903
X131.117Y-62.203
X131.117Y-63.503
X131.117Y-64.703
X131.117Y-66.003
X131.117Y-67.303
X134.6Y-81.4
X135.467Y-89.303
X136.0Y-81.4
X137.359Y-68.559
T3
X136.117Y-52.5
X136.117Y-55.04
X136.117Y-57.58
X136.117Y-60.12
X136.117Y-62.66
X136.117Y-65.2
T2
X107.129Y-76.683G85X106.329Y-76.683
G05
X107.129Y-85.323G85X106.329Y-85.323
G05
X111.48Y-76.683G85X110.379Y-76.683
G05
X111.48Y-85.323G85X110.379Y-85.323
G05
T0
M30
