%TF.GenerationSoftware,KiCad,Pcbnew,7.0.5-7.0.5~ubuntu20.04.1*%
%TF.CreationDate,2023-06-26T22:11:10+02:00*%
%TF.ProjectId,ESP32_UniBoard,45535033-325f-4556-9e69-426f6172642e,rev?*%
%TF.SameCoordinates,Original*%
%TF.FileFunction,Paste,Top*%
%TF.FilePolarity,Positive*%
%FSLAX46Y46*%
G04 Gerber Fmt 4.6, Leading zero omitted, Abs format (unit mm)*
G04 Created by KiCad (PCBNEW 7.0.5-7.0.5~ubuntu20.04.1) date 2023-06-26 22:11:10*
%MOMM*%
%LPD*%
G01*
G04 APERTURE LIST*
G04 Aperture macros list*
%AMRoundRect*
0 Rectangle with rounded corners*
0 $1 Rounding radius*
0 $2 $3 $4 $5 $6 $7 $8 $9 X,Y pos of 4 corners*
0 Add a 4 corners polygon primitive as box body*
4,1,4,$2,$3,$4,$5,$6,$7,$8,$9,$2,$3,0*
0 Add four circle primitives for the rounded corners*
1,1,$1+$1,$2,$3*
1,1,$1+$1,$4,$5*
1,1,$1+$1,$6,$7*
1,1,$1+$1,$8,$9*
0 Add four rect primitives between the rounded corners*
20,1,$1+$1,$2,$3,$4,$5,0*
20,1,$1+$1,$4,$5,$6,$7,0*
20,1,$1+$1,$6,$7,$8,$9,0*
20,1,$1+$1,$8,$9,$2,$3,0*%
G04 Aperture macros list end*
%ADD10R,1.500000X0.900000*%
%ADD11R,0.900000X1.500000*%
%ADD12R,0.900000X0.900000*%
%ADD13RoundRect,0.243750X-0.243750X-0.456250X0.243750X-0.456250X0.243750X0.456250X-0.243750X0.456250X0*%
%ADD14RoundRect,0.200000X-0.200000X-0.275000X0.200000X-0.275000X0.200000X0.275000X-0.200000X0.275000X0*%
%ADD15R,1.250000X1.000000*%
%ADD16RoundRect,0.218750X0.256250X-0.218750X0.256250X0.218750X-0.256250X0.218750X-0.256250X-0.218750X0*%
%ADD17RoundRect,0.200000X-0.275000X0.200000X-0.275000X-0.200000X0.275000X-0.200000X0.275000X0.200000X0*%
%ADD18RoundRect,0.225000X0.250000X-0.225000X0.250000X0.225000X-0.250000X0.225000X-0.250000X-0.225000X0*%
%ADD19RoundRect,0.225000X0.225000X0.250000X-0.225000X0.250000X-0.225000X-0.250000X0.225000X-0.250000X0*%
%ADD20R,1.240000X0.600000*%
%ADD21R,1.240000X0.300000*%
%ADD22RoundRect,0.150000X-0.512500X-0.150000X0.512500X-0.150000X0.512500X0.150000X-0.512500X0.150000X0*%
%ADD23RoundRect,0.225000X-0.250000X0.225000X-0.250000X-0.225000X0.250000X-0.225000X0.250000X0.225000X0*%
%ADD24RoundRect,0.225000X-0.225000X-0.250000X0.225000X-0.250000X0.225000X0.250000X-0.225000X0.250000X0*%
%ADD25R,1.500000X2.000000*%
%ADD26R,3.800000X2.000000*%
%ADD27RoundRect,0.225000X0.225000X0.375000X-0.225000X0.375000X-0.225000X-0.375000X0.225000X-0.375000X0*%
%ADD28RoundRect,0.250000X-0.475000X0.250000X-0.475000X-0.250000X0.475000X-0.250000X0.475000X0.250000X0*%
G04 APERTURE END LIST*
D10*
%TO.C,U1*%
X112367300Y-52043200D03*
X112367300Y-53313200D03*
X112367300Y-54583200D03*
X112367300Y-55853200D03*
X112367300Y-57123200D03*
X112367300Y-58393200D03*
X112367300Y-59663200D03*
X112367300Y-60933200D03*
X112367300Y-62203200D03*
X112367300Y-63473200D03*
X112367300Y-64743200D03*
X112367300Y-66013200D03*
X112367300Y-67283200D03*
X112367300Y-68553200D03*
D11*
X114132300Y-69803200D03*
X115402300Y-69803200D03*
X116672300Y-69803200D03*
X117942300Y-69803200D03*
X119212300Y-69803200D03*
X120482300Y-69803200D03*
X121752300Y-69803200D03*
X123022300Y-69803200D03*
X124292300Y-69803200D03*
X125562300Y-69803200D03*
X126832300Y-69803200D03*
X128102300Y-69803200D03*
D10*
X129867300Y-68553200D03*
X129867300Y-67283200D03*
X129867300Y-66013200D03*
X129867300Y-64743200D03*
X129867300Y-63473200D03*
X129867300Y-62203200D03*
X129867300Y-60933200D03*
X129867300Y-59663200D03*
X129867300Y-58393200D03*
X129867300Y-57123200D03*
X129867300Y-55853200D03*
X129867300Y-54583200D03*
X129867300Y-53313200D03*
X129867300Y-52043200D03*
D12*
X118217300Y-58363200D03*
X118217300Y-59763200D03*
X118217300Y-61163200D03*
X119617300Y-58363200D03*
X119617300Y-59763200D03*
X119617300Y-61163200D03*
X121017300Y-58363200D03*
X121017300Y-59763200D03*
X121017300Y-61163200D03*
%TD*%
D13*
%TO.C,F1*%
X114752800Y-85603200D03*
X116627800Y-85603200D03*
%TD*%
D14*
%TO.C,R2*%
X108640100Y-87182800D03*
X110290100Y-87182800D03*
%TD*%
D15*
%TO.C,SW1*%
X114492300Y-93303200D03*
X106742300Y-93303200D03*
%TD*%
D16*
%TO.C,D3*%
X134391500Y-78792500D03*
X134391500Y-77217500D03*
%TD*%
D17*
%TO.C,R6*%
X136423500Y-73962600D03*
X136423500Y-75612600D03*
%TD*%
D18*
%TO.C,C4*%
X110195300Y-53712200D03*
X110195300Y-52162200D03*
%TD*%
D17*
%TO.C,R3*%
X106089300Y-52112300D03*
X106089300Y-53762300D03*
%TD*%
D19*
%TO.C,C8*%
X126504800Y-83603200D03*
X124954800Y-83603200D03*
%TD*%
D20*
%TO.C,J1*%
X111529500Y-77803200D03*
X111529500Y-78603200D03*
D21*
X111529500Y-79753200D03*
X111529500Y-80753200D03*
X111529500Y-81253200D03*
X111529500Y-82253200D03*
D20*
X111529500Y-83403200D03*
X111529500Y-84203200D03*
X111529500Y-84203200D03*
X111529500Y-83403200D03*
D21*
X111529500Y-82753200D03*
X111529500Y-81753200D03*
X111529500Y-80253200D03*
X111529500Y-79253200D03*
D20*
X111529500Y-78603200D03*
X111529500Y-77803200D03*
%TD*%
D15*
%TO.C,SW2*%
X127967300Y-93253200D03*
X135717300Y-93253200D03*
%TD*%
D16*
%TO.C,D4*%
X136423500Y-78792500D03*
X136423500Y-77217500D03*
%TD*%
D22*
%TO.C,U3*%
X114752800Y-80003200D03*
X114752800Y-80953200D03*
X114752800Y-81903200D03*
X117027800Y-81903200D03*
X117027800Y-80953200D03*
X117027800Y-80003200D03*
%TD*%
D23*
%TO.C,C2*%
X106317300Y-89978200D03*
X106317300Y-91528200D03*
%TD*%
D24*
%TO.C,C9*%
X114708900Y-83603200D03*
X116258900Y-83603200D03*
%TD*%
D18*
%TO.C,C3*%
X108117300Y-53712300D03*
X108117300Y-52162300D03*
%TD*%
D16*
%TO.C,D2*%
X132320400Y-78792500D03*
X132320400Y-77217500D03*
%TD*%
D23*
%TO.C,C5*%
X136192300Y-89928200D03*
X136192300Y-91478200D03*
%TD*%
D25*
%TO.C,U2*%
X123429800Y-81253200D03*
X125729800Y-81253200D03*
D26*
X125729800Y-74953200D03*
D25*
X128029800Y-81253200D03*
%TD*%
D14*
%TO.C,R1*%
X108640100Y-74864600D03*
X110290100Y-74864600D03*
%TD*%
D17*
%TO.C,R5*%
X134391500Y-73962600D03*
X134391500Y-75612600D03*
%TD*%
%TO.C,R4*%
X132320400Y-73962600D03*
X132320400Y-75612600D03*
%TD*%
D23*
%TO.C,C1*%
X106089300Y-55562300D03*
X106089300Y-57112300D03*
%TD*%
D27*
%TO.C,D1*%
X126500000Y-85700000D03*
X123200000Y-85700000D03*
%TD*%
D28*
%TO.C,C6*%
X120717300Y-74453200D03*
X120717300Y-76353200D03*
%TD*%
M02*
