%TF.GenerationSoftware,KiCad,Pcbnew,7.0.5-7.0.5~ubuntu20.04.1*%
%TF.CreationDate,2023-06-26T22:11:10+02:00*%
%TF.ProjectId,ESP32_UniBoard,45535033-325f-4556-9e69-426f6172642e,rev?*%
%TF.SameCoordinates,Original*%
%TF.FileFunction,Copper,L3,Inr*%
%TF.FilePolarity,Positive*%
%FSLAX46Y46*%
G04 Gerber Fmt 4.6, Leading zero omitted, Abs format (unit mm)*
G04 Created by KiCad (PCBNEW 7.0.5-7.0.5~ubuntu20.04.1) date 2023-06-26 22:11:10*
%MOMM*%
%LPD*%
G01*
G04 APERTURE LIST*
%TA.AperFunction,ComponentPad*%
%ADD10R,1.700000X1.700000*%
%TD*%
%TA.AperFunction,ComponentPad*%
%ADD11O,1.700000X1.700000*%
%TD*%
%TA.AperFunction,ComponentPad*%
%ADD12O,2.100000X1.000000*%
%TD*%
%TA.AperFunction,ComponentPad*%
%ADD13O,1.800000X1.000000*%
%TD*%
%TA.AperFunction,ViaPad*%
%ADD14C,0.600000*%
%TD*%
G04 APERTURE END LIST*
D10*
%TO.N,GND*%
%TO.C,J2*%
X136117300Y-52500000D03*
D11*
%TO.N,/ESP_TX*%
X136117300Y-55040000D03*
%TO.N,/ESP_RX*%
X136117300Y-57580000D03*
%TO.N,+3V3*%
X136117300Y-60120000D03*
%TO.N,/EN*%
X136117300Y-62660000D03*
%TO.N,/BOOT*%
X136117300Y-65200000D03*
%TD*%
D12*
%TO.N,unconnected-(J1-SHIELD-PadS1)*%
%TO.C,J1*%
X110929500Y-76683200D03*
D13*
X106729500Y-76683200D03*
D12*
X110929500Y-85323200D03*
D13*
X106729500Y-85323200D03*
%TD*%
D14*
%TO.N,GND*%
X123417300Y-79778200D03*
X116100000Y-89100000D03*
X107017300Y-57103200D03*
X114500000Y-92100000D03*
X128100000Y-92100000D03*
X135467300Y-89303200D03*
X126300000Y-89200000D03*
X105192300Y-57128200D03*
X117400000Y-57600000D03*
X111142300Y-52053200D03*
X113542300Y-52028200D03*
X120776591Y-88923409D03*
X113500000Y-81000000D03*
X117517300Y-60503200D03*
X107217300Y-52153200D03*
X126917300Y-93253700D03*
X117517300Y-59103200D03*
X119492300Y-76328200D03*
X118917300Y-60503200D03*
X109142300Y-52153200D03*
X121717300Y-59103200D03*
X134600000Y-81400000D03*
X112817300Y-84678200D03*
X136000000Y-81400000D03*
X120317300Y-59103200D03*
X124142300Y-82778200D03*
X131092300Y-52028200D03*
X118917300Y-59103200D03*
X121800000Y-57600000D03*
X121717300Y-60503200D03*
X120317300Y-60503200D03*
X121892300Y-76378200D03*
X118917300Y-57603200D03*
X112642300Y-77653200D03*
X121723409Y-87976591D03*
X121700000Y-61900000D03*
X126600000Y-87000000D03*
X120317300Y-61903200D03*
X120317300Y-57603200D03*
X122167300Y-81253200D03*
X111117300Y-74878200D03*
X111142300Y-87178200D03*
X115600000Y-93400000D03*
X117500000Y-61900000D03*
X116058732Y-87893467D03*
X106967300Y-89303200D03*
X118917300Y-61903200D03*
X128667300Y-52028200D03*
X117467300Y-83603200D03*
%TO.N,+3V3*%
X125300000Y-87930497D03*
X119542300Y-74403200D03*
X126200000Y-77600000D03*
X113567300Y-53303200D03*
X121917300Y-74453200D03*
X128686800Y-75800000D03*
X127500000Y-77600000D03*
X126200000Y-79200000D03*
X123124829Y-87940690D03*
X125000000Y-79200000D03*
X109167300Y-53703200D03*
X125000000Y-73400000D03*
X125000000Y-77600000D03*
X105092300Y-52103200D03*
X111142300Y-53328200D03*
X123400000Y-77600000D03*
X123392300Y-75803200D03*
X119100000Y-88900000D03*
X128686800Y-74128200D03*
X128700000Y-77600000D03*
X116869503Y-88900000D03*
X120742300Y-73453200D03*
X123342300Y-74153200D03*
X126200000Y-73400000D03*
%TO.N,/BOOT*%
X129917300Y-69503200D03*
X124300000Y-88000000D03*
%TO.N,VBUS*%
X114715100Y-84493200D03*
X112715100Y-83393200D03*
X116015100Y-80993200D03*
X112615100Y-78793200D03*
%TO.N,+5V*%
X123000000Y-88700000D03*
X116800000Y-88100000D03*
X119117300Y-88100000D03*
X125300000Y-88700000D03*
%TO.N,/ESP_TX*%
X131117300Y-55903200D03*
%TO.N,/ESP_RX*%
X122474414Y-91125586D03*
%TO.N,/GPIO4*%
X111017300Y-55803200D03*
%TO.N,/GPIO5*%
X111017300Y-57103200D03*
%TO.N,/GPIO6*%
X111017300Y-58403200D03*
%TO.N,/GPIO7*%
X111017300Y-59603200D03*
%TO.N,/GPIO15*%
X111017300Y-60903200D03*
%TO.N,/GPIO16*%
X111017300Y-62203200D03*
%TO.N,/GPIO17*%
X111017300Y-63403200D03*
%TO.N,/GPIO18*%
X111017300Y-64703200D03*
%TO.N,/GPIO8*%
X111017300Y-66003200D03*
%TO.N,/GPIO3*%
X114117300Y-71003200D03*
%TO.N,/GPIO46*%
X115417300Y-71003200D03*
%TO.N,/GPIO9*%
X116717300Y-71003200D03*
%TO.N,/GPIO10*%
X118017300Y-71003200D03*
%TO.N,/GPIO11*%
X119217300Y-71003200D03*
%TO.N,/GPIO12*%
X120517300Y-71003200D03*
%TO.N,/GPIO13*%
X121817300Y-71003200D03*
%TO.N,/GPIO14*%
X123117300Y-71003200D03*
%TO.N,/GPIO21*%
X124317300Y-71003200D03*
%TO.N,/GPIO47*%
X125617300Y-71003200D03*
%TO.N,/GPIO48*%
X126817300Y-71003200D03*
%TO.N,/GPIO45*%
X128117300Y-71003200D03*
%TO.N,/GPIO35*%
X131117300Y-67303200D03*
%TO.N,/GPIO36*%
X131117300Y-66003200D03*
%TO.N,/GPIO37*%
X131117300Y-64703200D03*
%TO.N,/GPIO38*%
X131117300Y-63503200D03*
%TO.N,/GPIO39*%
X131117300Y-62203200D03*
%TO.N,/GPIO40*%
X131117300Y-60903200D03*
%TO.N,/GPIO41*%
X131117300Y-59703200D03*
%TO.N,/GPIO42*%
X131117300Y-58403200D03*
%TO.N,/GPIO2*%
X131117300Y-54603200D03*
%TO.N,/GPIO1*%
X120987800Y-91499068D03*
X131117300Y-53303200D03*
X137358900Y-68558900D03*
%TO.N,/DPr_P*%
X115900000Y-81900000D03*
%TO.N,/DPr_N*%
X115900000Y-80000000D03*
%TD*%
%TA.AperFunction,Conductor*%
%TO.N,VBUS*%
G36*
X112560016Y-78294056D02*
G01*
X112599323Y-78299242D01*
X112657199Y-78306880D01*
X112707478Y-78320384D01*
X112798006Y-78357976D01*
X112809712Y-78363765D01*
X115325371Y-79820199D01*
X115390218Y-79880512D01*
X115422475Y-79962992D01*
X115424662Y-79992416D01*
X115424662Y-80000002D01*
X115443915Y-80133910D01*
X115443917Y-80133918D01*
X115500117Y-80256983D01*
X115500119Y-80256985D01*
X115500120Y-80256987D01*
X115588720Y-80359236D01*
X115702537Y-80432383D01*
X115832352Y-80470500D01*
X115967648Y-80470500D01*
X116097463Y-80432383D01*
X116150628Y-80398215D01*
X116233916Y-80368113D01*
X116309840Y-80373437D01*
X116319690Y-80376082D01*
X116319697Y-80376085D01*
X116449395Y-80393200D01*
X116545502Y-80393200D01*
X116584316Y-80397022D01*
X116621950Y-80404508D01*
X116693684Y-80434221D01*
X116708968Y-80444434D01*
X116763865Y-80499331D01*
X116774076Y-80514612D01*
X116803792Y-80586350D01*
X116811276Y-80623973D01*
X116815100Y-80662798D01*
X116815100Y-81223601D01*
X116811276Y-81262426D01*
X116803792Y-81300049D01*
X116774076Y-81371787D01*
X116763865Y-81387068D01*
X116708968Y-81441965D01*
X116693687Y-81452176D01*
X116621944Y-81481893D01*
X116576894Y-81490853D01*
X116564904Y-81492488D01*
X116555424Y-81493198D01*
X116408278Y-81515338D01*
X116373167Y-81532213D01*
X116286808Y-81551852D01*
X116200481Y-81532076D01*
X116179377Y-81520261D01*
X116171717Y-81515338D01*
X116097463Y-81467617D01*
X115967648Y-81429500D01*
X115832352Y-81429500D01*
X115702537Y-81467617D01*
X115588721Y-81540763D01*
X115500117Y-81643016D01*
X115443917Y-81766081D01*
X115443915Y-81766089D01*
X115424662Y-81899997D01*
X115424662Y-81900002D01*
X115443915Y-82033910D01*
X115443917Y-82033918D01*
X115500118Y-82156984D01*
X115500119Y-82156986D01*
X115539245Y-82202140D01*
X115580893Y-82280299D01*
X115584505Y-82368789D01*
X115549365Y-82450082D01*
X115544245Y-82456767D01*
X115524670Y-82481236D01*
X115524663Y-82481246D01*
X115443285Y-82628088D01*
X115415100Y-82793588D01*
X115415100Y-84586669D01*
X115414248Y-84599670D01*
X115401481Y-84696638D01*
X115388036Y-84746816D01*
X115358139Y-84818994D01*
X115332163Y-84863985D01*
X115284600Y-84925969D01*
X115247869Y-84962700D01*
X115185885Y-85010263D01*
X115140894Y-85036239D01*
X115068716Y-85066136D01*
X115018538Y-85079581D01*
X114921570Y-85092348D01*
X114908569Y-85093200D01*
X113948514Y-85093200D01*
X113919584Y-85091086D01*
X113819067Y-85076316D01*
X113763655Y-85059672D01*
X113684955Y-85022845D01*
X113636673Y-84990966D01*
X113560924Y-84923251D01*
X113540765Y-84902394D01*
X113316091Y-84633174D01*
X113277722Y-84557836D01*
X113277391Y-84557934D01*
X113276872Y-84556166D01*
X113275900Y-84554258D01*
X113275058Y-84549989D01*
X113273383Y-84544288D01*
X113273383Y-84544282D01*
X113273380Y-84544275D01*
X113217183Y-84421218D01*
X113217182Y-84421217D01*
X113217181Y-84421216D01*
X113217180Y-84421213D01*
X113128580Y-84318964D01*
X113014763Y-84245817D01*
X113014762Y-84245816D01*
X113002789Y-84238122D01*
X113004162Y-84235984D01*
X112950339Y-84194906D01*
X112765012Y-83972835D01*
X112765009Y-83972832D01*
X112656632Y-83875949D01*
X112656629Y-83875947D01*
X112524960Y-83814334D01*
X112524958Y-83814333D01*
X112381132Y-83793200D01*
X112381129Y-83793200D01*
X112280761Y-83793200D01*
X112249632Y-83790750D01*
X112213787Y-83785073D01*
X112188072Y-83781000D01*
X112128861Y-83761760D01*
X112087454Y-83740663D01*
X112037088Y-83704069D01*
X112004230Y-83671211D01*
X111967637Y-83620846D01*
X111946537Y-83579435D01*
X111927299Y-83520224D01*
X111917550Y-83458666D01*
X111915100Y-83427538D01*
X111915100Y-81000002D01*
X113024662Y-81000002D01*
X113043915Y-81133910D01*
X113043917Y-81133918D01*
X113100117Y-81256983D01*
X113100119Y-81256985D01*
X113100120Y-81256987D01*
X113188720Y-81359236D01*
X113302537Y-81432383D01*
X113432352Y-81470500D01*
X113567648Y-81470500D01*
X113697463Y-81432383D01*
X113811280Y-81359236D01*
X113899880Y-81256987D01*
X113956083Y-81133918D01*
X113975338Y-81000000D01*
X113956083Y-80866082D01*
X113930057Y-80809092D01*
X113899882Y-80743016D01*
X113899880Y-80743014D01*
X113899880Y-80743013D01*
X113811280Y-80640764D01*
X113697463Y-80567617D01*
X113567648Y-80529500D01*
X113432352Y-80529500D01*
X113302537Y-80567617D01*
X113188721Y-80640763D01*
X113100117Y-80743016D01*
X113043917Y-80866081D01*
X113043915Y-80866089D01*
X113024662Y-80999997D01*
X113024662Y-81000002D01*
X111915100Y-81000002D01*
X111915100Y-78695225D01*
X111917550Y-78664096D01*
X111929079Y-78591302D01*
X111948316Y-78532093D01*
X111974582Y-78480542D01*
X112011172Y-78430181D01*
X112052081Y-78389272D01*
X112102442Y-78352682D01*
X112153993Y-78326416D01*
X112213200Y-78307179D01*
X112268061Y-78298490D01*
X112285996Y-78295650D01*
X112317125Y-78293200D01*
X112546985Y-78293200D01*
X112560016Y-78294056D01*
G37*
%TD.AperFunction*%
%TD*%
%TA.AperFunction,Conductor*%
%TO.N,+3V3*%
G36*
X110751650Y-50558169D02*
G01*
X110789872Y-50564238D01*
X110812766Y-50571677D01*
X111014948Y-50603700D01*
X111014949Y-50603700D01*
X131219651Y-50603700D01*
X131219652Y-50603700D01*
X131403577Y-50574568D01*
X131423059Y-50573042D01*
X136462352Y-50576667D01*
X137613590Y-50577496D01*
X137621686Y-50578032D01*
X137649341Y-50581691D01*
X137709066Y-50589593D01*
X137772943Y-50617901D01*
X137811376Y-50676251D01*
X137816800Y-50712522D01*
X137816800Y-68066801D01*
X137797115Y-68133840D01*
X137744311Y-68179595D01*
X137675153Y-68189539D01*
X137625760Y-68171116D01*
X137581278Y-68142529D01*
X137556363Y-68126517D01*
X137556362Y-68126516D01*
X137556361Y-68126516D01*
X137426549Y-68088400D01*
X137426548Y-68088400D01*
X137291252Y-68088400D01*
X137291251Y-68088400D01*
X137161438Y-68126516D01*
X137047621Y-68199663D01*
X137047617Y-68199666D01*
X136959024Y-68301907D01*
X136959019Y-68301914D01*
X136902816Y-68424981D01*
X136883562Y-68558900D01*
X136902816Y-68692818D01*
X136959019Y-68815885D01*
X136959020Y-68815887D01*
X137047620Y-68918136D01*
X137161437Y-68991283D01*
X137189371Y-68999485D01*
X137291251Y-69029400D01*
X137291252Y-69029400D01*
X137426548Y-69029400D01*
X137556363Y-68991283D01*
X137625762Y-68946682D01*
X137692798Y-68926998D01*
X137759838Y-68946682D01*
X137805594Y-68999485D01*
X137816800Y-69050998D01*
X137816800Y-91617446D01*
X137816741Y-91620150D01*
X137799035Y-92025684D01*
X137798563Y-92031075D01*
X137745758Y-92432168D01*
X137744818Y-92437497D01*
X137657252Y-92832480D01*
X137655852Y-92837707D01*
X137534199Y-93223540D01*
X137532348Y-93228625D01*
X137377528Y-93602396D01*
X137375241Y-93607300D01*
X137188439Y-93966142D01*
X137185733Y-93970828D01*
X136968357Y-94312041D01*
X136965253Y-94316474D01*
X136718972Y-94637434D01*
X136715493Y-94641579D01*
X136442177Y-94939851D01*
X136438351Y-94943677D01*
X136140079Y-95216993D01*
X136135934Y-95220472D01*
X135814974Y-95466753D01*
X135810541Y-95469857D01*
X135469328Y-95687233D01*
X135464642Y-95689939D01*
X135105800Y-95876741D01*
X135100896Y-95879028D01*
X134727125Y-96033848D01*
X134722040Y-96035699D01*
X134336207Y-96157352D01*
X134330980Y-96158752D01*
X133935997Y-96246318D01*
X133930668Y-96247258D01*
X133529575Y-96300063D01*
X133524184Y-96300535D01*
X133118651Y-96318241D01*
X133115947Y-96318300D01*
X109118653Y-96318300D01*
X109115949Y-96318241D01*
X108710415Y-96300535D01*
X108705024Y-96300063D01*
X108303931Y-96247258D01*
X108298602Y-96246318D01*
X107903619Y-96158752D01*
X107898392Y-96157352D01*
X107512559Y-96035699D01*
X107507474Y-96033848D01*
X107251877Y-95927977D01*
X107133697Y-95879025D01*
X107128807Y-95876745D01*
X106769957Y-95689939D01*
X106765271Y-95687233D01*
X106424058Y-95469857D01*
X106419625Y-95466753D01*
X106098665Y-95220472D01*
X106094520Y-95216993D01*
X105796248Y-94943677D01*
X105792422Y-94939851D01*
X105519106Y-94641579D01*
X105515627Y-94637434D01*
X105269346Y-94316474D01*
X105266242Y-94312041D01*
X105048866Y-93970828D01*
X105046160Y-93966142D01*
X104859349Y-93607282D01*
X104857078Y-93602412D01*
X104773236Y-93399999D01*
X115124662Y-93399999D01*
X115143916Y-93533918D01*
X115200119Y-93656985D01*
X115200120Y-93656987D01*
X115288720Y-93759236D01*
X115402537Y-93832383D01*
X115467444Y-93851441D01*
X115532351Y-93870500D01*
X115532352Y-93870500D01*
X115667648Y-93870500D01*
X115797463Y-93832383D01*
X115911280Y-93759236D01*
X115999880Y-93656987D01*
X116047278Y-93553199D01*
X119511851Y-93553199D01*
X119531617Y-93804351D01*
X119590426Y-94049310D01*
X119686833Y-94282059D01*
X119818460Y-94496853D01*
X119818461Y-94496856D01*
X119818464Y-94496859D01*
X119982076Y-94688424D01*
X120130366Y-94815075D01*
X120173643Y-94852038D01*
X120173646Y-94852039D01*
X120388440Y-94983666D01*
X120621188Y-95080073D01*
X120621189Y-95080073D01*
X120866152Y-95138883D01*
X121054418Y-95153700D01*
X121054426Y-95153700D01*
X121180174Y-95153700D01*
X121180182Y-95153700D01*
X121368448Y-95138883D01*
X121613411Y-95080073D01*
X121846159Y-94983666D01*
X122060959Y-94852036D01*
X122252524Y-94688424D01*
X122416136Y-94496859D01*
X122547766Y-94282059D01*
X122644173Y-94049311D01*
X122702983Y-93804348D01*
X122722749Y-93553200D01*
X122702983Y-93302052D01*
X122691375Y-93253699D01*
X126441962Y-93253699D01*
X126461216Y-93387618D01*
X126517419Y-93510685D01*
X126517420Y-93510687D01*
X126606020Y-93612936D01*
X126719837Y-93686083D01*
X126784744Y-93705141D01*
X126849651Y-93724200D01*
X126849652Y-93724200D01*
X126984948Y-93724200D01*
X127114763Y-93686083D01*
X127228580Y-93612936D01*
X127317180Y-93510687D01*
X127373383Y-93387618D01*
X127392638Y-93253700D01*
X127373383Y-93119782D01*
X127317180Y-92996713D01*
X127228580Y-92894464D01*
X127114763Y-92821317D01*
X127114762Y-92821316D01*
X127114761Y-92821316D01*
X126984949Y-92783200D01*
X126984948Y-92783200D01*
X126849652Y-92783200D01*
X126849651Y-92783200D01*
X126719838Y-92821316D01*
X126606021Y-92894463D01*
X126606017Y-92894466D01*
X126517424Y-92996707D01*
X126517419Y-92996714D01*
X126461216Y-93119781D01*
X126441962Y-93253699D01*
X122691375Y-93253699D01*
X122644173Y-93057089D01*
X122576812Y-92894464D01*
X122547766Y-92824340D01*
X122416139Y-92609546D01*
X122416138Y-92609543D01*
X122287763Y-92459236D01*
X122252524Y-92417976D01*
X122125871Y-92309804D01*
X122060956Y-92254361D01*
X122060953Y-92254360D01*
X121846159Y-92122733D01*
X121791274Y-92099999D01*
X127624662Y-92099999D01*
X127643916Y-92233918D01*
X127700119Y-92356985D01*
X127700124Y-92356992D01*
X127752967Y-92417976D01*
X127788720Y-92459236D01*
X127902537Y-92532383D01*
X127967444Y-92551441D01*
X128032351Y-92570500D01*
X128032352Y-92570500D01*
X128167648Y-92570500D01*
X128297463Y-92532383D01*
X128411280Y-92459236D01*
X128499880Y-92356987D01*
X128556083Y-92233918D01*
X128575338Y-92100000D01*
X128558450Y-91982542D01*
X128556083Y-91966081D01*
X128499880Y-91843014D01*
X128499880Y-91843013D01*
X128411280Y-91740764D01*
X128297463Y-91667617D01*
X128297462Y-91667616D01*
X128297461Y-91667616D01*
X128167649Y-91629500D01*
X128167648Y-91629500D01*
X128032352Y-91629500D01*
X128032351Y-91629500D01*
X127902538Y-91667616D01*
X127788721Y-91740763D01*
X127788717Y-91740766D01*
X127700124Y-91843007D01*
X127700119Y-91843014D01*
X127643916Y-91966081D01*
X127624662Y-92099999D01*
X121791274Y-92099999D01*
X121613410Y-92026326D01*
X121431033Y-91982542D01*
X121370441Y-91947751D01*
X121338277Y-91885725D01*
X121344753Y-91816156D01*
X121366266Y-91780767D01*
X121387680Y-91756055D01*
X121443883Y-91632986D01*
X121463138Y-91499068D01*
X121443883Y-91365150D01*
X121387680Y-91242081D01*
X121299080Y-91139832D01*
X121276912Y-91125585D01*
X121999076Y-91125585D01*
X122018330Y-91259504D01*
X122066577Y-91365149D01*
X122074534Y-91382573D01*
X122163134Y-91484822D01*
X122276951Y-91557969D01*
X122322029Y-91571205D01*
X122406765Y-91596086D01*
X122406766Y-91596086D01*
X122542062Y-91596086D01*
X122671877Y-91557969D01*
X122785694Y-91484822D01*
X122874294Y-91382573D01*
X122930497Y-91259504D01*
X122949752Y-91125586D01*
X122930497Y-90991668D01*
X122874294Y-90868599D01*
X122785694Y-90766350D01*
X122671877Y-90693203D01*
X122671876Y-90693202D01*
X122671875Y-90693202D01*
X122542063Y-90655086D01*
X122542062Y-90655086D01*
X122406766Y-90655086D01*
X122406765Y-90655086D01*
X122276952Y-90693202D01*
X122163135Y-90766349D01*
X122163131Y-90766352D01*
X122074538Y-90868593D01*
X122074533Y-90868600D01*
X122018330Y-90991667D01*
X121999076Y-91125585D01*
X121276912Y-91125585D01*
X121185263Y-91066685D01*
X121185262Y-91066684D01*
X121185261Y-91066684D01*
X121055449Y-91028568D01*
X121055448Y-91028568D01*
X120920152Y-91028568D01*
X120920151Y-91028568D01*
X120790338Y-91066684D01*
X120676521Y-91139831D01*
X120676517Y-91139834D01*
X120587924Y-91242075D01*
X120587919Y-91242082D01*
X120531716Y-91365149D01*
X120512462Y-91499067D01*
X120531716Y-91632986D01*
X120587919Y-91756053D01*
X120587924Y-91756060D01*
X120656434Y-91835124D01*
X120685460Y-91898679D01*
X120675517Y-91967838D01*
X120629762Y-92020642D01*
X120610175Y-92030888D01*
X120388440Y-92122733D01*
X120173646Y-92254360D01*
X120173643Y-92254361D01*
X119982076Y-92417976D01*
X119818461Y-92609543D01*
X119818460Y-92609546D01*
X119686833Y-92824340D01*
X119590426Y-93057089D01*
X119531617Y-93302048D01*
X119511851Y-93553199D01*
X116047278Y-93553199D01*
X116056083Y-93533918D01*
X116075338Y-93400000D01*
X116056083Y-93266082D01*
X116050428Y-93253700D01*
X115999880Y-93143014D01*
X115999880Y-93143013D01*
X115911280Y-93040764D01*
X115797463Y-92967617D01*
X115797462Y-92967616D01*
X115797461Y-92967616D01*
X115667649Y-92929500D01*
X115667648Y-92929500D01*
X115532352Y-92929500D01*
X115532351Y-92929500D01*
X115402538Y-92967616D01*
X115288721Y-93040763D01*
X115288717Y-93040766D01*
X115200124Y-93143007D01*
X115200119Y-93143014D01*
X115143916Y-93266081D01*
X115124662Y-93399999D01*
X104773236Y-93399999D01*
X104702251Y-93228625D01*
X104700400Y-93223540D01*
X104578743Y-92837692D01*
X104577347Y-92832480D01*
X104489781Y-92437497D01*
X104488843Y-92432181D01*
X104445111Y-92100000D01*
X114024662Y-92100000D01*
X114043916Y-92233918D01*
X114100119Y-92356985D01*
X114100124Y-92356992D01*
X114152967Y-92417976D01*
X114188720Y-92459236D01*
X114302537Y-92532383D01*
X114367444Y-92551441D01*
X114432351Y-92570500D01*
X114432352Y-92570500D01*
X114567648Y-92570500D01*
X114697463Y-92532383D01*
X114811280Y-92459236D01*
X114899880Y-92356987D01*
X114956083Y-92233918D01*
X114975338Y-92100000D01*
X114958450Y-91982542D01*
X114956083Y-91966081D01*
X114899880Y-91843014D01*
X114899880Y-91843013D01*
X114811280Y-91740764D01*
X114697463Y-91667617D01*
X114697462Y-91667616D01*
X114697461Y-91667616D01*
X114567649Y-91629500D01*
X114567648Y-91629500D01*
X114432352Y-91629500D01*
X114432351Y-91629500D01*
X114302538Y-91667616D01*
X114188721Y-91740763D01*
X114188717Y-91740766D01*
X114100124Y-91843007D01*
X114100119Y-91843014D01*
X114043916Y-91966081D01*
X114024662Y-92100000D01*
X104445111Y-92100000D01*
X104436034Y-92031057D01*
X104435565Y-92025705D01*
X104417857Y-91620106D01*
X104417800Y-91617489D01*
X104417800Y-91571205D01*
X104417800Y-89303199D01*
X106491962Y-89303199D01*
X106511216Y-89437118D01*
X106567419Y-89560185D01*
X106567424Y-89560192D01*
X106629978Y-89632383D01*
X106656020Y-89662436D01*
X106769837Y-89735583D01*
X106834744Y-89754641D01*
X106899651Y-89773700D01*
X106899652Y-89773700D01*
X107034948Y-89773700D01*
X107164763Y-89735583D01*
X107278580Y-89662436D01*
X107367180Y-89560187D01*
X107423383Y-89437118D01*
X107442638Y-89303200D01*
X107423383Y-89169282D01*
X107391743Y-89100000D01*
X115624662Y-89100000D01*
X115643916Y-89233918D01*
X115700119Y-89356985D01*
X115700124Y-89356992D01*
X115786775Y-89456992D01*
X115788720Y-89459236D01*
X115902537Y-89532383D01*
X115967444Y-89551441D01*
X116032351Y-89570500D01*
X116032352Y-89570500D01*
X116167648Y-89570500D01*
X116297463Y-89532383D01*
X116411280Y-89459236D01*
X116499880Y-89356987D01*
X116556083Y-89233918D01*
X116575338Y-89100000D01*
X116556083Y-88966082D01*
X116545548Y-88943014D01*
X116536595Y-88923409D01*
X120301253Y-88923409D01*
X120320507Y-89057327D01*
X120376710Y-89180394D01*
X120376715Y-89180401D01*
X120393695Y-89199997D01*
X120465311Y-89282645D01*
X120579128Y-89355792D01*
X120644035Y-89374850D01*
X120708942Y-89393909D01*
X120708943Y-89393909D01*
X120844239Y-89393909D01*
X120974054Y-89355792D01*
X121087871Y-89282645D01*
X121176471Y-89180396D01*
X121232674Y-89057327D01*
X121251929Y-88923409D01*
X121232674Y-88789491D01*
X121210421Y-88740764D01*
X121191805Y-88699999D01*
X122524662Y-88699999D01*
X122543916Y-88833918D01*
X122600119Y-88956985D01*
X122600124Y-88956992D01*
X122687065Y-89057327D01*
X122688720Y-89059236D01*
X122802537Y-89132383D01*
X122867444Y-89151441D01*
X122932351Y-89170500D01*
X122932352Y-89170500D01*
X123067648Y-89170500D01*
X123197463Y-89132383D01*
X123311280Y-89059236D01*
X123399880Y-88956987D01*
X123456083Y-88833918D01*
X123475338Y-88700000D01*
X123475338Y-88699999D01*
X124824662Y-88699999D01*
X124843916Y-88833918D01*
X124900119Y-88956985D01*
X124900124Y-88956992D01*
X124987065Y-89057327D01*
X124988720Y-89059236D01*
X125102537Y-89132383D01*
X125167444Y-89151441D01*
X125232351Y-89170500D01*
X125232352Y-89170500D01*
X125367648Y-89170500D01*
X125497463Y-89132383D01*
X125611280Y-89059236D01*
X125614823Y-89055146D01*
X125673597Y-89017371D01*
X125743467Y-89017367D01*
X125802247Y-89055139D01*
X125831275Y-89118693D01*
X125831276Y-89153991D01*
X125824662Y-89199997D01*
X125824661Y-89199999D01*
X125843916Y-89333918D01*
X125900119Y-89456985D01*
X125900124Y-89456992D01*
X125965451Y-89532383D01*
X125988720Y-89559236D01*
X126102537Y-89632383D01*
X126167444Y-89651441D01*
X126232351Y-89670500D01*
X126232352Y-89670500D01*
X126367648Y-89670500D01*
X126497463Y-89632383D01*
X126611280Y-89559236D01*
X126699880Y-89456987D01*
X126756083Y-89333918D01*
X126760500Y-89303200D01*
X134991962Y-89303200D01*
X135011216Y-89437118D01*
X135067419Y-89560185D01*
X135067424Y-89560192D01*
X135129978Y-89632383D01*
X135156020Y-89662436D01*
X135269837Y-89735583D01*
X135334744Y-89754641D01*
X135399651Y-89773700D01*
X135399652Y-89773700D01*
X135534948Y-89773700D01*
X135664763Y-89735583D01*
X135778580Y-89662436D01*
X135867180Y-89560187D01*
X135923383Y-89437118D01*
X135942638Y-89303200D01*
X135923383Y-89169282D01*
X135867180Y-89046213D01*
X135778580Y-88943964D01*
X135664763Y-88870817D01*
X135664762Y-88870816D01*
X135664761Y-88870816D01*
X135534949Y-88832700D01*
X135534948Y-88832700D01*
X135399652Y-88832700D01*
X135399651Y-88832700D01*
X135269838Y-88870816D01*
X135156021Y-88943963D01*
X135156017Y-88943966D01*
X135067424Y-89046207D01*
X135067419Y-89046214D01*
X135011216Y-89169281D01*
X134991962Y-89303200D01*
X126760500Y-89303200D01*
X126775338Y-89200000D01*
X126756083Y-89066082D01*
X126752955Y-89059233D01*
X126710415Y-88966082D01*
X126699880Y-88943013D01*
X126647556Y-88882628D01*
X126611282Y-88840766D01*
X126611281Y-88840765D01*
X126611280Y-88840764D01*
X126497463Y-88767617D01*
X126497462Y-88767616D01*
X126497461Y-88767616D01*
X126367649Y-88729500D01*
X126367648Y-88729500D01*
X126232352Y-88729500D01*
X126232351Y-88729500D01*
X126102538Y-88767616D01*
X125988721Y-88840763D01*
X125988716Y-88840766D01*
X125985170Y-88844860D01*
X125926390Y-88882632D01*
X125856520Y-88882628D01*
X125797744Y-88844851D01*
X125768722Y-88781294D01*
X125768723Y-88746005D01*
X125775338Y-88700000D01*
X125756083Y-88566082D01*
X125755212Y-88564175D01*
X125727981Y-88504547D01*
X125699880Y-88443013D01*
X125627284Y-88359233D01*
X125611282Y-88340766D01*
X125611281Y-88340765D01*
X125611280Y-88340764D01*
X125497463Y-88267617D01*
X125497462Y-88267616D01*
X125497461Y-88267616D01*
X125367649Y-88229500D01*
X125367648Y-88229500D01*
X125232352Y-88229500D01*
X125232351Y-88229500D01*
X125102538Y-88267616D01*
X124988721Y-88340763D01*
X124988717Y-88340766D01*
X124900124Y-88443007D01*
X124900119Y-88443014D01*
X124843916Y-88566081D01*
X124824662Y-88699999D01*
X123475338Y-88699999D01*
X123456083Y-88566082D01*
X123455212Y-88564175D01*
X123427981Y-88504547D01*
X123399880Y-88443013D01*
X123327284Y-88359233D01*
X123311282Y-88340766D01*
X123311281Y-88340765D01*
X123311280Y-88340764D01*
X123197463Y-88267617D01*
X123197462Y-88267616D01*
X123197461Y-88267616D01*
X123067649Y-88229500D01*
X123067648Y-88229500D01*
X122932352Y-88229500D01*
X122932351Y-88229500D01*
X122802538Y-88267616D01*
X122688721Y-88340763D01*
X122688717Y-88340766D01*
X122600124Y-88443007D01*
X122600119Y-88443014D01*
X122543916Y-88566081D01*
X122524662Y-88699999D01*
X121191805Y-88699999D01*
X121176471Y-88666422D01*
X121144478Y-88629500D01*
X121087873Y-88564175D01*
X121087872Y-88564174D01*
X121087871Y-88564173D01*
X120974054Y-88491026D01*
X120974053Y-88491025D01*
X120974052Y-88491025D01*
X120844240Y-88452909D01*
X120844239Y-88452909D01*
X120708943Y-88452909D01*
X120708942Y-88452909D01*
X120579129Y-88491025D01*
X120465312Y-88564172D01*
X120465308Y-88564175D01*
X120376715Y-88666416D01*
X120376710Y-88666423D01*
X120320507Y-88789490D01*
X120301253Y-88923409D01*
X116536595Y-88923409D01*
X116499880Y-88843014D01*
X116499880Y-88843013D01*
X116497931Y-88840764D01*
X116411282Y-88740766D01*
X116411281Y-88740765D01*
X116411280Y-88740764D01*
X116297463Y-88667617D01*
X116297462Y-88667616D01*
X116297461Y-88667616D01*
X116167649Y-88629500D01*
X116167648Y-88629500D01*
X116032352Y-88629500D01*
X116032351Y-88629500D01*
X115902538Y-88667616D01*
X115788721Y-88740763D01*
X115788717Y-88740766D01*
X115700124Y-88843007D01*
X115700119Y-88843014D01*
X115643916Y-88966081D01*
X115624662Y-89100000D01*
X107391743Y-89100000D01*
X107367180Y-89046213D01*
X107278580Y-88943964D01*
X107164763Y-88870817D01*
X107164762Y-88870816D01*
X107164761Y-88870816D01*
X107034949Y-88832700D01*
X107034948Y-88832700D01*
X106899652Y-88832700D01*
X106899651Y-88832700D01*
X106769838Y-88870816D01*
X106656021Y-88943963D01*
X106656017Y-88943966D01*
X106567424Y-89046207D01*
X106567419Y-89046214D01*
X106511216Y-89169281D01*
X106491962Y-89303199D01*
X104417800Y-89303199D01*
X104417800Y-87893466D01*
X115583394Y-87893466D01*
X115602648Y-88027385D01*
X115658851Y-88150452D01*
X115658856Y-88150459D01*
X115731174Y-88233918D01*
X115747452Y-88252703D01*
X115861269Y-88325850D01*
X115926176Y-88344908D01*
X115991083Y-88363967D01*
X115991084Y-88363967D01*
X116126380Y-88363967D01*
X116256195Y-88325850D01*
X116256195Y-88325849D01*
X116264705Y-88323351D01*
X116265121Y-88324770D01*
X116324694Y-88316201D01*
X116388252Y-88345220D01*
X116400769Y-88357737D01*
X116488717Y-88459233D01*
X116488720Y-88459236D01*
X116602537Y-88532383D01*
X116667444Y-88551441D01*
X116732351Y-88570500D01*
X116732352Y-88570500D01*
X116867648Y-88570500D01*
X116997463Y-88532383D01*
X117111280Y-88459236D01*
X117199880Y-88356987D01*
X117256083Y-88233918D01*
X117275338Y-88100000D01*
X117275338Y-88099999D01*
X118641962Y-88099999D01*
X118661216Y-88233918D01*
X118717419Y-88356985D01*
X118717424Y-88356992D01*
X118800537Y-88452909D01*
X118806020Y-88459236D01*
X118919837Y-88532383D01*
X118984744Y-88551441D01*
X119049651Y-88570500D01*
X119049652Y-88570500D01*
X119184948Y-88570500D01*
X119314763Y-88532383D01*
X119428580Y-88459236D01*
X119517180Y-88356987D01*
X119573383Y-88233918D01*
X119592638Y-88100000D01*
X119574894Y-87976591D01*
X121248071Y-87976591D01*
X121267325Y-88110509D01*
X121323528Y-88233576D01*
X121323533Y-88233583D01*
X121403483Y-88325850D01*
X121412129Y-88335827D01*
X121525946Y-88408974D01*
X121590853Y-88428032D01*
X121655760Y-88447091D01*
X121655761Y-88447091D01*
X121791057Y-88447091D01*
X121920872Y-88408974D01*
X122034689Y-88335827D01*
X122123289Y-88233578D01*
X122179492Y-88110509D01*
X122195381Y-88000000D01*
X123824662Y-88000000D01*
X123843916Y-88133918D01*
X123900119Y-88256985D01*
X123900124Y-88256992D01*
X123986775Y-88356992D01*
X123988720Y-88359236D01*
X124102537Y-88432383D01*
X124138740Y-88443013D01*
X124232351Y-88470500D01*
X124232352Y-88470500D01*
X124367648Y-88470500D01*
X124497463Y-88432383D01*
X124611280Y-88359236D01*
X124699880Y-88256987D01*
X124756083Y-88133918D01*
X124775338Y-88000000D01*
X124756083Y-87866082D01*
X124745548Y-87843014D01*
X124727981Y-87804547D01*
X124699880Y-87743013D01*
X124697931Y-87740764D01*
X124611282Y-87640766D01*
X124611281Y-87640765D01*
X124611280Y-87640764D01*
X124497463Y-87567617D01*
X124497462Y-87567616D01*
X124497461Y-87567616D01*
X124367649Y-87529500D01*
X124367648Y-87529500D01*
X124232352Y-87529500D01*
X124232351Y-87529500D01*
X124102538Y-87567616D01*
X123988721Y-87640763D01*
X123988717Y-87640766D01*
X123900124Y-87743007D01*
X123900119Y-87743014D01*
X123843916Y-87866081D01*
X123824662Y-88000000D01*
X122195381Y-88000000D01*
X122198747Y-87976591D01*
X122179492Y-87842673D01*
X122123289Y-87719604D01*
X122080406Y-87670115D01*
X122034691Y-87617357D01*
X122034690Y-87617356D01*
X122034689Y-87617355D01*
X121920872Y-87544208D01*
X121920871Y-87544207D01*
X121920870Y-87544207D01*
X121791058Y-87506091D01*
X121791057Y-87506091D01*
X121655761Y-87506091D01*
X121655760Y-87506091D01*
X121525947Y-87544207D01*
X121412130Y-87617354D01*
X121412126Y-87617357D01*
X121323533Y-87719598D01*
X121323528Y-87719605D01*
X121267325Y-87842672D01*
X121248071Y-87976591D01*
X119574894Y-87976591D01*
X119573383Y-87966082D01*
X119517180Y-87843013D01*
X119517175Y-87843007D01*
X119428582Y-87740766D01*
X119428581Y-87740765D01*
X119428580Y-87740764D01*
X119314763Y-87667617D01*
X119314762Y-87667616D01*
X119314761Y-87667616D01*
X119184949Y-87629500D01*
X119184948Y-87629500D01*
X119049652Y-87629500D01*
X119049651Y-87629500D01*
X118919838Y-87667616D01*
X118806021Y-87740763D01*
X118806017Y-87740766D01*
X118717424Y-87843007D01*
X118717419Y-87843014D01*
X118661216Y-87966081D01*
X118641962Y-88099999D01*
X117275338Y-88099999D01*
X117256083Y-87966082D01*
X117199880Y-87843013D01*
X117199875Y-87843007D01*
X117111282Y-87740766D01*
X117111281Y-87740765D01*
X117111280Y-87740764D01*
X116997463Y-87667617D01*
X116997462Y-87667616D01*
X116997461Y-87667616D01*
X116867649Y-87629500D01*
X116867648Y-87629500D01*
X116732352Y-87629500D01*
X116732351Y-87629500D01*
X116594028Y-87670115D01*
X116593611Y-87668697D01*
X116534025Y-87677264D01*
X116470470Y-87648238D01*
X116457962Y-87635729D01*
X116370014Y-87534233D01*
X116370013Y-87534232D01*
X116370012Y-87534231D01*
X116256195Y-87461084D01*
X116256194Y-87461083D01*
X116256193Y-87461083D01*
X116126381Y-87422967D01*
X116126380Y-87422967D01*
X115991084Y-87422967D01*
X115991083Y-87422967D01*
X115861270Y-87461083D01*
X115747453Y-87534230D01*
X115747449Y-87534233D01*
X115658856Y-87636474D01*
X115658851Y-87636481D01*
X115602648Y-87759548D01*
X115583394Y-87893466D01*
X104417800Y-87893466D01*
X104417800Y-87178200D01*
X110666962Y-87178200D01*
X110686216Y-87312118D01*
X110742419Y-87435185D01*
X110742424Y-87435192D01*
X110828244Y-87534233D01*
X110831020Y-87537436D01*
X110944837Y-87610583D01*
X111009263Y-87629500D01*
X111074651Y-87648700D01*
X111074652Y-87648700D01*
X111209948Y-87648700D01*
X111339763Y-87610583D01*
X111453580Y-87537436D01*
X111542180Y-87435187D01*
X111598383Y-87312118D01*
X111617638Y-87178200D01*
X111598383Y-87044282D01*
X111578160Y-87000000D01*
X126124662Y-87000000D01*
X126143916Y-87133918D01*
X126200119Y-87256985D01*
X126200124Y-87256992D01*
X126247891Y-87312118D01*
X126288720Y-87359236D01*
X126402537Y-87432383D01*
X126412087Y-87435187D01*
X126532351Y-87470500D01*
X126532352Y-87470500D01*
X126667648Y-87470500D01*
X126797463Y-87432383D01*
X126911280Y-87359236D01*
X126999880Y-87256987D01*
X127056083Y-87133918D01*
X127075338Y-87000000D01*
X127056083Y-86866082D01*
X126999880Y-86743013D01*
X126911280Y-86640764D01*
X126797463Y-86567617D01*
X126797462Y-86567616D01*
X126797461Y-86567616D01*
X126667649Y-86529500D01*
X126667648Y-86529500D01*
X126532352Y-86529500D01*
X126532351Y-86529500D01*
X126402538Y-86567616D01*
X126288721Y-86640763D01*
X126288717Y-86640766D01*
X126200124Y-86743007D01*
X126200119Y-86743014D01*
X126143916Y-86866081D01*
X126124662Y-87000000D01*
X111578160Y-87000000D01*
X111542180Y-86921213D01*
X111542175Y-86921207D01*
X111453582Y-86818966D01*
X111453581Y-86818965D01*
X111453580Y-86818964D01*
X111339763Y-86745817D01*
X111339762Y-86745816D01*
X111339761Y-86745816D01*
X111209949Y-86707700D01*
X111209948Y-86707700D01*
X111074652Y-86707700D01*
X111074651Y-86707700D01*
X110944838Y-86745816D01*
X110831021Y-86818963D01*
X110831017Y-86818966D01*
X110742424Y-86921207D01*
X110742419Y-86921214D01*
X110686216Y-87044281D01*
X110666962Y-87178200D01*
X104417800Y-87178200D01*
X104417800Y-85404612D01*
X105659000Y-85404612D01*
X105697966Y-85562707D01*
X105697966Y-85562708D01*
X105697967Y-85562709D01*
X105773636Y-85706885D01*
X105881610Y-85828763D01*
X106015614Y-85921259D01*
X106098676Y-85952760D01*
X106167856Y-85978997D01*
X106167858Y-85978997D01*
X106167860Y-85978998D01*
X106228400Y-85986348D01*
X106288938Y-85993700D01*
X106288940Y-85993700D01*
X107170062Y-85993700D01*
X107218491Y-85987819D01*
X107291140Y-85978998D01*
X107443386Y-85921259D01*
X107577390Y-85828763D01*
X107685364Y-85706885D01*
X107761033Y-85562709D01*
X107800000Y-85404613D01*
X107800000Y-85404612D01*
X109709000Y-85404612D01*
X109747966Y-85562707D01*
X109747966Y-85562708D01*
X109747967Y-85562709D01*
X109823636Y-85706885D01*
X109931610Y-85828763D01*
X110065614Y-85921259D01*
X110148676Y-85952760D01*
X110217856Y-85978997D01*
X110217858Y-85978997D01*
X110217860Y-85978998D01*
X110278400Y-85986348D01*
X110338938Y-85993700D01*
X110338940Y-85993700D01*
X111520062Y-85993700D01*
X111568492Y-85987819D01*
X111641140Y-85978998D01*
X111793386Y-85921259D01*
X111927390Y-85828763D01*
X112035364Y-85706885D01*
X112111033Y-85562709D01*
X112150000Y-85404613D01*
X112150000Y-85241787D01*
X112111033Y-85083691D01*
X112035364Y-84939515D01*
X111927390Y-84817637D01*
X111919394Y-84812118D01*
X111793557Y-84725259D01*
X111793386Y-84725141D01*
X111793385Y-84725140D01*
X111641143Y-84667402D01*
X111641137Y-84667401D01*
X111520062Y-84652700D01*
X111520060Y-84652700D01*
X110703149Y-84652700D01*
X110636110Y-84633015D01*
X110590355Y-84580211D01*
X110580411Y-84511053D01*
X110609436Y-84447497D01*
X110655696Y-84414139D01*
X110664714Y-84410403D01*
X110699733Y-84395898D01*
X110819951Y-84303651D01*
X110912198Y-84183433D01*
X110970187Y-84043436D01*
X110989966Y-83893200D01*
X110970187Y-83742964D01*
X110912198Y-83602967D01*
X110819951Y-83482749D01*
X110752486Y-83430981D01*
X111739599Y-83430981D01*
X111739871Y-83437872D01*
X111742861Y-83475875D01*
X111742864Y-83475902D01*
X111743668Y-83482698D01*
X111743671Y-83482715D01*
X111753959Y-83547676D01*
X111760388Y-83574454D01*
X111760391Y-83574464D01*
X111760393Y-83574471D01*
X111779622Y-83633655D01*
X111779628Y-83633672D01*
X111790166Y-83659113D01*
X111797554Y-83673613D01*
X111811265Y-83700521D01*
X111825655Y-83724004D01*
X111862248Y-83774369D01*
X111880133Y-83795308D01*
X111912991Y-83828166D01*
X111930354Y-83842996D01*
X111933931Y-83846051D01*
X111984283Y-83882635D01*
X111984286Y-83882637D01*
X111984296Y-83882644D01*
X112007781Y-83897036D01*
X112049188Y-83918133D01*
X112059614Y-83922451D01*
X112074605Y-83928661D01*
X112074615Y-83928664D01*
X112074626Y-83928669D01*
X112118189Y-83942824D01*
X112133824Y-83947905D01*
X112133829Y-83947906D01*
X112133837Y-83947909D01*
X112133843Y-83947910D01*
X112133859Y-83947915D01*
X112152374Y-83952359D01*
X112160618Y-83954339D01*
X112225582Y-83964628D01*
X112232426Y-83965439D01*
X112270427Y-83968429D01*
X112277314Y-83968700D01*
X112359240Y-83968700D01*
X112377265Y-83970017D01*
X112393341Y-83972378D01*
X112455907Y-83981571D01*
X112490434Y-83991942D01*
X112542386Y-84016252D01*
X112572468Y-84036113D01*
X112607229Y-84067187D01*
X112644089Y-84126541D01*
X112643009Y-84196402D01*
X112604330Y-84254589D01*
X112591627Y-84263947D01*
X112506018Y-84318965D01*
X112506017Y-84318966D01*
X112417424Y-84421207D01*
X112417419Y-84421214D01*
X112361216Y-84544281D01*
X112341962Y-84678200D01*
X112361216Y-84812118D01*
X112417419Y-84935185D01*
X112417424Y-84935192D01*
X112505963Y-85037371D01*
X112506020Y-85037436D01*
X112619837Y-85110583D01*
X112658046Y-85121802D01*
X112749651Y-85148700D01*
X112749652Y-85148700D01*
X112884948Y-85148700D01*
X113014763Y-85110583D01*
X113128580Y-85037436D01*
X113184025Y-84973449D01*
X113242802Y-84935675D01*
X113312671Y-84935675D01*
X113371450Y-84973449D01*
X113372918Y-84975175D01*
X113408072Y-85017299D01*
X113412350Y-85022061D01*
X113412359Y-85022070D01*
X113436928Y-85047491D01*
X113436958Y-85047521D01*
X113441573Y-85051959D01*
X113465735Y-85073559D01*
X113519700Y-85121802D01*
X113519708Y-85121808D01*
X113539973Y-85137422D01*
X113588255Y-85169301D01*
X113588262Y-85169305D01*
X113588265Y-85169307D01*
X113610552Y-85181791D01*
X113610572Y-85181802D01*
X113689272Y-85218629D01*
X113713169Y-85227753D01*
X113768581Y-85244397D01*
X113793553Y-85249951D01*
X113897237Y-85265187D01*
X113903601Y-85265886D01*
X113938916Y-85268467D01*
X113938911Y-85268467D01*
X113945283Y-85268699D01*
X113945288Y-85268699D01*
X113945313Y-85268700D01*
X113945335Y-85268700D01*
X114911424Y-85268700D01*
X114911440Y-85268700D01*
X114911459Y-85268699D01*
X114911480Y-85268699D01*
X114913282Y-85268639D01*
X114917180Y-85268512D01*
X114917195Y-85268511D01*
X114917200Y-85268511D01*
X114923121Y-85268122D01*
X114935913Y-85267284D01*
X114941631Y-85266721D01*
X115047143Y-85252829D01*
X115047156Y-85252826D01*
X115047159Y-85252826D01*
X115058402Y-85250590D01*
X115058405Y-85250589D01*
X115058411Y-85250588D01*
X115119688Y-85234169D01*
X115119689Y-85234168D01*
X115119695Y-85234167D01*
X115124998Y-85232366D01*
X115130569Y-85230476D01*
X115213363Y-85196181D01*
X115223669Y-85191099D01*
X115278612Y-85159377D01*
X115288166Y-85152993D01*
X115359266Y-85098435D01*
X115367904Y-85090859D01*
X115412759Y-85046004D01*
X115420335Y-85037366D01*
X115474893Y-84966266D01*
X115481277Y-84956712D01*
X115512999Y-84901769D01*
X115518081Y-84891463D01*
X115552376Y-84808669D01*
X115556069Y-84797788D01*
X115572488Y-84736511D01*
X115574729Y-84725243D01*
X115588621Y-84619731D01*
X115589184Y-84614013D01*
X115590412Y-84595280D01*
X115590600Y-84589540D01*
X115590600Y-83603200D01*
X116991962Y-83603200D01*
X117011216Y-83737118D01*
X117067419Y-83860185D01*
X117067424Y-83860192D01*
X117149003Y-83954339D01*
X117156020Y-83962436D01*
X117269837Y-84035583D01*
X117334744Y-84054641D01*
X117399651Y-84073700D01*
X117399652Y-84073700D01*
X117534948Y-84073700D01*
X117664763Y-84035583D01*
X117778580Y-83962436D01*
X117867180Y-83860187D01*
X117923383Y-83737118D01*
X117942638Y-83603200D01*
X117923383Y-83469282D01*
X117867180Y-83346213D01*
X117778580Y-83243964D01*
X117664763Y-83170817D01*
X117664762Y-83170816D01*
X117664761Y-83170816D01*
X117534949Y-83132700D01*
X117534948Y-83132700D01*
X117399652Y-83132700D01*
X117399651Y-83132700D01*
X117269838Y-83170816D01*
X117156021Y-83243963D01*
X117156017Y-83243966D01*
X117067424Y-83346207D01*
X117067419Y-83346214D01*
X117011216Y-83469281D01*
X116991962Y-83603200D01*
X115590600Y-83603200D01*
X115590600Y-82818908D01*
X115592360Y-82798091D01*
X115595747Y-82778200D01*
X123666962Y-82778200D01*
X123686216Y-82912118D01*
X123742419Y-83035185D01*
X123742420Y-83035187D01*
X123831020Y-83137436D01*
X123944837Y-83210583D01*
X124009744Y-83229641D01*
X124074651Y-83248700D01*
X124074652Y-83248700D01*
X124209948Y-83248700D01*
X124339763Y-83210583D01*
X124453580Y-83137436D01*
X124542180Y-83035187D01*
X124598383Y-82912118D01*
X124617638Y-82778200D01*
X124598383Y-82644282D01*
X124542180Y-82521213D01*
X124476400Y-82445299D01*
X124453582Y-82418966D01*
X124453581Y-82418965D01*
X124453580Y-82418964D01*
X124339763Y-82345817D01*
X124339762Y-82345816D01*
X124339761Y-82345816D01*
X124209949Y-82307700D01*
X124209948Y-82307700D01*
X124074652Y-82307700D01*
X124074651Y-82307700D01*
X123944838Y-82345816D01*
X123831021Y-82418963D01*
X123831017Y-82418966D01*
X123742424Y-82521207D01*
X123742419Y-82521214D01*
X123686216Y-82644281D01*
X123666962Y-82778200D01*
X115595747Y-82778200D01*
X115607731Y-82707832D01*
X115621512Y-82668545D01*
X115665896Y-82588457D01*
X115677529Y-82571098D01*
X115681869Y-82565673D01*
X115683012Y-82564214D01*
X115688695Y-82556794D01*
X115710459Y-82519717D01*
X115742627Y-82445298D01*
X115787295Y-82391573D01*
X115853920Y-82370526D01*
X115856448Y-82370500D01*
X115967648Y-82370500D01*
X116097463Y-82332383D01*
X116211280Y-82259236D01*
X116299880Y-82156987D01*
X116356083Y-82033918D01*
X116375338Y-81900000D01*
X116364701Y-81826022D01*
X116374644Y-81756867D01*
X116420399Y-81704062D01*
X116446583Y-81691302D01*
X116449191Y-81690392D01*
X116449208Y-81690383D01*
X116449409Y-81690301D01*
X116449604Y-81690246D01*
X116452496Y-81689238D01*
X116452561Y-81689426D01*
X116478336Y-81682272D01*
X116572802Y-81668058D01*
X116577371Y-81667545D01*
X116580670Y-81667299D01*
X116585974Y-81666739D01*
X116603250Y-81664383D01*
X116608512Y-81663502D01*
X116656179Y-81654022D01*
X116689105Y-81644034D01*
X116760848Y-81614317D01*
X116791193Y-81598096D01*
X116806474Y-81587885D01*
X116833065Y-81566062D01*
X116887962Y-81511165D01*
X116909785Y-81484574D01*
X116919996Y-81469293D01*
X116936216Y-81438950D01*
X116965932Y-81367212D01*
X116975920Y-81334289D01*
X116984244Y-81292440D01*
X116985509Y-81283916D01*
X116988534Y-81253200D01*
X121691962Y-81253200D01*
X121711216Y-81387118D01*
X121767419Y-81510185D01*
X121767424Y-81510192D01*
X121843589Y-81598091D01*
X121856020Y-81612436D01*
X121969837Y-81685583D01*
X122030326Y-81703344D01*
X122099651Y-81723700D01*
X122099652Y-81723700D01*
X122234948Y-81723700D01*
X122364763Y-81685583D01*
X122478580Y-81612436D01*
X122567180Y-81510187D01*
X122617501Y-81399999D01*
X134124662Y-81399999D01*
X134143916Y-81533918D01*
X134200119Y-81656985D01*
X134200124Y-81656992D01*
X134257927Y-81723700D01*
X134288720Y-81759236D01*
X134402537Y-81832383D01*
X134467444Y-81851441D01*
X134532351Y-81870500D01*
X134532352Y-81870500D01*
X134667648Y-81870500D01*
X134797463Y-81832383D01*
X134911280Y-81759236D01*
X134999880Y-81656987D01*
X135056083Y-81533918D01*
X135075338Y-81400000D01*
X135524662Y-81400000D01*
X135543916Y-81533918D01*
X135600119Y-81656985D01*
X135600124Y-81656992D01*
X135657927Y-81723700D01*
X135688720Y-81759236D01*
X135802537Y-81832383D01*
X135867444Y-81851441D01*
X135932351Y-81870500D01*
X135932352Y-81870500D01*
X136067648Y-81870500D01*
X136197463Y-81832383D01*
X136311280Y-81759236D01*
X136399880Y-81656987D01*
X136456083Y-81533918D01*
X136475338Y-81400000D01*
X136456083Y-81266082D01*
X136399880Y-81143013D01*
X136311280Y-81040764D01*
X136197463Y-80967617D01*
X136197462Y-80967616D01*
X136197461Y-80967616D01*
X136067649Y-80929500D01*
X136067648Y-80929500D01*
X135932352Y-80929500D01*
X135932351Y-80929500D01*
X135802538Y-80967616D01*
X135688721Y-81040763D01*
X135688717Y-81040766D01*
X135600124Y-81143007D01*
X135600119Y-81143014D01*
X135543916Y-81266081D01*
X135524662Y-81400000D01*
X135075338Y-81400000D01*
X135056083Y-81266082D01*
X134999880Y-81143013D01*
X134911280Y-81040764D01*
X134797463Y-80967617D01*
X134797462Y-80967616D01*
X134797461Y-80967616D01*
X134667649Y-80929500D01*
X134667648Y-80929500D01*
X134532352Y-80929500D01*
X134532351Y-80929500D01*
X134402538Y-80967616D01*
X134288721Y-81040763D01*
X134288717Y-81040766D01*
X134200124Y-81143007D01*
X134200119Y-81143014D01*
X134143916Y-81266081D01*
X134124662Y-81399999D01*
X122617501Y-81399999D01*
X122623383Y-81387118D01*
X122642638Y-81253200D01*
X122623383Y-81119282D01*
X122567180Y-80996213D01*
X122542401Y-80967617D01*
X122478582Y-80893966D01*
X122478581Y-80893965D01*
X122478580Y-80893964D01*
X122364763Y-80820817D01*
X122364762Y-80820816D01*
X122364761Y-80820816D01*
X122234949Y-80782700D01*
X122234948Y-80782700D01*
X122099652Y-80782700D01*
X122099651Y-80782700D01*
X121969838Y-80820816D01*
X121856021Y-80893963D01*
X121856017Y-80893966D01*
X121767424Y-80996207D01*
X121767419Y-80996214D01*
X121711216Y-81119281D01*
X121691962Y-81253200D01*
X116988534Y-81253200D01*
X116990177Y-81236516D01*
X116990600Y-81227909D01*
X116990600Y-80658490D01*
X116990177Y-80649883D01*
X116985509Y-80602483D01*
X116984244Y-80593959D01*
X116975920Y-80552110D01*
X116965932Y-80519187D01*
X116936216Y-80447449D01*
X116919996Y-80417106D01*
X116919986Y-80417090D01*
X116909789Y-80401830D01*
X116887957Y-80375228D01*
X116833070Y-80320341D01*
X116806468Y-80298509D01*
X116791205Y-80288310D01*
X116791196Y-80288305D01*
X116791195Y-80288304D01*
X116791190Y-80288301D01*
X116760845Y-80272080D01*
X116760842Y-80272079D01*
X116760837Y-80272076D01*
X116689118Y-80242369D01*
X116689103Y-80242364D01*
X116656187Y-80232379D01*
X116656178Y-80232377D01*
X116614330Y-80224054D01*
X116608108Y-80223131D01*
X116605803Y-80222789D01*
X116605793Y-80222788D01*
X116605777Y-80222786D01*
X116558420Y-80218123D01*
X116558422Y-80218123D01*
X116554790Y-80217944D01*
X116549809Y-80217700D01*
X116549798Y-80217700D01*
X116487141Y-80217700D01*
X116420102Y-80198015D01*
X116374347Y-80145211D01*
X116364403Y-80076053D01*
X116364892Y-80072645D01*
X116375338Y-80000000D01*
X116356083Y-79866082D01*
X116315949Y-79778199D01*
X122941962Y-79778199D01*
X122961216Y-79912118D01*
X123017419Y-80035185D01*
X123017424Y-80035192D01*
X123102971Y-80133918D01*
X123106020Y-80137436D01*
X123219837Y-80210583D01*
X123265715Y-80224054D01*
X123349651Y-80248700D01*
X123349652Y-80248700D01*
X123484948Y-80248700D01*
X123614763Y-80210583D01*
X123728580Y-80137436D01*
X123817180Y-80035187D01*
X123873383Y-79912118D01*
X123892638Y-79778200D01*
X123873383Y-79644282D01*
X123871777Y-79640766D01*
X123817180Y-79521214D01*
X123817180Y-79521213D01*
X123728580Y-79418964D01*
X123614763Y-79345817D01*
X123614762Y-79345816D01*
X123614761Y-79345816D01*
X123484949Y-79307700D01*
X123484948Y-79307700D01*
X123349652Y-79307700D01*
X123349651Y-79307700D01*
X123219838Y-79345816D01*
X123106021Y-79418963D01*
X123106017Y-79418966D01*
X123017424Y-79521207D01*
X123017419Y-79521214D01*
X122961216Y-79644281D01*
X122941962Y-79778199D01*
X116315949Y-79778199D01*
X116299880Y-79743013D01*
X116251910Y-79687653D01*
X116211282Y-79640766D01*
X116211281Y-79640765D01*
X116211280Y-79640764D01*
X116097463Y-79567617D01*
X116097462Y-79567616D01*
X116097461Y-79567616D01*
X115967649Y-79529500D01*
X115967648Y-79529500D01*
X115832352Y-79529500D01*
X115832351Y-79529500D01*
X115702538Y-79567616D01*
X115588721Y-79640763D01*
X115588717Y-79640766D01*
X115580819Y-79649881D01*
X115522040Y-79687653D01*
X115452170Y-79687650D01*
X115416428Y-79669885D01*
X115416322Y-79670047D01*
X115416315Y-79670060D01*
X115416314Y-79670059D01*
X115416207Y-79670223D01*
X115413404Y-79668383D01*
X115413372Y-79668367D01*
X115413308Y-79668320D01*
X115413299Y-79668314D01*
X112939626Y-78236188D01*
X112891470Y-78185563D01*
X112878330Y-78116940D01*
X112904375Y-78052107D01*
X112934711Y-78024562D01*
X112953580Y-78012436D01*
X113042180Y-77910187D01*
X113098383Y-77787118D01*
X113117638Y-77653200D01*
X113098383Y-77519282D01*
X113042180Y-77396213D01*
X112953580Y-77293964D01*
X112839763Y-77220817D01*
X112839762Y-77220816D01*
X112839761Y-77220816D01*
X112709949Y-77182700D01*
X112709948Y-77182700D01*
X112574652Y-77182700D01*
X112574651Y-77182700D01*
X112444838Y-77220816D01*
X112331021Y-77293963D01*
X112331017Y-77293966D01*
X112242424Y-77396207D01*
X112242419Y-77396214D01*
X112186216Y-77519281D01*
X112166962Y-77653199D01*
X112186216Y-77787118D01*
X112242419Y-77910185D01*
X112242421Y-77910188D01*
X112259768Y-77930207D01*
X112288794Y-77993763D01*
X112278851Y-78062921D01*
X112233097Y-78115726D01*
X112188065Y-78132898D01*
X112188157Y-78133359D01*
X112185769Y-78133834D01*
X112158973Y-78140266D01*
X112158961Y-78140269D01*
X112099767Y-78159502D01*
X112074315Y-78170045D01*
X112022778Y-78196304D01*
X112022770Y-78196308D01*
X112022768Y-78196310D01*
X112017752Y-78199384D01*
X111999284Y-78210700D01*
X111948926Y-78247288D01*
X111927973Y-78265184D01*
X111887084Y-78306073D01*
X111869188Y-78327026D01*
X111832600Y-78377384D01*
X111818211Y-78400867D01*
X111818199Y-78400888D01*
X111791950Y-78452404D01*
X111791939Y-78452429D01*
X111781412Y-78477844D01*
X111781407Y-78477857D01*
X111762169Y-78537071D01*
X111762166Y-78537081D01*
X111755741Y-78563841D01*
X111743670Y-78640046D01*
X111743668Y-78640064D01*
X111742863Y-78646869D01*
X111739871Y-78684892D01*
X111739600Y-78691781D01*
X111739600Y-83430981D01*
X111739599Y-83430981D01*
X110752486Y-83430981D01*
X110699733Y-83390502D01*
X110699729Y-83390500D01*
X110636301Y-83364227D01*
X110559736Y-83332513D01*
X110545671Y-83330661D01*
X110447227Y-83317700D01*
X110447220Y-83317700D01*
X110371780Y-83317700D01*
X110371772Y-83317700D01*
X110259264Y-83332513D01*
X110259263Y-83332513D01*
X110119270Y-83390500D01*
X110119267Y-83390501D01*
X110119267Y-83390502D01*
X109999049Y-83482749D01*
X109949229Y-83547676D01*
X109906800Y-83602970D01*
X109848813Y-83742963D01*
X109848812Y-83742965D01*
X109829034Y-83893199D01*
X109829034Y-83893200D01*
X109848812Y-84043434D01*
X109848813Y-84043436D01*
X109906802Y-84183433D01*
X109999049Y-84303651D01*
X110119267Y-84395898D01*
X110119270Y-84395899D01*
X110119271Y-84395900D01*
X110219727Y-84437510D01*
X110274131Y-84481350D01*
X110296196Y-84547645D01*
X110278917Y-84615344D01*
X110227780Y-84662955D01*
X110216247Y-84668013D01*
X110065611Y-84725142D01*
X109931610Y-84817636D01*
X109823635Y-84939516D01*
X109747966Y-85083692D01*
X109709000Y-85241787D01*
X109709000Y-85404612D01*
X107800000Y-85404612D01*
X107800000Y-85241787D01*
X107761033Y-85083691D01*
X107685364Y-84939515D01*
X107577390Y-84817637D01*
X107569394Y-84812118D01*
X107443557Y-84725259D01*
X107443386Y-84725141D01*
X107291143Y-84667402D01*
X107291137Y-84667401D01*
X107170062Y-84652700D01*
X107170060Y-84652700D01*
X106288940Y-84652700D01*
X106288938Y-84652700D01*
X106167862Y-84667401D01*
X106167856Y-84667402D01*
X106015613Y-84725141D01*
X106015612Y-84725142D01*
X105881610Y-84817636D01*
X105773635Y-84939516D01*
X105697966Y-85083692D01*
X105659000Y-85241787D01*
X105659000Y-85404612D01*
X104417800Y-85404612D01*
X104417800Y-76764612D01*
X105659000Y-76764612D01*
X105697966Y-76922707D01*
X105697966Y-76922708D01*
X105697967Y-76922709D01*
X105773636Y-77066885D01*
X105881610Y-77188763D01*
X106015614Y-77281259D01*
X106098676Y-77312760D01*
X106167856Y-77338997D01*
X106167858Y-77338997D01*
X106167860Y-77338998D01*
X106228400Y-77346348D01*
X106288938Y-77353700D01*
X106288940Y-77353700D01*
X107170062Y-77353700D01*
X107218491Y-77347819D01*
X107291140Y-77338998D01*
X107443386Y-77281259D01*
X107577390Y-77188763D01*
X107685364Y-77066885D01*
X107761033Y-76922709D01*
X107800000Y-76764613D01*
X107800000Y-76764612D01*
X109709000Y-76764612D01*
X109747966Y-76922707D01*
X109747966Y-76922708D01*
X109747967Y-76922709D01*
X109823636Y-77066885D01*
X109931610Y-77188763D01*
X110065614Y-77281259D01*
X110194210Y-77330028D01*
X110216246Y-77338386D01*
X110271949Y-77380564D01*
X110296006Y-77446161D01*
X110280779Y-77514352D01*
X110231103Y-77563485D01*
X110219728Y-77568889D01*
X110119270Y-77610500D01*
X110119267Y-77610501D01*
X110119267Y-77610502D01*
X110063622Y-77653200D01*
X109999049Y-77702749D01*
X109906800Y-77822970D01*
X109848813Y-77962963D01*
X109848812Y-77962965D01*
X109829034Y-78113199D01*
X109829034Y-78113200D01*
X109848812Y-78263434D01*
X109848813Y-78263436D01*
X109905747Y-78400888D01*
X109906802Y-78403433D01*
X109999049Y-78523651D01*
X110119267Y-78615898D01*
X110259264Y-78673887D01*
X110371780Y-78688700D01*
X110371787Y-78688700D01*
X110447213Y-78688700D01*
X110447220Y-78688700D01*
X110559736Y-78673887D01*
X110699733Y-78615898D01*
X110819951Y-78523651D01*
X110912198Y-78403433D01*
X110970187Y-78263436D01*
X110989966Y-78113200D01*
X110970187Y-77962964D01*
X110912198Y-77822967D01*
X110819951Y-77702749D01*
X110699733Y-77610502D01*
X110699729Y-77610500D01*
X110655696Y-77592261D01*
X110601293Y-77548420D01*
X110579228Y-77482126D01*
X110596507Y-77414427D01*
X110647644Y-77366816D01*
X110703149Y-77353700D01*
X111520062Y-77353700D01*
X111568492Y-77347819D01*
X111641140Y-77338998D01*
X111793386Y-77281259D01*
X111927390Y-77188763D01*
X112035364Y-77066885D01*
X112111033Y-76922709D01*
X112150000Y-76764613D01*
X112150000Y-76601787D01*
X112111033Y-76443691D01*
X112050418Y-76328199D01*
X119016962Y-76328199D01*
X119036216Y-76462118D01*
X119092419Y-76585185D01*
X119092424Y-76585192D01*
X119135745Y-76635187D01*
X119181020Y-76687436D01*
X119294837Y-76760583D01*
X119359744Y-76779641D01*
X119424651Y-76798700D01*
X119424652Y-76798700D01*
X119559948Y-76798700D01*
X119689763Y-76760583D01*
X119803580Y-76687436D01*
X119892180Y-76585187D01*
X119948383Y-76462118D01*
X119960449Y-76378200D01*
X121416962Y-76378200D01*
X121436216Y-76512118D01*
X121492419Y-76635185D01*
X121492424Y-76635192D01*
X121537691Y-76687433D01*
X121581020Y-76737436D01*
X121694837Y-76810583D01*
X121759744Y-76829641D01*
X121824651Y-76848700D01*
X121824652Y-76848700D01*
X121959948Y-76848700D01*
X122089763Y-76810583D01*
X122203580Y-76737436D01*
X122292180Y-76635187D01*
X122348383Y-76512118D01*
X122367638Y-76378200D01*
X122348383Y-76244282D01*
X122292180Y-76121213D01*
X122248855Y-76071214D01*
X122203582Y-76018966D01*
X122203581Y-76018965D01*
X122203580Y-76018964D01*
X122089763Y-75945817D01*
X122089762Y-75945816D01*
X122089761Y-75945816D01*
X121959949Y-75907700D01*
X121959948Y-75907700D01*
X121824652Y-75907700D01*
X121824651Y-75907700D01*
X121694838Y-75945816D01*
X121581021Y-76018963D01*
X121581017Y-76018966D01*
X121492424Y-76121207D01*
X121492419Y-76121214D01*
X121436216Y-76244281D01*
X121416962Y-76378200D01*
X119960449Y-76378200D01*
X119967638Y-76328200D01*
X119948383Y-76194282D01*
X119892180Y-76071213D01*
X119854217Y-76027402D01*
X119803582Y-75968966D01*
X119803581Y-75968965D01*
X119803580Y-75968964D01*
X119689763Y-75895817D01*
X119689762Y-75895816D01*
X119689761Y-75895816D01*
X119559949Y-75857700D01*
X119559948Y-75857700D01*
X119424652Y-75857700D01*
X119424651Y-75857700D01*
X119294838Y-75895816D01*
X119181021Y-75968963D01*
X119181017Y-75968966D01*
X119092424Y-76071207D01*
X119092419Y-76071214D01*
X119036216Y-76194281D01*
X119016962Y-76328199D01*
X112050418Y-76328199D01*
X112035364Y-76299515D01*
X111927390Y-76177637D01*
X111793386Y-76085141D01*
X111793385Y-76085140D01*
X111641143Y-76027402D01*
X111641137Y-76027401D01*
X111520062Y-76012700D01*
X111520060Y-76012700D01*
X110338940Y-76012700D01*
X110338938Y-76012700D01*
X110217862Y-76027401D01*
X110217856Y-76027402D01*
X110065613Y-76085141D01*
X110065612Y-76085142D01*
X109931610Y-76177636D01*
X109823635Y-76299516D01*
X109747966Y-76443692D01*
X109709000Y-76601787D01*
X109709000Y-76764612D01*
X107800000Y-76764612D01*
X107800000Y-76601787D01*
X107761033Y-76443691D01*
X107685364Y-76299515D01*
X107577390Y-76177637D01*
X107443386Y-76085141D01*
X107291143Y-76027402D01*
X107291137Y-76027401D01*
X107170062Y-76012700D01*
X107170060Y-76012700D01*
X106288940Y-76012700D01*
X106288938Y-76012700D01*
X106167862Y-76027401D01*
X106167856Y-76027402D01*
X106015613Y-76085141D01*
X106015612Y-76085142D01*
X105881610Y-76177636D01*
X105773635Y-76299516D01*
X105697966Y-76443692D01*
X105659000Y-76601787D01*
X105659000Y-76764612D01*
X104417800Y-76764612D01*
X104417800Y-74878200D01*
X110641962Y-74878200D01*
X110661216Y-75012118D01*
X110717419Y-75135185D01*
X110717420Y-75135187D01*
X110806020Y-75237436D01*
X110919837Y-75310583D01*
X110984744Y-75329641D01*
X111049651Y-75348700D01*
X111049652Y-75348700D01*
X111184948Y-75348700D01*
X111314763Y-75310583D01*
X111428580Y-75237436D01*
X111517180Y-75135187D01*
X111573383Y-75012118D01*
X111592638Y-74878200D01*
X111573383Y-74744282D01*
X111517180Y-74621213D01*
X111428580Y-74518964D01*
X111314763Y-74445817D01*
X111314762Y-74445816D01*
X111314761Y-74445816D01*
X111184949Y-74407700D01*
X111184948Y-74407700D01*
X111049652Y-74407700D01*
X111049651Y-74407700D01*
X110919838Y-74445816D01*
X110806021Y-74518963D01*
X110806017Y-74518966D01*
X110717424Y-74621207D01*
X110717419Y-74621214D01*
X110661216Y-74744281D01*
X110641962Y-74878200D01*
X104417800Y-74878200D01*
X104417800Y-71003199D01*
X113641962Y-71003199D01*
X113661216Y-71137118D01*
X113717419Y-71260185D01*
X113717420Y-71260187D01*
X113806020Y-71362436D01*
X113919837Y-71435583D01*
X113984744Y-71454641D01*
X114049651Y-71473700D01*
X114049652Y-71473700D01*
X114184948Y-71473700D01*
X114314763Y-71435583D01*
X114428580Y-71362436D01*
X114517180Y-71260187D01*
X114573383Y-71137118D01*
X114592638Y-71003200D01*
X114592638Y-71003199D01*
X114941962Y-71003199D01*
X114961216Y-71137118D01*
X115017419Y-71260185D01*
X115017420Y-71260187D01*
X115106020Y-71362436D01*
X115219837Y-71435583D01*
X115284744Y-71454641D01*
X115349651Y-71473700D01*
X115349652Y-71473700D01*
X115484948Y-71473700D01*
X115614763Y-71435583D01*
X115728580Y-71362436D01*
X115817180Y-71260187D01*
X115873383Y-71137118D01*
X115892638Y-71003200D01*
X115892638Y-71003199D01*
X116241962Y-71003199D01*
X116261216Y-71137118D01*
X116317419Y-71260185D01*
X116317420Y-71260187D01*
X116406020Y-71362436D01*
X116519837Y-71435583D01*
X116584744Y-71454641D01*
X116649651Y-71473700D01*
X116649652Y-71473700D01*
X116784948Y-71473700D01*
X116914763Y-71435583D01*
X117028580Y-71362436D01*
X117117180Y-71260187D01*
X117173383Y-71137118D01*
X117192638Y-71003200D01*
X117541962Y-71003200D01*
X117561216Y-71137118D01*
X117617419Y-71260185D01*
X117617420Y-71260187D01*
X117706020Y-71362436D01*
X117819837Y-71435583D01*
X117884744Y-71454641D01*
X117949651Y-71473700D01*
X117949652Y-71473700D01*
X118084948Y-71473700D01*
X118214763Y-71435583D01*
X118328580Y-71362436D01*
X118417180Y-71260187D01*
X118473383Y-71137118D01*
X118492638Y-71003200D01*
X118492638Y-71003199D01*
X118741962Y-71003199D01*
X118761216Y-71137118D01*
X118817419Y-71260185D01*
X118817420Y-71260187D01*
X118906020Y-71362436D01*
X119019837Y-71435583D01*
X119084744Y-71454641D01*
X119149651Y-71473700D01*
X119149652Y-71473700D01*
X119284948Y-71473700D01*
X119414763Y-71435583D01*
X119528580Y-71362436D01*
X119617180Y-71260187D01*
X119673383Y-71137118D01*
X119692638Y-71003200D01*
X119692638Y-71003199D01*
X120041962Y-71003199D01*
X120061216Y-71137118D01*
X120117419Y-71260185D01*
X120117420Y-71260187D01*
X120206020Y-71362436D01*
X120319837Y-71435583D01*
X120384744Y-71454641D01*
X120449651Y-71473700D01*
X120449652Y-71473700D01*
X120584948Y-71473700D01*
X120714763Y-71435583D01*
X120828580Y-71362436D01*
X120917180Y-71260187D01*
X120973383Y-71137118D01*
X120992638Y-71003200D01*
X120992638Y-71003199D01*
X121341962Y-71003199D01*
X121361216Y-71137118D01*
X121417419Y-71260185D01*
X121417420Y-71260187D01*
X121506020Y-71362436D01*
X121619837Y-71435583D01*
X121684744Y-71454641D01*
X121749651Y-71473700D01*
X121749652Y-71473700D01*
X121884948Y-71473700D01*
X122014763Y-71435583D01*
X122128580Y-71362436D01*
X122217180Y-71260187D01*
X122273383Y-71137118D01*
X122292638Y-71003200D01*
X122292638Y-71003199D01*
X122641962Y-71003199D01*
X122661216Y-71137118D01*
X122717419Y-71260185D01*
X122717420Y-71260187D01*
X122806020Y-71362436D01*
X122919837Y-71435583D01*
X122984744Y-71454641D01*
X123049651Y-71473700D01*
X123049652Y-71473700D01*
X123184948Y-71473700D01*
X123314763Y-71435583D01*
X123428580Y-71362436D01*
X123517180Y-71260187D01*
X123573383Y-71137118D01*
X123592638Y-71003200D01*
X123841962Y-71003200D01*
X123861216Y-71137118D01*
X123917419Y-71260185D01*
X123917420Y-71260187D01*
X124006020Y-71362436D01*
X124119837Y-71435583D01*
X124184744Y-71454641D01*
X124249651Y-71473700D01*
X124249652Y-71473700D01*
X124384948Y-71473700D01*
X124514763Y-71435583D01*
X124628580Y-71362436D01*
X124717180Y-71260187D01*
X124773383Y-71137118D01*
X124792638Y-71003200D01*
X124792638Y-71003199D01*
X125141962Y-71003199D01*
X125161216Y-71137118D01*
X125217419Y-71260185D01*
X125217420Y-71260187D01*
X125306020Y-71362436D01*
X125419837Y-71435583D01*
X125484744Y-71454641D01*
X125549651Y-71473700D01*
X125549652Y-71473700D01*
X125684948Y-71473700D01*
X125814763Y-71435583D01*
X125928580Y-71362436D01*
X126017180Y-71260187D01*
X126073383Y-71137118D01*
X126092638Y-71003200D01*
X126092638Y-71003199D01*
X126341962Y-71003199D01*
X126361216Y-71137118D01*
X126417419Y-71260185D01*
X126417420Y-71260187D01*
X126506020Y-71362436D01*
X126619837Y-71435583D01*
X126684744Y-71454641D01*
X126749651Y-71473700D01*
X126749652Y-71473700D01*
X126884948Y-71473700D01*
X127014763Y-71435583D01*
X127128580Y-71362436D01*
X127217180Y-71260187D01*
X127273383Y-71137118D01*
X127292638Y-71003200D01*
X127641962Y-71003200D01*
X127661216Y-71137118D01*
X127717419Y-71260185D01*
X127717420Y-71260187D01*
X127806020Y-71362436D01*
X127919837Y-71435583D01*
X127984744Y-71454641D01*
X128049651Y-71473700D01*
X128049652Y-71473700D01*
X128184948Y-71473700D01*
X128314763Y-71435583D01*
X128428580Y-71362436D01*
X128517180Y-71260187D01*
X128573383Y-71137118D01*
X128592638Y-71003200D01*
X128573383Y-70869282D01*
X128517180Y-70746213D01*
X128428580Y-70643964D01*
X128314763Y-70570817D01*
X128314762Y-70570816D01*
X128314761Y-70570816D01*
X128184949Y-70532700D01*
X128184948Y-70532700D01*
X128049652Y-70532700D01*
X128049651Y-70532700D01*
X127919838Y-70570816D01*
X127806021Y-70643963D01*
X127806017Y-70643966D01*
X127717424Y-70746207D01*
X127717419Y-70746214D01*
X127661216Y-70869281D01*
X127641962Y-71003200D01*
X127292638Y-71003200D01*
X127273383Y-70869282D01*
X127217180Y-70746213D01*
X127128580Y-70643964D01*
X127014763Y-70570817D01*
X127014762Y-70570816D01*
X127014761Y-70570816D01*
X126884949Y-70532700D01*
X126884948Y-70532700D01*
X126749652Y-70532700D01*
X126749651Y-70532700D01*
X126619838Y-70570816D01*
X126506021Y-70643963D01*
X126506017Y-70643966D01*
X126417424Y-70746207D01*
X126417419Y-70746214D01*
X126361216Y-70869281D01*
X126341962Y-71003199D01*
X126092638Y-71003199D01*
X126073383Y-70869282D01*
X126017180Y-70746213D01*
X125928580Y-70643964D01*
X125814763Y-70570817D01*
X125814762Y-70570816D01*
X125814761Y-70570816D01*
X125684949Y-70532700D01*
X125684948Y-70532700D01*
X125549652Y-70532700D01*
X125549651Y-70532700D01*
X125419838Y-70570816D01*
X125306021Y-70643963D01*
X125306017Y-70643966D01*
X125217424Y-70746207D01*
X125217419Y-70746214D01*
X125161216Y-70869281D01*
X125141962Y-71003199D01*
X124792638Y-71003199D01*
X124773383Y-70869282D01*
X124717180Y-70746213D01*
X124628580Y-70643964D01*
X124514763Y-70570817D01*
X124514762Y-70570816D01*
X124514761Y-70570816D01*
X124384949Y-70532700D01*
X124384948Y-70532700D01*
X124249652Y-70532700D01*
X124249651Y-70532700D01*
X124119838Y-70570816D01*
X124006021Y-70643963D01*
X124006017Y-70643966D01*
X123917424Y-70746207D01*
X123917419Y-70746214D01*
X123861216Y-70869281D01*
X123841962Y-71003200D01*
X123592638Y-71003200D01*
X123573383Y-70869282D01*
X123517180Y-70746213D01*
X123428580Y-70643964D01*
X123314763Y-70570817D01*
X123314762Y-70570816D01*
X123314761Y-70570816D01*
X123184949Y-70532700D01*
X123184948Y-70532700D01*
X123049652Y-70532700D01*
X123049651Y-70532700D01*
X122919838Y-70570816D01*
X122806021Y-70643963D01*
X122806017Y-70643966D01*
X122717424Y-70746207D01*
X122717419Y-70746214D01*
X122661216Y-70869281D01*
X122641962Y-71003199D01*
X122292638Y-71003199D01*
X122273383Y-70869282D01*
X122217180Y-70746213D01*
X122128580Y-70643964D01*
X122014763Y-70570817D01*
X122014762Y-70570816D01*
X122014761Y-70570816D01*
X121884949Y-70532700D01*
X121884948Y-70532700D01*
X121749652Y-70532700D01*
X121749651Y-70532700D01*
X121619838Y-70570816D01*
X121506021Y-70643963D01*
X121506017Y-70643966D01*
X121417424Y-70746207D01*
X121417419Y-70746214D01*
X121361216Y-70869281D01*
X121341962Y-71003199D01*
X120992638Y-71003199D01*
X120973383Y-70869282D01*
X120917180Y-70746213D01*
X120828580Y-70643964D01*
X120714763Y-70570817D01*
X120714762Y-70570816D01*
X120714761Y-70570816D01*
X120584949Y-70532700D01*
X120584948Y-70532700D01*
X120449652Y-70532700D01*
X120449651Y-70532700D01*
X120319838Y-70570816D01*
X120206021Y-70643963D01*
X120206017Y-70643966D01*
X120117424Y-70746207D01*
X120117419Y-70746214D01*
X120061216Y-70869281D01*
X120041962Y-71003199D01*
X119692638Y-71003199D01*
X119673383Y-70869282D01*
X119617180Y-70746213D01*
X119528580Y-70643964D01*
X119414763Y-70570817D01*
X119414762Y-70570816D01*
X119414761Y-70570816D01*
X119284949Y-70532700D01*
X119284948Y-70532700D01*
X119149652Y-70532700D01*
X119149651Y-70532700D01*
X119019838Y-70570816D01*
X118906021Y-70643963D01*
X118906017Y-70643966D01*
X118817424Y-70746207D01*
X118817419Y-70746214D01*
X118761216Y-70869281D01*
X118741962Y-71003199D01*
X118492638Y-71003199D01*
X118473383Y-70869282D01*
X118417180Y-70746213D01*
X118328580Y-70643964D01*
X118214763Y-70570817D01*
X118214762Y-70570816D01*
X118214761Y-70570816D01*
X118084949Y-70532700D01*
X118084948Y-70532700D01*
X117949652Y-70532700D01*
X117949651Y-70532700D01*
X117819838Y-70570816D01*
X117706021Y-70643963D01*
X117706017Y-70643966D01*
X117617424Y-70746207D01*
X117617419Y-70746214D01*
X117561216Y-70869281D01*
X117541962Y-71003200D01*
X117192638Y-71003200D01*
X117173383Y-70869282D01*
X117117180Y-70746213D01*
X117028580Y-70643964D01*
X116914763Y-70570817D01*
X116914762Y-70570816D01*
X116914761Y-70570816D01*
X116784949Y-70532700D01*
X116784948Y-70532700D01*
X116649652Y-70532700D01*
X116649651Y-70532700D01*
X116519838Y-70570816D01*
X116406021Y-70643963D01*
X116406017Y-70643966D01*
X116317424Y-70746207D01*
X116317419Y-70746214D01*
X116261216Y-70869281D01*
X116241962Y-71003199D01*
X115892638Y-71003199D01*
X115873383Y-70869282D01*
X115817180Y-70746213D01*
X115728580Y-70643964D01*
X115614763Y-70570817D01*
X115614762Y-70570816D01*
X115614761Y-70570816D01*
X115484949Y-70532700D01*
X115484948Y-70532700D01*
X115349652Y-70532700D01*
X115349651Y-70532700D01*
X115219838Y-70570816D01*
X115106021Y-70643963D01*
X115106017Y-70643966D01*
X115017424Y-70746207D01*
X115017419Y-70746214D01*
X114961216Y-70869281D01*
X114941962Y-71003199D01*
X114592638Y-71003199D01*
X114573383Y-70869282D01*
X114517180Y-70746213D01*
X114428580Y-70643964D01*
X114314763Y-70570817D01*
X114314762Y-70570816D01*
X114314761Y-70570816D01*
X114184949Y-70532700D01*
X114184948Y-70532700D01*
X114049652Y-70532700D01*
X114049651Y-70532700D01*
X113919838Y-70570816D01*
X113806021Y-70643963D01*
X113806017Y-70643966D01*
X113717424Y-70746207D01*
X113717419Y-70746214D01*
X113661216Y-70869281D01*
X113641962Y-71003199D01*
X104417800Y-71003199D01*
X104417800Y-69503200D01*
X129441962Y-69503200D01*
X129461216Y-69637118D01*
X129517419Y-69760185D01*
X129517420Y-69760187D01*
X129606020Y-69862436D01*
X129719837Y-69935583D01*
X129784744Y-69954641D01*
X129849651Y-69973700D01*
X129849652Y-69973700D01*
X129984948Y-69973700D01*
X130114763Y-69935583D01*
X130228580Y-69862436D01*
X130317180Y-69760187D01*
X130373383Y-69637118D01*
X130392638Y-69503200D01*
X130373383Y-69369282D01*
X130317180Y-69246213D01*
X130228580Y-69143964D01*
X130114763Y-69070817D01*
X130114762Y-69070816D01*
X130114761Y-69070816D01*
X129984949Y-69032700D01*
X129984948Y-69032700D01*
X129849652Y-69032700D01*
X129849651Y-69032700D01*
X129719838Y-69070816D01*
X129606021Y-69143963D01*
X129606017Y-69143966D01*
X129517424Y-69246207D01*
X129517419Y-69246214D01*
X129461216Y-69369281D01*
X129441962Y-69503200D01*
X104417800Y-69503200D01*
X104417800Y-67303199D01*
X130641962Y-67303199D01*
X130661216Y-67437118D01*
X130717419Y-67560185D01*
X130717420Y-67560187D01*
X130806020Y-67662436D01*
X130919837Y-67735583D01*
X130984744Y-67754641D01*
X131049651Y-67773700D01*
X131049652Y-67773700D01*
X131184948Y-67773700D01*
X131314763Y-67735583D01*
X131428580Y-67662436D01*
X131517180Y-67560187D01*
X131573383Y-67437118D01*
X131592638Y-67303200D01*
X131573383Y-67169282D01*
X131517180Y-67046213D01*
X131428580Y-66943964D01*
X131314763Y-66870817D01*
X131314762Y-66870816D01*
X131314761Y-66870816D01*
X131184949Y-66832700D01*
X131184948Y-66832700D01*
X131049652Y-66832700D01*
X131049651Y-66832700D01*
X130919838Y-66870816D01*
X130806021Y-66943963D01*
X130806017Y-66943966D01*
X130717424Y-67046207D01*
X130717419Y-67046214D01*
X130661216Y-67169281D01*
X130641962Y-67303199D01*
X104417800Y-67303199D01*
X104417800Y-66003200D01*
X110541962Y-66003200D01*
X110561216Y-66137118D01*
X110592552Y-66205734D01*
X110617420Y-66260187D01*
X110706020Y-66362436D01*
X110819837Y-66435583D01*
X110884744Y-66454641D01*
X110949651Y-66473700D01*
X110949652Y-66473700D01*
X111084948Y-66473700D01*
X111214763Y-66435583D01*
X111328580Y-66362436D01*
X111417180Y-66260187D01*
X111473383Y-66137118D01*
X111492638Y-66003200D01*
X130641962Y-66003200D01*
X130661216Y-66137118D01*
X130692552Y-66205734D01*
X130717420Y-66260187D01*
X130806020Y-66362436D01*
X130919837Y-66435583D01*
X130984744Y-66454641D01*
X131049651Y-66473700D01*
X131049652Y-66473700D01*
X131184948Y-66473700D01*
X131314763Y-66435583D01*
X131428580Y-66362436D01*
X131517180Y-66260187D01*
X131573383Y-66137118D01*
X131592638Y-66003200D01*
X131573383Y-65869282D01*
X131517180Y-65746213D01*
X131428580Y-65643964D01*
X131314763Y-65570817D01*
X131314762Y-65570816D01*
X131314761Y-65570816D01*
X131184949Y-65532700D01*
X131184948Y-65532700D01*
X131049652Y-65532700D01*
X131049651Y-65532700D01*
X130919838Y-65570816D01*
X130806021Y-65643963D01*
X130806017Y-65643966D01*
X130717424Y-65746207D01*
X130717419Y-65746214D01*
X130661216Y-65869281D01*
X130641962Y-66003200D01*
X111492638Y-66003200D01*
X111473383Y-65869282D01*
X111417180Y-65746213D01*
X111328580Y-65643964D01*
X111214763Y-65570817D01*
X111214762Y-65570816D01*
X111214761Y-65570816D01*
X111084949Y-65532700D01*
X111084948Y-65532700D01*
X110949652Y-65532700D01*
X110949651Y-65532700D01*
X110819838Y-65570816D01*
X110706021Y-65643963D01*
X110706017Y-65643966D01*
X110617424Y-65746207D01*
X110617419Y-65746214D01*
X110561216Y-65869281D01*
X110541962Y-66003200D01*
X104417800Y-66003200D01*
X104417800Y-65200000D01*
X135091862Y-65200000D01*
X135111565Y-65400051D01*
X135111566Y-65400053D01*
X135169919Y-65592418D01*
X135252124Y-65746214D01*
X135264681Y-65769706D01*
X135392205Y-65925094D01*
X135547593Y-66052618D01*
X135547597Y-66052621D01*
X135724882Y-66147381D01*
X135917247Y-66205734D01*
X135917246Y-66205734D01*
X135936949Y-66207674D01*
X136117300Y-66225438D01*
X136317353Y-66205734D01*
X136509718Y-66147381D01*
X136687003Y-66052621D01*
X136842394Y-65925094D01*
X136969921Y-65769703D01*
X137064681Y-65592418D01*
X137123034Y-65400053D01*
X137142738Y-65200000D01*
X137123034Y-64999947D01*
X137064681Y-64807582D01*
X136969921Y-64630297D01*
X136919847Y-64569282D01*
X136842394Y-64474905D01*
X136687006Y-64347381D01*
X136687004Y-64347380D01*
X136687003Y-64347379D01*
X136509718Y-64252619D01*
X136317353Y-64194266D01*
X136317350Y-64194265D01*
X136317353Y-64194265D01*
X136135236Y-64176328D01*
X136117300Y-64174562D01*
X136117299Y-64174562D01*
X135917248Y-64194265D01*
X135724882Y-64252619D01*
X135547593Y-64347381D01*
X135392205Y-64474905D01*
X135264681Y-64630293D01*
X135169919Y-64807582D01*
X135111565Y-64999948D01*
X135091862Y-65200000D01*
X104417800Y-65200000D01*
X104417800Y-64703199D01*
X110541962Y-64703199D01*
X110561216Y-64837118D01*
X110617419Y-64960185D01*
X110617424Y-64960192D01*
X110651872Y-64999947D01*
X110706020Y-65062436D01*
X110819837Y-65135583D01*
X110884744Y-65154641D01*
X110949651Y-65173700D01*
X110949652Y-65173700D01*
X111084948Y-65173700D01*
X111214763Y-65135583D01*
X111328580Y-65062436D01*
X111417180Y-64960187D01*
X111473383Y-64837118D01*
X111492638Y-64703200D01*
X130641962Y-64703200D01*
X130661216Y-64837118D01*
X130717419Y-64960185D01*
X130717424Y-64960192D01*
X130751872Y-64999947D01*
X130806020Y-65062436D01*
X130919837Y-65135583D01*
X130984744Y-65154641D01*
X131049651Y-65173700D01*
X131049652Y-65173700D01*
X131184948Y-65173700D01*
X131314763Y-65135583D01*
X131428580Y-65062436D01*
X131517180Y-64960187D01*
X131573383Y-64837118D01*
X131592638Y-64703200D01*
X131573383Y-64569282D01*
X131517180Y-64446213D01*
X131428580Y-64343964D01*
X131314763Y-64270817D01*
X131314762Y-64270816D01*
X131314761Y-64270816D01*
X131184949Y-64232700D01*
X131184948Y-64232700D01*
X131049652Y-64232700D01*
X131049651Y-64232700D01*
X130919838Y-64270816D01*
X130806021Y-64343963D01*
X130806017Y-64343966D01*
X130717424Y-64446207D01*
X130717419Y-64446214D01*
X130661216Y-64569281D01*
X130641962Y-64703200D01*
X111492638Y-64703200D01*
X111473383Y-64569282D01*
X111417180Y-64446213D01*
X111328580Y-64343964D01*
X111214763Y-64270817D01*
X111214762Y-64270816D01*
X111214761Y-64270816D01*
X111084949Y-64232700D01*
X111084948Y-64232700D01*
X110949652Y-64232700D01*
X110949651Y-64232700D01*
X110819838Y-64270816D01*
X110706021Y-64343963D01*
X110706017Y-64343966D01*
X110617424Y-64446207D01*
X110617419Y-64446214D01*
X110561216Y-64569281D01*
X110541962Y-64703199D01*
X104417800Y-64703199D01*
X104417800Y-63403200D01*
X110541962Y-63403200D01*
X110561216Y-63537118D01*
X110617419Y-63660185D01*
X110617424Y-63660192D01*
X110704075Y-63760192D01*
X110706020Y-63762436D01*
X110819837Y-63835583D01*
X110884744Y-63854641D01*
X110949651Y-63873700D01*
X110949652Y-63873700D01*
X111084948Y-63873700D01*
X111214763Y-63835583D01*
X111328580Y-63762436D01*
X111417180Y-63660187D01*
X111473383Y-63537118D01*
X111478260Y-63503199D01*
X130641962Y-63503199D01*
X130661216Y-63637118D01*
X130717419Y-63760185D01*
X130717424Y-63760192D01*
X130782751Y-63835583D01*
X130806020Y-63862436D01*
X130919837Y-63935583D01*
X130984744Y-63954641D01*
X131049651Y-63973700D01*
X131049652Y-63973700D01*
X131184948Y-63973700D01*
X131314763Y-63935583D01*
X131428580Y-63862436D01*
X131517180Y-63760187D01*
X131573383Y-63637118D01*
X131592638Y-63503200D01*
X131576151Y-63388535D01*
X131573383Y-63369281D01*
X131527715Y-63269282D01*
X131517180Y-63246213D01*
X131517175Y-63246207D01*
X131428582Y-63143966D01*
X131428581Y-63143965D01*
X131428580Y-63143964D01*
X131314763Y-63070817D01*
X131314762Y-63070816D01*
X131314761Y-63070816D01*
X131184949Y-63032700D01*
X131184948Y-63032700D01*
X131049652Y-63032700D01*
X131049651Y-63032700D01*
X130919838Y-63070816D01*
X130806021Y-63143963D01*
X130806017Y-63143966D01*
X130717424Y-63246207D01*
X130717419Y-63246214D01*
X130661216Y-63369281D01*
X130641962Y-63503199D01*
X111478260Y-63503199D01*
X111492638Y-63403200D01*
X111473383Y-63269282D01*
X111462848Y-63246214D01*
X111417180Y-63146214D01*
X111417180Y-63146213D01*
X111415231Y-63143964D01*
X111328582Y-63043966D01*
X111328581Y-63043965D01*
X111328580Y-63043964D01*
X111214763Y-62970817D01*
X111214762Y-62970816D01*
X111214761Y-62970816D01*
X111084949Y-62932700D01*
X111084948Y-62932700D01*
X110949652Y-62932700D01*
X110949651Y-62932700D01*
X110819838Y-62970816D01*
X110706021Y-63043963D01*
X110706017Y-63043966D01*
X110617424Y-63146207D01*
X110617419Y-63146214D01*
X110561216Y-63269281D01*
X110541962Y-63403200D01*
X104417800Y-63403200D01*
X104417800Y-62203199D01*
X110541962Y-62203199D01*
X110561216Y-62337118D01*
X110617310Y-62459947D01*
X110617420Y-62460187D01*
X110706020Y-62562436D01*
X110819837Y-62635583D01*
X110884744Y-62654641D01*
X110949651Y-62673700D01*
X110949652Y-62673700D01*
X111084948Y-62673700D01*
X111214763Y-62635583D01*
X111328580Y-62562436D01*
X111417180Y-62460187D01*
X111473383Y-62337118D01*
X111492638Y-62203200D01*
X111473383Y-62069282D01*
X111458694Y-62037118D01*
X111417180Y-61946214D01*
X111417180Y-61946213D01*
X111417175Y-61946207D01*
X111377136Y-61900000D01*
X117024662Y-61900000D01*
X117043916Y-62033918D01*
X117069662Y-62090293D01*
X117100120Y-62156987D01*
X117188720Y-62259236D01*
X117302537Y-62332383D01*
X117367444Y-62351441D01*
X117432351Y-62370500D01*
X117432352Y-62370500D01*
X117567648Y-62370500D01*
X117697463Y-62332383D01*
X117811280Y-62259236D01*
X117899880Y-62156987D01*
X117956083Y-62033918D01*
X117974878Y-61903199D01*
X118441962Y-61903199D01*
X118461216Y-62037118D01*
X118517419Y-62160185D01*
X118517424Y-62160192D01*
X118603244Y-62259233D01*
X118606020Y-62262436D01*
X118719837Y-62335583D01*
X118784744Y-62354641D01*
X118849651Y-62373700D01*
X118849652Y-62373700D01*
X118984948Y-62373700D01*
X119114763Y-62335583D01*
X119228580Y-62262436D01*
X119317180Y-62160187D01*
X119373383Y-62037118D01*
X119392638Y-61903200D01*
X119392638Y-61903199D01*
X119841962Y-61903199D01*
X119861216Y-62037118D01*
X119917419Y-62160185D01*
X119917424Y-62160192D01*
X120003244Y-62259233D01*
X120006020Y-62262436D01*
X120119837Y-62335583D01*
X120184744Y-62354641D01*
X120249651Y-62373700D01*
X120249652Y-62373700D01*
X120384948Y-62373700D01*
X120514763Y-62335583D01*
X120628580Y-62262436D01*
X120717180Y-62160187D01*
X120773383Y-62037118D01*
X120792638Y-61903200D01*
X120792178Y-61900000D01*
X121224662Y-61900000D01*
X121243916Y-62033918D01*
X121269662Y-62090293D01*
X121300120Y-62156987D01*
X121388720Y-62259236D01*
X121502537Y-62332383D01*
X121567444Y-62351441D01*
X121632351Y-62370500D01*
X121632352Y-62370500D01*
X121767648Y-62370500D01*
X121897463Y-62332383D01*
X122011280Y-62259236D01*
X122059837Y-62203199D01*
X130641962Y-62203199D01*
X130661216Y-62337118D01*
X130717310Y-62459947D01*
X130717420Y-62460187D01*
X130806020Y-62562436D01*
X130919837Y-62635583D01*
X130984744Y-62654641D01*
X131049651Y-62673700D01*
X131049652Y-62673700D01*
X131184948Y-62673700D01*
X131231606Y-62660000D01*
X135091862Y-62660000D01*
X135111565Y-62860051D01*
X135111566Y-62860053D01*
X135169919Y-63052418D01*
X135220054Y-63146214D01*
X135264681Y-63229706D01*
X135392205Y-63385094D01*
X135547593Y-63512618D01*
X135547597Y-63512621D01*
X135724882Y-63607381D01*
X135917247Y-63665734D01*
X135917246Y-63665734D01*
X135936950Y-63667674D01*
X136117300Y-63685438D01*
X136317353Y-63665734D01*
X136509718Y-63607381D01*
X136687003Y-63512621D01*
X136842394Y-63385094D01*
X136969921Y-63229703D01*
X137064681Y-63052418D01*
X137123034Y-62860053D01*
X137142738Y-62660000D01*
X137123034Y-62459947D01*
X137064681Y-62267582D01*
X136969921Y-62090297D01*
X136969918Y-62090293D01*
X136842394Y-61934905D01*
X136687006Y-61807381D01*
X136687004Y-61807380D01*
X136687003Y-61807379D01*
X136509718Y-61712619D01*
X136317353Y-61654266D01*
X136317350Y-61654265D01*
X136317353Y-61654265D01*
X136117300Y-61634562D01*
X135917248Y-61654265D01*
X135724882Y-61712619D01*
X135547593Y-61807381D01*
X135392205Y-61934905D01*
X135264681Y-62090293D01*
X135169919Y-62267582D01*
X135111565Y-62459948D01*
X135091862Y-62660000D01*
X131231606Y-62660000D01*
X131314763Y-62635583D01*
X131428580Y-62562436D01*
X131517180Y-62460187D01*
X131573383Y-62337118D01*
X131592638Y-62203200D01*
X131573383Y-62069282D01*
X131558694Y-62037118D01*
X131517180Y-61946214D01*
X131517180Y-61946213D01*
X131517175Y-61946207D01*
X131428582Y-61843966D01*
X131428581Y-61843965D01*
X131428580Y-61843964D01*
X131314763Y-61770817D01*
X131314762Y-61770816D01*
X131314761Y-61770816D01*
X131184949Y-61732700D01*
X131184948Y-61732700D01*
X131049652Y-61732700D01*
X131049651Y-61732700D01*
X130919838Y-61770816D01*
X130806021Y-61843963D01*
X130806017Y-61843966D01*
X130717424Y-61946207D01*
X130717419Y-61946214D01*
X130661216Y-62069281D01*
X130641962Y-62203199D01*
X122059837Y-62203199D01*
X122099880Y-62156987D01*
X122156083Y-62033918D01*
X122175338Y-61900000D01*
X122156083Y-61766082D01*
X122099880Y-61643013D01*
X122011280Y-61540764D01*
X121897463Y-61467617D01*
X121897462Y-61467616D01*
X121897461Y-61467616D01*
X121767649Y-61429500D01*
X121767648Y-61429500D01*
X121632352Y-61429500D01*
X121632351Y-61429500D01*
X121502538Y-61467616D01*
X121388721Y-61540763D01*
X121388717Y-61540766D01*
X121300124Y-61643007D01*
X121300119Y-61643014D01*
X121243916Y-61766081D01*
X121224662Y-61900000D01*
X120792178Y-61900000D01*
X120773383Y-61769282D01*
X120771921Y-61766081D01*
X120745281Y-61707747D01*
X120717180Y-61646213D01*
X120628580Y-61543964D01*
X120514763Y-61470817D01*
X120514762Y-61470816D01*
X120514761Y-61470816D01*
X120384949Y-61432700D01*
X120384948Y-61432700D01*
X120249652Y-61432700D01*
X120249651Y-61432700D01*
X120119838Y-61470816D01*
X120006021Y-61543963D01*
X120006017Y-61543966D01*
X119917424Y-61646207D01*
X119917419Y-61646214D01*
X119861216Y-61769281D01*
X119841962Y-61903199D01*
X119392638Y-61903199D01*
X119373383Y-61769282D01*
X119371921Y-61766081D01*
X119345281Y-61707747D01*
X119317180Y-61646213D01*
X119228580Y-61543964D01*
X119114763Y-61470817D01*
X119114762Y-61470816D01*
X119114761Y-61470816D01*
X118984949Y-61432700D01*
X118984948Y-61432700D01*
X118849652Y-61432700D01*
X118849651Y-61432700D01*
X118719838Y-61470816D01*
X118606021Y-61543963D01*
X118606017Y-61543966D01*
X118517424Y-61646207D01*
X118517419Y-61646214D01*
X118461216Y-61769281D01*
X118441962Y-61903199D01*
X117974878Y-61903199D01*
X117975338Y-61900000D01*
X117956083Y-61766082D01*
X117899880Y-61643013D01*
X117811280Y-61540764D01*
X117697463Y-61467617D01*
X117697462Y-61467616D01*
X117697461Y-61467616D01*
X117567649Y-61429500D01*
X117567648Y-61429500D01*
X117432352Y-61429500D01*
X117432351Y-61429500D01*
X117302538Y-61467616D01*
X117188721Y-61540763D01*
X117188717Y-61540766D01*
X117100124Y-61643007D01*
X117100119Y-61643014D01*
X117043916Y-61766081D01*
X117024662Y-61900000D01*
X111377136Y-61900000D01*
X111328582Y-61843966D01*
X111328581Y-61843965D01*
X111328580Y-61843964D01*
X111214763Y-61770817D01*
X111214762Y-61770816D01*
X111214761Y-61770816D01*
X111084949Y-61732700D01*
X111084948Y-61732700D01*
X110949652Y-61732700D01*
X110949651Y-61732700D01*
X110819838Y-61770816D01*
X110706021Y-61843963D01*
X110706017Y-61843966D01*
X110617424Y-61946207D01*
X110617419Y-61946214D01*
X110561216Y-62069281D01*
X110541962Y-62203199D01*
X104417800Y-62203199D01*
X104417800Y-60903200D01*
X110541962Y-60903200D01*
X110561216Y-61037118D01*
X110617419Y-61160185D01*
X110617420Y-61160187D01*
X110706020Y-61262436D01*
X110819837Y-61335583D01*
X110884744Y-61354641D01*
X110949651Y-61373700D01*
X110949652Y-61373700D01*
X111084948Y-61373700D01*
X111214763Y-61335583D01*
X111328580Y-61262436D01*
X111417180Y-61160187D01*
X111473383Y-61037118D01*
X111492638Y-60903200D01*
X111473383Y-60769282D01*
X111417180Y-60646213D01*
X111328580Y-60543964D01*
X111265150Y-60503199D01*
X117041962Y-60503199D01*
X117061216Y-60637118D01*
X117117419Y-60760185D01*
X117117420Y-60760187D01*
X117206020Y-60862436D01*
X117319837Y-60935583D01*
X117384744Y-60954641D01*
X117449651Y-60973700D01*
X117449652Y-60973700D01*
X117584948Y-60973700D01*
X117714763Y-60935583D01*
X117828580Y-60862436D01*
X117917180Y-60760187D01*
X117973383Y-60637118D01*
X117992638Y-60503200D01*
X118441962Y-60503200D01*
X118461216Y-60637118D01*
X118517419Y-60760185D01*
X118517420Y-60760187D01*
X118606020Y-60862436D01*
X118719837Y-60935583D01*
X118784744Y-60954641D01*
X118849651Y-60973700D01*
X118849652Y-60973700D01*
X118984948Y-60973700D01*
X119114763Y-60935583D01*
X119228580Y-60862436D01*
X119317180Y-60760187D01*
X119373383Y-60637118D01*
X119392638Y-60503200D01*
X119841962Y-60503200D01*
X119861216Y-60637118D01*
X119917419Y-60760185D01*
X119917420Y-60760187D01*
X120006020Y-60862436D01*
X120119837Y-60935583D01*
X120184744Y-60954641D01*
X120249651Y-60973700D01*
X120249652Y-60973700D01*
X120384948Y-60973700D01*
X120514763Y-60935583D01*
X120628580Y-60862436D01*
X120717180Y-60760187D01*
X120773383Y-60637118D01*
X120792638Y-60503200D01*
X120792638Y-60503199D01*
X121241962Y-60503199D01*
X121261216Y-60637118D01*
X121317419Y-60760185D01*
X121317420Y-60760187D01*
X121406020Y-60862436D01*
X121519837Y-60935583D01*
X121584744Y-60954641D01*
X121649651Y-60973700D01*
X121649652Y-60973700D01*
X121784948Y-60973700D01*
X121914763Y-60935583D01*
X121965153Y-60903199D01*
X130641962Y-60903199D01*
X130661216Y-61037118D01*
X130717419Y-61160185D01*
X130717420Y-61160187D01*
X130806020Y-61262436D01*
X130919837Y-61335583D01*
X130984744Y-61354641D01*
X131049651Y-61373700D01*
X131049652Y-61373700D01*
X131184948Y-61373700D01*
X131314763Y-61335583D01*
X131428580Y-61262436D01*
X131517180Y-61160187D01*
X131573383Y-61037118D01*
X131592638Y-60903200D01*
X131573383Y-60769282D01*
X131517180Y-60646213D01*
X131428580Y-60543964D01*
X131314763Y-60470817D01*
X131314762Y-60470816D01*
X131314761Y-60470816D01*
X131184949Y-60432700D01*
X131184948Y-60432700D01*
X131049652Y-60432700D01*
X131049651Y-60432700D01*
X130919838Y-60470816D01*
X130806021Y-60543963D01*
X130806017Y-60543966D01*
X130717424Y-60646207D01*
X130717419Y-60646214D01*
X130661216Y-60769281D01*
X130641962Y-60903199D01*
X121965153Y-60903199D01*
X122028580Y-60862436D01*
X122117180Y-60760187D01*
X122173383Y-60637118D01*
X122192638Y-60503200D01*
X122173383Y-60369282D01*
X122150877Y-60320000D01*
X135153872Y-60320000D01*
X135207518Y-60496848D01*
X135298513Y-60667087D01*
X135298517Y-60667093D01*
X135420981Y-60816318D01*
X135570206Y-60938782D01*
X135570212Y-60938786D01*
X135740448Y-61029779D01*
X135740451Y-61029780D01*
X135917300Y-61083426D01*
X135917300Y-60578335D01*
X135974985Y-60604680D01*
X136081537Y-60620000D01*
X136153063Y-60620000D01*
X136259615Y-60604680D01*
X136317300Y-60578335D01*
X136317300Y-61083426D01*
X136494148Y-61029780D01*
X136494151Y-61029779D01*
X136664387Y-60938786D01*
X136664393Y-60938782D01*
X136813618Y-60816318D01*
X136936082Y-60667093D01*
X136936086Y-60667087D01*
X137027081Y-60496848D01*
X137080727Y-60320000D01*
X136579683Y-60320000D01*
X136617300Y-60191889D01*
X136617300Y-60048111D01*
X136579683Y-59920000D01*
X137080727Y-59920000D01*
X137080727Y-59919999D01*
X137027081Y-59743151D01*
X136936086Y-59572912D01*
X136936082Y-59572906D01*
X136813618Y-59423681D01*
X136664393Y-59301217D01*
X136664387Y-59301213D01*
X136494148Y-59210218D01*
X136317300Y-59156572D01*
X136317300Y-59661664D01*
X136259615Y-59635320D01*
X136153063Y-59620000D01*
X136081537Y-59620000D01*
X135974985Y-59635320D01*
X135917300Y-59661664D01*
X135917300Y-59156572D01*
X135917299Y-59156572D01*
X135740451Y-59210218D01*
X135570212Y-59301213D01*
X135570206Y-59301217D01*
X135420981Y-59423681D01*
X135298517Y-59572906D01*
X135298513Y-59572912D01*
X135207518Y-59743151D01*
X135153872Y-59919999D01*
X135153873Y-59920000D01*
X135654917Y-59920000D01*
X135617300Y-60048111D01*
X135617300Y-60191889D01*
X135654917Y-60320000D01*
X135153872Y-60320000D01*
X122150877Y-60320000D01*
X122117180Y-60246213D01*
X122028580Y-60143964D01*
X121914763Y-60070817D01*
X121914762Y-60070816D01*
X121914761Y-60070816D01*
X121784949Y-60032700D01*
X121784948Y-60032700D01*
X121649652Y-60032700D01*
X121649651Y-60032700D01*
X121519838Y-60070816D01*
X121406021Y-60143963D01*
X121406017Y-60143966D01*
X121317424Y-60246207D01*
X121317419Y-60246214D01*
X121261216Y-60369281D01*
X121241962Y-60503199D01*
X120792638Y-60503199D01*
X120773383Y-60369282D01*
X120717180Y-60246213D01*
X120628580Y-60143964D01*
X120514763Y-60070817D01*
X120514762Y-60070816D01*
X120514761Y-60070816D01*
X120384949Y-60032700D01*
X120384948Y-60032700D01*
X120249652Y-60032700D01*
X120249651Y-60032700D01*
X120119838Y-60070816D01*
X120006021Y-60143963D01*
X120006017Y-60143966D01*
X119917424Y-60246207D01*
X119917419Y-60246214D01*
X119861216Y-60369281D01*
X119841962Y-60503200D01*
X119392638Y-60503200D01*
X119373383Y-60369282D01*
X119317180Y-60246213D01*
X119228580Y-60143964D01*
X119114763Y-60070817D01*
X119114762Y-60070816D01*
X119114761Y-60070816D01*
X118984949Y-60032700D01*
X118984948Y-60032700D01*
X118849652Y-60032700D01*
X118849651Y-60032700D01*
X118719838Y-60070816D01*
X118606021Y-60143963D01*
X118606017Y-60143966D01*
X118517424Y-60246207D01*
X118517419Y-60246214D01*
X118461216Y-60369281D01*
X118441962Y-60503200D01*
X117992638Y-60503200D01*
X117973383Y-60369282D01*
X117917180Y-60246213D01*
X117828580Y-60143964D01*
X117714763Y-60070817D01*
X117714762Y-60070816D01*
X117714761Y-60070816D01*
X117584949Y-60032700D01*
X117584948Y-60032700D01*
X117449652Y-60032700D01*
X117449651Y-60032700D01*
X117319838Y-60070816D01*
X117206021Y-60143963D01*
X117206017Y-60143966D01*
X117117424Y-60246207D01*
X117117419Y-60246214D01*
X117061216Y-60369281D01*
X117041962Y-60503199D01*
X111265150Y-60503199D01*
X111214763Y-60470817D01*
X111214762Y-60470816D01*
X111214761Y-60470816D01*
X111084949Y-60432700D01*
X111084948Y-60432700D01*
X110949652Y-60432700D01*
X110949651Y-60432700D01*
X110819838Y-60470816D01*
X110706021Y-60543963D01*
X110706017Y-60543966D01*
X110617424Y-60646207D01*
X110617419Y-60646214D01*
X110561216Y-60769281D01*
X110541962Y-60903200D01*
X104417800Y-60903200D01*
X104417800Y-59603200D01*
X110541962Y-59603200D01*
X110561216Y-59737118D01*
X110617419Y-59860185D01*
X110617424Y-59860192D01*
X110704075Y-59960192D01*
X110706020Y-59962436D01*
X110819837Y-60035583D01*
X110862504Y-60048111D01*
X110949651Y-60073700D01*
X110949652Y-60073700D01*
X111084948Y-60073700D01*
X111214763Y-60035583D01*
X111328580Y-59962436D01*
X111417180Y-59860187D01*
X111473383Y-59737118D01*
X111478260Y-59703199D01*
X130641962Y-59703199D01*
X130661216Y-59837118D01*
X130717419Y-59960185D01*
X130717424Y-59960192D01*
X130782751Y-60035583D01*
X130806020Y-60062436D01*
X130919837Y-60135583D01*
X130984744Y-60154641D01*
X131049651Y-60173700D01*
X131049652Y-60173700D01*
X131184948Y-60173700D01*
X131314763Y-60135583D01*
X131428580Y-60062436D01*
X131517180Y-59960187D01*
X131573383Y-59837118D01*
X131592638Y-59703200D01*
X131573383Y-59569282D01*
X131557993Y-59535583D01*
X131527715Y-59469282D01*
X131517180Y-59446213D01*
X131442642Y-59360192D01*
X131428582Y-59343966D01*
X131428581Y-59343965D01*
X131428580Y-59343964D01*
X131314763Y-59270817D01*
X131314762Y-59270816D01*
X131314761Y-59270816D01*
X131184949Y-59232700D01*
X131184948Y-59232700D01*
X131049652Y-59232700D01*
X131049651Y-59232700D01*
X130919838Y-59270816D01*
X130806021Y-59343963D01*
X130806017Y-59343966D01*
X130717424Y-59446207D01*
X130717419Y-59446214D01*
X130661216Y-59569281D01*
X130641962Y-59703199D01*
X111478260Y-59703199D01*
X111492638Y-59603200D01*
X111473383Y-59469282D01*
X111470255Y-59462433D01*
X111423564Y-59360192D01*
X111417180Y-59346213D01*
X111415231Y-59343964D01*
X111328582Y-59243966D01*
X111328581Y-59243965D01*
X111328580Y-59243964D01*
X111214763Y-59170817D01*
X111214762Y-59170816D01*
X111214761Y-59170816D01*
X111084949Y-59132700D01*
X111084948Y-59132700D01*
X110949652Y-59132700D01*
X110949651Y-59132700D01*
X110819838Y-59170816D01*
X110706021Y-59243963D01*
X110706017Y-59243966D01*
X110617424Y-59346207D01*
X110617419Y-59346214D01*
X110561216Y-59469281D01*
X110541962Y-59603200D01*
X104417800Y-59603200D01*
X104417800Y-59103200D01*
X117041962Y-59103200D01*
X117061216Y-59237118D01*
X117117419Y-59360185D01*
X117117424Y-59360192D01*
X117191962Y-59446213D01*
X117206020Y-59462436D01*
X117319837Y-59535583D01*
X117384744Y-59554641D01*
X117449651Y-59573700D01*
X117449652Y-59573700D01*
X117584948Y-59573700D01*
X117714763Y-59535583D01*
X117828580Y-59462436D01*
X117917180Y-59360187D01*
X117973383Y-59237118D01*
X117992638Y-59103200D01*
X118441962Y-59103200D01*
X118461216Y-59237118D01*
X118517419Y-59360185D01*
X118517424Y-59360192D01*
X118591962Y-59446213D01*
X118606020Y-59462436D01*
X118719837Y-59535583D01*
X118784744Y-59554641D01*
X118849651Y-59573700D01*
X118849652Y-59573700D01*
X118984948Y-59573700D01*
X119114763Y-59535583D01*
X119228580Y-59462436D01*
X119317180Y-59360187D01*
X119373383Y-59237118D01*
X119392638Y-59103200D01*
X119841962Y-59103200D01*
X119861216Y-59237118D01*
X119917419Y-59360185D01*
X119917424Y-59360192D01*
X119991962Y-59446213D01*
X120006020Y-59462436D01*
X120119837Y-59535583D01*
X120184744Y-59554641D01*
X120249651Y-59573700D01*
X120249652Y-59573700D01*
X120384948Y-59573700D01*
X120514763Y-59535583D01*
X120628580Y-59462436D01*
X120717180Y-59360187D01*
X120773383Y-59237118D01*
X120792638Y-59103200D01*
X121241962Y-59103200D01*
X121261216Y-59237118D01*
X121317419Y-59360185D01*
X121317424Y-59360192D01*
X121391962Y-59446213D01*
X121406020Y-59462436D01*
X121519837Y-59535583D01*
X121584744Y-59554641D01*
X121649651Y-59573700D01*
X121649652Y-59573700D01*
X121784948Y-59573700D01*
X121914763Y-59535583D01*
X122028580Y-59462436D01*
X122117180Y-59360187D01*
X122173383Y-59237118D01*
X122192638Y-59103200D01*
X122173383Y-58969282D01*
X122117180Y-58846213D01*
X122028580Y-58743964D01*
X121914763Y-58670817D01*
X121914762Y-58670816D01*
X121914761Y-58670816D01*
X121784949Y-58632700D01*
X121784948Y-58632700D01*
X121649652Y-58632700D01*
X121649651Y-58632700D01*
X121519838Y-58670816D01*
X121406021Y-58743963D01*
X121406017Y-58743966D01*
X121317424Y-58846207D01*
X121317419Y-58846214D01*
X121261216Y-58969281D01*
X121241962Y-59103200D01*
X120792638Y-59103200D01*
X120773383Y-58969282D01*
X120717180Y-58846213D01*
X120628580Y-58743964D01*
X120514763Y-58670817D01*
X120514762Y-58670816D01*
X120514761Y-58670816D01*
X120384949Y-58632700D01*
X120384948Y-58632700D01*
X120249652Y-58632700D01*
X120249651Y-58632700D01*
X120119838Y-58670816D01*
X120006021Y-58743963D01*
X120006017Y-58743966D01*
X119917424Y-58846207D01*
X119917419Y-58846214D01*
X119861216Y-58969281D01*
X119841962Y-59103200D01*
X119392638Y-59103200D01*
X119373383Y-58969282D01*
X119317180Y-58846213D01*
X119228580Y-58743964D01*
X119114763Y-58670817D01*
X119114762Y-58670816D01*
X119114761Y-58670816D01*
X118984949Y-58632700D01*
X118984948Y-58632700D01*
X118849652Y-58632700D01*
X118849651Y-58632700D01*
X118719838Y-58670816D01*
X118606021Y-58743963D01*
X118606017Y-58743966D01*
X118517424Y-58846207D01*
X118517419Y-58846214D01*
X118461216Y-58969281D01*
X118441962Y-59103200D01*
X117992638Y-59103200D01*
X117973383Y-58969282D01*
X117917180Y-58846213D01*
X117828580Y-58743964D01*
X117714763Y-58670817D01*
X117714762Y-58670816D01*
X117714761Y-58670816D01*
X117584949Y-58632700D01*
X117584948Y-58632700D01*
X117449652Y-58632700D01*
X117449651Y-58632700D01*
X117319838Y-58670816D01*
X117206021Y-58743963D01*
X117206017Y-58743966D01*
X117117424Y-58846207D01*
X117117419Y-58846214D01*
X117061216Y-58969281D01*
X117041962Y-59103200D01*
X104417800Y-59103200D01*
X104417800Y-58403199D01*
X110541962Y-58403199D01*
X110561216Y-58537118D01*
X110617419Y-58660185D01*
X110617424Y-58660192D01*
X110690015Y-58743966D01*
X110706020Y-58762436D01*
X110819837Y-58835583D01*
X110856040Y-58846213D01*
X110949651Y-58873700D01*
X110949652Y-58873700D01*
X111084948Y-58873700D01*
X111214763Y-58835583D01*
X111328580Y-58762436D01*
X111417180Y-58660187D01*
X111473383Y-58537118D01*
X111492638Y-58403200D01*
X130641962Y-58403200D01*
X130661216Y-58537118D01*
X130717419Y-58660185D01*
X130717424Y-58660192D01*
X130790015Y-58743966D01*
X130806020Y-58762436D01*
X130919837Y-58835583D01*
X130956040Y-58846213D01*
X131049651Y-58873700D01*
X131049652Y-58873700D01*
X131184948Y-58873700D01*
X131314763Y-58835583D01*
X131428580Y-58762436D01*
X131517180Y-58660187D01*
X131573383Y-58537118D01*
X131592638Y-58403200D01*
X131573383Y-58269282D01*
X131517180Y-58146213D01*
X131428580Y-58043964D01*
X131314763Y-57970817D01*
X131314762Y-57970816D01*
X131314761Y-57970816D01*
X131184949Y-57932700D01*
X131184948Y-57932700D01*
X131049652Y-57932700D01*
X131049651Y-57932700D01*
X130919838Y-57970816D01*
X130806021Y-58043963D01*
X130806017Y-58043966D01*
X130717424Y-58146207D01*
X130717419Y-58146214D01*
X130661216Y-58269281D01*
X130641962Y-58403200D01*
X111492638Y-58403200D01*
X111473383Y-58269282D01*
X111417180Y-58146213D01*
X111328580Y-58043964D01*
X111214763Y-57970817D01*
X111214762Y-57970816D01*
X111214761Y-57970816D01*
X111084949Y-57932700D01*
X111084948Y-57932700D01*
X110949652Y-57932700D01*
X110949651Y-57932700D01*
X110819838Y-57970816D01*
X110706021Y-58043963D01*
X110706017Y-58043966D01*
X110617424Y-58146207D01*
X110617419Y-58146214D01*
X110561216Y-58269281D01*
X110541962Y-58403199D01*
X104417800Y-58403199D01*
X104417800Y-57600000D01*
X116924662Y-57600000D01*
X116943916Y-57733918D01*
X117000119Y-57856985D01*
X117000120Y-57856987D01*
X117088720Y-57959236D01*
X117202537Y-58032383D01*
X117267444Y-58051441D01*
X117332351Y-58070500D01*
X117332352Y-58070500D01*
X117467648Y-58070500D01*
X117597463Y-58032383D01*
X117711280Y-57959236D01*
X117799880Y-57856987D01*
X117856083Y-57733918D01*
X117874878Y-57603200D01*
X118441962Y-57603200D01*
X118461216Y-57737118D01*
X118517419Y-57860185D01*
X118517424Y-57860192D01*
X118603244Y-57959233D01*
X118606020Y-57962436D01*
X118719837Y-58035583D01*
X118784744Y-58054641D01*
X118849651Y-58073700D01*
X118849652Y-58073700D01*
X118984948Y-58073700D01*
X119114763Y-58035583D01*
X119228580Y-57962436D01*
X119317180Y-57860187D01*
X119373383Y-57737118D01*
X119392638Y-57603200D01*
X119392638Y-57603199D01*
X119841962Y-57603199D01*
X119861216Y-57737118D01*
X119917419Y-57860185D01*
X119917424Y-57860192D01*
X120003244Y-57959233D01*
X120006020Y-57962436D01*
X120119837Y-58035583D01*
X120184744Y-58054641D01*
X120249651Y-58073700D01*
X120249652Y-58073700D01*
X120384948Y-58073700D01*
X120514763Y-58035583D01*
X120628580Y-57962436D01*
X120717180Y-57860187D01*
X120773383Y-57737118D01*
X120792638Y-57603200D01*
X120792178Y-57600000D01*
X121324662Y-57600000D01*
X121343916Y-57733918D01*
X121400119Y-57856985D01*
X121400120Y-57856987D01*
X121488720Y-57959236D01*
X121602537Y-58032383D01*
X121667444Y-58051441D01*
X121732351Y-58070500D01*
X121732352Y-58070500D01*
X121867648Y-58070500D01*
X121997463Y-58032383D01*
X122111280Y-57959236D01*
X122199880Y-57856987D01*
X122256083Y-57733918D01*
X122275338Y-57600000D01*
X122272462Y-57580000D01*
X135091862Y-57580000D01*
X135111565Y-57780051D01*
X135134905Y-57856992D01*
X135169919Y-57972418D01*
X135264679Y-58149703D01*
X135264681Y-58149706D01*
X135392205Y-58305094D01*
X135547593Y-58432618D01*
X135547597Y-58432621D01*
X135724882Y-58527381D01*
X135917247Y-58585734D01*
X135917246Y-58585734D01*
X135935183Y-58587500D01*
X136117300Y-58605438D01*
X136317353Y-58585734D01*
X136509718Y-58527381D01*
X136687003Y-58432621D01*
X136842394Y-58305094D01*
X136969921Y-58149703D01*
X137064681Y-57972418D01*
X137123034Y-57780053D01*
X137142738Y-57580000D01*
X137123034Y-57379947D01*
X137064681Y-57187582D01*
X136969921Y-57010297D01*
X136855778Y-56871214D01*
X136842394Y-56854905D01*
X136687006Y-56727381D01*
X136687004Y-56727380D01*
X136687003Y-56727379D01*
X136509718Y-56632619D01*
X136317353Y-56574266D01*
X136317350Y-56574265D01*
X136317353Y-56574265D01*
X136135236Y-56556328D01*
X136117300Y-56554562D01*
X136117299Y-56554562D01*
X135917248Y-56574265D01*
X135724882Y-56632619D01*
X135547593Y-56727381D01*
X135392205Y-56854905D01*
X135264681Y-57010293D01*
X135169919Y-57187582D01*
X135111565Y-57379948D01*
X135091862Y-57580000D01*
X122272462Y-57580000D01*
X122256083Y-57466082D01*
X122199880Y-57343013D01*
X122111280Y-57240764D01*
X121997463Y-57167617D01*
X121997462Y-57167616D01*
X121997461Y-57167616D01*
X121867649Y-57129500D01*
X121867648Y-57129500D01*
X121732352Y-57129500D01*
X121732351Y-57129500D01*
X121602538Y-57167616D01*
X121488721Y-57240763D01*
X121488717Y-57240766D01*
X121400124Y-57343007D01*
X121400119Y-57343014D01*
X121343916Y-57466081D01*
X121324662Y-57600000D01*
X120792178Y-57600000D01*
X120773383Y-57469282D01*
X120771921Y-57466081D01*
X120734981Y-57385192D01*
X120717180Y-57346213D01*
X120628580Y-57243964D01*
X120514763Y-57170817D01*
X120514762Y-57170816D01*
X120514761Y-57170816D01*
X120384949Y-57132700D01*
X120384948Y-57132700D01*
X120249652Y-57132700D01*
X120249651Y-57132700D01*
X120119838Y-57170816D01*
X120006021Y-57243963D01*
X120006017Y-57243966D01*
X119917424Y-57346207D01*
X119917419Y-57346214D01*
X119861216Y-57469281D01*
X119841962Y-57603199D01*
X119392638Y-57603199D01*
X119373383Y-57469282D01*
X119371921Y-57466081D01*
X119334981Y-57385192D01*
X119317180Y-57346213D01*
X119228580Y-57243964D01*
X119114763Y-57170817D01*
X119114762Y-57170816D01*
X119114761Y-57170816D01*
X118984949Y-57132700D01*
X118984948Y-57132700D01*
X118849652Y-57132700D01*
X118849651Y-57132700D01*
X118719838Y-57170816D01*
X118606021Y-57243963D01*
X118606017Y-57243966D01*
X118517424Y-57346207D01*
X118517419Y-57346214D01*
X118461216Y-57469281D01*
X118441962Y-57603200D01*
X117874878Y-57603200D01*
X117875338Y-57600000D01*
X117856083Y-57466082D01*
X117799880Y-57343013D01*
X117711280Y-57240764D01*
X117597463Y-57167617D01*
X117597462Y-57167616D01*
X117597461Y-57167616D01*
X117467649Y-57129500D01*
X117467648Y-57129500D01*
X117332352Y-57129500D01*
X117332351Y-57129500D01*
X117202538Y-57167616D01*
X117088721Y-57240763D01*
X117088717Y-57240766D01*
X117000124Y-57343007D01*
X117000119Y-57343014D01*
X116943916Y-57466081D01*
X116924662Y-57600000D01*
X104417800Y-57600000D01*
X104417800Y-57128199D01*
X104716962Y-57128199D01*
X104736216Y-57262118D01*
X104792419Y-57385185D01*
X104792424Y-57385192D01*
X104862515Y-57466081D01*
X104881020Y-57487436D01*
X104994837Y-57560583D01*
X105039510Y-57573700D01*
X105124651Y-57598700D01*
X105124652Y-57598700D01*
X105259948Y-57598700D01*
X105389763Y-57560583D01*
X105503580Y-57487436D01*
X105592180Y-57385187D01*
X105648383Y-57262118D01*
X105667638Y-57128200D01*
X105664043Y-57103199D01*
X106541962Y-57103199D01*
X106561216Y-57237118D01*
X106617419Y-57360185D01*
X106617424Y-57360192D01*
X106639082Y-57385187D01*
X106706020Y-57462436D01*
X106819837Y-57535583D01*
X106884744Y-57554641D01*
X106949651Y-57573700D01*
X106949652Y-57573700D01*
X107084948Y-57573700D01*
X107214763Y-57535583D01*
X107328580Y-57462436D01*
X107417180Y-57360187D01*
X107473383Y-57237118D01*
X107492638Y-57103200D01*
X110541962Y-57103200D01*
X110561216Y-57237118D01*
X110617419Y-57360185D01*
X110617424Y-57360192D01*
X110639082Y-57385187D01*
X110706020Y-57462436D01*
X110819837Y-57535583D01*
X110884744Y-57554641D01*
X110949651Y-57573700D01*
X110949652Y-57573700D01*
X111084948Y-57573700D01*
X111214763Y-57535583D01*
X111328580Y-57462436D01*
X111417180Y-57360187D01*
X111473383Y-57237118D01*
X111492638Y-57103200D01*
X111473383Y-56969282D01*
X111417180Y-56846213D01*
X111328580Y-56743964D01*
X111214763Y-56670817D01*
X111214762Y-56670816D01*
X111214761Y-56670816D01*
X111084949Y-56632700D01*
X111084948Y-56632700D01*
X110949652Y-56632700D01*
X110949651Y-56632700D01*
X110819838Y-56670816D01*
X110706021Y-56743963D01*
X110706017Y-56743966D01*
X110617424Y-56846207D01*
X110617419Y-56846214D01*
X110561216Y-56969281D01*
X110541962Y-57103200D01*
X107492638Y-57103200D01*
X107473383Y-56969282D01*
X107417180Y-56846213D01*
X107328580Y-56743964D01*
X107214763Y-56670817D01*
X107214762Y-56670816D01*
X107214761Y-56670816D01*
X107084949Y-56632700D01*
X107084948Y-56632700D01*
X106949652Y-56632700D01*
X106949651Y-56632700D01*
X106819838Y-56670816D01*
X106706021Y-56743963D01*
X106706017Y-56743966D01*
X106617424Y-56846207D01*
X106617419Y-56846214D01*
X106561216Y-56969281D01*
X106541962Y-57103199D01*
X105664043Y-57103199D01*
X105648383Y-56994282D01*
X105592180Y-56871213D01*
X105503580Y-56768964D01*
X105389763Y-56695817D01*
X105389762Y-56695816D01*
X105389761Y-56695816D01*
X105259949Y-56657700D01*
X105259948Y-56657700D01*
X105124652Y-56657700D01*
X105124651Y-56657700D01*
X104994838Y-56695816D01*
X104881021Y-56768963D01*
X104881017Y-56768966D01*
X104792424Y-56871207D01*
X104792419Y-56871214D01*
X104736216Y-56994281D01*
X104716962Y-57128199D01*
X104417800Y-57128199D01*
X104417800Y-55803199D01*
X110541962Y-55803199D01*
X110561216Y-55937118D01*
X110617419Y-56060185D01*
X110617424Y-56060192D01*
X110704075Y-56160192D01*
X110706020Y-56162436D01*
X110819837Y-56235583D01*
X110884744Y-56254641D01*
X110949651Y-56273700D01*
X110949652Y-56273700D01*
X111084948Y-56273700D01*
X111214763Y-56235583D01*
X111328580Y-56162436D01*
X111417180Y-56060187D01*
X111473383Y-55937118D01*
X111478260Y-55903200D01*
X130641962Y-55903200D01*
X130661216Y-56037118D01*
X130717419Y-56160185D01*
X130717424Y-56160192D01*
X130782751Y-56235583D01*
X130806020Y-56262436D01*
X130919837Y-56335583D01*
X130984744Y-56354641D01*
X131049651Y-56373700D01*
X131049652Y-56373700D01*
X131184948Y-56373700D01*
X131314763Y-56335583D01*
X131428580Y-56262436D01*
X131517180Y-56160187D01*
X131573383Y-56037118D01*
X131592638Y-55903200D01*
X131573383Y-55769282D01*
X131571470Y-55765094D01*
X131527715Y-55669282D01*
X131517180Y-55646213D01*
X131428580Y-55543964D01*
X131314763Y-55470817D01*
X131314762Y-55470816D01*
X131314761Y-55470816D01*
X131184949Y-55432700D01*
X131184948Y-55432700D01*
X131049652Y-55432700D01*
X131049651Y-55432700D01*
X130919838Y-55470816D01*
X130806021Y-55543963D01*
X130806017Y-55543966D01*
X130717424Y-55646207D01*
X130717419Y-55646214D01*
X130661216Y-55769281D01*
X130641962Y-55903200D01*
X111478260Y-55903200D01*
X111492638Y-55803200D01*
X111473383Y-55669282D01*
X111462848Y-55646214D01*
X111417180Y-55546214D01*
X111417180Y-55546213D01*
X111415231Y-55543964D01*
X111328582Y-55443966D01*
X111328581Y-55443965D01*
X111328580Y-55443964D01*
X111214763Y-55370817D01*
X111214762Y-55370816D01*
X111214761Y-55370816D01*
X111084949Y-55332700D01*
X111084948Y-55332700D01*
X110949652Y-55332700D01*
X110949651Y-55332700D01*
X110819838Y-55370816D01*
X110706021Y-55443963D01*
X110706017Y-55443966D01*
X110617424Y-55546207D01*
X110617419Y-55546214D01*
X110561216Y-55669281D01*
X110541962Y-55803199D01*
X104417800Y-55803199D01*
X104417800Y-54603200D01*
X130641962Y-54603200D01*
X130661216Y-54737118D01*
X130708177Y-54839947D01*
X130717420Y-54860187D01*
X130806020Y-54962436D01*
X130919837Y-55035583D01*
X130984744Y-55054641D01*
X131049651Y-55073700D01*
X131049652Y-55073700D01*
X131184948Y-55073700D01*
X131299720Y-55040000D01*
X135091862Y-55040000D01*
X135111565Y-55240051D01*
X135111566Y-55240053D01*
X135169919Y-55432418D01*
X135230744Y-55546214D01*
X135264681Y-55609706D01*
X135392205Y-55765094D01*
X135547593Y-55892618D01*
X135547597Y-55892621D01*
X135724882Y-55987381D01*
X135917247Y-56045734D01*
X135917246Y-56045734D01*
X135935183Y-56047500D01*
X136117300Y-56065438D01*
X136317353Y-56045734D01*
X136509718Y-55987381D01*
X136687003Y-55892621D01*
X136842394Y-55765094D01*
X136969921Y-55609703D01*
X137064681Y-55432418D01*
X137123034Y-55240053D01*
X137142738Y-55040000D01*
X137123034Y-54839947D01*
X137064681Y-54647582D01*
X136969921Y-54470297D01*
X136969087Y-54469281D01*
X136842394Y-54314905D01*
X136687006Y-54187381D01*
X136687004Y-54187380D01*
X136687003Y-54187379D01*
X136509718Y-54092619D01*
X136317353Y-54034266D01*
X136317350Y-54034265D01*
X136317353Y-54034265D01*
X136135236Y-54016328D01*
X136117300Y-54014562D01*
X136117299Y-54014562D01*
X135917248Y-54034265D01*
X135724882Y-54092619D01*
X135547593Y-54187381D01*
X135392205Y-54314905D01*
X135264681Y-54470293D01*
X135169919Y-54647582D01*
X135111565Y-54839948D01*
X135091862Y-55040000D01*
X131299720Y-55040000D01*
X131314763Y-55035583D01*
X131428580Y-54962436D01*
X131517180Y-54860187D01*
X131573383Y-54737118D01*
X131592638Y-54603200D01*
X131573383Y-54469282D01*
X131517180Y-54346213D01*
X131428580Y-54243964D01*
X131314763Y-54170817D01*
X131314762Y-54170816D01*
X131314761Y-54170816D01*
X131184949Y-54132700D01*
X131184948Y-54132700D01*
X131049652Y-54132700D01*
X131049651Y-54132700D01*
X130919838Y-54170816D01*
X130806021Y-54243963D01*
X130806017Y-54243966D01*
X130717424Y-54346207D01*
X130717419Y-54346214D01*
X130661216Y-54469281D01*
X130641962Y-54603200D01*
X104417800Y-54603200D01*
X104417800Y-53303199D01*
X130641962Y-53303199D01*
X130661216Y-53437118D01*
X130717419Y-53560185D01*
X130717420Y-53560187D01*
X130806020Y-53662436D01*
X130919837Y-53735583D01*
X130984744Y-53754641D01*
X131049651Y-53773700D01*
X131049652Y-53773700D01*
X131184948Y-53773700D01*
X131314763Y-53735583D01*
X131428580Y-53662436D01*
X131517180Y-53560187D01*
X131573383Y-53437118D01*
X131583495Y-53366788D01*
X135096800Y-53366788D01*
X135106693Y-53416526D01*
X135144376Y-53472923D01*
X135200774Y-53510607D01*
X135200775Y-53510608D01*
X135240397Y-53518488D01*
X135250509Y-53520500D01*
X136984090Y-53520499D01*
X137033826Y-53510607D01*
X137090223Y-53472923D01*
X137127907Y-53416526D01*
X137127907Y-53416524D01*
X137127908Y-53416524D01*
X137137799Y-53366795D01*
X137137800Y-53366791D01*
X137137799Y-51633210D01*
X137127907Y-51583474D01*
X137110685Y-51557700D01*
X137090223Y-51527076D01*
X137033825Y-51489392D01*
X137033824Y-51489391D01*
X136984094Y-51479500D01*
X135250511Y-51479500D01*
X135200773Y-51489393D01*
X135144376Y-51527076D01*
X135106692Y-51583474D01*
X135106691Y-51583475D01*
X135096800Y-51633204D01*
X135096800Y-53366788D01*
X131583495Y-53366788D01*
X131592638Y-53303200D01*
X131573383Y-53169282D01*
X131517180Y-53046213D01*
X131428580Y-52943964D01*
X131314763Y-52870817D01*
X131314762Y-52870816D01*
X131314761Y-52870816D01*
X131184949Y-52832700D01*
X131184948Y-52832700D01*
X131049652Y-52832700D01*
X131049651Y-52832700D01*
X130919838Y-52870816D01*
X130806021Y-52943963D01*
X130806017Y-52943966D01*
X130717424Y-53046207D01*
X130717419Y-53046214D01*
X130661216Y-53169281D01*
X130641962Y-53303199D01*
X104417800Y-53303199D01*
X104417800Y-52153200D01*
X106741962Y-52153200D01*
X106761216Y-52287118D01*
X106817419Y-52410185D01*
X106817424Y-52410192D01*
X106894117Y-52498700D01*
X106906020Y-52512436D01*
X107019837Y-52585583D01*
X107084744Y-52604641D01*
X107149651Y-52623700D01*
X107149652Y-52623700D01*
X107284948Y-52623700D01*
X107414763Y-52585583D01*
X107528580Y-52512436D01*
X107617180Y-52410187D01*
X107673383Y-52287118D01*
X107692638Y-52153200D01*
X108666962Y-52153200D01*
X108686216Y-52287118D01*
X108742419Y-52410185D01*
X108742424Y-52410192D01*
X108819117Y-52498700D01*
X108831020Y-52512436D01*
X108944837Y-52585583D01*
X109009744Y-52604641D01*
X109074651Y-52623700D01*
X109074652Y-52623700D01*
X109209948Y-52623700D01*
X109339763Y-52585583D01*
X109453580Y-52512436D01*
X109542180Y-52410187D01*
X109598383Y-52287118D01*
X109617638Y-52153200D01*
X109603260Y-52053199D01*
X110666962Y-52053199D01*
X110686216Y-52187118D01*
X110742419Y-52310185D01*
X110742424Y-52310192D01*
X110829075Y-52410192D01*
X110831020Y-52412436D01*
X110944837Y-52485583D01*
X110989510Y-52498700D01*
X111074651Y-52523700D01*
X111074652Y-52523700D01*
X111209948Y-52523700D01*
X111339763Y-52485583D01*
X111453580Y-52412436D01*
X111542180Y-52310187D01*
X111598383Y-52187118D01*
X111617638Y-52053200D01*
X111614043Y-52028199D01*
X113066962Y-52028199D01*
X113086216Y-52162118D01*
X113142419Y-52285185D01*
X113142424Y-52285192D01*
X113164082Y-52310187D01*
X113231020Y-52387436D01*
X113344837Y-52460583D01*
X113409744Y-52479641D01*
X113474651Y-52498700D01*
X113474652Y-52498700D01*
X113609948Y-52498700D01*
X113739763Y-52460583D01*
X113853580Y-52387436D01*
X113942180Y-52285187D01*
X113998383Y-52162118D01*
X114017638Y-52028200D01*
X128191962Y-52028200D01*
X128211216Y-52162118D01*
X128267419Y-52285185D01*
X128267424Y-52285192D01*
X128289082Y-52310187D01*
X128356020Y-52387436D01*
X128469837Y-52460583D01*
X128534744Y-52479641D01*
X128599651Y-52498700D01*
X128599652Y-52498700D01*
X128734948Y-52498700D01*
X128864763Y-52460583D01*
X128978580Y-52387436D01*
X129067180Y-52285187D01*
X129123383Y-52162118D01*
X129142638Y-52028200D01*
X129142638Y-52028199D01*
X130616962Y-52028199D01*
X130636216Y-52162118D01*
X130692419Y-52285185D01*
X130692424Y-52285192D01*
X130714082Y-52310187D01*
X130781020Y-52387436D01*
X130894837Y-52460583D01*
X130959744Y-52479641D01*
X131024651Y-52498700D01*
X131024652Y-52498700D01*
X131159948Y-52498700D01*
X131289763Y-52460583D01*
X131403580Y-52387436D01*
X131492180Y-52285187D01*
X131548383Y-52162118D01*
X131567638Y-52028200D01*
X131548383Y-51894282D01*
X131492180Y-51771213D01*
X131448511Y-51720817D01*
X131403582Y-51668966D01*
X131403581Y-51668965D01*
X131403580Y-51668964D01*
X131289763Y-51595817D01*
X131289762Y-51595816D01*
X131289761Y-51595816D01*
X131159949Y-51557700D01*
X131159948Y-51557700D01*
X131024652Y-51557700D01*
X131024651Y-51557700D01*
X130894838Y-51595816D01*
X130781021Y-51668963D01*
X130781017Y-51668966D01*
X130692424Y-51771207D01*
X130692419Y-51771214D01*
X130636216Y-51894281D01*
X130616962Y-52028199D01*
X129142638Y-52028199D01*
X129123383Y-51894282D01*
X129067180Y-51771213D01*
X129023511Y-51720817D01*
X128978582Y-51668966D01*
X128978581Y-51668965D01*
X128978580Y-51668964D01*
X128864763Y-51595817D01*
X128864762Y-51595816D01*
X128864761Y-51595816D01*
X128734949Y-51557700D01*
X128734948Y-51557700D01*
X128599652Y-51557700D01*
X128599651Y-51557700D01*
X128469838Y-51595816D01*
X128356021Y-51668963D01*
X128356017Y-51668966D01*
X128267424Y-51771207D01*
X128267419Y-51771214D01*
X128211216Y-51894281D01*
X128191962Y-52028200D01*
X114017638Y-52028200D01*
X113998383Y-51894282D01*
X113942180Y-51771213D01*
X113898511Y-51720817D01*
X113853582Y-51668966D01*
X113853581Y-51668965D01*
X113853580Y-51668964D01*
X113739763Y-51595817D01*
X113739762Y-51595816D01*
X113739761Y-51595816D01*
X113609949Y-51557700D01*
X113609948Y-51557700D01*
X113474652Y-51557700D01*
X113474651Y-51557700D01*
X113344838Y-51595816D01*
X113231021Y-51668963D01*
X113231017Y-51668966D01*
X113142424Y-51771207D01*
X113142419Y-51771214D01*
X113086216Y-51894281D01*
X113066962Y-52028199D01*
X111614043Y-52028199D01*
X111598383Y-51919282D01*
X111587848Y-51896214D01*
X111542180Y-51796214D01*
X111542180Y-51796213D01*
X111540231Y-51793964D01*
X111453582Y-51693966D01*
X111453581Y-51693965D01*
X111453580Y-51693964D01*
X111339763Y-51620817D01*
X111339762Y-51620816D01*
X111339761Y-51620816D01*
X111209949Y-51582700D01*
X111209948Y-51582700D01*
X111074652Y-51582700D01*
X111074651Y-51582700D01*
X110944838Y-51620816D01*
X110831021Y-51693963D01*
X110831017Y-51693966D01*
X110742424Y-51796207D01*
X110742419Y-51796214D01*
X110686216Y-51919281D01*
X110666962Y-52053199D01*
X109603260Y-52053199D01*
X109598383Y-52019282D01*
X109542180Y-51896213D01*
X109453580Y-51793964D01*
X109339763Y-51720817D01*
X109339762Y-51720816D01*
X109339761Y-51720816D01*
X109209949Y-51682700D01*
X109209948Y-51682700D01*
X109074652Y-51682700D01*
X109074651Y-51682700D01*
X108944838Y-51720816D01*
X108831021Y-51793963D01*
X108831017Y-51793966D01*
X108742424Y-51896207D01*
X108742419Y-51896214D01*
X108686216Y-52019281D01*
X108666962Y-52153200D01*
X107692638Y-52153200D01*
X107673383Y-52019282D01*
X107617180Y-51896213D01*
X107528580Y-51793964D01*
X107414763Y-51720817D01*
X107414762Y-51720816D01*
X107414761Y-51720816D01*
X107284949Y-51682700D01*
X107284948Y-51682700D01*
X107149652Y-51682700D01*
X107149651Y-51682700D01*
X107019838Y-51720816D01*
X106906021Y-51793963D01*
X106906017Y-51793966D01*
X106817424Y-51896207D01*
X106817419Y-51896214D01*
X106761216Y-52019281D01*
X106741962Y-52153200D01*
X104417800Y-52153200D01*
X104417800Y-50688751D01*
X104437485Y-50621713D01*
X104490289Y-50575958D01*
X104525694Y-50565802D01*
X104550636Y-50562535D01*
X104613624Y-50554285D01*
X104621715Y-50553759D01*
X110751650Y-50558169D01*
G37*
%TD.AperFunction*%
%TD*%
M02*
